<?xml version="1.0" encoding="utf-8"?>
<!-- Generator: Adobe Illustrator 16.0.0, SVG Export Plug-In . SVG Version: 6.00 Build 0)  -->
<!DOCTYPE svg PUBLIC "-//W3C//DTD SVG 1.1//EN" "http://www.w3.org/Graphics/SVG/1.1/DTD/svg11.dtd">
<svg version="1.1" id="Layer_1" xmlns="http://www.w3.org/2000/svg" xmlns:xlink="http://www.w3.org/1999/xlink" x="0px" y="0px"
	 width="130px" height="130px" viewBox="0 0 130 130" enable-background="new 0 0 130 130" xml:space="preserve">
<path fill="#BD6192" d="M20.184,47.22c0-1.747-1.416-3.163-3.163-3.163h-0.526c-1.747,0-3.163,1.416-3.163,3.163v28.46
	c0,1.746,1.416,3.162,3.163,3.162h0.526c1.747,0,3.163-1.416,3.163-3.162v-2.107l27.797,7.494L44.85,91.973
	c-0.183,0.635,0.184,1.299,0.819,1.48l24.728,7.102c0.635,0.182,1.297-0.187,1.479-0.822l3.257-11.344L114,98.87V22.448
	L20.184,47.22z M68.842,95.128c-0.092,0.317-0.423,0.501-0.74,0.41L49.7,90.254c-0.317-0.092-0.501-0.423-0.41-0.74l2.157-7.511
	l19.643,5.296L68.842,95.128z"/>
</svg>
