<?xml version="1.0" encoding="utf-8"?>
<!-- Generator: Adobe Illustrator 16.0.0, SVG Export Plug-In . SVG Version: 6.00 Build 0)  -->
<!DOCTYPE svg PUBLIC "-//W3C//DTD SVG 1.1//EN" "http://www.w3.org/Graphics/SVG/1.1/DTD/svg11.dtd">
<svg version="1.1" id="Layer_1" xmlns="http://www.w3.org/2000/svg" xmlns:xlink="http://www.w3.org/1999/xlink" x="0px" y="0px"
	 width="72.25px" height="57.289px" viewBox="-8 0 72.25 57.289" enable-background="new -8 0 72.25 57.289" xml:space="preserve">
<g>
	<g>
		<path fill="#BFBFBF" d="M0,0v15.833h57V0H0z M55.417,14.25H1.583V1.583h53.833L55.417,14.25L55.417,14.25z"/>
		<path fill="#BFBFBF" d="M44.333,4.75H4.75v6.333h39.583V4.75z M42.75,9.5H6.333V6.333H42.75V9.5z"/>
		<path fill="#BFBFBF" d="M0,36.561h57V20.727H0V36.561z M1.583,22.311h53.833v12.667H1.583V22.311z"/>
		<path fill="#BFBFBF" d="M4.75,31.811h39.583v-6.333H4.75V31.811z M6.333,27.06H42.75v3.167H6.333V27.06z"/>
		<path fill="#BFBFBF" d="M0,57.289h57V41.455H0V57.289z M1.583,43.039h53.833v12.666H1.583V43.039z"/>
		<path fill="#BFBFBF" d="M4.75,52.539h39.583v-6.334H4.75V52.539z M6.333,47.789H42.75v3.166H6.333V47.789z"/>
	</g>
	<g>
		<rect x="49.875" y="4.75" fill="#E18F40" width="3.167" height="6.333"/>
		<rect x="49.875" y="25.477" fill="#E18F40" width="3.167" height="6.333"/>
		<rect x="49.875" y="46.205" fill="#E18F40" width="3.167" height="6.332"/>
	</g>
</g>
</svg>
