<?xml version="1.0" encoding="UTF-8"?>
<svg width="1883px" height="767px" viewBox="0 0 1883 767" version="1.1" xmlns="http://www.w3.org/2000/svg" xmlns:xlink="http://www.w3.org/1999/xlink">
    <!-- Generator: Sketch 41.1 (35376) - http://www.bohemiancoding.com/sketch -->
    <title>app_store_best_of_2016</title>
    <desc>Created with Sketch.</desc>
    <defs></defs>
    <g id="Page-1" stroke="none" stroke-width="1" fill="none" fill-rule="evenodd">
        <g id="app_store_best_of_2016">
            <g id="Page-1">
                <g id="v">
                    <g id="app_store_best_of_2016">
                        <g id="BEST-OF-2016" transform="translate(539.000000, 67.000000)" font-size="200" fill="#333333">
                            <text id="BEST-OF" font-family="AvenirNext-Regular, Avenir Next" font-weight="normal">
                                <tspan x="0" y="200">BEST OF</tspan>
                            </text>
                            <text id="2016" font-family="AvenirNext-Bold, Avenir Next" font-weight="bold">
                                <tspan x="115.4" y="415.199585">2016</tspan>
                            </text>
                        </g>
                        <g id="Group" transform="translate(560.000000, 637.000000)" fill="#333333">
                            <g id="APP-STORE" transform="translate(111.000000, 0.000000)" font-size="120" font-family="Palatino-Roman, Palatino" font-weight="normal">
                                <text>
                                    <tspan x="0" y="125">APP STORE</tspan>
                                </text>
                            </g>
                            <path d="M81.6460147,108.154873 C80.1487637,111.613828 78.3765073,114.797778 76.3231345,117.725057 C73.5241918,121.715689 71.2324811,124.477964 69.466336,126.011883 C66.7285056,128.529709 63.7951158,129.819178 60.6539443,129.892513 C58.3989009,129.892513 55.6794042,129.250834 52.5137877,127.949142 C49.3377822,126.653562 46.4190594,126.011883 43.7502859,126.011883 C40.9513431,126.011883 37.9495076,126.653562 34.7386681,127.949142 C31.5229396,129.250834 28.9323898,129.92918 26.9517406,129.996404 C23.939516,130.12474 20.9370693,128.798603 17.9401228,126.011883 C16.0273082,124.343517 13.6347622,121.483462 10.768596,117.431718 C7.69342574,113.104968 5.16521045,108.087649 3.18456125,102.367539 C1.06335378,96.1890871 0,90.2061942 0,84.4139717 C0,77.7790108 1.43369424,72.0564563 4.30536058,67.2609752 C6.56223732,63.4090677 9.56468395,60.3705649 13.3224784,58.1399664 C17.0802729,55.9093679 21.1405732,54.7726794 25.5131573,54.6999558 C27.9057034,54.6999558 31.0432081,55.4400256 34.942172,56.894498 C38.8301357,58.3538594 41.3265726,59.0939292 42.4210936,59.0939292 C43.2393871,59.0939292 46.0126627,58.2285792 50.7140309,56.5033794 C55.1599497,54.9034597 58.9122441,54.2410025 61.9861921,54.501952 C70.3157968,55.1741871 76.5736949,58.4577503 80.7354416,64.3734196 C73.2858539,68.8871731 69.600783,75.2092391 69.6741178,83.3194507 C69.7413413,89.6366277 72.033052,94.8935066 76.5370275,99.0674758 C78.5781779,101.004735 80.8576662,102.501986 83.3938261,103.56534 C82.8438155,105.160371 82.2632488,106.688178 81.6460147,108.154873 L81.6460147,108.154873 Z M62.5423139,32.9806492 C62.5423139,37.9320278 60.7333903,42.5551111 57.1277654,46.8341934 C52.7765706,51.9211801 47.5135805,54.8606811 41.806304,54.3968389 C41.7335804,53.8028274 41.6914129,53.1776487 41.6914129,52.5206917 C41.6914129,47.767378 43.7606749,42.6803913 47.4353567,38.5210891 C49.2699476,36.4151597 51.6032147,34.6641094 54.4327135,33.2672658 C57.2561012,31.8912616 59.9267081,31.1302914 62.438423,31 C62.5117578,31.6619072 62.5423139,32.3238755 62.5423139,32.9805881 L62.5423139,32.9806492 Z" id="Shape"></path>
                        </g>
                        <g id="Page-1" fill="#B4B4B4">
                            <path d="M115.251463,543.378784 C130.439114,562.660661 145.545423,582.006174 160.678309,601.330744 C161.242067,602.050884 161.703544,602.849966 162.890658,604.626957 C155.961262,605.087718 149.747839,606.068848 143.585154,605.814302 C116.560188,604.695426 94.9851544,593.160294 79.1636779,571.092908 C64.9062282,551.208498 54.6281074,529.350549 46.9787114,506.189258 C46.7016644,505.350706 46.578443,504.461405 46.2111946,502.833437 C73.5454228,510.098476 97.7153557,521.116461 115.251463,543.378784 Z" id="Fill-5"></path>
                            <path d="M280.215785,706.598014 C304.603973,716.240161 328.612027,726.840884 352.782765,737.033204 C353.269208,737.237808 353.699275,737.576935 354.476456,738.046556 C346.45498,745.1956 337.42196,750.253498 327.454711,753.579515 C306.233235,760.660089 285.514309,759.147311 265.354309,749.502748 C243.399141,738.998688 223.886658,724.957564 206.016322,708.537721 C205.342228,707.918271 204.786523,707.171549 203.638872,705.879485 C229.798872,699.327336 255.228403,696.717432 280.215785,706.598014 Z" id="Fill-7"></path>
                            <path d="M74.8651007,500.313671 C52.4492617,492.185913 36.0841611,477.399677 26.6178523,455.376596 C16.844698,432.639012 12.0656376,408.706028 10.0948993,384.139901 C10.0103356,383.084661 10.0844295,382.017339 10.0844295,380.678555 C10.6973154,380.75508 11.2304698,380.682583 11.6081879,380.890409 C30.1292617,391.090785 47.0420134,403.40325 58.8463087,421.22793 C64.866443,430.320708 69.5311409,440.389784 74.1080537,450.339641 C81.8798658,467.233939 89.0983893,484.381172 96.5416107,501.426102 C96.9612081,502.387901 97.3042953,503.384336 97.8197315,504.716676 C89.6500671,504.750508 82.1416107,502.952574 74.8651007,500.313671 Z" id="Fill-9"></path>
                            <path d="M219.299356,690.763306 C195.226872,692.37033 174.619893,684.25385 156.706872,668.429291 C140.411839,654.032124 126.484591,637.621142 114.453181,619.556415 C113.812107,618.593811 113.341772,617.517629 112.551705,616.048349 C125.523785,615.637531 137.832242,616.93765 150.012644,619.561248 C164.733181,622.732604 178.303651,628.482449 190.429289,637.558311 C210.169691,652.334881 229.987409,667.010759 250.497745,682.269034 C239.865262,687.544424 229.807812,690.061692 219.299356,690.763306 Z" id="Fill-11"></path>
                            <path d="M47.0234899,324.112342 C51.4457718,347.383989 55.5652349,370.713634 59.804698,394.020725 C59.8465772,394.252716 59.693557,394.520151 59.5405369,395.137989 C49.0103356,391.955356 39.6954362,386.664661 31.2889933,379.737942 C13.1681879,364.809128 3.68899329,345.405617 1.20442953,322.196801 C-0.967651007,301.91285 -0.0865771812,281.774699 2.92711409,261.669575 C3.16389262,260.094771 3.55932886,258.543328 4.06187919,256.100168 C24.7880537,275.392516 41.7056376,296.125145 47.0234899,324.112342 Z" id="Fill-17"></path>
                            <path d="M174.348161,521.039856 C184.912993,543.210349 183.668698,565.37037 175.635946,587.763189 C174.513262,590.893463 173.082926,593.914185 171.709772,597.188649 C171.021987,596.725471 170.517826,596.508785 170.180376,596.139854 C152.565342,576.898253 137.985745,555.755611 128.947087,531.050933 C120.674336,508.44304 129.326416,483.52087 143.480779,467.930719 C154.726148,485.103728 165.501181,502.474897 174.348161,521.039856 Z" id="Fill-25"></path>
                            <path d="M334.828913,668.414227 C347.668107,680.249821 353.628644,695.819029 357.114282,712.473279 C358.142738,717.391016 358.547839,722.439248 359.322604,728.03282 C342.986497,722.837177 328.138711,716.442106 314.309718,707.957501 C306.344617,703.07118 298.654148,697.617768 291.379248,691.751122 C277.262738,680.364206 270.765826,665.031018 270.283409,647.124174 C270.116698,640.927262 270.75455,634.710213 271.05898,627.719052 C294.060322,640.101598 316.326362,651.356408 334.828913,668.414227 Z" id="Fill-27"></path>
                            <path d="M82.7485369,116.371366 C76.7219597,136.443464 71.0247785,156.613836 65.1810201,176.740709 L63.8046443,177.066947 C62.3469262,175.369704 60.8747114,173.683738 59.4331007,171.972801 C44.6674631,154.455026 36.2972617,134.494896 38.5635705,111.363411 C39.4357852,102.461542 42.3149799,93.5556465 45.5227651,85.1250111 C51.9955168,68.1147177 61.7590067,52.9096083 73.6712215,38.0154319 C83.7753826,64.0347284 90.8859866,89.2638038 82.7485369,116.371366 Z" id="Fill-33"></path>
                            <path d="M230.75396,655.113543 C219.265369,645.768635 208.975168,635.200939 200.584832,622.924722 C186.51906,602.343532 188.313423,581.098588 198.137315,559.571711 C198.232349,559.362274 198.548859,559.255139 198.923356,558.982065 C215.636376,573.823077 232.322819,588.702754 245.726577,606.851256 C254.403624,618.599047 258.411141,631.911171 258.817047,646.25034 C259.073154,655.285925 258.21302,664.352121 257.85302,673.405428 C257.203893,673.692195 256.554765,673.978962 255.905638,674.26573 C247.507248,667.899657 238.92443,661.760743 230.75396,655.113543 Z" id="Fill-37"></path>
                            <path d="M113.19447,370.238616 C113.429638,371.196386 119.234738,385.54361 121.439034,394.602556 C124.133799,405.676928 126.812456,416.251068 129.366282,426.855818 C135.929235,454.105153 126.811651,477.188307 110.277423,498.27134 C109.784537,498.899651 109.200644,499.460297 108.625611,500.018526 C108.450846,500.188492 108.165745,500.24649 107.701852,500.461566 C96.3131275,478.905689 87.5466846,456.522537 84.0658792,432.167457 C81.196349,412.092943 87.7754094,395.597381 101.56655,380.999638" id="Fill-39"></path>
                            <path d="M109.225611,329.755696 C109.504268,353.561407 98.0076242,371.692187 80.5770201,386.687054 C77.6527248,389.203518 74.4723221,391.421131 70.5606443,394.431382 C68.9676242,386.92549 67.3512483,380.246874 66.1576913,373.494149 C63.3461477,357.580982 62.5174228,341.588068 63.8229262,325.420355 C65.6994362,302.177707 78.8205101,287.465579 98.8049396,277.661522 C101.179973,276.496731 103.686282,275.600181 107.607624,273.963352 C108.193128,293.351558 109.012188,311.550002 109.225611,329.755696 Z" id="Fill-43"></path>
                            <path d="M107.985503,39.2635945 C122.26953,16.2754925 144.695034,5.84312476 171.17396,0.000644420829 C169.157315,8.15981764 167.500671,15.5191035 165.506577,22.7849484 C161.525638,37.2956944 156.419597,51.3972332 148.416644,64.2300684 C137.598121,81.5810993 121.838658,92.6200281 102.715973,99.1834542 C102.211812,99.3550312 101.68349,99.4782767 101.156779,99.5588293 C100.773423,99.6184383 100.373154,99.5709122 99.4783893,99.5709122 C94.7226846,78.3944383 96.3479195,57.9912693 107.985503,39.2635945 Z" id="Fill-47"></path>
                            <path d="M118.734846,206.527612 C116.641691,217.003478 114.261826,227.444707 111.466389,237.75544 C107.476591,252.47079 98.4210201,263.64988 85.9837047,272.24001 C78.129745,277.663616 69.738604,281.953848 60.0894765,285.036596 C60.0894765,279.302862 59.8865235,274.003306 60.1281342,268.723888 C60.8465235,253.018547 63.4164564,237.654749 67.9990067,222.554358 C74.2639732,201.911142 88.390953,190.173823 108.724107,185.063565 C112.862094,184.023631 117.116054,183.449291 122.263168,182.481854 C121.044644,190.992237 120.272295,198.83645 118.734846,206.527612 Z" id="Fill-51"></path>
                            <path d="M155.115221,107.158001 C149.576698,119.615461 144.300725,132.203416 138.343409,144.457884 C128.546899,164.606507 111.450523,175.04693 90.0599195,179.279163 C86.1321342,180.056496 82.1286443,180.462481 78.1517315,180.975601 C77.1216644,181.107708 76.0601879,180.994934 74.1297181,180.994934 C76.4556242,173.027476 78.4601879,165.461975 80.8787114,158.032609 C84.9152215,145.636369 90.5173691,133.984434 97.6545503,123.018809 C105.804081,110.496101 117.37804,103.680545 131.859383,101.401712 C140.088644,100.106426 148.332403,100.09676 157.035221,101.723922 C156.335356,103.728071 155.85294,105.499423 155.115221,107.158001 Z" id="Fill-53"></path>
                            <path d="M34.2378523,207.139651 C28.4069799,208.189251 27.0144966,211.387995 30.5653691,215.997215 C31.4641611,217.164422 32.3500671,218.350962 33.3414765,219.436811 C36.5927517,222.998042 40.4230872,222.190905 42.3889933,217.694458 C42.944698,216.424144 44.009396,215.376155 45.3930201,213.459808 C46.4738255,219.446478 44.7897987,222.666971 40.4118121,224.827391 C36.7812081,226.618076 33.8641611,225.886658 30.8657718,222.360065 C29.4773154,220.726458 28.1307383,219.053381 26.8365101,217.344055 C24.172349,213.827933 24.0467114,210.462446 26.3975839,207.419974 C29.3049664,203.660584 32.9951678,202.626288 38.3404027,204.841485 C36.5702013,205.863698 35.4789262,206.915715 34.2378523,207.139651 Z" id="Fill-57"></path>
                            <path d="M24.3115973,225.921376 C23.8525369,225.460616 24.6619329,223.733568 25.0315973,221.828499 C28.4133423,224.832305 31.2804564,227.231967 30.2238121,230.782726 C29.5569664,233.023699 27.0353557,234.749942 25.1717315,236.524516 C25.024349,236.664677 23.5150872,235.374224 22.0686443,234.340735 C26.3524027,231.74533 27.6997852,229.31828 24.3115973,225.921376 Z" id="Fill-59"></path>
                            <path d="M53.1620134,206.58271 C53.4197315,195.803161 50.2296644,185.441679 46.281745,175.403214 C41.3625503,162.895006 34.8398658,151.291403 26.5252349,139.566972 C24.5013423,144.485513 22.6111409,148.671832 21.0374497,152.974952 C13.6908725,173.062355 7.76416107,193.535605 8.46885906,215.163979 C9.42563758,244.54393 24.0245638,266.241579 47.8707383,282.3521 C48.1791946,282.55912 48.6020134,282.598591 50.2006711,283.108489 C51.2492617,257.178606 52.5563758,231.889116 53.1620134,206.58271 Z" id="Fill-61"></path>
                        </g>
                        <g id="Page-1" transform="translate(1703.000000, 379.000000) scale(-1, 1) translate(-1703.000000, -379.000000) translate(1523.000000, 0.000000)" fill="#B4B4B4">
                            <path d="M115.251463,543.378784 C130.439114,562.660661 145.545423,582.006174 160.678309,601.330744 C161.242067,602.050884 161.703544,602.849966 162.890658,604.626957 C155.961262,605.087718 149.747839,606.068848 143.585154,605.814302 C116.560188,604.695426 94.9851544,593.160294 79.1636779,571.092908 C64.9062282,551.208498 54.6281074,529.350549 46.9787114,506.189258 C46.7016644,505.350706 46.578443,504.461405 46.2111946,502.833437 C73.5454228,510.098476 97.7153557,521.116461 115.251463,543.378784 Z" id="Fill-5"></path>
                            <path d="M280.215785,706.598014 C304.603973,716.240161 328.612027,726.840884 352.782765,737.033204 C353.269208,737.237808 353.699275,737.576935 354.476456,738.046556 C346.45498,745.1956 337.42196,750.253498 327.454711,753.579515 C306.233235,760.660089 285.514309,759.147311 265.354309,749.502748 C243.399141,738.998688 223.886658,724.957564 206.016322,708.537721 C205.342228,707.918271 204.786523,707.171549 203.638872,705.879485 C229.798872,699.327336 255.228403,696.717432 280.215785,706.598014 Z" id="Fill-7"></path>
                            <path d="M74.8651007,500.313671 C52.4492617,492.185913 36.0841611,477.399677 26.6178523,455.376596 C16.844698,432.639012 12.0656376,408.706028 10.0948993,384.139901 C10.0103356,383.084661 10.0844295,382.017339 10.0844295,380.678555 C10.6973154,380.75508 11.2304698,380.682583 11.6081879,380.890409 C30.1292617,391.090785 47.0420134,403.40325 58.8463087,421.22793 C64.866443,430.320708 69.5311409,440.389784 74.1080537,450.339641 C81.8798658,467.233939 89.0983893,484.381172 96.5416107,501.426102 C96.9612081,502.387901 97.3042953,503.384336 97.8197315,504.716676 C89.6500671,504.750508 82.1416107,502.952574 74.8651007,500.313671 Z" id="Fill-9"></path>
                            <path d="M219.299356,690.763306 C195.226872,692.37033 174.619893,684.25385 156.706872,668.429291 C140.411839,654.032124 126.484591,637.621142 114.453181,619.556415 C113.812107,618.593811 113.341772,617.517629 112.551705,616.048349 C125.523785,615.637531 137.832242,616.93765 150.012644,619.561248 C164.733181,622.732604 178.303651,628.482449 190.429289,637.558311 C210.169691,652.334881 229.987409,667.010759 250.497745,682.269034 C239.865262,687.544424 229.807812,690.061692 219.299356,690.763306 Z" id="Fill-11"></path>
                            <path d="M47.0234899,324.112342 C51.4457718,347.383989 55.5652349,370.713634 59.804698,394.020725 C59.8465772,394.252716 59.693557,394.520151 59.5405369,395.137989 C49.0103356,391.955356 39.6954362,386.664661 31.2889933,379.737942 C13.1681879,364.809128 3.68899329,345.405617 1.20442953,322.196801 C-0.967651007,301.91285 -0.0865771812,281.774699 2.92711409,261.669575 C3.16389262,260.094771 3.55932886,258.543328 4.06187919,256.100168 C24.7880537,275.392516 41.7056376,296.125145 47.0234899,324.112342 Z" id="Fill-17"></path>
                            <path d="M174.348161,521.039856 C184.912993,543.210349 183.668698,565.37037 175.635946,587.763189 C174.513262,590.893463 173.082926,593.914185 171.709772,597.188649 C171.021987,596.725471 170.517826,596.508785 170.180376,596.139854 C152.565342,576.898253 137.985745,555.755611 128.947087,531.050933 C120.674336,508.44304 129.326416,483.52087 143.480779,467.930719 C154.726148,485.103728 165.501181,502.474897 174.348161,521.039856 Z" id="Fill-25"></path>
                            <path d="M334.828913,668.414227 C347.668107,680.249821 353.628644,695.819029 357.114282,712.473279 C358.142738,717.391016 358.547839,722.439248 359.322604,728.03282 C342.986497,722.837177 328.138711,716.442106 314.309718,707.957501 C306.344617,703.07118 298.654148,697.617768 291.379248,691.751122 C277.262738,680.364206 270.765826,665.031018 270.283409,647.124174 C270.116698,640.927262 270.75455,634.710213 271.05898,627.719052 C294.060322,640.101598 316.326362,651.356408 334.828913,668.414227 Z" id="Fill-27"></path>
                            <path d="M82.7485369,116.371366 C76.7219597,136.443464 71.0247785,156.613836 65.1810201,176.740709 L63.8046443,177.066947 C62.3469262,175.369704 60.8747114,173.683738 59.4331007,171.972801 C44.6674631,154.455026 36.2972617,134.494896 38.5635705,111.363411 C39.4357852,102.461542 42.3149799,93.5556465 45.5227651,85.1250111 C51.9955168,68.1147177 61.7590067,52.9096083 73.6712215,38.0154319 C83.7753826,64.0347284 90.8859866,89.2638038 82.7485369,116.371366 Z" id="Fill-33"></path>
                            <path d="M230.75396,655.113543 C219.265369,645.768635 208.975168,635.200939 200.584832,622.924722 C186.51906,602.343532 188.313423,581.098588 198.137315,559.571711 C198.232349,559.362274 198.548859,559.255139 198.923356,558.982065 C215.636376,573.823077 232.322819,588.702754 245.726577,606.851256 C254.403624,618.599047 258.411141,631.911171 258.817047,646.25034 C259.073154,655.285925 258.21302,664.352121 257.85302,673.405428 C257.203893,673.692195 256.554765,673.978962 255.905638,674.26573 C247.507248,667.899657 238.92443,661.760743 230.75396,655.113543 Z" id="Fill-37"></path>
                            <path d="M113.19447,370.238616 C113.429638,371.196386 119.234738,385.54361 121.439034,394.602556 C124.133799,405.676928 126.812456,416.251068 129.366282,426.855818 C135.929235,454.105153 126.811651,477.188307 110.277423,498.27134 C109.784537,498.899651 109.200644,499.460297 108.625611,500.018526 C108.450846,500.188492 108.165745,500.24649 107.701852,500.461566 C96.3131275,478.905689 87.5466846,456.522537 84.0658792,432.167457 C81.196349,412.092943 87.7754094,395.597381 101.56655,380.999638" id="Fill-39"></path>
                            <path d="M109.225611,329.755696 C109.504268,353.561407 98.0076242,371.692187 80.5770201,386.687054 C77.6527248,389.203518 74.4723221,391.421131 70.5606443,394.431382 C68.9676242,386.92549 67.3512483,380.246874 66.1576913,373.494149 C63.3461477,357.580982 62.5174228,341.588068 63.8229262,325.420355 C65.6994362,302.177707 78.8205101,287.465579 98.8049396,277.661522 C101.179973,276.496731 103.686282,275.600181 107.607624,273.963352 C108.193128,293.351558 109.012188,311.550002 109.225611,329.755696 Z" id="Fill-43"></path>
                            <path d="M107.985503,39.2635945 C122.26953,16.2754925 144.695034,5.84312476 171.17396,0.000644420829 C169.157315,8.15981764 167.500671,15.5191035 165.506577,22.7849484 C161.525638,37.2956944 156.419597,51.3972332 148.416644,64.2300684 C137.598121,81.5810993 121.838658,92.6200281 102.715973,99.1834542 C102.211812,99.3550312 101.68349,99.4782767 101.156779,99.5588293 C100.773423,99.6184383 100.373154,99.5709122 99.4783893,99.5709122 C94.7226846,78.3944383 96.3479195,57.9912693 107.985503,39.2635945 Z" id="Fill-47"></path>
                            <path d="M118.734846,206.527612 C116.641691,217.003478 114.261826,227.444707 111.466389,237.75544 C107.476591,252.47079 98.4210201,263.64988 85.9837047,272.24001 C78.129745,277.663616 69.738604,281.953848 60.0894765,285.036596 C60.0894765,279.302862 59.8865235,274.003306 60.1281342,268.723888 C60.8465235,253.018547 63.4164564,237.654749 67.9990067,222.554358 C74.2639732,201.911142 88.390953,190.173823 108.724107,185.063565 C112.862094,184.023631 117.116054,183.449291 122.263168,182.481854 C121.044644,190.992237 120.272295,198.83645 118.734846,206.527612 Z" id="Fill-51"></path>
                            <path d="M155.115221,107.158001 C149.576698,119.615461 144.300725,132.203416 138.343409,144.457884 C128.546899,164.606507 111.450523,175.04693 90.0599195,179.279163 C86.1321342,180.056496 82.1286443,180.462481 78.1517315,180.975601 C77.1216644,181.107708 76.0601879,180.994934 74.1297181,180.994934 C76.4556242,173.027476 78.4601879,165.461975 80.8787114,158.032609 C84.9152215,145.636369 90.5173691,133.984434 97.6545503,123.018809 C105.804081,110.496101 117.37804,103.680545 131.859383,101.401712 C140.088644,100.106426 148.332403,100.09676 157.035221,101.723922 C156.335356,103.728071 155.85294,105.499423 155.115221,107.158001 Z" id="Fill-53"></path>
                            <path d="M34.2378523,207.139651 C28.4069799,208.189251 27.0144966,211.387995 30.5653691,215.997215 C31.4641611,217.164422 32.3500671,218.350962 33.3414765,219.436811 C36.5927517,222.998042 40.4230872,222.190905 42.3889933,217.694458 C42.944698,216.424144 44.009396,215.376155 45.3930201,213.459808 C46.4738255,219.446478 44.7897987,222.666971 40.4118121,224.827391 C36.7812081,226.618076 33.8641611,225.886658 30.8657718,222.360065 C29.4773154,220.726458 28.1307383,219.053381 26.8365101,217.344055 C24.172349,213.827933 24.0467114,210.462446 26.3975839,207.419974 C29.3049664,203.660584 32.9951678,202.626288 38.3404027,204.841485 C36.5702013,205.863698 35.4789262,206.915715 34.2378523,207.139651 Z" id="Fill-57"></path>
                            <path d="M24.3115973,225.921376 C23.8525369,225.460616 24.6619329,223.733568 25.0315973,221.828499 C28.4133423,224.832305 31.2804564,227.231967 30.2238121,230.782726 C29.5569664,233.023699 27.0353557,234.749942 25.1717315,236.524516 C25.024349,236.664677 23.5150872,235.374224 22.0686443,234.340735 C26.3524027,231.74533 27.6997852,229.31828 24.3115973,225.921376 Z" id="Fill-59"></path>
                            <path d="M53.1620134,206.58271 C53.4197315,195.803161 50.2296644,185.441679 46.281745,175.403214 C41.3625503,162.895006 34.8398658,151.291403 26.5252349,139.566972 C24.5013423,144.485513 22.6111409,148.671832 21.0374497,152.974952 C13.6908725,173.062355 7.76416107,193.535605 8.46885906,215.163979 C9.42563758,244.54393 24.0245638,266.241579 47.8707383,282.3521 C48.1791946,282.55912 48.6020134,282.598591 50.2006711,283.108489 C51.2492617,257.178606 52.5563758,231.889116 53.1620134,206.58271 Z" id="Fill-61"></path>
                        </g>
                    </g>
                </g>
            </g>
        </g>
    </g>
</svg>