<?xml version="1.0" encoding="UTF-8"?>
<svg width="1883px" height="767px" viewBox="0 0 1883 767" version="1.1" xmlns="http://www.w3.org/2000/svg" xmlns:xlink="http://www.w3.org/1999/xlink">
    <!-- Generator: Sketch 42 (36781) - http://www.bohemiancoding.com/sketch -->
    <title>Group</title>
    <desc>Created with Sketch.</desc>
    <defs></defs>
    <g id="Page-1" stroke="none" stroke-width="1" fill="none" fill-rule="evenodd">
        <g id="Group">
            <path d="M557.8,125.4 L600,125.4 C605.33336,125.4 610.733306,125.966661 616.2,127.1 C621.666694,128.233339 626.566645,130.166653 630.9,132.9 C635.233355,135.633347 638.766653,139.33331 641.5,144 C644.233347,148.66669 645.6,154.533298 645.6,161.6 C645.6,169.066704 643.333356,175.566639 638.8,181.1 C634.266644,186.633361 628.200038,190.266658 620.6,192 L620.6,192.4 C629.800046,193.466672 637.433303,197.033303 643.5,203.1 C649.566697,209.166697 652.6,217.399948 652.6,227.8 C652.6,233.666696 651.366679,239.033309 648.9,243.9 C646.433321,248.766691 642.933356,252.899983 638.4,256.3 C633.866644,259.700017 628.333366,262.333324 621.8,264.2 C615.266634,266.066676 607.933374,267 599.8,267 L557.8,267 L557.8,125.4 Z M572.2,187.4 L601.2,187.4 C604.666684,187.4 608.166649,187.000004 611.7,186.2 C615.233351,185.399996 618.466652,184.033343 621.4,182.1 C624.333348,180.166657 626.699991,177.600016 628.5,174.4 C630.300009,171.199984 631.2,167.26669 631.2,162.6 C631.2,158.066644 630.300009,154.233349 628.5,151.1 C626.699991,147.966651 624.266682,145.40001 621.2,143.4 C618.133318,141.39999 614.533354,139.966671 610.4,139.1 C606.266646,138.233329 601.86669,137.8 597.2,137.8 L572.2,137.8 L572.2,187.4 Z M572.2,254.6 L599,254.6 C604.200026,254.6 609.166643,254.100005 613.9,253.1 C618.633357,252.099995 622.766649,250.500011 626.3,248.3 C629.833351,246.099989 632.666656,243.233351 634.8,239.7 C636.933344,236.166649 638,231.933358 638,227 C638,217.66662 634.833365,210.700023 628.5,206.1 C622.166635,201.499977 613.200058,199.2 601.6,199.2 L572.2,199.2 L572.2,254.6 Z M699.4,254.2 L775.2,254.2 L775.2,267 L685,267 L685,125.4 L772.8,125.4 L772.8,138.2 L699.4,138.2 L699.4,187 L768,187 L768,199.6 L699.4,199.6 L699.4,254.2 Z M872,148.2 C868.933318,143.933312 865.000024,140.500013 860.2,137.9 C855.399976,135.299987 849.600034,134 842.8,134 C839.333316,134 835.800018,134.533328 832.2,135.6 C828.599982,136.666672 825.333348,138.299989 822.4,140.5 C819.466652,142.700011 817.100009,145.46665 815.3,148.8 C813.499991,152.13335 812.6,156.066644 812.6,160.6 C812.6,165.133356 813.466658,168.866652 815.2,171.8 C816.933342,174.733348 819.233319,177.233323 822.1,179.3 C824.966681,181.366677 828.233315,183.06666 831.9,184.4 C835.566685,185.73334 839.39998,187.06666 843.4,188.4 C848.333358,190.000008 853.299975,191.733324 858.3,193.6 C863.300025,195.466676 867.79998,197.899985 871.8,200.9 C875.80002,203.900015 879.066654,207.699977 881.6,212.3 C884.133346,216.900023 885.4,222.733298 885.4,229.8 C885.4,236.866702 884.033347,242.966641 881.3,248.1 C878.566653,253.233359 875.033355,257.46665 870.7,260.8 C866.366645,264.13335 861.433361,266.599992 855.9,268.2 C850.366639,269.800008 844.800028,270.6 839.2,270.6 C834.933312,270.6 830.666688,270.166671 826.4,269.3 C822.133312,268.433329 818.066686,267.133342 814.2,265.4 C810.333314,263.666658 806.73335,261.46668 803.4,258.8 C800.06665,256.13332 797.133346,253.066684 794.6,249.6 L807,240.4 C810.066682,245.466692 814.366639,249.699983 819.9,253.1 C825.433361,256.500017 831.933296,258.2 839.4,258.2 C843.000018,258.2 846.666648,257.633339 850.4,256.5 C854.133352,255.366661 857.499985,253.633345 860.5,251.3 C863.500015,248.966655 865.966657,246.100017 867.9,242.7 C869.833343,239.299983 870.8,235.333356 870.8,230.8 C870.8,225.866642 869.833343,221.766683 867.9,218.5 C865.966657,215.233317 863.400016,212.500011 860.2,210.3 C856.999984,208.099989 853.333354,206.266674 849.2,204.8 C845.066646,203.333326 840.733356,201.866674 836.2,200.4 C831.53331,198.933326 826.933356,197.266676 822.4,195.4 C817.866644,193.533324 813.800018,191.100015 810.2,188.1 C806.599982,185.099985 803.700011,181.400022 801.5,177 C799.299989,172.599978 798.2,167.200032 798.2,160.8 C798.2,153.999966 799.566653,148.133358 802.3,143.2 C805.033347,138.266642 808.599978,134.200016 813,131 C817.400022,127.799984 822.26664,125.466674 827.6,124 C832.93336,122.533326 838.199974,121.8 843.4,121.8 C853.000048,121.8 861.199966,123.499983 868,126.9 C874.800034,130.300017 879.933316,134.33331 883.4,139 L872,148.2 Z M958,267 L943.6,267 L943.6,138.2 L896.2,138.2 L896.2,125.4 L1005.4,125.4 L1005.4,138.2 L958,138.2 L958,267 Z M1211.8,196.2 C1211.8,207.000054 1209.93335,216.933288 1206.2,226 C1202.46665,235.066712 1197.30003,242.899967 1190.7,249.5 C1184.09997,256.100033 1176.30004,261.266648 1167.3,265 C1158.29995,268.733352 1148.53339,270.6 1138,270.6 C1127.46661,270.6 1117.70005,268.733352 1108.7,265 C1099.69996,261.266648 1091.90003,256.100033 1085.3,249.5 C1078.69997,242.899967 1073.53335,235.066712 1069.8,226 C1066.06665,216.933288 1064.2,207.000054 1064.2,196.2 C1064.2,185.399946 1066.06665,175.466712 1069.8,166.4 C1073.53335,157.333288 1078.69997,149.500033 1085.3,142.9 C1091.90003,136.299967 1099.69996,131.133352 1108.7,127.4 C1117.70005,123.666648 1127.46661,121.8 1138,121.8 C1148.53339,121.8 1158.29995,123.666648 1167.3,127.4 C1176.30004,131.133352 1184.09997,136.299967 1190.7,142.9 C1197.30003,149.500033 1202.46665,157.333288 1206.2,166.4 C1209.93335,175.466712 1211.8,185.399946 1211.8,196.2 Z M1196.6,196.2 C1196.6,187.933292 1195.26668,180.066704 1192.6,172.6 C1189.93332,165.133296 1186.06669,158.566695 1181,152.9 C1175.93331,147.233305 1169.7667,142.73335 1162.5,139.4 C1155.2333,136.06665 1147.06671,134.4 1138,134.4 C1128.93329,134.4 1120.7667,136.06665 1113.5,139.4 C1106.2333,142.73335 1100.06669,147.233305 1095,152.9 C1089.93331,158.566695 1086.06668,165.133296 1083.4,172.6 C1080.73332,180.066704 1079.4,187.933292 1079.4,196.2 C1079.4,204.466708 1080.73332,212.333296 1083.4,219.8 C1086.06668,227.266704 1089.93331,233.799972 1095,239.4 C1100.06669,245.000028 1106.2333,249.46665 1113.5,252.8 C1120.7667,256.13335 1128.93329,257.8 1138,257.8 C1147.06671,257.8 1155.2333,256.13335 1162.5,252.8 C1169.7667,249.46665 1175.93331,245.000028 1181,239.4 C1186.06669,233.799972 1189.93332,227.266704 1192.6,219.8 C1195.26668,212.333296 1196.6,204.466708 1196.6,196.2 Z M1256.2,267 L1241.8,267 L1241.8,125.4 L1327.2,125.4 L1327.2,138.2 L1256.2,138.2 L1256.2,187.4 L1322.2,187.4 L1322.2,200 L1256.2,200 L1256.2,267 Z" id="BEST-OF" fill="#000000"></path>
            <path d="M668,482.199585 L668,454.199585 L723.2,404.199585 C726.666684,400.866235 729.466656,397.466269 731.6,393.999585 C733.733344,390.532901 734.8,386.666273 734.8,382.399585 C734.8,377.332893 733.200016,373.232934 730,370.099585 C726.799984,366.966236 722.53336,365.399585 717.2,365.399585 C711.599972,365.399585 707.033351,367.366232 703.5,371.299585 C699.966649,375.232938 697.86667,380.399553 697.2,386.799585 L665,382.399585 C665.800004,375.199549 667.766651,368.799613 670.9,363.199585 C674.033349,357.599557 677.999976,352.832938 682.8,348.899585 C687.600024,344.966232 693.099969,341.966262 699.3,339.899585 C705.500031,337.832908 712.066632,336.799585 719,336.799585 C725.533366,336.799585 731.866636,337.666243 738,339.399585 C744.133364,341.132927 749.599976,343.799567 754.4,347.399585 C759.200024,350.999603 763.033319,355.532891 765.9,360.999585 C768.766681,366.466279 770.2,372.866215 770.2,380.199585 C770.2,385.266277 769.53334,389.832898 768.2,393.899585 C766.86666,397.966272 765.033345,401.732901 762.7,405.199585 C760.366655,408.666269 757.700015,411.89957 754.7,414.899585 C751.699985,417.8996 748.600016,420.866237 745.4,423.799585 L712.6,452.999585 L770.4,452.999585 L770.4,482.199585 L668,482.199585 Z M903.6,410.999585 C903.6,420.999635 902.60001,430.532873 900.6,439.599585 C898.59999,448.666297 895.400022,456.632884 891,463.499585 C886.599978,470.366286 880.900035,475.832898 873.9,479.899585 C866.899965,483.966272 858.40005,485.999585 848.4,485.999585 C838.39995,485.999585 829.866702,483.966272 822.8,479.899585 C815.733298,475.832898 809.966689,470.366286 805.5,463.499585 C801.033311,456.632884 797.80001,448.666297 795.8,439.599585 C793.79999,430.532873 792.8,420.999635 792.8,410.999585 C792.8,400.999535 793.79999,391.49963 795.8,382.499585 C797.80001,373.49954 801.033311,365.632952 805.5,358.899585 C809.966689,352.166218 815.733298,346.799605 822.8,342.799585 C829.866702,338.799565 838.39995,336.799585 848.4,336.799585 C858.40005,336.799585 866.899965,338.799565 873.9,342.799585 C880.900035,346.799605 886.599978,352.166218 891,358.899585 C895.400022,365.632952 898.59999,373.49954 900.6,382.499585 C902.60001,391.49963 903.6,400.999535 903.6,410.999585 Z M869.2,410.999585 C869.2,406.599563 868.933336,401.732945 868.4,396.399585 C867.866664,391.066225 866.866674,386.099608 865.4,381.499585 C863.933326,376.899562 861.833347,373.032934 859.1,369.899585 C856.366653,366.766236 852.800022,365.199585 848.4,365.199585 C843.999978,365.199585 840.400014,366.766236 837.6,369.899585 C834.799986,373.032934 832.633341,376.899562 831.1,381.499585 C829.566659,386.099608 828.533336,391.066225 828,396.399585 C827.466664,401.732945 827.2,406.599563 827.2,410.999585 C827.2,415.532941 827.466664,420.499558 828,425.899585 C828.533336,431.299612 829.566659,436.299562 831.1,440.899585 C832.633341,445.499608 834.799986,449.366236 837.6,452.499585 C840.400014,455.632934 843.999978,457.199585 848.4,457.199585 C852.800022,457.199585 856.366653,455.632934 859.1,452.499585 C861.833347,449.366236 863.933326,445.499608 865.4,440.899585 C866.866674,436.299562 867.866664,431.299612 868.4,425.899585 C868.933336,420.499558 869.2,415.532941 869.2,410.999585 Z M969.4,482.199585 L969.4,378.199585 L943,398.599585 L925.6,374.799585 L972.2,340.599585 L1003,340.599585 L1003,482.199585 L969.4,482.199585 Z M1162.2,434.599585 C1162.2,442.599625 1160.73335,449.799553 1157.8,456.199585 C1154.86665,462.599617 1150.86669,467.999563 1145.8,472.399585 C1140.73331,476.799607 1134.80003,480.16624 1128,482.499585 C1121.19997,484.83293 1114.00004,485.999585 1106.4,485.999585 C1098.66663,485.999585 1091.43337,484.83293 1084.7,482.499585 C1077.96663,480.16624 1072.06669,476.799607 1067,472.399585 C1061.93331,467.999563 1057.93335,462.666283 1055,456.399585 C1052.06665,450.132887 1050.6,443.132957 1050.6,435.399585 C1050.6,426.999543 1052.06665,419.366286 1055,412.499585 C1057.93335,405.632884 1061.73331,398.666287 1066.4,391.599585 L1100.6,340.599585 L1141.2,340.599585 L1106.4,388.999585 L1105.8,389.999585 C1107.13334,389.466249 1108.73332,389.066253 1110.6,388.799585 C1112.46668,388.532917 1114.19999,388.399585 1115.8,388.399585 C1121.93336,388.399585 1127.83331,389.499574 1133.5,391.699585 C1139.16669,393.899596 1144.09998,397.032898 1148.3,401.099585 C1152.50002,405.166272 1155.86665,410.03289 1158.4,415.699585 C1160.93335,421.36628 1162.2,427.666217 1162.2,434.599585 Z M1128.6,435.399585 C1128.6,428.999553 1126.60002,423.699606 1122.6,419.499585 C1118.59998,415.299564 1113.2667,413.199585 1106.6,413.199585 C1099.9333,413.199585 1094.53335,415.266231 1090.4,419.399585 C1086.26665,423.532939 1084.2,428.932885 1084.2,435.599585 C1084.2,441.732949 1086.19998,446.999563 1090.2,451.399585 C1094.20002,455.799607 1099.59997,457.999585 1106.4,457.999585 C1113.0667,457.999585 1118.43331,455.932939 1122.5,451.799585 C1126.56669,447.666231 1128.6,442.199619 1128.6,435.399585 Z" id="2016" fill="#000000"></path>
            <path d="M673.050781,762 L673.050781,758.015625 C676.136734,757.976562 678.060543,757.84961 678.822266,757.634766 C679.583988,757.419921 680.287106,757.009769 680.931641,756.404297 C681.576175,755.798825 682.5039,754.226575 683.714844,751.6875 C684.417972,750.24218 686.957009,744.753954 691.332031,735.222656 L705.980469,702.175781 C707.582039,698.542951 710.999974,690.457094 716.234375,677.917969 L720.042969,677.917969 L745.0625,736.6875 C749.12502,746.218798 751.820306,752.1953 753.148438,754.617188 C753.890629,755.984382 754.701167,756.88281 755.580078,757.3125 C756.458989,757.74219 758.441391,757.976562 761.527344,758.015625 L761.527344,762 C755.433563,761.609373 751.175793,761.414062 748.753906,761.414062 L729.886719,762 L729.886719,758.015625 C734.261741,757.9375 736.917964,757.800782 737.855469,757.605469 C738.792973,757.410155 739.427733,757.126955 739.759766,756.755859 C740.091799,756.384764 740.257812,755.925784 740.257812,755.378906 C740.257812,754.519527 739.984378,753.406257 739.4375,752.039062 L732.230469,734.109375 L698.304688,734.109375 L691.917969,749.167969 C690.785151,751.863295 690.21875,753.835931 690.21875,755.085938 C690.21875,755.632815 690.374998,756.082029 690.6875,756.433594 C691.11719,756.941409 691.781246,757.292968 692.679688,757.488281 C694.125007,757.800783 696.664044,757.976562 700.296875,758.015625 L700.296875,762 C693.695279,761.648436 688.753923,761.472656 685.472656,761.472656 C681.683575,761.472656 677.542991,761.648436 673.050781,762 Z M700.296875,729.128906 L729.886719,729.128906 L715.238281,693.796875 L700.296875,729.128906 Z M767.503906,682.488281 L767.503906,678.738281 C775.355508,678.972657 781.566383,679.089844 786.136719,679.089844 C789.183609,679.089844 792.425764,679.050782 795.863281,678.972656 L805.0625,678.679688 C806.07813,678.640625 807.015621,678.621094 807.875,678.621094 C814.085969,678.621094 818.968732,679.304681 822.523438,680.671875 C826.078143,682.039069 828.851553,684.216782 830.84375,687.205078 C832.835947,690.193374 833.832031,693.601543 833.832031,697.429688 C833.832031,700.867205 833.001961,704.285139 831.341797,707.683594 C829.681632,711.082048 827.269547,713.962879 824.105469,716.326172 C820.94139,718.689465 817.640642,720.378901 814.203125,721.394531 C811.859363,722.09766 809.20314,722.449219 806.234375,722.449219 C803.734362,722.449219 801.039077,722.175784 798.148438,721.628906 L796.917969,717.292969 C800.394549,718.074223 803.128896,718.464844 805.121094,718.464844 C808.050796,718.464844 810.833971,717.75196 813.470703,716.326172 C816.107435,714.900383 818.158196,712.751967 819.623047,709.880859 C821.087898,707.009751 821.820312,703.835955 821.820312,700.359375 C821.820312,696.999983 821.107429,693.962904 819.681641,691.248047 C818.255852,688.53319 816.087905,686.472663 813.177734,685.066406 C810.267564,683.660149 806.742208,682.957031 802.601562,682.957031 C798.890606,682.957031 794.906271,683.621087 790.648438,684.949219 C790.296873,689.089864 790.121094,695.574175 790.121094,704.402344 L790.121094,733.933594 C790.121094,739.24612 790.179687,744.42185 790.296875,749.460938 C790.414063,753.171894 790.697263,755.378903 791.146484,756.082031 C791.595705,756.78516 792.318354,757.302733 793.314453,757.634766 C794.310552,757.966799 797.132789,758.171875 801.78125,758.25 L801.78125,762 C794.554651,761.687498 789.242204,761.53125 785.84375,761.53125 C784.515618,761.53125 778.402398,761.687498 767.503906,762 L767.503906,758.25 C772.113304,758.171875 774.925776,757.966799 775.941406,757.634766 C776.957036,757.302733 777.660154,756.843753 778.050781,756.257812 C778.519534,755.476559 778.812499,753.582046 778.929688,750.574219 C778.96875,749.753902 779.046874,744.207083 779.164062,733.933594 L779.164062,706.804688 C779.164062,701.492161 779.105469,696.2969 778.988281,691.21875 C778.871093,687.507794 778.587893,685.31055 778.138672,684.626953 C777.689451,683.943356 776.966802,683.435549 775.970703,683.103516 C774.974604,682.771483 772.152367,682.566407 767.503906,682.488281 Z M839.984375,682.488281 L839.984375,678.738281 C847.835977,678.972657 854.046852,679.089844 858.617188,679.089844 C861.664078,679.089844 864.906233,679.050782 868.34375,678.972656 L877.542969,678.679688 C878.558599,678.640625 879.496089,678.621094 880.355469,678.621094 C886.566437,678.621094 891.449201,679.304681 895.003906,680.671875 C898.558612,682.039069 901.332021,684.216782 903.324219,687.205078 C905.316416,690.193374 906.3125,693.601543 906.3125,697.429688 C906.3125,700.867205 905.48243,704.285139 903.822266,707.683594 C902.162101,711.082048 899.750016,713.962879 896.585938,716.326172 C893.421859,718.689465 890.121111,720.378901 886.683594,721.394531 C884.339832,722.09766 881.683609,722.449219 878.714844,722.449219 C876.214831,722.449219 873.519546,722.175784 870.628906,721.628906 L869.398438,717.292969 C872.875017,718.074223 875.609365,718.464844 877.601562,718.464844 C880.531265,718.464844 883.31444,717.75196 885.951172,716.326172 C888.587904,714.900383 890.638665,712.751967 892.103516,709.880859 C893.568367,707.009751 894.300781,703.835955 894.300781,700.359375 C894.300781,696.999983 893.587898,693.962904 892.162109,691.248047 C890.736321,688.53319 888.568374,686.472663 885.658203,685.066406 C882.748032,683.660149 879.222677,682.957031 875.082031,682.957031 C871.371075,682.957031 867.38674,683.621087 863.128906,684.949219 C862.777342,689.089864 862.601562,695.574175 862.601562,704.402344 L862.601562,733.933594 C862.601562,739.24612 862.660156,744.42185 862.777344,749.460938 C862.894532,753.171894 863.177732,755.378903 863.626953,756.082031 C864.076174,756.78516 864.798823,757.302733 865.794922,757.634766 C866.791021,757.966799 869.613258,758.171875 874.261719,758.25 L874.261719,762 C867.03512,761.687498 861.722673,761.53125 858.324219,761.53125 C856.996087,761.53125 850.882867,761.687498 839.984375,762 L839.984375,758.25 C844.593773,758.171875 847.406245,757.966799 848.421875,757.634766 C849.437505,757.302733 850.140623,756.843753 850.53125,756.257812 C851.000002,755.476559 851.292968,753.582046 851.410156,750.574219 C851.449219,749.753902 851.527343,744.207083 851.644531,733.933594 L851.644531,706.804688 C851.644531,701.492161 851.585938,696.2969 851.46875,691.21875 C851.351562,687.507794 851.068362,685.31055 850.619141,684.626953 C850.16992,683.943356 849.447271,683.435549 848.451172,683.103516 C847.455073,682.771483 844.632836,682.566407 839.984375,682.488281 Z M941,759.128906 C941.625003,755.378888 941.996093,749.304729 942.113281,740.90625 L946.097656,740.90625 C946.29297,746.609404 946.615232,749.97851 947.064453,751.013672 C947.513674,752.048833 948.597648,753.152338 950.316406,754.324219 C952.035165,755.4961 954.339829,756.541011 957.230469,757.458984 C960.121108,758.376958 962.914049,758.835938 965.609375,758.835938 C969.554707,758.835938 973.187483,757.927743 976.507812,756.111328 C979.828142,754.294913 982.249992,751.912124 983.773438,748.962891 C985.296883,746.013657 986.058594,742.859392 986.058594,739.5 C986.058594,736.921862 985.677738,734.695322 984.916016,732.820312 C984.154293,730.945303 982.992195,729.431646 981.429688,728.279297 C979.86718,727.126947 977.933605,726.316409 975.628906,725.847656 C974.183587,725.61328 971.29299,725.222659 966.957031,724.675781 C962.621072,724.128904 958.929703,723.523441 955.882812,722.859375 C951.820292,721.609369 948.832041,720.14454 946.917969,718.464844 C945.003897,716.785148 943.451178,714.578139 942.259766,711.84375 C941.068353,709.109361 940.472656,706.160172 940.472656,702.996094 C940.472656,698.386696 941.673816,694.041036 944.076172,689.958984 C946.478528,685.876933 950.03318,682.703136 954.740234,680.4375 C959.447289,678.171864 964.55466,677.039062 970.0625,677.039062 C973.382829,677.039062 977.00584,677.478511 980.931641,678.357422 C984.857442,679.236333 988.519514,680.515617 991.917969,682.195312 C991.371091,684.656262 990.98047,686.951161 990.746094,689.080078 C990.511718,691.208995 990.335938,694.343729 990.21875,698.484375 L986.234375,698.484375 C986.117187,692.46872 985.941407,689.187503 985.707031,688.640625 C984.730464,687.234368 983.402352,685.964849 981.722656,684.832031 C977.699199,682.566395 973.500022,681.433594 969.125,681.433594 C963.460909,681.433594 958.93947,683.162092 955.560547,686.619141 C952.181624,690.076189 950.492188,694.558566 950.492188,700.066406 C950.492188,703.386735 951.09765,705.955069 952.308594,707.771484 C953.519537,709.5879 955.687484,711.042963 958.8125,712.136719 C960.960948,712.87891 964.476538,713.572262 969.359375,714.216797 C974.242212,714.861331 978.636699,715.554684 982.542969,716.296875 C986.214862,717.39063 988.929679,718.689446 990.6875,720.193359 C992.445321,721.697273 993.890619,723.66991 995.023438,726.111328 C996.156256,728.552747 996.722656,731.414046 996.722656,734.695312 C996.722656,742.468789 993.500032,749.246065 987.054688,755.027344 C980.609343,760.808623 972.269582,763.699219 962.035156,763.699219 C954.300743,763.699219 947.289094,762.175796 941,759.128906 Z M1006.91797,698.132812 L1003.28516,698.132812 C1003.24609,688.796828 1003.05078,682.332049 1002.69922,678.738281 C1006.95705,678.894532 1013.63667,679.089843 1022.73828,679.324219 C1030.12113,679.48047 1035.04296,679.558594 1037.50391,679.558594 C1040.16017,679.558594 1046.31245,679.441407 1055.96094,679.207031 C1062.95316,679.05078 1068.05077,678.894532 1071.25391,678.738281 C1070.78515,683.113303 1070.47266,689.578082 1070.31641,698.132812 L1066.56641,698.132812 L1066.09766,692.507812 C1065.78515,689.109358 1065.57031,687.175784 1065.45312,686.707031 C1065.33594,686.238279 1065.16992,685.906251 1064.95508,685.710938 C1064.74023,685.515624 1064.41797,685.359376 1063.98828,685.242188 C1063.4414,685.124999 1061.4883,684.968751 1058.12891,684.773438 C1054.76951,684.578124 1052.11329,684.480469 1050.16016,684.480469 L1043.01172,684.480469 C1042.62109,688.230487 1042.42578,693.289031 1042.42578,699.65625 L1042.42578,733.933594 C1042.42578,739.24612 1042.48437,744.42185 1042.60156,749.460938 C1042.71875,753.171894 1043.00195,755.378903 1043.45117,756.082031 C1043.90039,756.78516 1044.62304,757.302733 1045.61914,757.634766 C1046.61524,757.966799 1049.43748,758.171875 1054.08594,758.25 L1054.08594,762 C1047.09372,761.687498 1041.83986,761.53125 1038.32422,761.53125 C1036.80077,761.53125 1030.70708,761.687498 1020.04297,762 L1020.04297,758.25 C1024.69143,758.171875 1027.52343,757.966799 1028.53906,757.634766 C1029.55469,757.302733 1030.23828,756.843753 1030.58984,756.257812 C1031.09766,755.476559 1031.41016,753.582046 1031.52734,750.574219 C1031.52734,749.753902 1031.60547,744.207083 1031.76172,733.933594 L1031.76172,699.773438 C1031.76172,698.132804 1031.72266,696.335947 1031.64453,694.382812 L1031.29297,684.480469 L1022.5625,684.480469 C1017.52341,684.480469 1013.51955,684.675779 1010.55078,685.066406 C1009.61328,685.183594 1009.00781,685.437498 1008.73438,685.828125 C1008.30469,686.492191 1007.91406,688.621076 1007.5625,692.214844 L1006.91797,698.132812 Z M1074.47656,720.925781 C1074.47656,714.753875 1075.40429,709.050807 1077.25977,703.816406 C1079.11524,698.582005 1082.19138,693.875021 1086.48828,689.695312 C1090.78518,685.515604 1095.64841,682.361339 1101.07812,680.232422 C1106.50784,678.103505 1112.71872,677.039062 1119.71094,677.039062 C1126.15628,677.039062 1132.0156,677.947257 1137.28906,679.763672 C1142.56253,681.580087 1146.88865,683.982407 1150.26758,686.970703 C1153.6465,689.958999 1156.31249,693.230451 1158.26562,696.785156 C1159.75001,699.44142 1160.93164,702.566388 1161.81055,706.160156 C1162.68946,709.753924 1163.12891,713.601542 1163.12891,717.703125 C1163.12891,730.867253 1158.70512,741.824175 1149.85742,750.574219 C1141.00972,759.324263 1129.84772,763.699219 1116.37109,763.699219 C1110.23825,763.699219 1104.51565,762.703135 1099.20312,760.710938 C1093.8906,758.71874 1089.39846,755.759785 1085.72656,751.833984 C1082.05467,747.908183 1079.26173,743.142606 1077.34766,737.537109 C1075.43358,731.931613 1074.47656,726.394559 1074.47656,720.925781 Z M1086.66406,716.0625 C1086.66406,719.773456 1087.03515,723.54295 1087.77734,727.371094 C1088.51953,731.199238 1089.45703,734.499986 1090.58984,737.273438 C1092.46485,741.960961 1094.916,745.896468 1097.94336,749.080078 C1100.97072,752.263688 1104.34959,754.607414 1108.08008,756.111328 C1111.81057,757.615242 1115.94138,758.367188 1120.47266,758.367188 C1126.76175,758.367188 1132.23045,756.834 1136.87891,753.767578 C1141.52737,750.701157 1144.99413,746.384793 1147.2793,740.818359 C1149.56446,735.251925 1150.70703,728.835974 1150.70703,721.570312 C1150.70703,715.359344 1149.88673,709.636745 1148.24609,704.402344 C1147.23046,701.199203 1145.88282,698.298841 1144.20312,695.701172 C1142.52343,693.103503 1140.5215,690.8379 1138.19727,688.904297 C1135.87304,686.970693 1132.85549,685.33985 1129.14453,684.011719 C1125.43358,682.683587 1121.42971,682.019531 1117.13281,682.019531 C1110.92184,682.019531 1105.47268,683.406236 1100.78516,686.179688 C1096.09763,688.953139 1092.57228,692.966771 1090.20898,698.220703 C1087.84569,703.474636 1086.66406,709.421842 1086.66406,716.0625 Z M1168.57812,682.488281 L1168.57812,678.738281 C1170.10157,678.777344 1172.42577,678.835937 1175.55078,678.914062 L1186.80078,679.207031 C1189.02735,679.207031 1192.48435,679.128907 1197.17188,678.972656 C1203.26566,678.73828 1206.80078,678.621094 1207.77734,678.621094 C1215.23832,678.621094 1220.67772,679.28515 1224.0957,680.613281 C1227.51369,681.941413 1230.16015,684.099594 1232.03516,687.087891 C1233.91017,690.076187 1234.84766,693.328107 1234.84766,696.84375 C1234.84766,700.125016 1233.96876,703.386703 1232.21094,706.628906 C1230.45312,709.87111 1227.90431,712.566396 1224.56445,714.714844 C1221.22459,716.863292 1216.87893,718.523432 1211.52734,719.695312 C1212.50391,721.062507 1214.80858,724.109351 1218.44141,728.835938 L1233.20703,748.289062 C1237.4258,753.718777 1239.88672,756.746091 1240.58984,757.371094 C1240.94141,757.644533 1241.29297,757.839843 1241.64453,757.957031 C1242.23047,758.152345 1243.51952,758.25 1245.51172,758.25 L1245.51172,762 C1242.54295,761.765624 1239.94532,761.648438 1237.71875,761.648438 C1235.41405,761.648438 1232.58205,761.765624 1229.22266,762 C1226.68358,759.070298 1222.42581,753.347699 1216.44922,744.832031 C1213.12889,740.105445 1210.19923,736.160172 1207.66016,732.996094 C1203.55857,727.761693 1199.65236,723.015646 1195.94141,718.757812 L1196.52734,717 C1198.5586,717.117188 1200.10156,717.175781 1201.15625,717.175781 C1208.26566,717.175781 1213.65623,715.496111 1217.32812,712.136719 C1221.00002,708.777327 1222.83594,704.343778 1222.83594,698.835938 C1222.83594,694.031226 1221.25392,690.212905 1218.08984,687.380859 C1214.92577,684.548814 1210.14066,683.132812 1203.73438,683.132812 C1199.71092,683.132812 1195.76564,683.738275 1191.89844,684.949219 C1191.74219,687.058604 1191.625,689.031241 1191.54688,690.867188 C1191.50781,691.414065 1191.37109,697.097602 1191.13672,707.917969 L1191.13672,733.933594 C1191.13672,739.24612 1191.21484,744.42185 1191.37109,749.460938 C1191.44922,753.171894 1191.71289,755.378903 1192.16211,756.082031 C1192.61133,756.78516 1193.34374,757.302733 1194.35938,757.634766 C1195.37501,757.966799 1198.18748,758.171875 1202.79688,758.25 L1202.79688,762 C1197.24997,761.687498 1192.15237,761.53125 1187.50391,761.53125 C1183.75389,761.53125 1177.44536,761.687498 1168.57812,762 L1168.57812,758.25 C1173.18752,758.171875 1175.99999,757.966799 1177.01562,757.634766 C1178.03126,757.302733 1178.73437,756.843753 1179.125,756.257812 C1179.59375,755.476559 1179.88672,753.582046 1180.00391,750.574219 C1180.04297,749.753902 1180.12109,744.207083 1180.23828,733.933594 L1180.23828,706.804688 C1180.23828,701.492161 1180.17969,696.2969 1180.0625,691.21875 C1179.94531,687.507794 1179.66211,685.31055 1179.21289,684.626953 C1178.76367,683.943356 1178.04102,683.435549 1177.04492,683.103516 C1176.04882,682.771483 1173.22659,682.566407 1168.57812,682.488281 Z M1250.25781,762 L1250.25781,758.308594 C1254.3594,758.269531 1257.05468,757.957034 1258.34375,757.371094 C1258.89063,757.136718 1259.28125,756.765628 1259.51562,756.257812 C1259.90625,755.476559 1260.17969,753.425798 1260.33594,750.105469 C1260.57031,744.949193 1260.6875,740.496112 1260.6875,736.746094 L1260.6875,706.804688 C1260.6875,701.492161 1260.62891,696.2969 1260.51172,691.21875 C1260.39453,687.507794 1260.11133,685.31055 1259.66211,684.626953 C1259.21289,683.943356 1258.49024,683.435549 1257.49414,683.103516 C1256.49804,682.771483 1253.6758,682.566407 1249.02734,682.488281 L1249.02734,678.738281 L1265.72656,679.089844 L1283.42188,678.796875 C1291.89848,678.679687 1298.05076,678.621094 1301.87891,678.621094 C1305.74611,678.621094 1309.39842,678.835935 1312.83594,679.265625 C1312.21093,681.492199 1311.78125,683.425773 1311.54688,685.066406 C1311.46875,685.417971 1311.11719,689.48043 1310.49219,697.253906 L1306.80078,697.253906 C1306.83984,693.269511 1306.58594,689.636735 1306.03906,686.355469 C1303.89061,685.457027 1301.52736,684.851564 1298.94922,684.539062 C1294.5742,683.992185 1290.19924,683.71875 1285.82422,683.71875 C1284.88671,683.71875 1282.79689,683.796874 1279.55469,683.953125 C1276.31248,684.109376 1273.98829,684.246093 1272.58203,684.363281 C1272.42578,688.69924 1272.30859,692.7617 1272.23047,696.550781 L1271.99609,716.355469 C1276.56643,716.589845 1280.76561,716.707031 1284.59375,716.707031 C1289.24221,716.707031 1293.20701,716.49219 1296.48828,716.0625 C1297.73829,715.906249 1298.53906,715.593752 1298.89062,715.125 C1299.24219,714.656248 1299.55469,713.054701 1299.82812,710.320312 L1300.17969,706.21875 L1303.69531,706.21875 L1303.69531,707.332031 L1303.40234,719.519531 L1303.69531,733.171875 L1299.59375,733.171875 L1299.41797,729.1875 C1299.33984,726.296861 1299.07617,724.500004 1298.62695,723.796875 C1298.17773,723.093746 1297.32813,722.60547 1296.07812,722.332031 C1293.85155,721.863279 1289.53519,721.628906 1283.12891,721.628906 C1280.51171,721.628906 1276.80081,721.726562 1271.99609,721.921875 C1271.80078,725.828145 1271.70312,731.628868 1271.70312,739.324219 C1271.70312,746.550817 1271.80078,752.039044 1271.99609,755.789062 C1277.62112,756.218752 1283.92965,756.433594 1290.92188,756.433594 C1295.88284,756.433594 1299.41796,756.277345 1301.52734,755.964844 C1303.63673,755.652342 1305.58983,755.125004 1307.38672,754.382812 C1307.85547,753.171869 1308.32422,751.53126 1308.79297,749.460938 C1309.65235,745.984358 1310.21875,743.367196 1310.49219,741.609375 L1314.35938,741.609375 C1313.34374,749.500039 1312.83594,756.042943 1312.83594,761.238281 C1309.47655,761.746096 1305.39456,762 1300.58984,762 L1265.60938,761.53125 C1265.10156,761.53125 1259.98442,761.687498 1250.25781,762 Z" id="APP-STORE" fill="#000000"></path>
            <path d="M641.646015,745.154873 C640.148764,748.613828 638.376507,751.797778 636.323135,754.725057 C633.524192,758.715689 631.232481,761.477964 629.466336,763.011883 C626.728506,765.529709 623.795116,766.819178 620.653944,766.892513 C618.398901,766.892513 615.679404,766.250834 612.513788,764.949142 C609.337782,763.653562 606.419059,763.011883 603.750286,763.011883 C600.951343,763.011883 597.949508,763.653562 594.738668,764.949142 C591.52294,766.250834 588.93239,766.92918 586.951741,766.996404 C583.939516,767.12474 580.937069,765.798603 577.940123,763.011883 C576.027308,761.343517 573.634762,758.483462 570.768596,754.431718 C567.693426,750.104968 565.16521,745.087649 563.184561,739.367539 C561.063354,733.189087 560,727.206194 560,721.413972 C560,714.779011 561.433694,709.056456 564.305361,704.260975 C566.562237,700.409068 569.564684,697.370565 573.322478,695.139966 C577.080273,692.909368 581.140573,691.772679 585.513157,691.699956 C587.905703,691.699956 591.043208,692.440026 594.942172,693.894498 C598.830136,695.353859 601.326573,696.093929 602.421094,696.093929 C603.239387,696.093929 606.012663,695.228579 610.714031,693.503379 C615.15995,691.90346 618.912244,691.241003 621.986192,691.501952 C630.315797,692.174187 636.573695,695.45775 640.735442,701.37342 C633.285854,705.887173 629.600783,712.209239 629.674118,720.319451 C629.741341,726.636628 632.033052,731.893507 636.537028,736.067476 C638.578178,738.004735 640.857666,739.501986 643.393826,740.56534 C642.843816,742.160371 642.263249,743.688178 641.646015,745.154873 L641.646015,745.154873 Z M622.542314,669.980649 C622.542314,674.932028 620.73339,679.555111 617.127765,683.834193 C612.776571,688.92118 607.51358,691.860681 601.806304,691.396839 C601.73358,690.802827 601.691413,690.177649 601.691413,689.520692 C601.691413,684.767378 603.760675,679.680391 607.435357,675.521089 C609.269948,673.41516 611.603215,671.664109 614.432713,670.267266 C617.256101,668.891262 619.926708,668.130291 622.438423,668 C622.511758,668.661907 622.542314,669.323875 622.542314,669.980588 L622.542314,669.980649 Z" id="Shape" fill="#333333" fill-rule="nonzero"></path>
            <path d="M115.251463,543.378784 C130.439114,562.660661 145.545423,582.006174 160.678309,601.330744 C161.242067,602.050884 161.703544,602.849966 162.890658,604.626957 C155.961262,605.087718 149.747839,606.068848 143.585154,605.814302 C116.560188,604.695426 94.9851544,593.160294 79.1636779,571.092908 C64.9062282,551.208498 54.6281074,529.350549 46.9787114,506.189258 C46.7016644,505.350706 46.578443,504.461405 46.2111946,502.833437 C73.5454228,510.098476 97.7153557,521.116461 115.251463,543.378784 Z" id="Fill-5" fill="#B4B4B4" fill-rule="nonzero"></path>
            <path d="M280.215785,706.598014 C304.603973,716.240161 328.612027,726.840884 352.782765,737.033204 C353.269208,737.237808 353.699275,737.576935 354.476456,738.046556 C346.45498,745.1956 337.42196,750.253498 327.454711,753.579515 C306.233235,760.660089 285.514309,759.147311 265.354309,749.502748 C243.399141,738.998688 223.886658,724.957564 206.016322,708.537721 C205.342228,707.918271 204.786523,707.171549 203.638872,705.879485 C229.798872,699.327336 255.228403,696.717432 280.215785,706.598014 Z" id="Fill-7" fill="#B4B4B4" fill-rule="nonzero"></path>
            <path d="M74.8651007,500.313671 C52.4492617,492.185913 36.0841611,477.399677 26.6178523,455.376596 C16.844698,432.639012 12.0656376,408.706028 10.0948993,384.139901 C10.0103356,383.084661 10.0844295,382.017339 10.0844295,380.678555 C10.6973154,380.75508 11.2304698,380.682583 11.6081879,380.890409 C30.1292617,391.090785 47.0420134,403.40325 58.8463087,421.22793 C64.866443,430.320708 69.5311409,440.389784 74.1080537,450.339641 C81.8798658,467.233939 89.0983893,484.381172 96.5416107,501.426102 C96.9612081,502.387901 97.3042953,503.384336 97.8197315,504.716676 C89.6500671,504.750508 82.1416107,502.952574 74.8651007,500.313671 Z" id="Fill-9" fill="#B4B4B4" fill-rule="nonzero"></path>
            <path d="M219.299356,690.763306 C195.226872,692.37033 174.619893,684.25385 156.706872,668.429291 C140.411839,654.032124 126.484591,637.621142 114.453181,619.556415 C113.812107,618.593811 113.341772,617.517629 112.551705,616.048349 C125.523785,615.637531 137.832242,616.93765 150.012644,619.561248 C164.733181,622.732604 178.303651,628.482449 190.429289,637.558311 C210.169691,652.334881 229.987409,667.010759 250.497745,682.269034 C239.865262,687.544424 229.807812,690.061692 219.299356,690.763306 Z" id="Fill-11" fill="#B4B4B4" fill-rule="nonzero"></path>
            <path d="M47.0234899,324.112342 C51.4457718,347.383989 55.5652349,370.713634 59.804698,394.020725 C59.8465772,394.252716 59.693557,394.520151 59.5405369,395.137989 C49.0103356,391.955356 39.6954362,386.664661 31.2889933,379.737942 C13.1681879,364.809128 3.68899329,345.405617 1.20442953,322.196801 C-0.967651007,301.91285 -0.0865771812,281.774699 2.92711409,261.669575 C3.16389262,260.094771 3.55932886,258.543328 4.06187919,256.100168 C24.7880537,275.392516 41.7056376,296.125145 47.0234899,324.112342 Z" id="Fill-17" fill="#B4B4B4" fill-rule="nonzero"></path>
            <path d="M174.348161,521.039856 C184.912993,543.210349 183.668698,565.37037 175.635946,587.763189 C174.513262,590.893463 173.082926,593.914185 171.709772,597.188649 C171.021987,596.725471 170.517826,596.508785 170.180376,596.139854 C152.565342,576.898253 137.985745,555.755611 128.947087,531.050933 C120.674336,508.44304 129.326416,483.52087 143.480779,467.930719 C154.726148,485.103728 165.501181,502.474897 174.348161,521.039856 Z" id="Fill-25" fill="#B4B4B4" fill-rule="nonzero"></path>
            <path d="M334.828913,668.414227 C347.668107,680.249821 353.628644,695.819029 357.114282,712.473279 C358.142738,717.391016 358.547839,722.439248 359.322604,728.03282 C342.986497,722.837177 328.138711,716.442106 314.309718,707.957501 C306.344617,703.07118 298.654148,697.617768 291.379248,691.751122 C277.262738,680.364206 270.765826,665.031018 270.283409,647.124174 C270.116698,640.927262 270.75455,634.710213 271.05898,627.719052 C294.060322,640.101598 316.326362,651.356408 334.828913,668.414227 Z" id="Fill-27" fill="#B4B4B4" fill-rule="nonzero"></path>
            <path d="M82.7485369,116.371366 C76.7219597,136.443464 71.0247785,156.613836 65.1810201,176.740709 L63.8046443,177.066947 C62.3469262,175.369704 60.8747114,173.683738 59.4331007,171.972801 C44.6674631,154.455026 36.2972617,134.494896 38.5635705,111.363411 C39.4357852,102.461542 42.3149799,93.5556465 45.5227651,85.1250111 C51.9955168,68.1147177 61.7590067,52.9096083 73.6712215,38.0154319 C83.7753826,64.0347284 90.8859866,89.2638038 82.7485369,116.371366 Z" id="Fill-33" fill="#B4B4B4" fill-rule="nonzero"></path>
            <path d="M230.75396,655.113543 C219.265369,645.768635 208.975168,635.200939 200.584832,622.924722 C186.51906,602.343532 188.313423,581.098588 198.137315,559.571711 C198.232349,559.362274 198.548859,559.255139 198.923356,558.982065 C215.636376,573.823077 232.322819,588.702754 245.726577,606.851256 C254.403624,618.599047 258.411141,631.911171 258.817047,646.25034 C259.073154,655.285925 258.21302,664.352121 257.85302,673.405428 C257.203893,673.692195 256.554765,673.978962 255.905638,674.26573 C247.507248,667.899657 238.92443,661.760743 230.75396,655.113543 Z" id="Fill-37" fill="#B4B4B4" fill-rule="nonzero"></path>
            <path d="M113.19447,370.238616 C113.429638,371.196386 119.234738,385.54361 121.439034,394.602556 C124.133799,405.676928 126.812456,416.251068 129.366282,426.855818 C135.929235,454.105153 126.811651,477.188307 110.277423,498.27134 C109.784537,498.899651 109.200644,499.460297 108.625611,500.018526 C108.450846,500.188492 108.165745,500.24649 107.701852,500.461566 C96.3131275,478.905689 87.5466846,456.522537 84.0658792,432.167457 C81.196349,412.092943 87.7754094,395.597381 101.56655,380.999638" id="Fill-39" fill="#B4B4B4" fill-rule="nonzero"></path>
            <path d="M109.225611,329.755696 C109.504268,353.561407 98.0076242,371.692187 80.5770201,386.687054 C77.6527248,389.203518 74.4723221,391.421131 70.5606443,394.431382 C68.9676242,386.92549 67.3512483,380.246874 66.1576913,373.494149 C63.3461477,357.580982 62.5174228,341.588068 63.8229262,325.420355 C65.6994362,302.177707 78.8205101,287.465579 98.8049396,277.661522 C101.179973,276.496731 103.686282,275.600181 107.607624,273.963352 C108.193128,293.351558 109.012188,311.550002 109.225611,329.755696 Z" id="Fill-43" fill="#B4B4B4" fill-rule="nonzero"></path>
            <path d="M107.985503,39.2635945 C122.26953,16.2754925 144.695034,5.84312476 171.17396,0.000644420829 C169.157315,8.15981764 167.500671,15.5191035 165.506577,22.7849484 C161.525638,37.2956944 156.419597,51.3972332 148.416644,64.2300684 C137.598121,81.5810993 121.838658,92.6200281 102.715973,99.1834542 C102.211812,99.3550312 101.68349,99.4782767 101.156779,99.5588293 C100.773423,99.6184383 100.373154,99.5709122 99.4783893,99.5709122 C94.7226846,78.3944383 96.3479195,57.9912693 107.985503,39.2635945 Z" id="Fill-47" fill="#B4B4B4" fill-rule="nonzero"></path>
            <path d="M118.734846,206.527612 C116.641691,217.003478 114.261826,227.444707 111.466389,237.75544 C107.476591,252.47079 98.4210201,263.64988 85.9837047,272.24001 C78.129745,277.663616 69.738604,281.953848 60.0894765,285.036596 C60.0894765,279.302862 59.8865235,274.003306 60.1281342,268.723888 C60.8465235,253.018547 63.4164564,237.654749 67.9990067,222.554358 C74.2639732,201.911142 88.390953,190.173823 108.724107,185.063565 C112.862094,184.023631 117.116054,183.449291 122.263168,182.481854 C121.044644,190.992237 120.272295,198.83645 118.734846,206.527612 Z" id="Fill-51" fill="#B4B4B4" fill-rule="nonzero"></path>
            <path d="M155.115221,107.158001 C149.576698,119.615461 144.300725,132.203416 138.343409,144.457884 C128.546899,164.606507 111.450523,175.04693 90.0599195,179.279163 C86.1321342,180.056496 82.1286443,180.462481 78.1517315,180.975601 C77.1216644,181.107708 76.0601879,180.994934 74.1297181,180.994934 C76.4556242,173.027476 78.4601879,165.461975 80.8787114,158.032609 C84.9152215,145.636369 90.5173691,133.984434 97.6545503,123.018809 C105.804081,110.496101 117.37804,103.680545 131.859383,101.401712 C140.088644,100.106426 148.332403,100.09676 157.035221,101.723922 C156.335356,103.728071 155.85294,105.499423 155.115221,107.158001 Z" id="Fill-53" fill="#B4B4B4" fill-rule="nonzero"></path>
            <path d="M34.2378523,207.139651 C28.4069799,208.189251 27.0144966,211.387995 30.5653691,215.997215 C31.4641611,217.164422 32.3500671,218.350962 33.3414765,219.436811 C36.5927517,222.998042 40.4230872,222.190905 42.3889933,217.694458 C42.944698,216.424144 44.009396,215.376155 45.3930201,213.459808 C46.4738255,219.446478 44.7897987,222.666971 40.4118121,224.827391 C36.7812081,226.618076 33.8641611,225.886658 30.8657718,222.360065 C29.4773154,220.726458 28.1307383,219.053381 26.8365101,217.344055 C24.172349,213.827933 24.0467114,210.462446 26.3975839,207.419974 C29.3049664,203.660584 32.9951678,202.626288 38.3404027,204.841485 C36.5702013,205.863698 35.4789262,206.915715 34.2378523,207.139651 Z" id="Fill-57" fill="#B4B4B4" fill-rule="nonzero"></path>
            <path d="M24.3115973,225.921376 C23.8525369,225.460616 24.6619329,223.733568 25.0315973,221.828499 C28.4133423,224.832305 31.2804564,227.231967 30.2238121,230.782726 C29.5569664,233.023699 27.0353557,234.749942 25.1717315,236.524516 C25.024349,236.664677 23.5150872,235.374224 22.0686443,234.340735 C26.3524027,231.74533 27.6997852,229.31828 24.3115973,225.921376 Z" id="Fill-59" fill="#B4B4B4" fill-rule="nonzero"></path>
            <path d="M53.1620134,206.58271 C53.4197315,195.803161 50.2296644,185.441679 46.281745,175.403214 C41.3625503,162.895006 34.8398658,151.291403 26.5252349,139.566972 C24.5013423,144.485513 22.6111409,148.671832 21.0374497,152.974952 C13.6908725,173.062355 7.76416107,193.535605 8.46885906,215.163979 C9.42563758,244.54393 24.0245638,266.241579 47.8707383,282.3521 C48.1791946,282.55912 48.6020134,282.598591 50.2006711,283.108489 C51.2492617,257.178606 52.5563758,231.889116 53.1620134,206.58271 Z" id="Fill-61" fill="#B4B4B4" fill-rule="nonzero"></path>
            <path d="M1789.14961,543.378784 C1804.33726,562.660661 1819.44357,582.006174 1834.57646,601.330744 C1835.14021,602.050884 1835.60169,602.849966 1836.78881,604.626957 C1829.85941,605.087718 1823.64599,606.068848 1817.4833,605.814302 C1790.45834,604.695426 1768.8833,593.160294 1753.06183,571.092908 C1738.80438,551.208498 1728.52625,529.350549 1720.87686,506.189258 C1720.59981,505.350706 1720.47659,504.461405 1720.10934,502.833437 C1747.44357,510.098476 1771.6135,521.116461 1789.14961,543.378784 Z" id="Fill-5" fill="#B4B4B4" fill-rule="nonzero" transform="translate(1778.449074, 554.344616) scale(-1, 1) translate(-1778.449074, -554.344616) "></path>
            <path d="M1605.10046,706.598014 C1629.48865,716.240161 1653.4967,726.840884 1677.66744,737.033204 C1678.15388,737.237808 1678.58395,737.576935 1679.36113,738.046556 C1671.33965,745.1956 1662.30663,750.253498 1652.33938,753.579515 C1631.11791,760.660089 1610.39898,759.147311 1590.23898,749.502748 C1568.28381,738.998688 1548.77133,724.957564 1530.90099,708.537721 C1530.2269,707.918271 1529.6712,707.171549 1528.52354,705.879485 C1554.68354,699.327336 1580.11308,696.717432 1605.10046,706.598014 Z" id="Fill-7" fill="#B4B4B4" fill-rule="nonzero" transform="translate(1603.942336, 729.022091) scale(-1, 1) translate(-1603.942336, -729.022091) "></path>
            <path d="M1849.99097,500.313671 C1827.57514,492.185913 1811.21003,477.399677 1801.74373,455.376596 C1791.97057,432.639012 1787.19151,408.706028 1785.22077,384.139901 C1785.13621,383.084661 1785.2103,382.017339 1785.2103,380.678555 C1785.82319,380.75508 1786.35634,380.682583 1786.73406,380.890409 C1805.25514,391.090785 1822.16789,403.40325 1833.97218,421.22793 C1839.99232,430.320708 1844.65701,440.389784 1849.23393,450.339641 C1857.00574,467.233939 1864.22426,484.381172 1871.66748,501.426102 C1872.08708,502.387901 1872.43017,503.384336 1872.94561,504.716676 C1864.77594,504.750508 1857.26748,502.952574 1849.99097,500.313671 Z" id="Fill-9" fill="#B4B4B4" fill-rule="nonzero" transform="translate(1829.062937, 442.697850) scale(-1, 1) translate(-1829.062937, -442.697850) "></path>
            <path d="M1739.24991,690.763306 C1715.17742,692.37033 1694.57044,684.25385 1676.65742,668.429291 C1660.36239,654.032124 1646.43514,637.621142 1634.40373,619.556415 C1633.76266,618.593811 1633.29232,617.517629 1632.50226,616.048349 C1645.47434,615.637531 1657.78279,616.93765 1669.96319,619.561248 C1684.68373,622.732604 1698.2542,628.482449 1710.37984,637.558311 C1730.12024,652.334881 1749.93796,667.010759 1770.4483,682.269034 C1759.81581,687.544424 1749.75836,690.061692 1739.24991,690.763306 Z" id="Fill-11" fill="#B4B4B4" fill-rule="nonzero" transform="translate(1701.475275, 653.468669) scale(-1, 1) translate(-1701.475275, -653.468669) "></path>
            <path d="M1870.21147,324.112342 C1874.63375,347.383989 1878.75322,370.713634 1882.99268,394.020725 C1883.03456,394.252716 1882.88154,394.520151 1882.72852,395.137989 C1872.19832,391.955356 1862.88342,386.664661 1854.47698,379.737942 C1836.35617,364.809128 1826.87698,345.405617 1824.39241,322.196801 C1822.22033,301.91285 1823.10141,281.774699 1826.1151,261.669575 C1826.35188,260.094771 1826.74731,258.543328 1827.24986,256.100168 C1847.97604,275.392516 1864.89362,296.125145 1870.21147,324.112342 Z" id="Fill-17" fill="#B4B4B4" fill-rule="nonzero" transform="translate(1853.093991, 325.619079) scale(-1, 1) translate(-1853.093991, -325.619079) "></path>
            <path d="M1749.65928,521.039856 C1760.22411,543.210349 1758.97981,565.37037 1750.94706,587.763189 C1749.82438,590.893463 1748.39404,593.914185 1747.02089,597.188649 C1746.3331,596.725471 1745.82894,596.508785 1745.49149,596.139854 C1727.87646,576.898253 1713.29686,555.755611 1704.2582,531.050933 C1695.98545,508.44304 1704.63753,483.52087 1718.7919,467.930719 C1730.03726,485.103728 1740.8123,502.474897 1749.65928,521.039856 Z" id="Fill-25" fill="#B4B4B4" fill-rule="nonzero" transform="translate(1729.155558, 532.559684) scale(-1, 1) translate(-1729.155558, -532.559684) "></path>
            <path d="M1588.25024,668.414227 C1601.08943,680.249821 1607.04997,695.819029 1610.53561,712.473279 C1611.56406,717.391016 1611.96916,722.439248 1612.74393,728.03282 C1596.40782,722.837177 1581.56004,716.442106 1567.73104,707.957501 C1559.76594,703.07118 1552.07547,697.617768 1544.80057,691.751122 C1530.68406,680.364206 1524.18715,665.031018 1523.70473,647.124174 C1523.53802,640.927262 1524.17587,634.710213 1524.4803,627.719052 C1547.48165,640.101598 1569.74769,651.356408 1588.25024,668.414227 Z" id="Fill-27" fill="#B4B4B4" fill-rule="nonzero" transform="translate(1568.210662, 677.875936) scale(-1, 1) translate(-1568.210662, -677.875936) "></path>
            <path d="M1841.26574,116.371366 C1835.23917,136.443464 1829.54198,156.613836 1823.69823,176.740709 L1822.32185,177.066947 C1820.86413,175.369704 1819.39192,173.683738 1817.95031,171.972801 C1803.18467,154.455026 1794.81447,134.494896 1797.08078,111.363411 C1797.95299,102.461542 1800.83219,93.5556465 1804.03997,85.1250111 C1810.51272,68.1147177 1820.27621,52.9096083 1832.18843,38.0154319 C1842.29259,64.0347284 1849.40319,89.2638038 1841.26574,116.371366 Z" id="Fill-33" fill="#B4B4B4" fill-rule="nonzero" transform="translate(1820.758603, 107.541189) scale(-1, 1) translate(-1820.758603, -107.541189) "></path>
            <path d="M1664.48926,655.113543 C1653.00067,645.768635 1642.71047,635.200939 1634.32013,622.924722 C1620.25436,602.343532 1622.04873,581.098588 1631.87262,559.571711 C1631.96765,559.362274 1632.28416,559.255139 1632.65866,558.982065 C1649.37168,573.823077 1666.05812,588.702754 1679.46188,606.851256 C1688.13893,618.599047 1692.14644,631.911171 1692.55235,646.25034 C1692.80846,655.285925 1691.94832,664.352121 1691.58832,673.405428 C1690.9392,673.692195 1690.29007,673.978962 1689.64094,674.26573 C1681.24255,667.899657 1672.65973,661.760743 1664.48926,655.113543 Z" id="Fill-37" fill="#B4B4B4" fill-rule="nonzero" transform="translate(1658.367651, 616.623897) scale(-1, 1) translate(-1658.367651, -616.623897) "></path>
            <path d="M1781.28102,370.238616 C1781.51619,371.196386 1787.32129,385.54361 1789.52558,394.602556 C1792.22035,405.676928 1794.899,416.251068 1797.45283,426.855818 C1804.01578,454.105153 1794.8982,477.188307 1778.36397,498.27134 C1777.87108,498.899651 1777.28719,499.460297 1776.71216,500.018526 C1776.53739,500.188492 1776.25229,500.24649 1775.7884,500.461566 C1764.39967,478.905689 1755.63323,456.522537 1752.15243,432.167457 C1749.2829,412.092943 1755.86196,395.597381 1769.6531,380.999638" id="Fill-39" fill="#B4B4B4" fill-rule="nonzero" transform="translate(1775.543274, 435.350091) scale(-1, 1) translate(-1775.543274, -435.350091) "></path>
            <path d="M1819.77545,329.755696 C1820.05411,353.561407 1808.55747,371.692187 1791.12686,386.687054 C1788.20257,389.203518 1785.02216,391.421131 1781.11049,394.431382 C1779.51747,386.92549 1777.90109,380.246874 1776.70753,373.494149 C1773.89599,357.580982 1773.06726,341.588068 1774.37277,325.420355 C1776.24928,302.177707 1789.37035,287.465579 1809.35478,277.661522 C1811.72981,276.496731 1814.23612,275.600181 1818.15747,273.963352 C1818.74297,293.351558 1819.56203,311.550002 1819.77545,329.755696 Z" id="Fill-43" fill="#B4B4B4" fill-rule="nonzero" transform="translate(1796.774921, 334.197367) scale(-1, 1) translate(-1796.774921, -334.197367) "></path>
            <path d="M1722.82833,39.2635945 C1737.11236,16.2754925 1759.53787,5.84312476 1786.01679,0.000644420829 C1784.00015,8.15981764 1782.3435,15.5191035 1780.34941,22.7849484 C1776.36847,37.2956944 1771.26243,51.3972332 1763.25948,64.2300684 C1752.44095,81.5810993 1736.68149,92.6200281 1717.5588,99.1834542 C1717.05464,99.3550312 1716.52632,99.4782767 1715.99961,99.5588293 C1715.61625,99.6184383 1715.21599,99.5709122 1714.32122,99.5709122 C1709.56552,78.3944383 1711.19075,57.9912693 1722.82833,39.2635945 Z" id="Fill-47" fill="#B4B4B4" fill-rule="nonzero" transform="translate(1748.921416, 49.794754) scale(-1, 1) translate(-1748.921416, -49.794754) "></path>
            <path d="M1819.46195,206.527612 C1817.3688,217.003478 1814.98893,227.444707 1812.1935,237.75544 C1808.2037,252.47079 1799.14813,263.64988 1786.71081,272.24001 C1778.85685,277.663616 1770.46571,281.953848 1760.81658,285.036596 C1760.81658,279.302862 1760.61363,274.003306 1760.85524,268.723888 C1761.57363,253.018547 1764.14356,237.654749 1768.72611,222.554358 C1774.99108,201.911142 1789.11806,190.173823 1809.45122,185.063565 C1813.5892,184.023631 1817.84316,183.449291 1822.99028,182.481854 C1821.77175,190.992237 1820.9994,198.83645 1819.46195,206.527612 Z" id="Fill-51" fill="#B4B4B4" fill-rule="nonzero" transform="translate(1791.863554, 233.759225) scale(-1, 1) translate(-1791.863554, -233.759225) "></path>
            <path d="M1806.95028,107.158001 C1801.41176,119.615461 1796.13579,132.203416 1790.17847,144.457884 C1780.38196,164.606507 1763.28558,175.04693 1741.89498,179.279163 C1737.9672,180.056496 1733.96371,180.462481 1729.98679,180.975601 C1728.95673,181.107708 1727.89525,180.994934 1725.96478,180.994934 C1728.29069,173.027476 1730.29525,165.461975 1732.71377,158.032609 C1736.75028,145.636369 1742.35243,133.984434 1749.48961,123.018809 C1757.63914,110.496101 1769.2131,103.680545 1783.69444,101.401712 C1791.9237,100.106426 1800.16746,100.09676 1808.87028,101.723922 C1808.17042,103.728071 1807.688,105.499423 1806.95028,107.158001 Z" id="Fill-53" fill="#B4B4B4" fill-rule="nonzero" transform="translate(1767.417530, 140.751771) scale(-1, 1) translate(-1767.417530, -140.751771) "></path>
            <path d="M1846.79698,207.139651 C1840.9661,208.189251 1839.57362,211.387995 1843.12449,215.997215 C1844.02329,217.164422 1844.90919,218.350962 1845.9006,219.436811 C1849.15188,222.998042 1852.98221,222.190905 1854.94812,217.694458 C1855.50382,216.424144 1856.56852,215.376155 1857.95214,213.459808 C1859.03295,219.446478 1857.34892,222.666971 1852.97094,224.827391 C1849.34033,226.618076 1846.42329,225.886658 1843.4249,222.360065 C1842.03644,220.726458 1840.68986,219.053381 1839.39563,217.344055 C1836.73147,213.827933 1836.60584,210.462446 1838.95671,207.419974 C1841.86409,203.660584 1845.55429,202.626288 1850.89953,204.841485 C1849.12933,205.863698 1848.03805,206.915715 1846.79698,207.139651 Z" id="Fill-57" fill="#B4B4B4" fill-rule="nonzero" transform="translate(1847.779562, 214.728138) scale(-1, 1) translate(-1847.779562, -214.728138) "></path>
            <path d="M1854.79658,225.921376 C1854.33752,225.460616 1855.14691,223.733568 1855.51658,221.828499 C1858.89832,224.832305 1861.76544,227.231967 1860.70879,230.782726 C1860.04195,233.023699 1857.52034,234.749942 1855.65671,236.524516 C1855.50933,236.664677 1854.00007,235.374224 1852.55363,234.340735 C1856.83738,231.74533 1858.18477,229.31828 1854.79658,225.921376 Z" id="Fill-59" fill="#B4B4B4" fill-rule="nonzero" transform="translate(1856.742491, 229.181761) scale(-1, 1) translate(-1856.742491, -229.181761) "></path>
            <path d="M1874.57352,206.58271 C1874.83124,195.803161 1871.64117,185.441679 1867.69325,175.403214 C1862.77406,162.895006 1856.25137,151.291403 1847.93674,139.566972 C1845.91285,144.485513 1844.02265,148.671832 1842.44896,152.974952 C1835.10238,173.062355 1829.17567,193.535605 1829.88037,215.163979 C1830.83715,244.54393 1845.43607,266.241579 1869.28225,282.3521 C1869.5907,282.55912 1870.01352,282.598591 1871.61218,283.108489 C1872.66077,257.178606 1873.96788,231.889116 1874.57352,206.58271 Z" id="Fill-61" fill="#B4B4B4" fill-rule="nonzero" transform="translate(1852.205754, 211.337731) scale(-1, 1) translate(-1852.205754, -211.337731) "></path>
        </g>
    </g>
</svg>