<?xml version="1.0" encoding="utf-8"?>
<!-- Generator: Adobe Illustrator 16.0.0, SVG Export Plug-In . SVG Version: 6.00 Build 0)  -->
<!DOCTYPE svg PUBLIC "-//W3C//DTD SVG 1.1//EN" "http://www.w3.org/Graphics/SVG/1.1/DTD/svg11.dtd">
<svg version="1.1" id="Layer_1" xmlns="http://www.w3.org/2000/svg" xmlns:xlink="http://www.w3.org/1999/xlink" x="0px" y="0px"
	 width="68.628px" height="26.411px" viewBox="0 0 68.628 26.411" enable-background="new 0 0 68.628 26.411" xml:space="preserve">
<g id="Logo_1_">
	<g>
		<path fill="#7F7F7F" d="M8.801,4.439C3.948,4.439,0,8.371,0,13.208c0,4.832,3.948,8.764,8.801,8.764
			c1.986,0,3.821-0.658,5.296-1.771h3.505v-6.994C17.602,8.371,13.652,4.439,8.801,4.439z M8.801,18.429
			c-2.893,0-5.246-2.341-5.246-5.221c0-2.882,2.354-5.229,5.246-5.229c2.894,0,5.245,2.346,5.245,5.229
			C14.045,16.088,11.695,18.429,8.801,18.429z M31.73,18.429c-2.893,0-5.246-2.341-5.246-5.221c0-2.882,2.354-5.229,5.246-5.229
			c1.788,0,3.368,0.897,4.314,2.261c0.383-1.232,0.99-2.366,1.779-3.351c-1.582-1.516-3.732-2.45-6.094-2.45
			c-4.853,0-8.802,3.931-8.802,8.769c0,4.832,3.95,8.764,8.802,8.764c2.362,0,4.512-0.937,6.094-2.451
			c-0.789-0.981-1.396-2.116-1.779-3.349C35.099,17.536,33.518,18.429,31.73,18.429z M31.73,3.542V0
			c-4.9,0-9.187,2.661-11.483,6.608c-0.079-0.134-0.157-0.267-0.239-0.398h-4.555c1.857,1.761,3.017,4.246,3.017,6.998h0.016v6.994
			h3.555v-7.515C22.312,7.598,26.555,3.542,31.73,3.542z"/>
	</g>
</g>
<path fill="#5D97C1" d="M59.824,4.439c-2.865,0-5.414,1.375-7.022,3.492c-1.61-2.118-4.158-3.492-7.023-3.492
	c-4.854,0-8.803,3.932-8.803,8.77c0,4.831,3.948,8.764,8.803,8.764c0.407,0,0.812-0.029,1.206-0.085l-2.398,4.523h4.016l4.201-7.928
	c0-0.002,0-0.002,0-0.002c1.607,2.121,4.156,3.491,7.021,3.491c4.856,0,8.805-3.933,8.805-8.764
	C68.626,8.371,64.679,4.439,59.824,4.439z M45.777,18.429c-2.895,0-5.248-2.341-5.248-5.221c0-2.883,2.354-5.229,5.248-5.229
	c2.891,0,5.246,2.347,5.246,5.229C51.023,16.088,48.667,18.429,45.777,18.429z M59.824,18.429c-2.892,0-5.246-2.341-5.246-5.221
	c0-2.883,2.354-5.229,5.246-5.229c2.894,0,5.248,2.347,5.248,5.229C65.07,16.088,62.717,18.429,59.824,18.429z"/>
</svg>
