<?xml version="1.0" encoding="utf-8"?>
<!-- Generator: Adobe Illustrator 16.0.0, SVG Export Plug-In . SVG Version: 6.00 Build 0)  -->
<!DOCTYPE svg PUBLIC "-//W3C//DTD SVG 1.1//EN" "http://www.w3.org/Graphics/SVG/1.1/DTD/svg11.dtd">
<svg version="1.1" id="Layer_1" xmlns="http://www.w3.org/2000/svg" xmlns:xlink="http://www.w3.org/1999/xlink" x="0px" y="0px"
	 width="66.824px" height="26.855px" viewBox="0 0 66.824 26.855" enable-background="new 0 0 66.824 26.855" xml:space="preserve">
<rect x="44.364" y="33.064" fill="none" width="218.001" height="73"/>
<g>
	<path fill="#5B5C5C" d="M66.687,17.41C60.71,6.765,51.298-0.286,38.791,0.009C26.993,0.287,16.166,7.513,8.14,15.594
		c-1.295,1.305,1.485,1.909,2.448,0.939C18.119,8.95,27.667,2.922,38.563,2.245C50.039,1.533,58.75,9.29,64.042,18.719
		C64.719,19.924,67.462,18.792,66.687,17.41z"/>
	<path fill="#5B5C5C" d="M17.97,15.427c-4.43,1.493-8.837,3.16-12.762,5.641C5.169,16.743,5.06,12.422,4.727,8.105
		C4.625,6.799-0.109,5.578,0.002,7.023c0.456,5.904,0.494,11.817,0.495,17.737c0,1.312,3.629,2.706,4.572,1.811
		c4.699-4.464,10.635-6.831,16.69-8.871C23.448,17.131,19.167,15.025,17.97,15.427z"/>
</g>
</svg>
