<?xml version="1.0" encoding="utf-8"?>
<!-- Generator: Adobe Illustrator 16.0.0, SVG Export Plug-In . SVG Version: 6.00 Build 0)  -->
<!DOCTYPE svg PUBLIC "-//W3C//DTD SVG 1.1//EN" "http://www.w3.org/Graphics/SVG/1.1/DTD/svg11.dtd">
<svg version="1.1" id="Layer_1" xmlns="http://www.w3.org/2000/svg" xmlns:xlink="http://www.w3.org/1999/xlink" x="0px" y="0px"
	 width="106px" height="106px" viewBox="0 0 106 106" enable-background="new 0 0 106 106" xml:space="preserve">
<g>
	<path fill="#606161" d="M231.859-182.208H216.6c-1.705,0-3.095-1.377-3.114-3.077l-1.459-20.171
		c-0.508-3.086-2.947-5.854-5.769-9.059c-4.272-4.851-9.589-10.887-9.589-20.479c0-15.197,12.364-27.562,27.562-27.562
		s27.561,12.364,27.561,27.562c0,9.592-5.317,15.628-9.588,20.479c-2.822,3.205-5.263,5.973-5.769,9.059l-1.46,20.171
		C234.954-183.584,233.564-182.208,231.859-182.208z M224.229-260.686c-14.168,0-25.693,11.525-25.693,25.692
		c0,8.886,4.848,14.389,9.122,19.244c2.9,3.292,5.641,6.403,6.218,10.04l0.01,0.079l1.468,20.311c0,0.687,0.557,1.246,1.246,1.246
		h15.26c0.685,0,1.246-0.559,1.246-1.246l0.002-0.068l1.473-20.321c0.58-3.637,3.318-6.747,6.219-10.04
		c4.276-4.855,9.123-10.357,9.123-19.244C249.922-249.161,238.396-260.686,224.229-260.686z"/>
	<g>
		<path fill="#D9686A" d="M223.295-290.583c-0.774,0-1.401,0.628-1.401,1.401v14.014c0,0.774,0.627,1.401,1.401,1.401
			c0.775,0,1.401-0.627,1.401-1.401v-14.014C224.696-289.956,224.07-290.583,223.295-290.583z"/>
		<path fill="#D9686A" d="M265.025-266.448c-0.547-0.548-1.433-0.548-1.981,0l-9.909,9.909c-0.547,0.548-0.547,1.435,0,1.982
			c0.547,0.547,1.435,0.547,1.981,0l9.909-9.91C265.574-265.014,265.574-265.901,265.025-266.448z"/>
		<path fill="#D9686A" d="M185.046-266.448c-0.548-0.548-1.435-0.548-1.982,0c-0.547,0.547-0.547,1.434,0,1.982l9.91,9.909
			c0.547,0.547,1.435,0.547,1.981,0c0.548-0.547,0.548-1.435,0-1.982L185.046-266.448z"/>
		<path fill="#D9686A" d="M268.941-209.454l-11.505-8.004c-0.637-0.443-1.509-0.286-1.95,0.349
			c-0.442,0.635-0.286,1.508,0.349,1.951l11.503,8.003c0.637,0.443,1.51,0.286,1.952-0.349
			C269.731-208.139,269.576-209.012,268.941-209.454z"/>
		<path fill="#D9686A" d="M191.316-217.403l-10.94,8.759c-0.604,0.483-0.703,1.365-0.218,1.97c0.483,0.604,1.365,0.702,1.969,0.218
			l10.94-8.758c0.604-0.484,0.702-1.366,0.218-1.97C192.802-217.789,191.92-217.887,191.316-217.403z"/>
	</g>
</g>
<g>
	<g>
		<polygon fill="#606161" points="323.677,-247.999 299.539,-223.861 323.677,-199.723 325.225,-201.271 302.635,-223.861 
			325.225,-246.451 		"/>
		<polygon fill="#606161" points="362.862,-248 361.314,-246.452 383.904,-223.862 361.314,-201.272 362.862,-199.724 387,-223.862 
					"/>
	</g>
	<polygon fill="#A51E22" points="335.7,-185 333,-185 351,-257 353.7,-257 	"/>
</g>
<g>
	<g>
		<path fill="#BFBFBF" d="M18-275.5v15.833h57V-275.5H18z M73.417-261.25H19.583v-12.667h53.833V-261.25z"/>
		<path fill="#BFBFBF" d="M62.333-270.75H22.75v6.333h39.583V-270.75z M60.75-266H24.333v-3.167H60.75V-266z"/>
		<path fill="#BFBFBF" d="M18-238.939h57v-15.833H18V-238.939z M19.583-253.189h53.833v12.667H19.583V-253.189z"/>
		<path fill="#BFBFBF" d="M22.75-243.689h39.583v-6.333H22.75V-243.689z M24.333-248.44H60.75v3.167H24.333V-248.44z"/>
		<path fill="#BFBFBF" d="M18-218.212h57v-15.833H18V-218.212z M19.583-232.462h53.833v12.667H19.583V-232.462z"/>
		<path fill="#BFBFBF" d="M22.75-222.962h39.583v-6.333H22.75V-222.962z M24.333-227.712H60.75v3.167H24.333V-227.712z"/>
	</g>
	<g>
		<rect x="67.875" y="-270.75" fill="#E18F40" width="3.167" height="6.333"/>
		<rect x="67.875" y="-250.023" fill="#E18F40" width="3.167" height="6.333"/>
		<rect x="67.875" y="-229.296" fill="#E18F40" width="3.167" height="6.333"/>
	</g>
</g>
<g>
	<polygon fill="#BFBFBF" points="88,-308 88,-272 100,-272 100,-274 90,-274 90,-306 122,-306 122,-296 124,-296 124,-308 	"/>
	<path fill="#E18F40" d="M100-296v36h36v-36H100z M134-262h-32v-32h32V-262z"/>
</g>
<g>
	<path fill="#936627" d="M29.033-105.022c0-2.76-0.031-4.279-0.093-5.829c-0.031-1.209-0.186-4.248-0.279-4.713
		c-0.186-0.775-0.93-1.209-1.643-1.209h-0.992c-0.155,0-0.187-0.094-0.187-0.279v-0.775c0-0.155,0.031-0.217,0.279-0.217
		c0.341,0,1.333,0.093,3.628,0.093c1.86,0,2.604-0.093,2.945-0.093c0.279,0,0.31,0.062,0.31,0.248v0.744
		c0,0.154-0.031,0.279-0.155,0.279h-0.868c-0.527,0-0.837,0.526-0.931,1.643c-0.217,2.078-0.713,9.085-0.713,13.178v5.302
		c0,0.466-0.031,1.023-0.465,1.023c-0.465,0-0.868-0.155-1.209-0.496c-0.527-0.496-2.046-2.14-3.907-4.341
		c-2.232-2.636-4.713-5.612-5.302-6.294c-0.527-0.62-4.806-5.953-5.52-6.977h-0.248v6.263c0,2.574,0.279,6.388,0.311,7.566
		c0.062,1.798,0.62,2.729,1.922,2.729h0.775c0.217,0,0.248,0.093,0.248,0.278v0.744c0,0.187-0.031,0.248-0.248,0.248
		c-0.31,0-2.17-0.093-3.628-0.093c-0.961,0-3.101,0.093-3.41,0.093c-0.124,0-0.155-0.062-0.155-0.278v-0.807
		c0-0.093,0.031-0.186,0.186-0.186h1.085c0.682,0,1.178-0.992,1.333-3.07c0.031-0.589,0.279-5.55,0.279-10.139v-2.791
		c0-1.829-1.116-3.565-2.667-3.596l-0.775-0.031c-0.155,0-0.186-0.124-0.186-0.217v-0.838c0-0.124,0.031-0.186,0.186-0.186
		s0.403,0.031,0.992,0.031c0.62,0.03,1.612,0.062,3.225,0.062c1.054,0,1.984-0.062,2.356-0.062c0.403,0,0.651,0.123,0.899,0.402
		c0.155,0.187,6.264,7.658,7.193,8.806c0.435,0.527,4.961,6.201,5.302,6.604h0.124V-105.022z"/>
	<path fill="#936627" d="M38.392-103.721v0.838c0,3.225,1.83,4.806,4.093,4.806c1.519,0,2.759-0.714,3.379-1.706
		c0.062-0.154,0.187-0.186,0.311-0.093l0.527,0.279c0.124,0.062,0.217,0.217-0.062,0.744c-0.558,1.147-2.573,3.286-5.488,3.286
		c-1.984,0-3.627-0.341-4.65-1.457c-1.582-1.705-2.108-2.914-2.14-5.333c0-0.868,0-2.511,1.396-4.558
		c1.116-1.644,3.007-2.543,5.395-2.543c5.023,0,5.302,4.807,5.302,5.303c0,0.402-0.279,0.434-0.961,0.434H38.392z M41.399-104.898
		c0.683,0,0.992-0.155,0.992-0.62c0-1.364-0.558-2.698-1.519-2.698c-1.458,0-2.232,1.147-2.45,3.318H41.399z"/>
	<path fill="#936627" d="M47.164-108.867c0-0.155,0.031-0.248,0.186-0.248c0.434,0,1.054,0.093,3.689,0.093
		c1.551,0,2.295-0.093,2.76-0.093c0.186,0,0.248,0.062,0.248,0.248v0.682c0,0.155-0.031,0.248-0.248,0.248h-0.403
		c-0.279,0-0.403,0.279-0.279,0.713l2.108,6.419h0.186l1.892-4.837c0.155-0.435,0.031-1.427-0.279-1.83
		c-0.186-0.248-0.527-0.278-0.806-0.278H56c-0.186,0-0.248-0.093-0.248-0.248v-0.683c0-0.186,0.093-0.248,0.279-0.248
		c0.248,0,1.24,0.094,3.193,0.094c1.799,0,2.48-0.094,2.729-0.094c0.217,0,0.279,0.062,0.279,0.187v0.682
		c0,0.155-0.031,0.311-0.186,0.311h-0.434c-0.248,0-0.527,0.31-0.403,0.682l2.202,6.108h0.124l1.674-4.713
		c0.589-1.612,0.155-2.264-0.682-2.264h-0.434c-0.155,0-0.186-0.093-0.186-0.248v-0.713c0-0.155,0.093-0.217,0.217-0.217
		c0.186,0,1.116,0.093,2.853,0.093c1.333,0,1.891-0.093,2.263-0.093c0.155,0,0.217,0.093,0.217,0.279v0.65
		c0,0.155-0.062,0.248-0.217,0.248h-0.31c-0.496,0-1.054,0.187-1.271,0.651c-0.248,0.527-4.278,10.263-4.774,11.349
		c-0.155,0.341-0.465,0.402-0.713,0.402c-0.341,0-0.465-0.217-0.682-0.744l-3.132-7.969h-0.186l-3.473,8.217
		c-0.155,0.342-0.435,0.496-0.744,0.496c-0.311,0-0.465-0.248-0.62-0.62L48.838-107.1c-0.248-0.621-0.713-0.838-1.085-0.838h-0.372
		c-0.187,0-0.217-0.093-0.217-0.279V-108.867z"/>
	<path fill="#936627" d="M79.467-105.922c0.031,0.155,0,0.217-0.124,0.279l-0.558,0.248c-0.093,0.062-0.186,0.031-0.31-0.094
		l-1.736-1.859c-0.403-0.403-0.992-0.899-1.922-0.899s-1.829,0.62-1.829,1.674c0.062,1.085,0.434,1.396,2.729,2.016
		c1.519,0.403,2.263,0.62,3.193,1.612c0.806,0.807,0.992,1.551,0.992,2.636c0,2.759-2.17,4.743-5.55,4.743
		c-1.736,0-3.256-0.619-3.628-0.898c-0.124-0.094-0.155-0.217-0.186-0.403l-0.403-2.977c0-0.155,0.093-0.217,0.217-0.248
		l0.558-0.155c0.093-0.031,0.155,0,0.217,0.124l1.24,1.829c0.558,0.807,1.271,1.582,2.697,1.582c1.147,0,1.829-0.807,1.829-1.892
		c0-1.24-0.899-1.644-2.914-2.264c-2.202-0.651-3.783-1.705-3.783-3.938c0-1.457,0.435-2.667,1.612-3.534
		c1.24-0.899,2.108-1.117,3.411-1.117c1.674,0,2.697,0.373,3.255,0.651c0.465,0.218,0.527,0.372,0.558,0.589L79.467-105.922z"/>
	<path fill="#936627" d="M92.052-98.388c-2.294-2.046-3.38-5.612-3.38-8.278c0-3.193,1.023-6.077,3.194-8.402
		c1.767-1.892,4.341-3.349,8.186-3.349c2.822,0,5.147,0.713,6.232,1.302c0.435,0.217,0.589,0.187,0.651-0.031l0.248-0.774
		c0.062-0.187,0.124-0.187,0.589-0.187c0.465,0,0.527,0.062,0.527,0.496c0,0.59,0.558,5.86,0.713,6.791
		c0.031,0.217,0,0.371-0.155,0.402l-0.682,0.187c-0.155,0.062-0.279-0.062-0.372-0.341c-0.341-1.24-1.178-2.822-2.48-4.155
		c-1.333-1.302-2.977-2.325-5.333-2.325c-4.527,0-6.449,4.123-6.418,8.713c0,1.953,0.558,5.767,2.759,8.092
		c2.015,2.078,3.783,2.326,4.837,2.326c3.535,0,6.17-1.613,7.317-3.318c0.155-0.248,0.31-0.372,0.465-0.248l0.527,0.465
		c0.093,0.062,0.124,0.187,0,0.373c-1.798,2.604-4.806,5.115-9.178,5.115C96.176-95.535,94.005-96.651,92.052-98.388z"/>
	<path fill="#936627" d="M118.278-105.891c0-0.62-0.062-1.334-0.465-1.705c-0.31-0.279-0.806-0.373-1.302-0.373
		c-0.559,0-1.085,0.125-1.644,0.496c-0.465,0.311-0.093,0.838-0.093,1.83c0,1.054-0.775,1.768-2.016,1.768
		c-0.713,0-1.333-0.435-1.333-1.117c0-0.682,0.217-1.611,0.868-2.17c1.302-1.178,3.441-2.295,5.953-2.295
		c1.984,0,2.511,0.311,3.162,0.899c0.683,0.62,0.868,1.52,0.868,2.636l0.062,6.17c0.031,1.612,0.124,2.108,0.713,2.108
		c0.434,0,0.775-0.341,0.899-0.558c0.124-0.187,0.217-0.217,0.31-0.155l0.435,0.248c0.124,0.062,0.217,0.155,0.093,0.435
		c-0.279,0.65-1.209,2.107-3.132,2.107c-1.209,0-2.356-0.434-2.945-1.891h-0.155c-0.775,0.713-1.426,1.146-2.666,1.612
		c-0.62,0.217-1.333,0.278-2.232,0.278c-1.085,0-2.047-1.178-2.047-2.852c0-1.365,0.651-2.791,2.667-3.783
		c2.418-1.147,3.193-1.488,4-2.047V-105.891z M118.309-103.008c-1.519,0.869-2.79,1.334-2.79,3.473c0,1.427,0.651,2.016,1.333,2.047
		c0.837-0.062,1.457-0.837,1.457-1.116V-103.008z"/>
	<path fill="#936627" d="M131.019-100.527c0,2.543,0.961,3.102,1.706,3.102c0.651,0,1.116-0.094,1.612-0.373
		c0.093-0.062,0.186-0.062,0.279,0.125l0.217,0.465c0.093,0.154,0,0.31-0.124,0.402c-0.527,0.373-1.922,1.24-4.341,1.24
		c-2.108,0-3.442-1.457-3.442-2.883c0-1.086,0.062-3.441,0.062-4.62l0.031-4.093h-1.706c-0.279,0-0.496-0.124-0.496-0.434
		c0-0.311,0.187-0.527,0.683-0.775c1.023-0.465,3.627-2.791,4.774-4.093c0.217-0.248,0.435-0.311,0.589-0.311
		c0.279,0,0.403,0.218,0.403,0.466l-0.124,3.286h3.938c0.186,0,0.279,0.155,0.217,0.279l-0.311,1.333
		c-0.031,0.124-0.093,0.248-0.279,0.248h-3.627c-0.062,1.271-0.062,2.76-0.062,4.186V-100.527z"/>
	<path fill="#936627" d="M140.07-103.721v0.838c0,3.225,1.83,4.806,4.093,4.806c1.519,0,2.759-0.714,3.379-1.706
		c0.062-0.154,0.187-0.186,0.311-0.093l0.527,0.279c0.124,0.062,0.217,0.217-0.062,0.744c-0.558,1.147-2.573,3.286-5.488,3.286
		c-1.984,0-3.627-0.341-4.65-1.457c-1.582-1.705-2.108-2.914-2.14-5.333c0-0.868,0-2.511,1.396-4.558
		c1.116-1.644,3.007-2.543,5.395-2.543c5.023,0,5.302,4.807,5.302,5.303c0,0.402-0.279,0.434-0.961,0.434H140.07z M143.077-104.898
		c0.683,0,0.992-0.155,0.992-0.62c0-1.364-0.558-2.698-1.519-2.698c-1.458,0-2.232,1.147-2.45,3.318H143.077z"/>
	<path fill="#936627" d="M150.826-88.527c-1.147-0.651-1.52-1.457-1.52-2.419c0-1.55,1.736-2.666,3.194-3.255v-0.155
		c-1.426-0.435-2.139-1.396-2.139-2.48c0-1.799,1.736-2.791,2.759-3.287v-0.093c-1.333-0.775-2.729-2.077-2.729-4.713
		c0-2.016,1.612-4.527,6.015-4.527c2.729,0,4.093,1.427,4.372,1.736c0.713-0.589,1.86-1.085,2.729-1.085
		c1.116,0,1.705,0.62,1.705,1.612c0,0.713-0.651,1.334-1.364,1.334c-0.527,0-0.775-0.218-0.961-0.527
		c-0.155-0.248-0.527-0.465-0.868-0.465c-0.155,0-0.435,0.123-0.589,0.278c0.124,0.218,0.372,0.899,0.372,2.016
		c0,1.179-0.341,2.325-1.395,3.349c-1.179,1.116-2.946,1.488-4.186,1.488c-0.62,0-1.054,0-1.83-0.093
		c-0.403,0.248-1.147,0.806-1.147,1.426c0,1.085,0.899,1.179,4.248,1.085c2.108-0.062,3.69,0.062,5.209,1.24
		c1.116,0.899,1.52,1.984,1.52,3.132c0,1.303-0.589,2.419-1.798,3.442c-1.147,0.93-3.503,1.922-6.635,1.922
		C154.299-87.566,152.035-87.814,150.826-88.527z M160.903-91.411c0-1.705-1.209-2.636-4.031-2.512l-2.697,0.124
		c-0.899,0.217-1.55,1.179-1.55,2.108c0,0.899,0.496,1.675,1.085,2.108c0.868,0.62,1.736,0.807,3.131,0.807
		C158.888-88.775,160.903-89.861,160.903-91.411z M154.733-107.286c-0.434,0.62-0.62,2.046-0.62,3.441
		c0,0.899,0.279,1.892,0.682,2.356c0.341,0.435,0.806,0.62,1.426,0.62c1.364,0,1.83-2.077,1.83-4.465
		c0-1.147-0.124-1.798-0.279-2.077c-0.279-0.527-0.651-0.868-1.52-0.868C155.57-108.278,155.167-107.906,154.733-107.286z"/>
	<path fill="#936627" d="M167.07-97.829c-1.178-1.303-1.643-2.946-1.643-4.899c0-1.395,0.775-3.689,2.667-5.146
		c1.581-1.24,3.163-1.582,4.62-1.582c2.139,0,3.597,0.651,4.992,1.954c1.519,1.364,2.139,3.038,2.139,4.93
		c0,1.798-0.775,3.534-1.984,4.837c-1.488,1.551-3.286,2.17-5.395,2.17C170.202-95.566,168.652-96.031,167.07-97.829z
		 M175.132-102.79c0-3.597-1.24-5.364-2.604-5.364c-0.775,0-1.271,0.217-1.674,0.837c-0.62,0.962-1.023,2.295-1.023,4.806
		c0,1.799,0.155,2.977,0.775,4.311c0.403,0.837,0.899,1.333,2.046,1.333C174.357-96.868,175.132-99.38,175.132-102.79z"/>
	<path fill="#936627" d="M187.314-98.356c0,0.961,0.31,1.271,0.961,1.271h1.271c0.186,0,0.217,0.093,0.217,0.278v0.621
		c0,0.186-0.031,0.278-0.155,0.278c-0.186,0-1.612-0.093-4.402-0.093c-2.388,0-3.69,0.093-3.876,0.093
		c-0.124,0-0.186-0.062-0.186-0.31v-0.59c0-0.217,0.062-0.278,0.341-0.278h0.899c0.465,0,0.744-0.187,0.806-0.744
		c0.062-0.868,0.062-1.954,0.062-3.504v-2.573c0-1.334-0.31-1.892-1.24-2.419l-0.527-0.31c-0.187-0.094-0.248-0.155-0.248-0.279
		v-0.279c0-0.124,0.062-0.186,0.248-0.248l4.341-1.891c0.186-0.062,0.31-0.125,0.496-0.125c0.217,0,0.341,0.187,0.372,0.373
		l0.279,2.418h0.217c0.961-2.047,2.325-2.977,3.689-2.977c0.93,0,1.644,0.713,1.644,1.799c0,0.837-0.961,1.767-1.984,1.767
		c-0.435,0-0.837-0.093-1.116-0.278c-0.248-0.155-0.527-0.218-0.775-0.218c-0.31,0-0.62,0.155-0.806,0.559
		c-0.403,0.837-0.527,1.426-0.527,1.829V-98.356z"/>
	<path fill="#936627" d="M193.109-89.365c0-1.022,0.744-1.767,1.52-1.767c0.434,0,0.868,0.093,1.302,0.341
		c0.372,0.248,0.744,0.279,0.992,0.124c0.311-0.217,1.923-3.597,2.295-4.682c-0.248-1.085-4.124-10.759-4.341-11.255
		c-0.311-0.775-0.651-1.334-1.085-1.334h-0.496c-0.217,0-0.248-0.093-0.248-0.279v-0.682c0-0.124,0.031-0.217,0.248-0.217
		c0.279,0,1.023,0.093,3.721,0.093c1.891,0,2.853-0.093,3.194-0.093c0.248,0,0.279,0.093,0.279,0.279v0.65
		c0,0.155-0.031,0.248-0.186,0.248h-0.434c-0.341,0-0.62,0.217-0.558,0.713c0.093,0.527,1.829,6.512,2.046,7.193h0.155
		c0.775-1.767,2.45-6.076,2.636-6.666c0.248-0.837-0.155-1.24-0.775-1.24h-0.496c-0.186,0-0.217-0.093-0.217-0.248v-0.682
		c0-0.155,0.031-0.248,0.186-0.248c0.403,0,1.054,0.093,2.791,0.093c1.302,0,2.016-0.093,2.356-0.093
		c0.186,0,0.186,0.124,0.186,0.31v0.589c0,0.187,0,0.279-0.155,0.279h-0.341c-0.341,0-0.775,0.124-1.147,0.62
		c-0.559,0.744-2.729,5.364-5.085,10.449c-1.582,3.38-2.915,6.263-3.504,7.255c-0.496,0.838-1.178,2.047-2.915,2.047
		C193.946-87.566,193.109-88.218,193.109-89.365z"/>
</g>
<g>
	<path fill="#BFBFBF" d="M-6-290h-38c-3.313,0-6,2.687-6,6v38c0,3.313,2.687,6,6,6h38c3.313,0,6-2.687,6-6v-38
		C0-287.313-2.687-290-6-290z M-2-246c0,2.209-1.791,4-4,4h-38c-2.209,0-4-1.791-4-4v-38c0-2.209,1.791-4,4-4h38
		c2.209,0,4,1.791,4,4V-246z"/>
	<path fill="#E18F40" d="M-23.705-250l-2.799-6.999l-5.682,2.435V-280L-16-261.501l-5.144,2.205l2.852,7.131L-23.705-250z
		 M-25.44-259.57l2.818,7.044l1.804-0.723l-2.836-7.087l4.431-1.898l-11.021-12.594v17.317L-25.44-259.57z"/>
</g>
<g>
	<path fill="#BFBFBF" d="M-44-356v24H0v-24H-44z M-2-334h-40v-20h40V-334z"/>
	<rect x="-44" y="-328" fill="#BFBFBF" width="26" height="2"/>
	<rect x="-44" y="-322" fill="#BFBFBF" width="20" height="2"/>
	<rect x="-44" y="-316" fill="#BFBFBF" width="22" height="2"/>
	<path fill="#E18F40" d="M-12-328v20H0v-20H-12z M-2-310h-8v-16h8V-310z"/>
	<rect x="-44" y="-310" fill="#BFBFBF" width="26" height="2"/>
</g>
<g>
	<g>
		<path fill="#BFBFBF" d="M106-378H80c-3.313,0-6,2.687-6,6v38c0,3.313,2.687,6,6,6h26c3.313,0,6-2.687,6-6v-38
			C112-375.313,109.313-378,106-378z M110-334c0,2.209-1.791,4-4,4H80c-2.209,0-4-1.791-4-4v-38c0-2.209,1.791-4,4-4h26
			c2.209,0,4,1.791,4,4V-334z"/>
	</g>
	<polygon fill="#BFBFBF" points="86.566,-350.2 84.05,-352.638 82.95,-351.538 85.466,-349.1 86.566,-348 87.666,-349.1 
		96,-356.588 94.9,-357.688 	"/>
	<polygon fill="#BFBFBF" points="86.183,-337.1 83.667,-339.538 82.566,-338.438 85.083,-336 86.183,-334.9 87.282,-336 
		95.616,-343.488 94.516,-344.588 	"/>
	<polygon fill="#E18F40" points="86.183,-362.512 83.667,-364.95 82.566,-363.85 85.083,-361.412 86.183,-360.312 87.282,-361.412 
		95.616,-368.9 94.516,-370 	"/>
</g>
<path fill="#BFBFBF" d="M41-340c-13.807,0-25,11.193-25,25s11.193,25,25,25s25-11.193,25-25S54.807-340,41-340z M41-292
	c-12.703,0-23-10.297-23-23s10.297-23,23-23s23,10.297,23,23S53.703-292,41-292z"/>
<path fill="#E18F40" d="M58.81-303.911C60.82-307.132,62-310.924,62-315c0-11.598-9.402-21-21-21c-0.337,0-0.667,0.035-1,0.05
	v20.657L58.81-303.911z"/>
<g>
	<g>
		<path fill="#C1C1C0" d="M-31.046-99.532v-1.619v-11.334c-4.32,0-7.557-1.079-9.717-3.239c-0.432-1.401-0.784-2.915-1.052-4.533
			c-0.27-1.619-0.461-2.915-0.566-3.887v-1.294c4.316,0,7.555,1.081,9.716,3.237c1.076,2.161,1.619,5.4,1.619,9.716
			c0-5.396,0.538-9.174,1.618-11.334v8.095c0-0.863,0.35-1.887,1.052-3.077c0.703-1.186,1.43-1.781,2.188-1.781
			c0.971-0.971,2.13-1.724,3.481-2.267c1.349-0.538,2.454-0.863,3.319-0.97h1.295c0,4.317-1.08,7.557-3.237,9.716
			c-2.162,1.081-4.858,1.619-8.098,1.619v8.095c0-2.156,0.541-3.777,1.619-4.858c1.404-0.971,2.917-1.724,4.535-2.267
			c1.619-0.538,2.915-0.863,3.886-0.971h1.295c1.079,4.318,0,7.557-3.237,9.716c-0.648,1.293-2.08,2.348-4.292,3.156
			c-2.214,0.811-3.481,1.377-3.807,1.7v1.621c0-1.079-0.54-1.621-1.618-1.621c-4.32,0-7.557-1.076-9.717-3.238
			c-0.97-1.4-1.728-3.048-2.266-4.939c-0.541-1.887-0.866-3.426-0.971-4.615v-1.781c4.315,0,7.555,1.081,9.714,3.237
			C-32.127-107.088-31.046-103.848-31.046-99.532z M-3.519-65.528c-1.513,4.533-4.209,7.772-8.097,9.716h-1.619
			c0-1.079-0.542-2.159-1.619-3.24c-2.161-4.315-4.32-7.555-6.477-9.716c-0.218,0-1,0.109-2.348,0.325
			c-1.353,0.217-2.835,0.322-4.454,0.322c-1.619,0-3.132-0.215-4.533-0.647c-1.944-0.971-3.591-2.401-4.939-4.29
			c-1.351-1.889-2.186-3.536-2.51-4.939l-0.648-2.106c4.318-1.076,8.636-1.076,12.954,0l3.24,3.239
			c-0.54-0.538-1.081-1.619-1.619-3.239c-0.543-1.619-1.081-2.697-1.621-3.238c-4.317,1.081-8.095,0-11.332-3.239
			c-1.406-0.971-2.51-2.267-3.321-3.885c-0.811-1.619-1.269-3.022-1.377-4.21L-44-96.293c4.315-1.079,8.095-0.541,11.335,1.619
			c2.157,2.161,3.237,3.78,3.237,4.858v-4.858c0,0.433,0.268,1.322,0.811,2.671c0.538,1.353,0.808,2.62,0.808,3.806
			c0-2.159,1.078-4.316,3.24-6.477c0.971-1.401,2.267-2.644,3.888-3.725c1.619-1.078,3.019-1.781,4.208-2.104l1.621-0.648
			c1.076,5.398,0.538,9.716-1.621,12.954c-1.188,1.19-2.996,2.185-5.422,2.996c-2.429,0.81-3.861,1.432-4.292,1.862
			c0.538,1.081,1.349,2.97,2.429,5.667c1.076,2.702,1.887,4.59,2.43,5.668c0-0.215-0.11-0.997-0.325-2.347
			c-0.217-1.349-0.323-2.673-0.323-3.969c0-1.294,0.215-2.427,0.648-3.4c0.97-1.944,2.267-3.586,3.885-4.939
			c1.619-1.349,3.022-2.185,4.21-2.508l1.619-0.648c0.215,0.433,0.459,1.052,0.729,1.863c0.268,0.808,0.648,2.429,1.133,4.858
			c0.485,2.426,0.404,4.506-0.241,6.232c-1.406,2.161-3.106,3.78-5.102,4.858c-1.999,1.081-3.536,1.619-4.615,1.619l4.858,9.716
			c0-0.753-0.11-1.645-0.325-2.672c-0.218-1.024-0.323-1.941-0.323-2.752c0-0.81,0.215-1.7,0.648-2.672
			c0.43-1.941,1.456-3.723,3.077-5.343c1.618-1.619,3.129-2.752,4.533-3.4l2.104-0.971c0.108,0.218,0.271,0.459,0.487,0.729
			c0.216,0.27,0.538,0.917,0.972,1.941c0.43,1.027,0.752,2.025,0.97,2.996c0.215,0.973,0.296,2.133,0.244,3.481
			C-2.521-67.981-2.871-66.714-3.519-65.528z M-21.33-123.82c-0.973,0.432-1.999,0.647-3.078,0.647c-1.08,0-2.106-0.107-3.076-0.325
			c-0.971-0.215-1.619-0.322-1.944-0.322c-1.08,0-2.51-0.459-4.291-1.378c-1.781-0.915-3.051-2.077-3.804-3.48
			c-0.433-0.971-0.784-2.131-1.052-3.481c-0.272-1.348-0.461-2.455-0.566-3.318v-1.295c4.315,0,7.015,1.081,8.095,3.237
			c0.43,0.433,0.782,1.052,1.052,1.862c0.268,0.811,0.459,1.485,0.566,2.025v0.971c0-2.159,0.541-4.316,1.619-6.477
			c-3.237,0-5.398-1.619-6.476-4.858c-0.433-0.971-0.648-2.13-0.648-3.481c0-1.348,0.107-2.453,0.324-3.318l0.324-1.295
			c3.239,1.081,5.398,3.237,6.476,6.477v4.858c0.431-0.756,0.811-1.621,1.135-2.592c0.324-0.971,0.646-1.752,0.971-2.348
			c0.323-0.593,0.7-1.105,1.133-1.538c-1.081,1.078-1.619,3.237-1.619,6.477c0-0.863,0.323-1.621,0.971-2.269
			c0.648-0.646,1.401-0.971,2.267-0.971c0.973-0.431,2.13-0.648,3.481-0.648c1.349,0,2.456,0.11,3.321,0.325l1.296,0.323
			c-1.081,3.24-2.699,5.398-4.858,6.477h-8.098c0,0.542-0.27,1.621-0.808,3.24c-0.543,1.619-0.811,2.699-0.811,3.237
			c0.325-0.323,0.701-0.835,1.133-1.538c0.43-0.701,0.916-1.32,1.458-1.862c0.538-0.538,1.295-1.023,2.267-1.457
			c0.971-0.43,2.131-0.647,3.481-0.647c1.349,0,2.456,0.107,3.321,0.323l1.293,0.325C-16.475-128.679-18.093-125.98-21.33-123.82z
			 M-22.951-65.528c3.888,1.296,7.125,4.533,9.716,9.716c-0.433,0.323-1.081,0.755-1.944,1.295c-0.865,0.541-2.429,1.107-4.696,1.7
			c-2.267,0.593-4.373,0.675-6.314,0.242c-1.943-0.971-3.725-2.267-5.343-3.885c-1.621-1.621-2.754-3.022-3.402-4.21l-0.971-1.618
			c0.431-0.325,1.078-0.755,1.944-1.296c0.863-0.54,2.429-1.107,4.696-1.699C-26.999-65.877-24.893-65.958-22.951-65.528z
			 M-18.093-143.251c-0.97,0.433-1.862,0.646-2.67,0.646c-0.811,0-1.566-0.105-2.269-0.323c-0.703-0.215-1.215-0.323-1.538-0.323
			c-0.323-0.107-0.755-0.296-1.295-0.567c-0.541-0.27-1.27-0.973-2.186-2.106c-0.918-1.133-1.377-2.401-1.377-3.806
			c-0.432-0.971-0.648-1.995-0.648-3.075c0-1.079,0.108-1.889,0.326-2.429l0.322-0.973c3.24,1.08,4.858,2.701,4.858,4.858
			c0.431,0.433,0.648,1.052,0.648,1.862c0,0.811-0.11,1.7-0.325,2.673c-0.218,0.971-0.323,1.619-0.323,1.941
			c0.431-0.753,0.81-1.618,1.133-2.589c0.325-0.973,0.648-1.755,0.973-2.347c0.322-0.593,0.7-1.107,1.133-1.54
			c0,0.542-0.273,1.351-0.811,2.429c-0.542,1.081-0.81,1.892-0.81,2.43c0-1.079,1.079-1.619,3.239-1.619
			c0.971-0.431,1.997-0.648,3.077-0.648c1.076,0,1.887,0.107,2.429,0.323l0.971,0.325
			C-14.315-144.872-15.935-143.251-18.093-143.251z M-5.14-57.432c0.43-1.941,1.322-3.857,2.673-5.748
			c1.348-1.886,2.616-3.318,3.806-4.292l1.618-1.295c0.43,0.432,0.997,1.109,1.7,2.025c0.701,0.917,1.511,2.646,2.428,5.181
			c0.917,2.539,1.158,4.995,0.729,7.368c-1.081,3.24-3.779,7.02-8.098,11.335l1.622,1.619h-1.622l-1.617-1.619
			c-0.972,0.972-2.915,2.025-5.829,3.158c-2.915,1.134-5.83,1.7-8.746,1.7c-1.941-0.431-3.861-1.458-5.747-3.077
			c-1.889-1.618-3.319-3.13-4.292-4.533l-1.296-2.106c4.318-3.237,9.176-4.857,14.575-4.857c0.538,0.542,1.619,1.081,3.24,1.621
			c1.618,0.541,2.697,1.079,3.237,1.619c-2.161-2.159-3.78-4.318-4.858-6.477c4.318,4.318,7.017,7.557,8.097,9.714
			C-5.68-50.413-6.22-54.193-5.14-57.432z M-9.995-152.967c-1.081,2.161-2.702,3.237-4.858,3.237c-1.19,0-2.458-0.268-3.806-0.808
			c-1.351-0.541-2.242-0.811-2.67-0.811c0-0.538-0.542-1.348-1.621-2.429c-1.081-1.079-1.619-1.887-1.619-2.429
			c-0.433-1.076-0.54-2.104-0.323-3.077c0.216-0.971,0.591-1.781,1.133-2.427l0.809-0.973c2.159,1.081,3.239,2.7,3.239,4.858v3.239
			c2.159-2.159,3.237-3.777,3.237-4.858c0.54,0,1.349-0.268,2.429-0.811c1.079-0.539,1.889-0.811,2.429-0.811
			c0.973,0,1.996,0.139,3.077,0.407c1.078,0.27,1.889,0.566,2.429,0.889l0.971,0.325c-2.159,2.161-3.779,3.237-4.855,3.237
			c-0.973,0-1.863-0.134-2.673-0.404c-0.81-0.268-1.377-0.567-1.7-0.892l-0.485-0.323c-1.621,0-3.24,1.619-4.858,4.858l3.237-3.239
			c0.973,0,1.997,0.272,3.077,0.81c1.079,0.54,1.889,1.081,2.429,1.619L-9.995-152.967z M-13.235-164.302
			c0,3.237-1.081,4.858-3.24,4.858c-2.159-1.078-3.237-2.697-3.237-4.858c0-0.971,0.268-1.863,0.811-2.673
			c0.538-0.808,1.076-1.375,1.619-1.7l0.808-0.485C-14.315-168.08-13.235-166.461-13.235-164.302z M219.937-57.432
			c0,5.4-0.54,9.177-1.616,11.334c1.076-2.157,3.773-5.396,8.096-9.714c-1.081,2.159-2.702,4.318-4.859,6.477
			c0.431-0.43,0.945-0.81,1.537-1.133c0.593-0.325,1.375-0.648,2.35-0.973c0.972-0.322,1.832-0.7,2.588-1.133
			c1.945,0,4.128,0.406,6.558,1.214c2.43,0.81,4.344,1.595,5.75,2.348l2.267,1.295c-0.325,0.648-0.839,1.433-1.537,2.349
			c-0.703,0.918-2.188,2.267-4.454,4.048c-2.266,1.78-4.59,2.89-6.962,3.32c-3.022,0-5.939-0.593-8.746-1.781
			s-4.208-2.212-4.208-3.077c-0.436,0.433-0.918,0.784-1.459,1.052c-0.54,0.271-0.97,0.462-1.295,0.567h-0.484
			c0-1.079,0.536-1.619,1.618-1.619c-0.11-0.104-0.567-0.538-1.375-1.295c-0.809-0.754-1.537-1.457-2.187-2.104
			c-0.646-0.647-1.349-1.403-2.104-2.269c-0.756-0.861-1.353-1.806-1.783-2.833c-0.431-1.023-0.646-1.968-0.646-2.833
			c-0.43-2.374-0.377-4.776,0.163-7.206c0.541-2.429,1.186-4.234,1.941-5.425l1.133-1.943
			C215.619-65.528,218.856-61.748,219.937-57.432z M219.937-78.481c4.317,2.161,7.556,5.398,9.717,9.714v8.097l-1.621,1.619v3.24
			c0-1.836,0.865-3.725,2.591-5.668c1.727-1.944,4.103-3.292,7.125-4.048c1.945-0.431,3.991-0.377,6.153,0.163
			c2.157,0.54,3.83,1.188,5.021,1.941l1.778,1.136c-2.161,4.318-5.397,7.557-9.715,9.714c-1.942,0.433-4.13,0.38-6.559-0.161
			c-2.424-0.54-4.344-1.188-5.745-1.943l-2.267-1.133c-5.183-2.592-8.421-5.831-9.716-9.716c-0.436-1.944-0.383-3.993,0.162-6.154
			c0.536-2.157,1.186-3.83,1.942-5.019L219.937-78.481z M224.794-156.207c-0.971,0-1.862-0.268-2.67-0.809
			c-0.808-0.54-1.378-1.078-1.7-1.621l-0.487-0.808c0.215-0.215,0.514-0.459,0.892-0.729c0.378-0.268,1.055-0.648,2.025-1.133
			c0.97-0.485,1.616-0.404,1.941,0.242c0.972,0,1.863,0.139,2.671,0.407c0.812,0.27,1.378,0.566,1.7,0.889l0.488,0.325
			c-1.081-2.159-1.621-3.778-1.621-4.858c0-0.971,0.268-1.863,0.812-2.673c0.536-0.808,1.076-1.375,1.617-1.7l0.813-0.485
			c1.076,1.081,1.616,2.699,1.616,4.858c0,0.97-0.136,1.862-0.404,2.67c-0.273,0.81-0.567,1.377-0.892,1.702l-0.32,0.486
			c0,1.081,1.076,2.699,3.237,4.858c-1.081-1.079-1.621-2.159-1.621-3.239c0.43-0.971,1.054-1.863,1.863-2.671
			c0.812-0.811,1.484-1.377,2.024-1.702l0.972-0.485c1.08,2.162,1.62,4.32,1.62,6.477c0,0.542-0.54,1.35-1.62,2.429
			c-1.082,1.081-1.617,1.891-1.617,2.429c0,0.433,0.269,1.052,0.809,1.862c0.54,0.811,0.809,1.81,0.809,2.996v-4.858
			c0.43-0.971,1.054-1.862,1.861-2.671c0.809-0.81,1.485-1.377,2.025-1.699l0.971-0.488c0.215,0.218,0.457,0.542,0.729,0.973
			c0.268,0.432,0.645,1.24,1.133,2.429c0.488,1.188,0.404,2.213-0.241,3.075c-0.435,0.973-1.055,1.863-1.863,2.673
			c-0.808,0.811-1.484,1.377-2.024,1.7l-0.971,0.485c0,1.081,0.268,2.429,0.808,4.048c0.541,1.621,0.81,2.971,0.81,4.05
			c0-1.188-0.269-2.456-0.81-3.806c-0.54-1.349-0.808-2.238-0.808-2.671c-0.325,0-0.971,0.107-1.946,0.323
			c-0.97,0.218-1.858,0.323-2.67,0.323c-0.809,0-1.433-0.213-1.863-0.646c-0.971-0.431-1.863-1.054-2.67-1.862
			c-0.809-0.811-1.375-1.483-1.7-2.025l-0.488-0.971c2.161-1.078,4.318-1.621,6.479-1.621l3.238,3.24
			c-0.541-0.538-1.082-1.349-1.617-2.43c-0.545-1.078-1.081-1.886-1.621-2.429c-2.161,1.081-3.781,1.619-4.857,1.619
			c-0.971-0.428-2-1.052-3.076-1.86c-1.08-0.81-1.893-1.484-2.428-2.025l-0.976-0.971c2.162-1.079,4.318-1.621,6.479-1.621
			c0.54,0.542,1.348,1.08,2.429,1.621c1.076,0.541,1.888,1.081,2.428,1.619c-0.65-0.648-1.27-1.32-1.862-2.025
			c-0.593-0.701-1.002-1.239-1.212-1.618c-0.22-0.378-0.462-0.672-0.729-0.892c-0.272-0.213-0.624-0.323-1.054-0.323
			C227.492-156.745,225.871-156.207,224.794-156.207z M236.132-72.005c0.535-1.078,1.349-2.967,2.429-5.668
			c1.076-2.697,1.885-4.585,2.426-5.667c0,0.541-0.269,1.619-0.81,3.238c-0.54,1.621-0.808,2.702-0.808,3.239
			c0-0.43,0.132-0.811,0.404-1.133c0.268-0.325,0.703-0.648,1.296-0.971c0.593-0.325,1.106-0.703,1.537-1.135
			c1.941-0.428,3.993-0.646,6.153-0.646c2.157,0,3.831,0.108,5.021,0.323l1.779,0.323c-1.08,5.4-3.777,9.178-8.096,11.335
			c-1.726,0.542-3.426,0.757-5.1,0.647c-1.673-0.105-3.131-0.375-4.374-0.808c-1.239-0.43-1.858-0.916-1.858-1.458
			c-2.161,2.162-4.322,5.401-6.479,9.716l4.857-9.716c-1.19,0-2.754-0.647-4.695-1.943c-1.946-1.293-3.62-3.345-5.021-6.152
			c-0.971-1.401-1.458-3.048-1.458-4.939c0-1.887,0.268-3.426,0.813-4.615l0.645-1.781c5.399,1.081,8.636,3.238,9.716,6.477
			c0.972,1.514,1.59,2.862,1.862,4.048c0.268,1.19,0.294,2.618,0.08,4.292C236.237-73.325,236.132-72.33,236.132-72.005z
			 M253.943-86.579c-1.406,1.405-3.053,2.376-4.942,2.914c-1.888,0.542-3.425,0.758-4.611,0.648l-1.783-0.323h-1.62
			c-0.756-0.325-1.779-0.7-3.076-1.133c-1.295-0.431-2.485-0.916-3.561-1.458c-1.082-0.538-2.105-1.296-3.075-2.267
			c-0.975-1.401-1.594-3.183-1.863-5.344c-0.272-2.159-0.298-3.94-0.083-5.344l0.326-2.267c4.317,1.081,7.555,2.7,9.716,4.858
			c0.325,0.54,0.729,1.241,1.212,2.104c0.488,0.866,0.835,1.54,1.055,2.025c0.215,0.485,0.431,1.08,0.646,1.781
			c0.215,0.703,0.325,1.432,0.325,2.186c0-3.238,0.54-5.396,1.621-6.477c0,1.081-0.273,2.699-0.813,4.858
			c-0.54,2.162-0.808,3.78-0.808,4.858c0-0.973,0.431-2.456,1.296-4.454c0.86-1.996,2.051-3.749,3.562-5.262
			c1.402-0.971,3.049-1.592,4.938-1.862c1.889-0.268,3.426-0.297,4.616-0.082l1.783,0.325
			C258.801-91.975,257.181-88.735,253.943-86.579z M237.749-140.014c0.864,0,1.62,0.325,2.266,0.971
			c0.649,0.648,0.972,1.406,0.972,2.269c0-2.159,0.54-4.318,1.62-6.477c0.431-0.973,1.054-1.862,1.862-2.673
			c0.809-0.81,1.484-1.377,2.025-1.7l0.97-0.485c0.216,0.322,0.457,0.784,0.729,1.375c0.269,0.595,0.646,1.675,1.134,3.239
			c0.487,1.566,0.403,2.728-0.241,3.481c-0.436,0.971-1.19,1.862-2.267,2.673c-1.081,0.808-2.057,1.375-2.917,1.7l-1.296,0.486
			c-1.08,1.08-3.777,1.618-8.096,1.618c-0.971-0.43-1.862-1.186-2.67-2.267c-0.813-1.078-1.379-2.049-1.7-2.915l-0.487-1.295
			C232.89-141.092,235.587-141.092,237.749-140.014z M239.369-131.917l4.858,4.856c-1.081-1.076-1.621-3.778-1.621-8.095
			c0,1.188,0.268,2.457,0.808,3.806c0.54,1.351,0.813,2.24,0.813,2.671c0-2.159,0.535-3.778,1.616-4.858
			c0.43-0.971,1.19-1.862,2.267-2.67c1.08-0.811,2.052-1.377,2.916-1.7l1.297-0.488c1.076,4.32,1.076,7.557,0,9.716
			c-3.237,3.239-5.939,4.858-8.096,4.858c-0.221,0-0.787,0.055-1.7,0.162c-0.918,0.108-1.73,0.188-2.43,0.242
			c-0.702,0.057-1.458-0.082-2.267-0.404c-0.812-0.325-1.378-0.863-1.699-1.619c-1.405-0.43-2.512-1.188-3.321-2.269
			c-0.808-1.077-1.27-2.049-1.375-2.914l-0.163-1.294C234.511-132.995,237.208-132.995,239.369-131.917z M240.986-120.583
			c0.754,0,1.483,0.595,2.187,1.781c0.703,1.19,1.055,2.214,1.055,3.077v-8.095c0,1.08,0.269,2.699,0.809,4.857
			c0.54,2.161,0.808,3.78,0.808,4.858v1.619c0-4.316,0.54-7.555,1.62-9.716c0.971-0.971,2.132-1.724,3.483-2.267
			c1.35-0.538,2.452-0.863,3.316-0.971h1.296c1.081,3.237,0.541,6.477-1.616,9.714c-0.976,0.973-2.134,1.728-3.483,2.269
			c-1.353,0.54-2.456,0.863-3.32,0.971h-1.296c0,5.398-0.54,9.176-1.616,11.334v1.619c-4.317,0-7.561-1.078-9.717-3.237
			c-0.971-0.973-1.727-2.269-2.267-3.887c-0.54-1.619-0.865-3.02-0.97-4.21v-1.619c4.313,0,7.555,1.081,9.712,3.237
			c2.16,2.161,3.241,3.782,3.241,4.858v-8.095c-3.241,0-5.939-0.538-8.096-1.619c-1.405-0.973-2.512-2.269-3.321-3.887
			c-0.808-1.619-1.27-3.02-1.375-4.21l-0.163-1.618C235.587-123.82,238.829-122.74,240.986-120.583z M255.56-102.77
			c-1.401,1.403-3.049,2.374-4.937,2.915c-1.89,0.54-3.431,0.755-4.617,0.648l-1.778-0.325c0-0.971,0.43-2.454,1.296-4.452
			c0.86-1.997,2.047-3.751,3.562-5.265c0.971-0.971,2.267-1.724,3.882-2.267c1.622-0.538,3.022-0.863,4.213-0.971h1.62
			C258.801-108.168,257.721-104.929,255.56-102.77z"/>
	</g>
	<path fill="#777777" d="M78.293-139.93h5.085v1.023h-3.866v3.137h3.572v1.009h-3.572v4.272h-1.219V-139.93z"/>
	<path fill="#777777" d="M90-134.914h-3.67v3.403h4.09v1.022h-5.309v-9.441h5.099v1.023h-3.88v2.982H90V-134.914z"/>
	<path fill="#777777" d="M93.526-133.458l-0.98,2.97h-1.261l3.208-9.441h1.471l3.222,9.441h-1.303l-1.008-2.97H93.526z
		 M96.622-134.41l-0.924-2.718c-0.21-0.616-0.35-1.177-0.49-1.723h-0.028c-0.14,0.56-0.294,1.134-0.476,1.708l-0.924,2.732H96.622z"
		/>
	<path fill="#777777" d="M101.282-138.893h-2.872v-1.037h6.99v1.037h-2.885v8.404h-1.233V-138.893z"/>
	<path fill="#777777" d="M107.666-139.93v5.59c0,2.115,0.938,3.012,2.199,3.012c1.401,0,2.297-0.926,2.297-3.012v-5.59h1.232v5.506
		c0,2.898-1.527,4.09-3.572,4.09c-1.933,0-3.39-1.107-3.39-4.034v-5.562H107.666z"/>
	<path fill="#777777" d="M115.505-139.803c0.617-0.127,1.499-0.197,2.339-0.197c1.303,0,2.143,0.238,2.731,0.771
		c0.477,0.42,0.743,1.064,0.743,1.793c0,1.246-0.785,2.072-1.779,2.408v0.043c0.729,0.252,1.163,0.924,1.387,1.904
		c0.308,1.316,0.532,2.228,0.729,2.592h-1.261c-0.154-0.266-0.364-1.078-0.63-2.256c-0.28-1.303-0.784-1.793-1.891-1.834h-1.148
		v4.09h-1.219V-139.803z M116.724-135.503h1.247c1.303,0,2.129-0.714,2.129-1.793c0-1.219-0.883-1.751-2.171-1.765
		c-0.588,0-1.008,0.056-1.205,0.111V-135.503z"/>
	<path fill="#777777" d="M127.926-134.914h-3.67v3.403h4.09v1.022h-5.309v-9.441h5.099v1.023h-3.88v2.982h3.67V-134.914z"/>
	<path fill="#777777" d="M129.925-139.803c0.743-0.113,1.625-0.197,2.591-0.197c1.751,0,2.998,0.406,3.824,1.178
		c0.84,0.77,1.331,1.862,1.331,3.389c0,1.541-0.476,2.803-1.358,3.67c-0.883,0.883-2.339,1.359-4.174,1.359
		c-0.869,0-1.597-0.042-2.213-0.111V-139.803z M131.144-131.455c0.308,0.057,0.756,0.07,1.233,0.07c2.605,0,4.02-1.457,4.02-4.006
		c0.014-2.228-1.247-3.643-3.824-3.643c-0.63,0-1.106,0.057-1.429,0.127V-131.455z"/>
</g>
<g>
	<path fill="#FFFFFF" d="M361,24c-29.271,0-53,23.729-53,53s23.729,53,53,53s53-23.729,53-53S390.271,24,361,24z M388.738,114.942
		c-20.955,15.319-50.361,10.751-65.681-10.204s-10.75-50.361,10.204-65.681c20.955-15.318,50.361-10.75,65.681,10.204
		C414.262,70.217,409.692,99.623,388.738,114.942z"/>
	<circle fill="#FFFFFF" cx="360.958" cy="48.898" r="6.898"/>
	<path fill="#FFFFFF" d="M390.621,57.176c0,0-14.486,2.07-29.663,2.07c-13.797,0-28.283-2.07-28.283-2.07
		c-0.761,0-1.38,0.618-1.38,1.381v4.138c0,0.762,0.619,1.381,1.38,1.381l20.694,2.068c0,0,0.691,11.038,0,17.246
		c-0.689,6.209-4.235,26.664-4.235,26.664c-0.155,0.745,0.325,1.477,1.071,1.631l4.053,0.839c0.746,0.154,1.477-0.325,1.631-1.07
		c0,0,2.311-25.305,5.069-25.305c3.449,0,5.885,25.113,5.885,25.113c0.155,0.746,0.885,1.226,1.632,1.071l4.052-0.839
		c0.747-0.154,1.226-0.886,1.071-1.632c0,0-3.672-20.372-4.362-26.473c-0.689-6.101,0-17.246,0-17.246l21.386-2.068
		c0.762,0,1.379-0.619,1.379-1.381v-4.138C392,57.794,391.383,57.176,390.621,57.176z"/>
</g>
<g>
	<path fill="#FFFFFF" d="M0,0.001V106h106V0.001H0z M100.592,100.592H5.409V5.409h95.183V100.592z"/>
	<polygon fill="#FFFFFF" points="76.272,55.333 72.968,52.028 56.091,68.906 56.091,28.123 50.466,28.123 50.466,68.496 
		33.795,51.824 30.286,55.333 53.279,78.328 	"/>
</g>
</svg>
