<?xml version="1.0" encoding="UTF-8"?>
<svg width="78px" height="90px" viewBox="0 0 78 90" version="1.1" xmlns="http://www.w3.org/2000/svg" xmlns:xlink="http://www.w3.org/1999/xlink">
    <!-- Generator: Sketch 41.1 (35376) - http://www.bohemiancoding.com/sketch -->
    <title>brain</title>
    <desc>Created with Sketch.</desc>
    <defs></defs>
    <g id="Page-1" stroke="none" stroke-width="1" fill="none" fill-rule="evenodd">
        <g id="brain" fill="#E1E1E1">
            <g id="Group">
                <path d="M76.883,42.842 C77.09,42.229 77.17,41.596 77.223,41.059 C77.353,39.702 77.44,38.137 77.088,36.823 C76.926,36.224 76.692,35.688 76.461,35.163 C76.259,34.701 76.066,34.263 75.957,33.84 C75.562,32.318 75.182,31.123 74.764,30.079 C74.584,29.632 74.414,29.153 74.248,28.683 C73.832,27.513 73.402,26.303 72.734,25.225 C72.136,24.26 71.691,23.134 71.32,22.155 C70.646,20.377 69.78,18.899 69.021,17.687 C68.525,16.897 67.943,16.247 67.363,15.599 C67.206,15.424 67.047,15.246 66.888,15.065 C66.661,14.803 66.459,14.482 66.245,14.141 C66.081,13.881 65.912,13.612 65.716,13.344 C65.429,12.952 65.13,12.636 64.835,12.324 C64.694,12.175 64.553,12.026 64.413,11.866 C64.007,11.398 63.551,11.017 63.11,10.649 C62.672,10.282 62.258,9.937 61.975,9.566 C61.791,9.328 61.643,9.066 61.466,8.757 C61.127,8.157 60.742,7.478 60.014,6.912 C59.075,6.183 58.149,6.017 57.252,5.856 C57.084,5.826 56.914,5.795 56.739,5.76 L56.635,5.739 C56.242,5.66 56.033,5.598 55.924,5.553 C55.916,5.499 55.908,5.436 55.903,5.388 C55.87,5.109 55.826,4.725 55.651,4.341 C55.295,3.564 54.778,3.016 54.114,2.714 C53.389,2.384 52.725,2.352 52.135,2.323 C51.809,2.308 51.528,2.294 51.274,2.231 C51.019,2.168 50.764,1.935 50.441,1.639 C50.122,1.347 49.762,1.016 49.288,0.765 C48.547,0.371 47.798,0.187 46.932,0.187 C46.587,0.187 46.255,0.212 45.888,0.241 C45.72,0.254 45.545,0.268 45.361,0.279 C42.596,0.44 42.007,3.183 41.654,4.824 C41.579,5.176 41.508,5.508 41.427,5.796 C41.052,7.142 40.62,9.165 40.56,10.428 L40.526,11.149 C40.474,12.271 40.429,13.24 40.302,14.45 C40.092,16.53 39.944,18.768 40.281,21.039 C40.407,21.882 40.389,22.757 40.371,23.69 C40.36,24.278 40.347,24.886 40.37,25.519 C40.438,27.306 40.36,29.296 40.286,31.232 C40.23,32.674 40.173,34.164 40.173,35.595 L40.172,36.902 C40.167,39.259 40.163,41.694 40.273,44.091 L40.287,44.403 C40.358,46.065 40.451,48.211 41.988,49.419 C41.133,49.97 40.898,50.859 40.718,51.55 L40.707,51.592 C40.194,53.539 40.05,55.59 39.978,57.34 C39.973,57.469 39.964,57.606 39.957,57.745 L39.954,57.797 C39.911,58.556 39.864,59.415 40.024,60.19 C40.114,60.631 40.262,60.969 40.381,61.241 C40.549,61.622 40.569,61.679 40.511,61.881 C40.391,62.31 40.254,62.702 40.119,63.086 C39.739,64.175 39.345,65.298 39.49,66.931 L39.713,69.413 C39.836,70.769 39.959,72.128 40.078,73.508 C40.094,73.694 40.111,73.954 40.133,74.266 C40.24,75.862 40.418,78.531 40.936,79.984 L41.065,80.244 C41.092,80.284 41.137,80.4 41.174,80.502 C41.25,80.697 41.342,80.941 41.501,81.197 C41.599,81.353 41.699,81.49 41.828,81.661 C41.883,81.734 41.937,81.807 41.986,81.883 C42.262,82.309 42.446,82.85 42.466,83.294 C42.476,83.479 42.38,83.792 42.29,84.097 C42.108,84.701 41.901,85.387 42.083,86.145 C42.329,87.178 43.478,88.362 44.177,88.836 C45.06,89.433 46.206,89.749 47.681,89.801 C47.921,89.811 48.163,89.815 48.41,89.815 C49.933,89.815 51.383,89.64 52.603,89.309 C54.019,88.924 55.087,88.02 56.033,87.218 C56.704,86.651 57.336,86.114 58.036,85.787 C60.33,84.72 61.984,83.168 63.482,81.669 C64.349,80.799 65.429,79.717 66.241,78.563 C67.032,77.438 67.615,76.221 68.179,75.044 L68.286,74.82 C68.923,73.499 69.177,72.002 69.384,70.581 C69.429,70.268 69.522,69.955 69.675,69.596 C69.846,69.196 70.089,68.801 70.352,68.376 C70.546,68.061 70.748,67.735 70.932,67.383 C71.374,66.543 71.456,65.672 71.529,64.904 L71.552,64.659 C71.591,64.262 71.781,63.859 72.001,63.388 C72.164,63.042 72.332,62.685 72.467,62.274 C72.745,61.425 72.704,60.58 72.665,59.815 C72.654,59.585 72.643,59.355 72.643,59.127 C72.643,58.343 72.69,57.95 72.978,57.541 C73.278,57.114 73.63,56.706 74.004,56.273 C74.292,55.942 74.589,55.598 74.874,55.231 C75.983,53.799 75.944,52.42 75.759,51.257 L75.732,51.087 C75.692,50.856 75.638,50.541 75.659,50.362 C75.685,50.334 75.721,50.301 75.765,50.258 C75.865,50.161 75.99,50.04 76.119,49.881 C76.879,48.95 77.111,47.645 76.791,46.106 C76.709,45.712 76.54,45.328 76.391,44.987 C76.278,44.727 76.065,44.242 76.079,44.112 C76.098,44.07 76.188,43.962 76.255,43.879 C76.453,43.644 76.721,43.319 76.883,42.842 Z M75.85,40.927 C75.805,41.386 75.739,41.92 75.577,42.401 C75.496,42.637 75.349,42.815 75.192,43.005 C75.074,43.147 74.961,43.301 74.869,43.477 C74.852,43.441 74.835,43.403 74.819,43.369 C74.575,42.833 74.448,42.569 74.35,42.447 C74.239,42.309 74.136,42.163 74.033,42.019 C73.971,41.931 73.91,41.844 73.847,41.759 C73.506,41.298 73.254,40.932 73.131,40.426 C72.961,39.727 72.903,38.97 72.848,38.238 C72.787,37.458 72.725,36.651 72.531,35.879 C72.348,35.156 72.114,34.564 71.813,34.069 C71.6,33.722 71.304,33.451 71.018,33.191 C70.732,32.931 70.461,32.685 70.352,32.423 C70.256,32.188 70.239,31.925 70.219,31.648 C70.193,31.271 70.162,30.844 69.928,30.418 C69.582,29.788 69.22,29.621 68.801,29.428 C68.615,29.343 68.406,29.247 68.16,29.092 C68,28.991 67.787,29.038 67.685,29.199 C67.582,29.361 67.63,29.574 67.792,29.675 C68.075,29.854 68.317,29.966 68.511,30.055 C68.894,30.231 69.085,30.32 69.323,30.751 C69.483,31.043 69.507,31.36 69.53,31.695 C69.551,32.017 69.575,32.348 69.715,32.686 C69.883,33.09 70.222,33.401 70.551,33.7 C70.802,33.93 71.062,34.166 71.222,34.428 C71.488,34.863 71.697,35.393 71.861,36.048 C72.041,36.763 72.098,37.506 72.159,38.291 C72.218,39.05 72.278,39.834 72.461,40.589 C72.615,41.22 72.916,41.66 73.293,42.17 C73.352,42.251 73.41,42.334 73.47,42.418 C73.58,42.574 73.694,42.733 73.813,42.879 C73.875,42.962 74.066,43.38 74.192,43.657 C74.471,44.268 74.591,44.51 74.769,44.565 C74.848,44.898 74.994,45.232 75.13,45.544 C75.258,45.836 75.39,46.137 75.442,46.39 C75.603,47.169 75.668,48.257 75.051,49.013 C74.972,49.111 74.886,49.195 74.802,49.277 C74.594,49.477 74.38,49.686 74.306,50.093 C74.234,50.495 74.308,50.933 74.372,51.318 L74.398,51.481 C74.565,52.534 74.526,53.431 73.784,54.388 C73.523,54.726 73.239,55.056 72.962,55.374 C72.566,55.833 72.191,56.265 71.851,56.749 C71.31,57.519 71.266,58.282 71.266,59.129 C71.266,59.38 71.277,59.632 71.291,59.903 C71.325,60.591 71.356,61.239 71.157,61.844 C71.05,62.175 70.899,62.494 70.753,62.807 C70.503,63.339 70.244,63.891 70.181,64.526 L70.158,64.773 C70.092,65.478 70.029,66.142 69.713,66.743 C69.551,67.054 69.363,67.357 69.176,67.661 C68.891,68.124 68.62,68.56 68.41,69.056 C68.208,69.527 68.085,69.95 68.021,70.384 C68.012,70.443 68.001,70.503 67.993,70.563 C67.911,70.604 67.846,70.676 67.818,70.772 C67.605,71.496 67.062,72.272 66.584,72.959 C66.466,73.127 66.352,73.291 66.244,73.45 C65.221,74.972 63.542,75.363 61.764,75.775 C61.579,75.818 61.463,76.004 61.507,76.189 C61.543,76.349 61.686,76.456 61.842,76.456 C61.868,76.456 61.895,76.453 61.921,76.447 C63.75,76.022 65.642,75.584 66.817,73.834 C66.921,73.68 67.034,73.518 67.149,73.354 C67.286,73.159 67.426,72.956 67.564,72.749 C67.428,73.264 67.267,73.767 67.046,74.226 L66.939,74.45 C66.399,75.576 65.84,76.741 65.115,77.773 C64.373,78.83 63.339,79.865 62.509,80.697 C61.099,82.108 59.548,83.566 57.457,84.541 C56.589,84.944 55.888,85.539 55.142,86.172 C54.229,86.946 53.367,87.678 52.246,87.982 C51.142,88.282 49.817,88.44 48.413,88.44 C48.184,88.44 47.958,88.435 47.734,88.426 C46.525,88.383 45.615,88.145 44.955,87.697 C44.37,87.301 43.559,86.38 43.429,85.828 C43.335,85.431 43.47,84.977 43.615,84.497 C43.739,84.082 43.869,83.653 43.848,83.232 C43.816,82.537 43.56,81.774 43.148,81.136 C43.082,81.033 43.008,80.935 42.918,80.816 C42.835,80.703 42.751,80.591 42.678,80.472 C42.588,80.33 42.528,80.169 42.467,80.011 C42.405,79.85 42.342,79.684 42.246,79.529 L42.225,79.488 C41.782,78.202 41.613,75.687 41.513,74.177 C41.49,73.857 41.472,73.587 41.456,73.394 C41.335,72.011 41.213,70.652 41.091,69.292 L40.866,66.813 C40.749,65.476 41.061,64.582 41.427,63.542 C41.566,63.142 41.71,62.728 41.843,62.259 C42.036,61.571 41.847,61.143 41.647,60.689 C41.544,60.455 41.438,60.214 41.376,59.918 C41.254,59.32 41.296,58.554 41.334,57.877 L41.336,57.825 C41.345,57.679 41.353,57.537 41.357,57.402 C41.426,55.726 41.563,53.769 42.042,51.947 L42.054,51.904 C42.278,51.049 42.431,50.593 43.191,50.394 C43.466,50.322 43.74,50.226 43.982,50.119 L44.279,49.986 C44.322,50.513 44.401,51.227 44.523,51.441 C44.599,51.572 44.65,51.728 44.707,51.892 C44.773,52.096 44.844,52.306 44.967,52.509 C45.032,52.614 45.146,52.673 45.262,52.673 C45.324,52.673 45.385,52.657 45.442,52.622 C45.604,52.522 45.656,52.31 45.555,52.148 C45.473,52.014 45.418,51.848 45.36,51.674 C45.298,51.484 45.233,51.286 45.13,51.109 C45.067,50.956 44.983,50.185 44.946,49.687 L45.788,49.31 L43.872,48.82 C41.979,48.335 41.77,46.734 41.668,44.347 L41.653,44.033 C41.547,41.667 41.55,39.248 41.554,36.908 L41.556,35.599 C41.556,34.194 41.613,32.717 41.668,31.279 C41.732,29.639 41.792,27.959 41.77,26.371 C42.59,26.299 43.295,25.877 43.971,25.451 C44.529,25.099 45.055,24.767 45.635,24.637 C46.067,24.538 46.358,24.675 46.504,25.04 C46.703,25.536 46.533,26.327 46.009,26.642 C45.846,26.74 45.793,26.952 45.891,27.115 C45.955,27.223 46.071,27.282 46.187,27.282 C46.249,27.282 46.309,27.265 46.364,27.233 C47.215,26.723 47.454,25.554 47.144,24.782 C46.873,24.107 46.239,23.792 45.483,23.963 C44.788,24.121 44.185,24.5 43.603,24.867 C42.985,25.256 42.395,25.61 41.756,25.68 C41.754,25.611 41.755,25.538 41.752,25.47 C41.731,24.877 41.742,24.29 41.753,23.713 C41.772,22.83 41.781,21.99 41.682,21.136 C41.983,20.96 42.265,20.67 42.564,20.356 C43.008,19.889 43.511,19.361 43.94,19.447 C44.112,19.482 44.342,19.63 44.565,19.774 C44.825,19.942 45.092,20.115 45.389,20.207 L45.696,20.304 C46.173,20.456 46.665,20.614 47.157,20.68 C47.475,20.723 47.782,20.721 48.081,20.719 C48.442,20.717 48.778,20.715 49.102,20.791 C49.68,20.928 50.192,21.189 50.733,21.466 L50.985,21.595 C52.303,22.261 53.167,22.927 53.786,23.755 C54.272,24.406 55.761,26.694 54.483,28.797 C53.736,30.027 52.348,30.66 51.124,31.218 C50.847,31.344 50.575,31.468 50.321,31.593 C50.151,31.677 50.081,31.885 50.165,32.055 C50.226,32.177 50.347,32.246 50.475,32.246 C50.527,32.246 50.578,32.235 50.627,32.21 C50.875,32.087 51.139,31.968 51.409,31.844 C52.036,31.559 52.701,31.252 53.319,30.86 C54.128,31.418 55.096,32.655 55.569,33.339 C55.934,33.867 56.212,34.424 56.467,35.565 C56.501,35.718 56.635,35.829 56.791,35.835 L56.803,35.835 C56.955,35.835 57.09,35.735 57.134,35.588 C57.283,35.088 57.319,34.712 57.356,34.315 C57.393,33.908 57.436,33.446 57.614,32.735 C57.79,32.038 58.591,31.507 59.297,31.04 C59.47,30.925 59.638,30.813 59.794,30.703 C60.329,30.321 62.862,29.937 64.374,29.708 C65.044,29.606 65.573,29.527 65.862,29.462 C65.88,29.458 65.894,29.447 65.911,29.441 C66.445,29.356 66.797,29.18 66.966,28.896 C67.179,28.54 67.029,28.172 66.966,28.015 L66.95,27.976 C66.802,27.487 66.661,27.192 66.393,26.807 C66.092,26.378 65.486,25.667 64.629,25.42 C64.556,24.24 64.364,23.162 63.384,22.118 C63.502,21.929 63.627,21.758 63.748,21.591 C64.166,21.012 64.561,20.466 64.565,19.448 C64.566,19.258 64.412,19.103 64.222,19.102 L64.22,19.102 C64.03,19.102 63.875,19.255 63.874,19.446 C63.872,20.241 63.569,20.657 63.188,21.186 C63.018,21.42 62.825,21.686 62.649,22.003 C62.647,22.007 62.649,22.012 62.647,22.016 C62.643,22.023 62.636,22.028 62.633,22.036 C62.36,22.677 61.328,24.634 60.983,25.215 C60.397,26.197 59.629,26.827 58.817,27.493 C58.487,27.763 58.147,28.043 57.802,28.356 C57.661,28.484 57.652,28.703 57.78,28.843 C57.848,28.918 57.942,28.956 58.036,28.956 C58.118,28.956 58.202,28.926 58.267,28.866 C58.598,28.565 58.93,28.292 59.253,28.027 C60.115,27.322 60.928,26.654 61.575,25.569 C61.874,25.067 62.628,23.645 63.047,22.779 C63.724,23.583 63.888,24.414 63.953,25.717 C63.961,25.88 64.083,26.015 64.244,26.041 C64.792,26.126 65.367,26.549 65.825,27.203 C66.049,27.524 66.161,27.761 66.287,28.177 C66.295,28.202 66.308,28.235 66.323,28.274 C66.357,28.357 66.407,28.482 66.371,28.544 C66.353,28.573 66.24,28.719 65.674,28.785 C65.64,28.789 65.611,28.803 65.58,28.815 C65.289,28.872 64.816,28.944 64.268,29.027 C61.966,29.377 60.01,29.7 59.391,30.142 C59.243,30.248 59.079,30.355 58.912,30.467 C58.102,31.003 57.183,31.613 56.943,32.568 C56.793,33.165 56.732,33.594 56.694,33.96 C56.542,33.599 56.36,33.278 56.132,32.949 C56.002,32.759 54.952,31.26 53.909,30.444 C54.354,30.091 54.755,29.673 55.068,29.156 C56.082,27.487 55.807,25.314 54.335,23.343 C53.456,22.166 52.247,21.462 51.294,20.979 L51.044,20.853 C50.464,20.556 49.919,20.276 49.257,20.12 C48.853,20.024 48.456,20.026 48.073,20.03 C47.788,20.031 47.516,20.034 47.247,19.997 C46.813,19.938 46.351,19.791 45.903,19.647 L45.59,19.548 C45.384,19.484 45.155,19.337 44.935,19.194 C44.66,19.016 44.374,18.832 44.074,18.771 C43.273,18.606 42.629,19.283 42.062,19.881 C41.899,20.053 41.745,20.206 41.596,20.338 C41.446,19.04 41.446,17.744 41.523,16.481 C41.572,16.453 41.615,16.415 41.646,16.364 C42.054,15.696 42.746,15.159 43.492,14.932 C43.89,14.81 44.32,14.813 44.804,14.938 C44.95,14.976 45.113,15.055 45.284,15.138 C45.596,15.289 45.948,15.462 46.337,15.44 C46.528,15.43 46.675,15.269 46.664,15.078 C46.653,14.888 46.486,14.737 46.302,14.752 C46.081,14.764 45.846,14.643 45.585,14.517 C45.391,14.424 45.189,14.326 44.978,14.27 C44.367,14.113 43.816,14.114 43.29,14.273 C42.665,14.463 42.081,14.84 41.61,15.317 C41.632,15.076 41.65,14.831 41.674,14.594 C41.741,13.946 41.785,13.368 41.82,12.802 C41.839,12.792 41.861,12.795 41.879,12.781 L42.205,12.52 C42.863,11.99 43.766,11.265 44.398,10.984 C44.851,10.783 45.378,10.608 45.921,10.478 C46.323,10.382 46.323,10.382 47.27,10.193 C47.457,10.156 47.578,9.974 47.541,9.788 C47.504,9.602 47.324,9.48 47.136,9.517 C46.177,9.708 46.177,9.708 45.762,9.808 C45.178,9.947 44.61,10.137 44.119,10.355 C43.434,10.658 42.548,11.361 41.869,11.906 C41.881,11.679 41.891,11.452 41.902,11.216 L41.935,10.497 C41.992,9.34 42.399,7.442 42.753,6.168 C42.845,5.841 42.92,5.489 43.001,5.113 C43.409,3.212 43.849,1.75 45.439,1.658 C45.632,1.646 45.816,1.632 46.011,1.616 C46.333,1.591 46.638,1.568 46.93,1.568 C47.578,1.568 48.089,1.693 48.64,1.985 C48.958,2.154 49.226,2.399 49.509,2.659 C49.921,3.035 50.345,3.423 50.94,3.572 C51.325,3.667 51.702,3.686 52.07,3.703 C52.578,3.727 53.058,3.751 53.543,3.972 C53.895,4.133 54.182,4.451 54.395,4.916 C54.481,5.104 54.508,5.332 54.534,5.553 C54.559,5.776 54.588,6.006 54.675,6.206 C54.919,6.762 55.644,6.949 56.363,7.094 L56.464,7.115 C56.651,7.152 56.832,7.185 57.011,7.218 C57.808,7.361 58.497,7.484 59.169,8.006 C59.679,8.402 59.965,8.906 60.271,9.446 C60.453,9.767 60.64,10.097 60.882,10.412 C61.259,10.901 61.728,11.294 62.225,11.71 C62.624,12.044 63.037,12.391 63.374,12.777 C63.526,12.951 63.681,13.114 63.839,13.281 C64.099,13.555 64.368,13.839 64.603,14.161 C64.771,14.39 64.926,14.639 65.078,14.88 C65.321,15.266 65.551,15.631 65.848,15.973 C66.01,16.161 66.174,16.343 66.354,16.543 C66.877,17.129 67.42,17.734 67.852,18.423 C68.576,19.578 69.399,20.983 70.031,22.648 C70.425,23.687 70.901,24.886 71.561,25.955 C72.153,26.909 72.557,28.048 72.952,29.154 C73.12,29.631 73.295,30.123 73.484,30.596 C73.88,31.585 74.242,32.726 74.622,34.191 C74.761,34.722 74.983,35.23 75.202,35.727 C75.409,36.199 75.622,36.686 75.756,37.185 C76.049,38.282 75.968,39.692 75.85,40.927 Z" id="Shape"></path>
                <path d="M46.068,66.979 C45.882,66.94 45.699,67.059 45.66,67.245 C45.542,67.809 45.73,68.413 46.191,68.944 C46.716,69.548 47.476,69.923 48.16,69.923 C48.201,69.923 48.24,69.923 48.279,69.92 C48.468,69.907 48.613,69.743 48.601,69.553 C48.588,69.365 48.43,69.224 48.234,69.232 C47.738,69.265 47.125,68.968 46.713,68.494 C46.401,68.133 46.263,67.73 46.334,67.389 C46.373,67.2 46.254,67.017 46.068,66.979 Z" id="Shape"></path>
                <path d="M45.232,64.805 C45.365,64.805 45.488,64.729 45.544,64.607 C45.692,64.294 45.831,63.964 45.972,63.63 C46.353,62.734 46.744,61.807 47.363,61.059 C48.101,60.164 48.511,59.305 48.945,58.395 C48.959,58.366 48.972,58.336 48.987,58.307 C49.414,58.727 50.017,59.211 50.871,59.579 C50.915,59.598 50.961,59.607 51.008,59.607 C51.141,59.607 51.268,59.529 51.324,59.398 C51.398,59.223 51.318,59.02 51.142,58.945 C50.275,58.572 49.695,58.056 49.308,57.649 C49.376,57.513 49.444,57.378 49.517,57.238 C49.781,56.748 50.19,56.361 50.622,55.953 C51.099,55.504 51.591,55.041 51.903,54.41 C52.624,52.963 52.022,51.897 51.492,50.959 C51.274,50.574 51.07,50.211 50.94,49.822 C50.879,49.642 50.684,49.544 50.502,49.604 C50.322,49.664 50.225,49.859 50.285,50.041 C50.435,50.492 50.666,50.902 50.889,51.297 C51.401,52.201 51.841,52.983 51.285,54.104 C51.026,54.625 50.599,55.026 50.148,55.452 C49.694,55.88 49.224,56.323 48.908,56.915 C48.689,57.325 48.501,57.72 48.32,58.099 C47.906,58.97 47.513,59.792 46.829,60.62 C46.147,61.446 45.735,62.42 45.337,63.361 C45.284,63.487 45.232,63.61 45.18,63.732 C45.004,63.748 44.868,63.894 44.865,64.073 L44.865,64.119 C44.863,64.244 44.86,64.384 44.895,64.537 C44.928,64.68 45.047,64.788 45.194,64.804 C45.208,64.804 45.221,64.805 45.232,64.805 Z" id="Shape"></path>
                <path d="M66.719,40.86 C66.405,40.123 65.719,38.764 64.653,37.926 C64.268,37.622 63.842,37.318 63.356,36.995 L63.267,36.936 C62.179,36.206 61.613,35.896 61.28,35.771 C61.281,35.479 61.237,35.18 61.194,34.902 C61.154,34.639 61.116,34.391 61.122,34.194 C61.128,34.004 60.979,33.844 60.79,33.838 C60.6,33.831 60.439,33.981 60.433,34.171 C60.425,34.433 60.468,34.712 60.513,35.006 C60.58,35.441 60.648,35.89 60.525,36.194 C60.416,36.462 60.087,36.647 59.74,36.843 C59.565,36.941 59.385,37.042 59.224,37.161 C58.001,38.057 56.667,38.789 55.182,38.092 C54.568,37.804 54.087,37.297 53.578,36.759 C53.017,36.168 52.437,35.556 51.65,35.236 C50.964,34.958 50.293,34.826 49.642,34.7 C48.81,34.538 48.025,34.385 47.23,33.942 C47.075,33.856 46.888,33.758 46.681,33.65 C45.574,33.066 43.509,31.979 43.376,30.966 C43.352,30.777 43.178,30.644 42.99,30.669 C42.802,30.693 42.669,30.867 42.692,31.056 C42.871,32.424 44.97,33.529 46.359,34.261 C46.561,34.366 46.743,34.462 46.893,34.546 C47.784,35.041 48.661,35.213 49.508,35.378 C50.155,35.504 50.766,35.623 51.39,35.877 C52.039,36.14 52.543,36.672 53.077,37.235 C53.608,37.796 54.157,38.375 54.889,38.719 C55.404,38.961 55.903,39.064 56.383,39.064 C57.591,39.064 58.682,38.415 59.631,37.719 C59.758,37.626 59.912,37.538 60.076,37.446 C60.489,37.215 60.955,36.95 61.156,36.467 C61.414,36.584 61.914,36.861 62.884,37.51 L62.975,37.572 C63.446,37.884 63.856,38.177 64.227,38.469 C65.172,39.212 65.796,40.456 66.084,41.132 C66.174,41.34 66.266,41.546 66.357,41.752 C66.748,42.622 67.117,43.444 67.204,44.376 C67.308,45.503 67.248,46.745 67.025,48.07 C66.994,48.258 67.121,48.435 67.308,48.466 C67.328,48.47 67.347,48.471 67.366,48.471 C67.531,48.471 67.678,48.353 67.706,48.183 C67.937,46.8 68,45.498 67.891,44.312 C67.793,43.267 67.383,42.353 66.987,41.47 C66.896,41.267 66.807,41.063 66.719,40.86 Z" id="Shape"></path>
                <path d="M62.432,61.15 C62.498,60.972 62.409,60.773 62.23,60.707 C62.053,60.641 61.854,60.73 61.786,60.909 C61.473,61.746 59.82,62.332 59.016,62.068 C58.836,62.006 58.641,62.105 58.581,62.287 C58.521,62.468 58.619,62.662 58.801,62.723 C59.004,62.789 59.237,62.823 59.484,62.823 C60.024,62.823 60.632,62.667 61.165,62.398 C61.55,62.762 62.072,63.038 62.566,63.111 C62.583,63.114 62.6,63.115 62.617,63.115 C62.786,63.115 62.932,62.993 62.958,62.821 C62.985,62.633 62.856,62.458 62.667,62.429 C62.362,62.383 62.026,62.227 61.759,62.015 C62.062,61.769 62.308,61.48 62.432,61.15 Z" id="Shape"></path>
                <path d="M49.652,76.949 C49.463,76.931 49.295,77.054 49.274,77.244 C49.244,77.305 49.058,77.423 48.958,77.487 C48.83,77.568 48.71,77.645 48.614,77.74 C48.283,78.068 48.04,78.469 47.947,78.839 C47.745,79.643 48.149,80.15 48.505,80.597 C48.608,80.725 48.713,80.858 48.803,80.995 C49.045,81.365 48.953,81.455 48.612,81.784 C48.471,81.92 48.313,82.074 48.182,82.267 C47.726,82.948 47.949,83.682 48.145,84.33 C48.236,84.628 48.321,84.911 48.331,85.155 C48.339,85.341 48.492,85.487 48.676,85.487 L48.691,85.487 C48.88,85.479 49.029,85.319 49.022,85.128 C49.008,84.796 48.906,84.458 48.806,84.13 C48.64,83.58 48.482,83.06 48.757,82.651 C48.846,82.518 48.965,82.402 49.092,82.28 C49.428,81.955 49.935,81.465 49.38,80.617 C49.273,80.453 49.157,80.308 49.045,80.167 C48.696,79.729 48.503,79.459 48.617,79.006 C48.679,78.76 48.86,78.469 49.1,78.231 C49.143,78.188 49.242,78.125 49.329,78.069 C49.591,77.902 49.917,77.696 49.956,77.34 C49.977,77.15 49.842,76.971 49.652,76.949 Z" id="Shape"></path>
                <path d="M62.773,53.731 C62.732,53.734 62.64,53.736 62.527,53.738 C62.238,53.747 62.035,53.753 61.898,53.761 C61.373,53.226 60.831,52.693 60.256,52.197 C59.796,51.797 59.293,51.465 58.806,51.145 C58.652,51.042 58.495,50.941 58.343,50.837 L58.132,50.691 C57.525,50.269 56.903,49.85 56.468,49.667 C56.232,48.833 55.881,48.036 55.314,47.358 C56.685,47.091 58.157,46.787 58.718,46.501 C58.864,46.427 59.017,46.356 59.171,46.284 C59.45,46.153 59.732,46.012 59.997,45.852 C60.45,46.206 61.265,46.907 61.587,47.199 C61.724,47.324 61.857,47.492 61.997,47.671 C62.183,47.907 62.376,48.153 62.61,48.33 C62.672,48.378 62.746,48.4 62.818,48.4 C62.922,48.4 63.026,48.352 63.092,48.262 C63.208,48.111 63.177,47.895 63.026,47.78 C62.862,47.656 62.706,47.456 62.538,47.244 C62.388,47.052 62.231,46.852 62.051,46.688 C61.785,46.448 61.075,45.834 60.577,45.432 C60.852,45.188 61.104,44.912 61.333,44.658 L61.447,44.532 C61.872,44.066 62.19,43.54 62.499,43.031 C62.651,42.782 62.802,42.531 62.967,42.288 C63.073,42.131 63.032,41.916 62.874,41.809 C62.716,41.703 62.502,41.744 62.395,41.902 C62.224,42.154 62.067,42.413 61.91,42.673 C61.604,43.176 61.315,43.652 60.936,44.068 L60.821,44.195 C60.507,44.544 60.181,44.905 59.825,45.153 C59.552,45.343 59.209,45.503 58.878,45.658 C58.717,45.734 58.557,45.808 58.404,45.887 C57.864,46.162 55.965,46.53 55.051,46.705 C54.94,46.726 54.84,46.746 54.752,46.764 C54.389,46.416 54.004,46.096 53.627,45.785 C52.896,45.181 52.204,44.61 51.676,43.86 C51.373,43.429 51.171,42.934 50.976,42.455 C50.518,41.33 50.044,40.169 48.295,39.962 C46.668,39.77 45.758,40.953 44.952,41.998 C44.75,42.259 44.559,42.506 44.362,42.727 C44.236,42.87 44.249,43.088 44.39,43.214 C44.532,43.341 44.75,43.328 44.876,43.186 C45.09,42.946 45.298,42.679 45.497,42.419 C46.259,41.433 46.976,40.5 48.214,40.647 C49.558,40.806 49.902,41.649 50.337,42.716 C50.546,43.23 50.763,43.761 51.11,44.257 C51.692,45.082 52.452,45.71 53.186,46.316 C53.735,46.769 54.251,47.196 54.7,47.7 C55.782,48.913 56.038,50.708 56.262,52.294 L56.336,52.807 C56.383,53.119 56.434,53.431 56.484,53.744 C56.744,55.343 57.013,56.996 56.679,58.6 C56.311,60.38 55.37,61.999 53.886,63.41 L53.621,63.66 C52.35,64.853 50.91,66.205 51.454,68.271 C51.661,69.058 52.225,69.654 52.771,70.23 C53.35,70.841 53.897,71.418 53.898,72.128 C53.9,73.771 52.106,74.558 50.569,74.732 C49.651,74.836 48.852,74.76 47.935,74.614 C47.573,74.555 47.225,74.413 46.857,74.26 C46.406,74.074 45.94,73.881 45.426,73.846 C45.237,73.839 45.072,73.975 45.059,74.165 C45.045,74.355 45.188,74.519 45.379,74.533 C45.78,74.561 46.174,74.724 46.593,74.896 C46.983,75.058 47.385,75.223 47.826,75.294 C48.412,75.386 49.037,75.468 49.721,75.468 C50.018,75.468 50.326,75.452 50.647,75.415 C51.807,75.284 53.09,74.833 53.868,73.979 C54.475,75.24 55.171,75.975 56.188,76.43 C56.357,76.507 56.547,76.567 56.745,76.619 C56.831,77.53 56.746,78.199 56.487,78.603 C56.229,79.007 55.684,79.232 55.298,79.367 C55.15,79.418 55.054,79.562 55.067,79.719 C55.084,79.94 55.131,80.137 55.176,80.326 C55.251,80.637 55.316,80.906 55.231,81.212 C55.103,81.68 54.63,82.335 54.441,82.373 C54.253,82.41 54.132,82.592 54.17,82.779 C54.203,82.942 54.348,83.055 54.508,83.055 C54.531,83.055 54.553,83.054 54.576,83.048 C55.23,82.917 55.779,81.825 55.898,81.394 C56.028,80.917 55.932,80.519 55.847,80.165 C55.826,80.081 55.808,79.999 55.792,79.918 C56.235,79.74 56.759,79.458 57.068,78.976 C57.395,78.464 57.522,77.731 57.45,76.744 C57.572,76.755 57.694,76.764 57.817,76.764 C58.39,76.764 58.963,76.643 59.424,76.355 C59.584,76.254 59.633,76.04 59.533,75.879 C59.429,75.717 59.218,75.668 59.056,75.77 C58.363,76.206 57.195,76.127 56.468,75.802 C55.595,75.409 55.017,74.788 54.476,73.656 C54.429,73.556 54.337,73.495 54.238,73.472 C54.459,73.086 54.587,72.64 54.586,72.123 C54.585,71.14 53.917,70.434 53.272,69.751 C52.762,69.214 52.284,68.708 52.12,68.091 C51.682,66.422 52.907,65.271 54.094,64.157 L54.361,63.906 C55.95,62.395 56.958,60.657 57.355,58.735 C57.714,57.006 57.435,55.289 57.164,53.628 C57.114,53.317 57.064,53.009 57.018,52.701 L56.945,52.192 C56.87,51.661 56.792,51.107 56.68,50.555 C57.053,50.78 57.479,51.076 57.737,51.254 L57.954,51.402 C58.11,51.508 58.267,51.612 58.425,51.715 C58.894,52.023 59.376,52.341 59.803,52.71 C60.64,53.439 61.422,54.251 62.179,55.035 C62.396,55.261 62.611,55.485 62.831,55.709 C63.633,56.53 63.995,57.485 64.319,58.76 C64.682,60.178 64.798,61.911 64.622,63.286 C64.599,63.474 64.731,63.647 64.921,63.671 C64.937,63.673 64.95,63.674 64.964,63.674 C65.136,63.674 65.284,63.547 65.306,63.373 C65.494,61.919 65.37,60.085 64.989,58.589 C64.635,57.204 64.234,56.159 63.324,55.228 C63.107,55.005 62.891,54.781 62.676,54.558 C62.633,54.513 62.589,54.467 62.545,54.422 C62.664,54.419 62.763,54.415 62.807,54.413 C64.645,54.319 66.094,53.929 67.237,53.222 C67.848,52.843 68.505,52.273 69.186,51.531 L69.394,51.307 C69.919,50.746 70.64,49.978 70.842,49.256 C70.893,49.073 70.785,48.882 70.604,48.831 C70.423,48.78 70.23,48.886 70.178,49.069 C70.022,49.63 69.367,50.326 68.891,50.835 L68.677,51.064 C68.038,51.761 67.432,52.29 66.873,52.636 C65.834,53.287 64.492,53.644 62.773,53.731 Z" id="Shape"></path>
                <path d="M56.699,72.555 C56.76,72.599 56.83,72.619 56.898,72.619 C57.006,72.619 57.113,72.568 57.179,72.473 C57.76,71.654 58.542,69.934 57.79,68.688 C57.691,68.525 57.479,68.472 57.315,68.571 C57.153,68.67 57.1,68.882 57.199,69.046 C57.727,69.919 57.139,71.336 56.616,72.075 C56.508,72.23 56.545,72.445 56.699,72.555 Z" id="Shape"></path>
                <path d="M61.017,68.978 C60.844,69.057 60.768,69.261 60.847,69.435 C60.905,69.561 61.03,69.636 61.16,69.636 C61.208,69.636 61.258,69.626 61.304,69.606 C61.943,69.313 62.682,69.071 63.313,69.494 C63.471,69.599 63.686,69.557 63.791,69.398 C63.897,69.24 63.854,69.026 63.696,68.92 C62.777,68.307 61.782,68.627 61.017,68.978 Z" id="Shape"></path>
                <path d="M64.275,66.203 C64.099,66.13 63.898,66.213 63.824,66.391 C63.752,66.565 63.836,66.768 64.012,66.84 C64.77,67.153 65.186,67.701 65.248,68.467 C65.264,68.649 65.414,68.783 65.592,68.783 L65.62,68.783 C65.81,68.767 65.951,68.6 65.936,68.41 C65.852,67.381 65.277,66.617 64.275,66.203 Z" id="Shape"></path>
                <path d="M67.871,62.93 C67.699,62.848 67.492,62.921 67.411,63.092 C67.329,63.265 67.403,63.471 67.574,63.553 C68.181,63.84 68.383,64.506 68.449,64.878 C68.478,65.045 68.623,65.162 68.788,65.162 C68.809,65.162 68.828,65.16 68.849,65.156 C69.036,65.123 69.161,64.944 69.127,64.757 C68.975,63.891 68.527,63.241 67.871,62.93 Z" id="Shape"></path>
                <path d="M57.395,20.96 C57.106,20.583 56.833,20.226 56.629,19.846 C56.465,19.542 56.316,19.216 56.17,18.899 C56.032,18.598 55.889,18.288 55.734,17.992 C55.662,17.857 55.582,17.723 55.502,17.589 C55.281,17.22 55.072,16.873 55.051,16.501 C55.033,16.212 55.086,16.179 55.256,16.066 C55.426,15.955 55.682,15.786 55.779,15.376 C55.978,14.526 55.314,14.097 54.829,13.784 C54.562,13.612 54.288,13.434 54.269,13.271 C54.263,13.204 54.288,13.007 54.675,12.613 C54.786,12.502 54.905,12.395 55.025,12.287 C55.515,11.848 56.072,11.349 56.056,10.528 C56.04,9.675 55.427,9.07 54.851,8.569 C54.061,7.882 52.56,6.756 51.39,6.924 C50.904,6.995 50.515,7.261 50.265,7.696 C49.945,8.25 49.9,9.014 50.15,9.641 C50.222,9.818 50.423,9.903 50.599,9.832 C50.776,9.761 50.861,9.561 50.791,9.383 C50.621,8.959 50.649,8.406 50.86,8.039 C51.004,7.791 51.215,7.645 51.488,7.606 C52.134,7.514 53.222,8.066 54.397,9.088 C54.902,9.527 55.356,9.969 55.366,10.539 C55.376,11.045 54.999,11.383 54.563,11.773 C54.432,11.891 54.303,12.006 54.184,12.128 C53.733,12.584 53.541,12.971 53.582,13.345 C53.637,13.834 54.07,14.115 54.453,14.361 C54.969,14.694 55.186,14.876 55.105,15.216 C55.071,15.359 55.009,15.4 54.875,15.488 C54.653,15.634 54.319,15.854 54.361,16.54 C54.392,17.08 54.666,17.537 54.907,17.94 C54.982,18.065 55.055,18.188 55.121,18.312 C55.268,18.59 55.4,18.878 55.541,19.185 C55.691,19.511 55.846,19.848 56.02,20.17 C56.249,20.599 56.551,20.994 56.844,21.377 C57.219,21.867 57.573,22.329 57.772,22.839 C57.825,22.974 57.956,23.058 58.092,23.058 C58.135,23.058 58.176,23.051 58.217,23.035 C58.395,22.966 58.483,22.766 58.414,22.588 C58.183,21.99 57.781,21.466 57.395,20.96 Z" id="Shape"></path>
                <path d="M65.357,32.958 C66.02,33.236 66.509,33.837 66.699,34.608 C66.738,34.765 66.878,34.87 67.033,34.87 C67.06,34.87 67.089,34.867 67.116,34.86 C67.301,34.815 67.414,34.628 67.369,34.443 C67.127,33.459 66.49,32.686 65.625,32.322 C65.447,32.249 65.246,32.331 65.174,32.507 C65.1,32.682 65.183,32.884 65.357,32.958 Z" id="Shape"></path>
                <path d="M50.432,5.14 C50.575,5.185 50.756,5.269 50.807,5.405 C50.854,5.531 50.804,5.729 50.668,5.949 C50.569,6.111 50.621,6.324 50.783,6.423 C50.84,6.457 50.901,6.473 50.963,6.473 C51.078,6.473 51.193,6.414 51.258,6.308 C51.51,5.894 51.578,5.498 51.453,5.164 C51.335,4.847 51.062,4.617 50.642,4.482 C50.46,4.423 50.267,4.524 50.208,4.705 C50.15,4.887 50.251,5.081 50.432,5.14 Z" id="Shape"></path>
                <path d="M37.487,61.883 C37.429,61.68 37.448,61.623 37.617,61.242 C37.737,60.971 37.885,60.633 37.975,60.193 C38.134,59.417 38.087,58.558 38.045,57.798 L38.042,57.746 C38.035,57.606 38.027,57.471 38.021,57.341 C37.948,55.591 37.805,53.54 37.292,51.593 L37.281,51.551 C37.1,50.862 36.867,49.972 36.012,49.42 C37.548,48.212 37.642,46.066 37.713,44.404 L37.727,44.091 C37.835,41.694 37.831,39.259 37.827,36.902 L37.826,35.595 C37.827,34.164 37.769,32.674 37.714,31.232 C37.639,29.296 37.562,27.305 37.629,25.519 C37.652,24.886 37.641,24.278 37.629,23.69 C37.61,22.757 37.593,21.881 37.719,21.039 C38.057,18.768 37.909,16.53 37.698,14.45 C37.573,13.24 37.527,12.271 37.475,11.149 L37.441,10.428 C37.379,9.165 36.948,7.141 36.573,5.796 C36.493,5.508 36.422,5.176 36.345,4.824 C35.992,3.182 35.403,0.44 32.638,0.279 C32.453,0.268 32.279,0.254 32.111,0.241 C31.743,0.212 31.414,0.187 31.067,0.187 C30.201,0.187 29.452,0.371 28.71,0.765 C28.236,1.016 27.876,1.348 27.557,1.639 C27.234,1.935 26.98,2.168 26.724,2.231 C26.47,2.294 26.188,2.308 25.863,2.323 C25.273,2.352 24.608,2.385 23.884,2.714 C23.22,3.016 22.703,3.564 22.348,4.341 C22.173,4.725 22.129,5.109 22.096,5.388 C22.09,5.436 22.083,5.499 22.075,5.553 C21.966,5.598 21.757,5.659 21.363,5.739 L21.259,5.76 C21.084,5.796 20.914,5.826 20.746,5.856 C19.85,6.017 18.924,6.184 17.984,6.912 C17.255,7.477 16.87,8.157 16.532,8.757 C16.356,9.066 16.208,9.328 16.024,9.566 C15.74,9.937 15.326,10.282 14.888,10.649 C14.448,11.018 13.992,11.399 13.585,11.866 C13.446,12.025 13.304,12.175 13.163,12.324 C12.869,12.636 12.569,12.952 12.282,13.344 C12.087,13.612 11.918,13.881 11.754,14.141 C11.54,14.482 11.338,14.803 11.11,15.065 C10.952,15.247 10.793,15.424 10.636,15.599 C10.055,16.247 9.472,16.898 8.978,17.687 C8.218,18.898 7.352,20.376 6.678,22.155 C6.307,23.134 5.862,24.26 5.264,25.225 C4.596,26.303 4.165,27.514 3.749,28.683 C3.583,29.152 3.414,29.631 3.233,30.079 C2.815,31.123 2.435,32.318 2.041,33.84 C1.931,34.263 1.739,34.701 1.536,35.163 C1.306,35.688 1.071,36.224 0.911,36.823 C0.558,38.137 0.645,39.702 0.775,41.059 C0.827,41.596 0.908,42.228 1.115,42.842 C1.276,43.32 1.545,43.644 1.741,43.881 C1.808,43.963 1.899,44.072 1.917,44.114 C1.931,44.244 1.719,44.728 1.605,44.989 C1.456,45.33 1.287,45.714 1.205,46.108 C0.885,47.647 1.117,48.953 1.876,49.883 C2.006,50.042 2.13,50.164 2.23,50.26 C2.275,50.305 2.31,50.336 2.336,50.365 C2.356,50.543 2.303,50.857 2.265,51.09 L2.236,51.26 C2.051,52.422 2.011,53.801 3.121,55.233 C3.405,55.6 3.703,55.944 3.99,56.275 C4.364,56.708 4.717,57.116 5.017,57.544 C5.305,57.952 5.351,58.345 5.351,59.129 C5.351,59.357 5.34,59.587 5.329,59.817 C5.291,60.582 5.248,61.427 5.527,62.277 C5.662,62.687 5.83,63.045 5.992,63.39 C6.213,63.861 6.402,64.263 6.442,64.661 L6.465,64.906 C6.537,65.674 6.619,66.545 7.062,67.385 C7.247,67.739 7.448,68.063 7.643,68.378 C7.905,68.803 8.148,69.197 8.319,69.598 C8.472,69.957 8.565,70.27 8.611,70.584 C8.817,72.004 9.071,73.501 9.708,74.822 L9.816,75.047 C10.38,76.223 10.964,77.44 11.754,78.565 C12.566,79.719 13.646,80.801 14.513,81.671 C16.011,83.17 17.665,84.722 19.959,85.789 C20.659,86.115 21.292,86.652 21.961,87.22 C22.906,88.022 23.975,88.927 25.392,89.311 C26.612,89.643 28.061,89.817 29.584,89.817 C29.83,89.817 30.073,89.813 30.313,89.803 C31.788,89.751 32.934,89.436 33.817,88.838 C34.516,88.363 35.664,87.18 35.91,86.147 C36.092,85.389 35.886,84.704 35.704,84.099 C35.613,83.794 35.518,83.481 35.527,83.296 C35.548,82.852 35.732,82.311 36.007,81.885 C36.056,81.809 36.111,81.737 36.166,81.663 C36.295,81.493 36.395,81.355 36.493,81.199 C36.652,80.943 36.744,80.699 36.819,80.504 C36.859,80.402 36.902,80.286 36.929,80.246 L37.058,79.987 C37.576,78.535 37.755,75.864 37.861,74.268 C37.882,73.956 37.9,73.697 37.916,73.51 C38.036,72.13 38.158,70.773 38.281,69.415 L38.504,66.933 C38.65,65.3 38.255,64.177 37.875,63.088 C37.745,62.704 37.607,62.311 37.487,61.883 Z M37.135,66.811 L36.911,69.29 C36.789,70.649 36.665,72.009 36.546,73.392 C36.53,73.585 36.512,73.855 36.489,74.175 C36.388,75.685 36.22,78.2 35.777,79.486 L35.756,79.527 C35.661,79.683 35.597,79.848 35.536,80.01 C35.476,80.167 35.414,80.328 35.326,80.472 C35.252,80.589 35.168,80.702 35.085,80.814 C34.994,80.933 34.921,81.032 34.854,81.135 C34.442,81.772 34.187,82.536 34.153,83.23 C34.134,83.651 34.262,84.08 34.388,84.495 C34.532,84.975 34.667,85.429 34.573,85.827 C34.442,86.378 33.632,87.299 33.047,87.695 C32.387,88.142 31.477,88.382 30.268,88.424 C30.044,88.433 29.817,88.437 29.588,88.437 C28.185,88.437 26.861,88.279 25.756,87.979 C24.636,87.675 23.774,86.944 22.86,86.169 C22.114,85.536 21.412,84.941 20.545,84.538 C18.455,83.563 16.903,82.105 15.494,80.694 C14.663,79.862 13.629,78.827 12.887,77.77 C12.162,76.738 11.603,75.573 11.063,74.447 L10.955,74.223 C10.734,73.764 10.574,73.261 10.437,72.745 C10.576,72.953 10.716,73.156 10.853,73.351 C10.969,73.515 11.081,73.677 11.185,73.832 C12.361,75.581 14.252,76.02 16.081,76.444 C16.107,76.451 16.133,76.454 16.16,76.454 C16.316,76.454 16.458,76.347 16.494,76.186 C16.537,76 16.422,75.815 16.237,75.772 C14.459,75.36 12.78,74.969 11.757,73.447 C11.652,73.288 11.536,73.124 11.419,72.956 C10.94,72.269 10.397,71.493 10.184,70.77 C10.157,70.674 10.091,70.602 10.009,70.56 C10,70.5 9.989,70.441 9.981,70.381 C9.918,69.946 9.795,69.525 9.593,69.053 C9.382,68.558 9.113,68.121 8.828,67.658 C8.64,67.354 8.452,67.051 8.289,66.74 C7.973,66.139 7.911,65.475 7.844,64.77 L7.82,64.523 C7.758,63.888 7.498,63.336 7.248,62.804 C7.101,62.492 6.952,62.172 6.844,61.841 C6.645,61.236 6.677,60.587 6.711,59.9 C6.725,59.629 6.737,59.377 6.737,59.126 C6.737,58.279 6.692,57.516 6.15,56.746 C5.81,56.262 5.436,55.83 5.039,55.371 C4.762,55.053 4.478,54.723 4.216,54.385 C3.474,53.428 3.434,52.531 3.602,51.478 L3.629,51.315 C3.694,50.93 3.767,50.493 3.694,50.09 C3.62,49.683 3.406,49.475 3.199,49.274 C3.115,49.192 3.029,49.108 2.949,49.01 C2.332,48.254 2.397,47.166 2.558,46.387 C2.611,46.134 2.743,45.833 2.871,45.541 C3.008,45.229 3.154,44.895 3.233,44.562 C3.41,44.507 3.529,44.265 3.809,43.654 C3.935,43.377 4.126,42.959 4.189,42.876 C4.307,42.73 4.42,42.571 4.531,42.415 C4.59,42.331 4.648,42.248 4.708,42.167 C5.085,41.657 5.386,41.217 5.54,40.586 C5.723,39.832 5.783,39.047 5.842,38.288 C5.903,37.503 5.96,36.76 6.14,36.045 C6.305,35.39 6.514,34.86 6.779,34.425 C6.939,34.163 7.198,33.927 7.449,33.697 C7.779,33.398 8.118,33.088 8.286,32.683 C8.427,32.345 8.449,32.014 8.472,31.692 C8.495,31.357 8.517,31.04 8.679,30.748 C8.916,30.316 9.108,30.227 9.491,30.052 C9.684,29.963 9.926,29.851 10.209,29.672 C10.371,29.571 10.419,29.358 10.317,29.196 C10.215,29.034 10.002,28.988 9.841,29.089 C9.596,29.244 9.386,29.34 9.201,29.425 C8.782,29.618 8.42,29.785 8.073,30.415 C7.839,30.841 7.809,31.268 7.782,31.645 C7.763,31.922 7.745,32.185 7.649,32.42 C7.539,32.682 7.27,32.927 6.984,33.188 C6.697,33.449 6.401,33.72 6.189,34.066 C5.888,34.561 5.653,35.153 5.471,35.876 C5.276,36.648 5.214,37.455 5.154,38.235 C5.098,38.967 5.04,39.723 4.87,40.423 C4.746,40.929 4.495,41.296 4.155,41.756 C4.092,41.841 4.03,41.928 3.969,42.016 C3.866,42.161 3.763,42.306 3.651,42.444 C3.553,42.566 3.427,42.831 3.182,43.366 C3.167,43.399 3.149,43.437 3.133,43.473 C3.041,43.298 2.928,43.144 2.81,43.002 C2.652,42.811 2.506,42.634 2.425,42.398 C2.263,41.918 2.197,41.384 2.152,40.924 C2.033,39.69 1.952,38.279 2.246,37.178 C2.379,36.68 2.594,36.192 2.8,35.72 C3.018,35.223 3.242,34.715 3.38,34.184 C3.76,32.719 4.121,31.578 4.518,30.589 C4.708,30.116 4.882,29.623 5.051,29.147 C5.444,28.041 5.849,26.902 6.44,25.948 C7.101,24.879 7.577,23.68 7.971,22.641 C8.602,20.975 9.427,19.571 10.15,18.416 C10.582,17.727 11.124,17.122 11.649,16.536 C11.828,16.335 11.992,16.154 12.155,15.966 C12.452,15.624 12.681,15.259 12.924,14.873 C13.076,14.632 13.233,14.384 13.4,14.154 C13.634,13.832 13.903,13.549 14.162,13.274 C14.32,13.107 14.475,12.944 14.627,12.77 C14.964,12.383 15.378,12.037 15.777,11.703 C16.275,11.286 16.743,10.894 17.119,10.405 C17.362,10.091 17.549,9.76 17.731,9.439 C18.037,8.899 18.322,8.395 18.832,7.999 C19.505,7.478 20.192,7.354 20.992,7.211 C21.17,7.179 21.351,7.146 21.537,7.108 L21.638,7.087 C22.359,6.942 23.083,6.755 23.326,6.199 C23.414,5.999 23.441,5.769 23.467,5.546 C23.494,5.325 23.52,5.097 23.607,4.909 C23.819,4.444 24.106,4.126 24.458,3.965 C24.942,3.745 25.422,3.721 25.93,3.696 C26.299,3.678 26.676,3.66 27.061,3.565 C27.655,3.417 28.08,3.028 28.491,2.652 C28.775,2.392 29.042,2.148 29.361,1.978 C29.91,1.685 30.422,1.561 31.07,1.561 C31.362,1.561 31.668,1.584 31.99,1.609 C32.183,1.625 32.367,1.639 32.56,1.651 C34.151,1.743 34.589,3.205 34.998,5.106 C35.079,5.482 35.155,5.835 35.247,6.161 C35.602,7.434 36.009,9.332 36.064,10.49 L36.098,11.209 C36.109,11.445 36.12,11.672 36.131,11.899 C35.452,11.355 34.566,10.651 33.882,10.348 C33.391,10.13 32.822,9.94 32.238,9.801 C31.822,9.702 31.822,9.702 30.864,9.51 C30.675,9.473 30.495,9.594 30.458,9.781 C30.42,9.968 30.542,10.149 30.729,10.186 C31.675,10.375 31.675,10.375 32.078,10.471 C32.621,10.601 33.148,10.776 33.601,10.977 C34.234,11.258 35.136,11.983 35.795,12.513 L36.121,12.774 C36.139,12.788 36.161,12.784 36.179,12.795 C36.214,13.361 36.258,13.939 36.325,14.587 C36.349,14.824 36.367,15.069 36.389,15.31 C35.919,14.833 35.335,14.456 34.709,14.266 C34.185,14.107 33.633,14.106 33.023,14.263 C32.811,14.318 32.609,14.416 32.415,14.51 C32.154,14.636 31.919,14.757 31.698,14.745 C31.513,14.73 31.346,14.881 31.336,15.071 C31.326,15.262 31.473,15.424 31.663,15.433 C32.052,15.455 32.404,15.282 32.717,15.131 C32.889,15.048 33.051,14.969 33.198,14.931 C33.681,14.806 34.111,14.804 34.51,14.925 C35.257,15.153 35.947,15.689 36.356,16.357 C36.387,16.408 36.431,16.446 36.479,16.474 C36.557,17.737 36.557,19.033 36.406,20.331 C36.259,20.199 36.104,20.046 35.941,19.874 C35.374,19.276 34.731,18.6 33.928,18.764 C33.629,18.825 33.343,19.009 33.067,19.187 C32.846,19.33 32.618,19.477 32.412,19.541 L32.1,19.64 C31.652,19.784 31.189,19.931 30.756,19.99 C30.486,20.028 30.214,20.024 29.93,20.023 C29.547,20.02 29.151,20.018 28.746,20.113 C28.084,20.269 27.538,20.549 26.959,20.846 L26.71,20.972 C25.756,21.454 24.547,22.159 23.668,23.336 C22.195,25.307 21.921,27.48 22.935,29.149 C23.248,29.667 23.649,30.085 24.094,30.437 C23.052,31.252 22.001,32.751 21.87,32.942 C21.643,33.271 21.461,33.592 21.309,33.953 C21.271,33.588 21.21,33.158 21.061,32.561 C20.82,31.605 19.9,30.996 19.09,30.46 C18.923,30.349 18.761,30.242 18.611,30.135 C17.993,29.694 16.037,29.37 13.734,29.02 C13.185,28.937 12.713,28.865 12.421,28.808 C12.391,28.795 12.362,28.782 12.328,28.778 C11.762,28.713 11.649,28.567 11.631,28.537 C11.594,28.475 11.645,28.349 11.679,28.267 C11.694,28.228 11.707,28.195 11.715,28.17 C11.841,27.754 11.954,27.517 12.178,27.196 C12.635,26.543 13.211,26.119 13.759,26.034 C13.92,26.008 14.042,25.873 14.051,25.71 C14.116,24.408 14.28,23.577 14.957,22.772 C15.376,23.638 16.13,25.059 16.428,25.561 C17.075,26.646 17.889,27.314 18.75,28.019 C19.073,28.284 19.407,28.557 19.736,28.858 C19.802,28.918 19.885,28.948 19.968,28.948 C20.062,28.948 20.155,28.91 20.223,28.835 C20.351,28.695 20.342,28.477 20.201,28.348 C19.857,28.035 19.516,27.755 19.187,27.485 C18.374,26.819 17.606,26.19 17.02,25.207 C16.675,24.626 15.643,22.669 15.37,22.028 C15.367,22.021 15.36,22.016 15.357,22.008 C15.355,22.004 15.357,21.999 15.355,21.995 C15.179,21.678 14.986,21.412 14.816,21.178 C14.434,20.65 14.132,20.233 14.13,19.438 C14.129,19.247 13.975,19.094 13.784,19.094 C13.784,19.094 13.784,19.094 13.783,19.094 C13.593,19.095 13.439,19.25 13.439,19.44 C13.443,20.458 13.839,21.004 14.257,21.583 C14.379,21.75 14.503,21.921 14.621,22.11 C13.641,23.154 13.449,24.232 13.376,25.412 C12.52,25.659 11.913,26.37 11.613,26.799 C11.344,27.184 11.204,27.479 11.056,27.968 L11.04,28.007 C10.977,28.164 10.828,28.532 11.04,28.888 C11.209,29.173 11.562,29.348 12.096,29.433 C12.113,29.44 12.126,29.451 12.144,29.454 C12.432,29.518 12.962,29.598 13.632,29.7 C15.144,29.929 17.677,30.313 18.213,30.695 C18.369,30.806 18.537,30.918 18.71,31.032 C19.417,31.499 20.217,32.03 20.392,32.727 C20.571,33.438 20.613,33.9 20.651,34.307 C20.688,34.704 20.722,35.08 20.872,35.58 C20.915,35.726 21.051,35.827 21.203,35.827 L21.215,35.827 C21.371,35.821 21.505,35.71 21.539,35.557 C21.795,34.416 22.074,33.859 22.438,33.331 C22.91,32.647 23.879,31.41 24.688,30.852 C25.306,31.245 25.971,31.551 26.597,31.836 C26.869,31.96 27.132,32.08 27.38,32.202 C27.429,32.227 27.481,32.238 27.532,32.238 C27.659,32.238 27.782,32.168 27.841,32.047 C27.926,31.876 27.856,31.669 27.685,31.585 C27.431,31.46 27.161,31.336 26.883,31.21 C25.657,30.651 24.27,30.019 23.524,28.789 C22.246,26.685 23.734,24.397 24.22,23.747 C24.839,22.918 25.703,22.252 27.022,21.587 L27.273,21.458 C27.814,21.181 28.324,20.92 28.904,20.783 C29.228,20.707 29.564,20.709 29.925,20.711 C30.223,20.712 30.531,20.715 30.849,20.672 C31.342,20.605 31.833,20.448 32.309,20.296 L32.616,20.199 C32.912,20.107 33.181,19.934 33.441,19.766 C33.664,19.622 33.894,19.474 34.066,19.439 C34.494,19.354 34.996,19.881 35.441,20.348 C35.739,20.662 36.023,20.952 36.323,21.128 C36.223,21.982 36.233,22.822 36.252,23.705 C36.264,24.282 36.275,24.869 36.252,25.462 C36.25,25.53 36.25,25.603 36.248,25.671 C35.609,25.601 35.019,25.247 34.402,24.859 C33.819,24.492 33.217,24.113 32.522,23.955 C31.765,23.784 31.131,24.099 30.86,24.774 C30.55,25.546 30.79,26.715 31.64,27.225 C31.695,27.257 31.757,27.274 31.817,27.274 C31.934,27.274 32.048,27.215 32.113,27.107 C32.211,26.943 32.158,26.732 31.995,26.634 C31.471,26.319 31.301,25.528 31.5,25.032 C31.646,24.667 31.937,24.531 32.369,24.629 C32.949,24.76 33.476,25.091 34.034,25.443 C34.711,25.869 35.414,26.291 36.235,26.363 C36.214,27.95 36.273,29.631 36.337,31.271 C36.392,32.709 36.449,34.186 36.449,35.591 L36.45,36.9 C36.454,39.24 36.458,41.66 36.351,44.025 L36.337,44.339 C36.234,46.726 36.025,48.326 34.132,48.812 L32.217,49.302 L33.059,49.679 C33.023,50.177 32.938,50.948 32.874,51.101 C32.771,51.279 32.706,51.476 32.643,51.666 C32.584,51.84 32.53,52.006 32.448,52.14 C32.348,52.301 32.4,52.514 32.562,52.614 C32.619,52.649 32.681,52.665 32.742,52.665 C32.858,52.665 32.971,52.606 33.036,52.501 C33.16,52.298 33.229,52.088 33.297,51.884 C33.353,51.72 33.404,51.564 33.48,51.433 C33.602,51.219 33.681,50.505 33.724,49.978 L34.021,50.111 C34.263,50.218 34.536,50.314 34.811,50.386 C35.572,50.585 35.725,51.04 35.948,51.896 L35.96,51.939 C36.439,53.761 36.575,55.719 36.646,57.394 C36.651,57.529 36.659,57.671 36.667,57.817 L36.67,57.869 C36.707,58.547 36.75,59.312 36.627,59.911 C36.565,60.207 36.46,60.447 36.356,60.682 C36.156,61.136 35.967,61.565 36.161,62.252 C36.292,62.721 36.438,63.135 36.577,63.535 C36.939,64.579 37.254,65.474 37.135,66.811 Z" id="Shape"></path>
                <path d="M29.766,69.23 C29.57,69.222 29.412,69.363 29.399,69.552 C29.387,69.741 29.531,69.906 29.721,69.918 C29.76,69.921 29.8,69.921 29.84,69.921 C30.524,69.921 31.285,69.547 31.809,68.942 C32.27,68.411 32.459,67.807 32.341,67.243 C32.301,67.057 32.118,66.938 31.933,66.977 C31.746,67.015 31.627,67.199 31.666,67.385 C31.737,67.728 31.599,68.129 31.287,68.49 C30.875,68.967 30.262,69.264 29.766,69.23 Z" id="Shape"></path>
                <path d="M32.819,63.73 C32.766,63.608 32.714,63.485 32.662,63.361 C32.262,62.418 31.85,61.444 31.169,60.619 C30.484,59.791 30.092,58.969 29.678,58.098 C29.497,57.719 29.309,57.325 29.09,56.914 C28.774,56.323 28.303,55.879 27.849,55.451 C27.398,55.025 26.972,54.624 26.713,54.103 C26.156,52.982 26.597,52.202 27.108,51.296 C27.331,50.901 27.563,50.491 27.713,50.04 C27.774,49.858 27.675,49.663 27.495,49.603 C27.313,49.542 27.119,49.641 27.059,49.821 C26.929,50.21 26.724,50.573 26.507,50.958 C25.976,51.896 25.375,52.962 26.094,54.409 C26.408,55.04 26.9,55.503 27.375,55.952 C27.809,56.36 28.218,56.747 28.481,57.239 C28.556,57.378 28.622,57.512 28.69,57.648 C28.304,58.055 27.723,58.571 26.856,58.944 C26.681,59.019 26.6,59.222 26.675,59.397 C26.731,59.528 26.859,59.606 26.992,59.606 C27.038,59.606 27.084,59.596 27.128,59.578 C27.981,59.21 28.585,58.725 29.011,58.306 C29.025,58.335 29.04,58.365 29.054,58.394 C29.487,59.304 29.896,60.164 30.635,61.058 C31.253,61.806 31.645,62.733 32.025,63.629 C32.166,63.963 32.305,64.292 32.454,64.606 C32.511,64.728 32.633,64.804 32.766,64.804 C32.778,64.804 32.79,64.803 32.803,64.801 C32.949,64.785 33.069,64.677 33.102,64.534 C33.136,64.381 33.134,64.241 33.132,64.118 L33.132,64.07 C33.132,63.893 32.994,63.746 32.819,63.73 Z" id="Shape"></path>
                <path d="M10.634,48.471 C10.653,48.471 10.672,48.469 10.691,48.465 C10.879,48.434 11.006,48.256 10.974,48.069 C10.753,46.744 10.692,45.502 10.795,44.375 C10.883,43.444 11.252,42.622 11.642,41.751 C11.734,41.545 11.827,41.339 11.915,41.131 C12.204,40.455 12.828,39.212 13.773,38.468 C14.145,38.176 14.554,37.883 15.024,37.571 L15.116,37.509 C16.085,36.86 16.586,36.583 16.843,36.466 C17.045,36.949 17.511,37.214 17.924,37.445 C18.088,37.537 18.243,37.625 18.37,37.718 C19.32,38.414 20.41,39.063 21.618,39.063 C22.098,39.063 22.597,38.96 23.112,38.718 C23.844,38.374 24.393,37.795 24.924,37.234 C25.458,36.671 25.962,36.139 26.611,35.876 C27.235,35.623 27.846,35.504 28.492,35.377 C29.34,35.212 30.218,35.04 31.108,34.545 C31.259,34.461 31.44,34.366 31.642,34.26 C33.031,33.528 35.13,32.423 35.309,31.055 C35.334,30.866 35.201,30.693 35.012,30.668 C34.824,30.644 34.65,30.776 34.626,30.965 C34.493,31.978 32.43,33.065 31.322,33.649 C31.115,33.758 30.929,33.855 30.774,33.941 C29.979,34.383 29.193,34.537 28.362,34.699 C27.712,34.825 27.04,34.957 26.353,35.235 C25.565,35.555 24.986,36.167 24.426,36.758 C23.916,37.296 23.435,37.804 22.822,38.091 C21.337,38.788 20.003,38.055 18.78,37.16 C18.619,37.041 18.439,36.94 18.264,36.842 C17.916,36.646 17.588,36.461 17.479,36.193 C17.355,35.889 17.423,35.439 17.49,35.005 C17.535,34.71 17.578,34.432 17.57,34.17 C17.564,33.979 17.404,33.83 17.214,33.837 C17.024,33.843 16.875,34.003 16.881,34.193 C16.887,34.391 16.849,34.639 16.809,34.901 C16.766,35.179 16.722,35.478 16.723,35.77 C16.39,35.895 15.824,36.205 14.736,36.935 L14.647,36.994 C14.16,37.317 13.736,37.621 13.35,37.925 C12.284,38.763 11.598,40.122 11.284,40.859 C11.197,41.063 11.106,41.266 11.015,41.467 C10.619,42.35 10.209,43.264 10.111,44.309 C10,45.497 10.062,46.8 10.294,48.182 C10.323,48.352 10.468,48.471 10.634,48.471 Z" id="Shape"></path>
                <path d="M15.042,62.82 C15.068,62.992 15.214,63.115 15.383,63.115 C15.4,63.115 15.417,63.113 15.434,63.11 C15.928,63.037 16.451,62.761 16.836,62.397 C17.368,62.666 17.977,62.822 18.516,62.822 C18.764,62.822 18.996,62.789 19.199,62.722 C19.38,62.662 19.477,62.467 19.418,62.286 C19.358,62.104 19.164,62.005 18.983,62.067 C18.18,62.331 16.527,61.745 16.214,60.908 C16.147,60.729 15.946,60.639 15.77,60.706 C15.592,60.772 15.501,60.972 15.568,61.149 C15.692,61.479 15.937,61.767 16.242,62.013 C15.974,62.225 15.638,62.382 15.333,62.427 C15.145,62.457 15.015,62.633 15.042,62.82 Z" id="Shape"></path>
                <path d="M29.496,80.597 C29.851,80.151 30.255,79.644 30.053,78.84 C29.96,78.469 29.718,78.069 29.387,77.74 C29.291,77.645 29.171,77.568 29.043,77.487 C28.943,77.423 28.758,77.304 28.727,77.244 C28.706,77.055 28.538,76.932 28.349,76.949 C28.16,76.97 28.026,77.15 28.047,77.34 C28.086,77.695 28.412,77.902 28.673,78.069 C28.76,78.125 28.859,78.188 28.902,78.231 C29.142,78.469 29.323,78.76 29.385,79.006 C29.499,79.459 29.306,79.729 28.957,80.167 C28.844,80.309 28.729,80.453 28.622,80.617 C28.067,81.465 28.575,81.955 28.911,82.28 C29.038,82.403 29.158,82.518 29.246,82.651 C29.521,83.06 29.364,83.581 29.197,84.13 C29.098,84.458 28.995,84.796 28.983,85.128 C28.975,85.319 29.123,85.48 29.313,85.487 L29.327,85.487 C29.512,85.487 29.664,85.341 29.671,85.155 C29.681,84.911 29.766,84.63 29.857,84.33 C30.054,83.683 30.276,82.947 29.819,82.267 C29.69,82.074 29.53,81.919 29.39,81.785 C29.048,81.455 28.957,81.365 29.2,80.995 C29.288,80.858 29.393,80.725 29.496,80.597 Z" id="Shape"></path>
                <path d="M32.568,73.848 C32.054,73.883 31.589,74.077 31.137,74.262 C30.769,74.414 30.421,74.557 30.059,74.616 C29.142,74.762 28.343,74.838 27.424,74.734 C25.888,74.56 24.094,73.772 24.095,72.13 C24.096,71.42 24.643,70.844 25.222,70.232 C25.768,69.656 26.332,69.06 26.539,68.273 C27.083,66.208 25.643,64.855 24.372,63.662 L24.108,63.412 C22.623,62.002 21.682,60.383 21.314,58.602 C20.981,56.998 21.25,55.345 21.509,53.746 C21.56,53.434 21.611,53.121 21.657,52.81 L21.732,52.296 C21.958,50.71 22.213,48.915 23.295,47.702 C23.743,47.198 24.26,46.771 24.808,46.319 C25.542,45.712 26.302,45.084 26.883,44.259 C27.232,43.763 27.448,43.232 27.658,42.718 C28.093,41.651 28.437,40.808 29.781,40.649 C31.019,40.502 31.737,41.435 32.497,42.421 C32.698,42.68 32.904,42.948 33.118,43.188 C33.244,43.33 33.463,43.344 33.605,43.216 C33.746,43.09 33.76,42.872 33.633,42.729 C33.437,42.508 33.245,42.261 33.043,42 C32.238,40.956 31.327,39.772 29.7,39.964 C27.951,40.171 27.477,41.333 27.02,42.457 C26.824,42.936 26.623,43.431 26.319,43.862 C25.792,44.612 25.1,45.182 24.368,45.787 C23.991,46.099 23.606,46.419 23.243,46.766 C23.154,46.748 23.056,46.729 22.944,46.707 C22.031,46.531 20.132,46.164 19.591,45.889 C19.439,45.81 19.279,45.736 19.117,45.661 C18.786,45.505 18.444,45.346 18.171,45.156 C17.814,44.908 17.489,44.547 17.175,44.198 L17.058,44.071 C16.68,43.654 16.39,43.179 16.085,42.676 C15.928,42.417 15.77,42.158 15.599,41.905 C15.493,41.747 15.279,41.706 15.12,41.812 C14.962,41.919 14.921,42.133 15.028,42.291 C15.193,42.534 15.343,42.785 15.495,43.034 C15.804,43.543 16.122,44.069 16.547,44.535 L16.661,44.661 C16.89,44.915 17.141,45.19 17.418,45.435 C16.919,45.837 16.21,46.451 15.944,46.691 C15.764,46.855 15.607,47.054 15.456,47.248 C15.289,47.459 15.132,47.659 14.968,47.783 C14.817,47.898 14.786,48.114 14.901,48.265 C14.968,48.355 15.072,48.403 15.176,48.403 C15.249,48.403 15.322,48.381 15.384,48.334 C15.619,48.156 15.812,47.91 15.998,47.674 C16.139,47.495 16.271,47.327 16.408,47.202 C16.731,46.91 17.547,46.21 17.999,45.855 C18.265,46.015 18.546,46.156 18.826,46.287 C18.98,46.359 19.133,46.43 19.278,46.505 C19.839,46.791 21.311,47.095 22.682,47.361 C22.116,48.039 21.765,48.838 21.528,49.672 C21.093,49.854 20.472,50.274 19.863,50.694 L19.653,50.84 C19.5,50.944 19.344,51.044 19.19,51.148 C18.703,51.466 18.201,51.798 17.739,52.199 C17.166,52.697 16.624,53.228 16.099,53.763 C15.962,53.754 15.759,53.748 15.469,53.74 C15.356,53.738 15.265,53.736 15.223,53.734 C13.504,53.645 12.163,53.289 11.121,52.644 C10.563,52.298 9.956,51.769 9.318,51.072 L9.105,50.843 C8.627,50.334 7.973,49.638 7.817,49.078 C7.766,48.893 7.573,48.788 7.392,48.839 C7.208,48.89 7.101,49.081 7.153,49.264 C7.355,49.986 8.075,50.754 8.602,51.316 L8.81,51.539 C9.492,52.283 10.147,52.851 10.759,53.23 C11.902,53.937 13.351,54.328 15.188,54.422 C15.232,54.423 15.331,54.427 15.45,54.431 C15.406,54.475 15.363,54.521 15.319,54.566 C15.104,54.789 14.888,55.013 14.671,55.236 C13.761,56.168 13.36,57.213 13.007,58.597 C12.624,60.093 12.502,61.927 12.689,63.381 C12.711,63.556 12.859,63.682 13.031,63.682 C13.046,63.682 13.06,63.681 13.075,63.679 C13.264,63.656 13.397,63.483 13.373,63.294 C13.196,61.919 13.313,60.186 13.675,58.768 C14,57.494 14.363,56.539 15.165,55.718 C15.384,55.493 15.6,55.269 15.816,55.043 C16.572,54.259 17.355,53.446 18.192,52.718 C18.618,52.349 19.101,52.03 19.569,51.723 C19.727,51.619 19.884,51.516 20.041,51.41 L20.256,51.262 C20.514,51.083 20.941,50.787 21.314,50.563 C21.203,51.115 21.125,51.668 21.049,52.2 L20.976,52.71 C20.93,53.017 20.878,53.326 20.829,53.636 C20.558,55.297 20.279,57.015 20.638,58.743 C21.037,60.665 22.044,62.403 23.634,63.914 L23.901,64.165 C25.086,65.278 26.311,66.43 25.873,68.1 C25.71,68.716 25.23,69.222 24.722,69.759 C24.076,70.442 23.408,71.148 23.407,72.132 C23.407,72.648 23.535,73.094 23.755,73.482 C23.655,73.503 23.565,73.564 23.516,73.664 C22.975,74.796 22.397,75.417 21.524,75.81 C20.797,76.135 19.63,76.213 18.937,75.778 C18.775,75.678 18.563,75.726 18.461,75.887 C18.36,76.049 18.409,76.262 18.57,76.363 C19.029,76.651 19.604,76.772 20.176,76.772 C20.3,76.772 20.422,76.764 20.544,76.752 C20.473,77.739 20.598,78.473 20.926,78.984 C21.236,79.466 21.759,79.749 22.203,79.926 C22.187,80.007 22.168,80.089 22.147,80.173 C22.063,80.527 21.966,80.925 22.097,81.402 C22.216,81.834 22.764,82.925 23.418,83.056 C23.441,83.062 23.463,83.063 23.486,83.063 C23.647,83.063 23.792,82.95 23.824,82.787 C23.862,82.6 23.74,82.418 23.553,82.381 C23.362,82.343 22.89,81.688 22.762,81.22 C22.677,80.914 22.742,80.645 22.817,80.334 C22.862,80.145 22.91,79.947 22.926,79.727 C22.939,79.572 22.844,79.426 22.696,79.375 C22.309,79.24 21.764,79.018 21.505,78.612 C21.246,78.206 21.161,77.538 21.247,76.627 C21.445,76.574 21.636,76.515 21.804,76.439 C22.822,75.982 23.516,75.247 24.125,73.986 C24.902,74.84 26.185,75.291 27.345,75.423 C27.666,75.459 27.973,75.475 28.271,75.475 C28.954,75.475 29.58,75.394 30.167,75.301 C30.608,75.231 31.011,75.065 31.399,74.903 C31.817,74.731 32.211,74.568 32.614,74.54 C32.803,74.527 32.947,74.362 32.933,74.172 C32.923,73.977 32.757,73.841 32.568,73.848 Z" id="Shape"></path>
                <path d="M20.683,68.57 C20.519,68.471 20.308,68.524 20.209,68.687 C19.457,69.933 20.239,71.654 20.821,72.472 C20.887,72.568 20.994,72.618 21.101,72.618 C21.17,72.618 21.24,72.597 21.301,72.555 C21.456,72.445 21.493,72.23 21.383,72.074 C20.86,71.336 20.272,69.918 20.801,69.045 C20.898,68.881 20.846,68.669 20.683,68.57 Z" id="Shape"></path>
                <path d="M16.983,68.978 C16.218,68.627 15.223,68.307 14.305,68.92 C14.146,69.025 14.103,69.24 14.21,69.399 C14.315,69.557 14.53,69.6 14.688,69.494 C15.319,69.071 16.058,69.313 16.696,69.606 C16.743,69.627 16.792,69.636 16.839,69.636 C16.971,69.636 17.095,69.561 17.153,69.435 C17.233,69.261 17.156,69.057 16.983,68.978 Z" id="Shape"></path>
                <path d="M14.175,66.391 C14.102,66.214 13.9,66.13 13.725,66.203 C12.723,66.617 12.148,67.381 12.063,68.41 C12.048,68.6 12.188,68.767 12.378,68.783 L12.407,68.783 C12.585,68.783 12.736,68.648 12.75,68.467 C12.813,67.701 13.229,67.154 13.987,66.84 C14.165,66.768 14.249,66.564 14.175,66.391 Z" id="Shape"></path>
                <path d="M10.129,62.93 C9.472,63.242 9.025,63.891 8.872,64.757 C8.838,64.945 8.964,65.124 9.151,65.156 C9.172,65.16 9.192,65.162 9.212,65.162 C9.376,65.162 9.521,65.045 9.55,64.878 C9.616,64.506 9.818,63.842 10.425,63.553 C10.596,63.471 10.67,63.265 10.589,63.093 C10.507,62.921 10.301,62.848 10.129,62.93 Z" id="Shape"></path>
                <path d="M19.781,23.037 C19.823,23.054 19.864,23.06 19.906,23.06 C20.044,23.06 20.175,22.976 20.227,22.841 C20.425,22.331 20.779,21.869 21.154,21.379 C21.447,20.996 21.749,20.601 21.979,20.172 C22.152,19.85 22.308,19.512 22.458,19.187 C22.598,18.88 22.731,18.592 22.878,18.314 C22.943,18.19 23.018,18.067 23.092,17.942 C23.333,17.539 23.607,17.081 23.639,16.542 C23.681,15.855 23.346,15.636 23.124,15.49 C22.989,15.401 22.927,15.361 22.894,15.218 C22.814,14.878 23.032,14.697 23.547,14.363 C23.93,14.117 24.364,13.836 24.417,13.347 C24.459,12.973 24.268,12.586 23.817,12.13 C23.698,12.008 23.568,11.893 23.437,11.775 C23.002,11.384 22.626,11.046 22.635,10.541 C22.645,9.971 23.098,9.529 23.603,9.09 C24.778,8.069 25.867,7.516 26.513,7.608 C26.785,7.647 26.997,7.793 27.14,8.041 C27.352,8.408 27.38,8.961 27.21,9.385 C27.14,9.562 27.226,9.763 27.402,9.834 C27.578,9.905 27.779,9.819 27.851,9.643 C28.101,9.016 28.057,8.252 27.737,7.698 C27.487,7.263 27.098,6.996 26.612,6.926 C25.442,6.758 23.941,7.884 23.152,8.571 C22.577,9.071 21.962,9.677 21.946,10.53 C21.931,11.351 22.488,11.85 22.978,12.289 C23.098,12.397 23.216,12.504 23.327,12.615 C23.715,13.009 23.74,13.206 23.734,13.273 C23.715,13.436 23.441,13.613 23.174,13.786 C22.689,14.099 22.025,14.528 22.224,15.378 C22.321,15.788 22.578,15.957 22.747,16.068 C22.917,16.18 22.969,16.214 22.952,16.503 C22.93,16.875 22.722,17.222 22.501,17.591 C22.421,17.725 22.341,17.86 22.269,17.994 C22.113,18.289 21.97,18.6 21.831,18.901 C21.686,19.217 21.537,19.544 21.373,19.848 C21.169,20.228 20.896,20.585 20.607,20.962 C20.22,21.468 19.819,21.992 19.586,22.592 C19.516,22.768 19.604,22.967 19.781,23.037 Z" id="Shape"></path>
                <path d="M10.884,34.86 C10.912,34.867 10.94,34.87 10.967,34.87 C11.122,34.87 11.263,34.765 11.301,34.608 C11.49,33.837 11.979,33.236 12.642,32.958 C12.817,32.884 12.9,32.682 12.827,32.507 C12.754,32.331 12.553,32.249 12.376,32.322 C11.51,32.685 10.874,33.458 10.632,34.443 C10.586,34.627 10.699,34.814 10.884,34.86 Z" id="Shape"></path>
                <path d="M27.038,6.473 C27.099,6.473 27.161,6.457 27.218,6.423 C27.38,6.324 27.431,6.111 27.332,5.949 C27.198,5.729 27.147,5.531 27.193,5.405 C27.244,5.269 27.425,5.186 27.568,5.14 C27.749,5.081 27.849,4.887 27.791,4.706 C27.733,4.525 27.54,4.424 27.357,4.483 C26.937,4.618 26.665,4.847 26.546,5.165 C26.421,5.499 26.489,5.895 26.742,6.309 C26.808,6.414 26.921,6.473 27.038,6.473 Z" id="Shape"></path>
            </g>
        </g>
    </g>
</svg>