<?xml version="1.0" encoding="UTF-8"?>
<svg width="94px" height="109px" viewBox="0 0 94 109" version="1.1" xmlns="http://www.w3.org/2000/svg" xmlns:xlink="http://www.w3.org/1999/xlink">
    <!-- Generator: Sketch 41.1 (35376) - http://www.bohemiancoding.com/sketch -->
    <title>brain</title>
    <desc>Created with Sketch.</desc>
    <defs></defs>
    <g id="Page-1" stroke="none" stroke-width="1" fill="none" fill-rule="evenodd">
        <g id="brain" transform="translate(1.000000, 1.000000)" stroke-width="2" stroke="#E1E1E1">
            <g id="Group-2">
                <path d="M33.8267119,106.31719 C36.3842525,106.31719 37.8309144,103.772969 37.8309144,98.4563822 C37.8309144,95.8211717 40.8072211,94.5909663 41.2467842,91.9638791 C41.8521338,88.345954 42.2742276,84.35441 42.5642896,80.3749593 C42.7705025,77.5458603 40.4579754,74.2678524 40.4579754,74.2678524 C40.4579754,74.2678524 41.9406818,72.488004 42.5642896,68.6770966 C43.1878974,64.8661891 42.9681188,58.9159393 42.9692591,56.899268 C42.9715718,52.8093862 40.4579754,51.5883927 40.4579754,51.5883927 C40.4579754,51.5883927 44.4508598,49.1887387 44.4508598,39.3964097 C44.4508598,16.6358499 43.8001966,0.164446721 35.8949704,0.164446721 C33.0064956,0.164446721 28.4280115,3.11886995 25.7529708,4.19491316 C23.3522401,5.16061432 20.7617098,4.57013579 18.5991794,6.29832711 C9.88390083,13.2631627 3.35768157,26.0199855 1.0729953,41.3432803 C0.692930382,43.8923597 0.811200783,46.5124621 0.937749255,49.1887387 C1.00422999,50.5946886 0,52.3575467 0,53.7923497 C0,55.8135607 1.11045186,57.4910009 1.19931841,59.4891053 C1.45746834,65.2934324 2.14944358,70.9227355 3.61728803,75.9265728 C4.13654718,77.6967115 5.5363073,77.4743424 6.06668857,79.0235363 C6.59706984,80.5727301 5.69378288,82.4659823 6.06668857,83.3202677 C6.83954907,85.0908049 8.83102828,85.9416616 9.73178565,87.5478968 C10.6618852,89.206455 10.5053079,91.6146554 11.5593949,93.0785814 C12.8769888,94.9084682 15.1335269,94.7548558 16.6227414,96.2458974 C18.0198358,97.6447058 18.6400549,100.709637 20.1672462,101.777304 C21.8887265,102.980799 23.8899532,105.644253 25.7529708,106.31719 C30.0062655,107.853513 30.9691915,106.31719 33.8267119,106.31719 Z" id="Oval"></path>
                <path d="M32.5431074,11.2754493 C31.8976499,8.67077967 28.2441898,7.68289532 26.9323918,10.6861819 C25.2074211,14.6354039 29.0324934,14.1283734 27.4722518,17.9828049 C26.3393704,20.7814826 22.4013961,18.4534437 22.4013961,22.1660476 C22.4013961,25.20717 26.2269323,26.6531211 26.2960429,27.1285701" id="Path-2" stroke-linecap="round"></path>
                <path d="M43.2770433,13.3156165 C42.1443783,12.5836828 41.95991,11.9833396 41.2898484,11.1442367 C40.6197868,10.3051338 39.725281,9.58606173 39.4552284,9.38945099 C38.1677594,8.4521143 35.6334135,9.38945099 35.6334135,9.38945099" id="Path-3" stroke-linecap="round"></path>
                <path d="M43.6109005,18.6076033 C40.7069877,15.1787788 39.9826094,14.2986342 36.3394046,16.8546469" id="Path-4" stroke-linecap="round"></path>
                <path d="M44.3179549,24.7183978 C42.7496764,23.577168 41.4522637,21.7822184 39.6131195,21.2947084 C38.8120497,21.0823654 38.4793616,22.7265162 37.6833395,22.9597315 C35.8576393,23.4946176 30.5560308,23.0696274 28.3332101,25.0290194 C22.9178528,29.8025971 24.6560716,35.335717 30.7616494,36.649921" id="Path-5" stroke-linecap="round"></path>
                <path d="M44.3073225,30.8566001 C43.827045,30.6918397 31.308112,25.5835687 36.8593288,31.8821081" id="Path-6" stroke-linecap="round"></path>
                <path d="M40.6455251,36.6898907 C39.1920766,38.0926365 38.0564109,40.0118297 36.2851794,40.898128 C34.3114535,41.8857515 31.8535349,41.1811193 29.8483266,42.0926507 C27.6738202,43.0811419 26.3987641,46.2180891 24.0483543,46.4607667 C21.4280777,46.7313078 19.2591009,42.9789394 16.664155,43.4539041 C10.1263298,44.6505519 11.6530099,55.6965812 13.9167437,59.0181011" id="Path-7" stroke-linecap="round"></path>
                <path d="M19.0330529,43.6423327 C19.4913585,42.8424829 20.0643953,42.4854956 20.0643953,41.3069608 C20.0643953,40.128426 20.0643953,38.971589 20.0643953,38.971589" id="Path-8" stroke-linecap="round"></path>
                <path d="M29.4240939,36.3444384 C28.5486933,37.1651493 28.0004161,39.1805733 25.5985577,39.1805733 C23.1966993,39.1805733 22.2719258,37.79726 21.1191291,37.0290621 C18.4454269,35.247367 17.0905482,35.6850876 14.1028107,34.6251708 C7.85705937,32.4094551 16.5334464,25.53289 16.9512297,24.4740117 C17.7570712,22.4315936 16.9937592,20.0377569 17.015024,17.8196294" id="Path-9" stroke-linecap="round"></path>
                <path d="M43.0750277,47.2961332 C33.200504,46.1918278 31.2886874,53.6503349 29.4251572,55.5418801 C23.8884504,61.1618219 21.5740043,62.6046547 24.7936853,73.6344454 C25.5293389,76.1546036 28.8498064,77.2004473 29.4804456,79.7532339 C31.0014335,85.9100939 20.7593655,90.0967619 35.2995562,91.569416" id="Path-10" stroke-linecap="round"></path>
                <path d="M24.8851239,60.5221034 C18.1115943,65.6035125 9.94214572,71.1185932 14.4175296,80.7410562" id="Path-11" stroke-linecap="round"></path>
                <path d="M18.8294425,65.3047622 C11.8149913,64.1959899 9.92949902,64.5954171 6.77071006,57.8475602" id="Path-12" stroke-linecap="round"></path>
                <path d="M28.1923308,56.3726787 C20.9213354,55.0543427 21.3970261,56.0350771 18.377034,49.9187158" id="Path-13" stroke-linecap="round"></path>
                <path d="M21.3509153,55.433391 C20.1934018,56.3549778 19.0358882,57.2765646 17.8783746,58.1981515" id="Path-14" stroke-linecap="round"></path>
                <path d="M32.4277459,60.2457415 C27.7341518,66.0175485 31.8714103,64.8424279 34.6052607,72.1338691 C35.5567738,74.6716459 36.0666836,77.6451183 35.3436807,80.9300557" id="Path-15" stroke-linecap="round"></path>
                <path d="M38.3446746,80.1038251 C38.3446746,80.1038251 38.9331777,82.8308999 37.9211391,84.1058024 C37.282731,84.9100286 36.3202663,85.5579747 34.295858,85.5579747" id="Path-16" stroke-linecap="round"></path>
                <path d="M28.386372,89.8781271 C27.6962469,90.9853413 27.343332,93.0481672 26.6011927,93.6147221 C24.1636445,95.4755654 21.3998243,93.6147221 21.3998243,93.6147221" id="Path-17" stroke-linecap="round"></path>
                <path d="M24.4406897,94.5597197 C23.6320395,96.9537387 25.6191957,101.743353 28.0897282,102.474289" id="Path-18" stroke-linecap="round"></path>
                <path d="M32.6744175,94.2473852 C37.0251779,95.999764 29.9818183,97.2188834 32.5404493,106.103537" id="Path-19" stroke-linecap="round"></path>
                <path d="M1.41729845,58.5281869 C1.70479188,56.9520357 5.52486543,54.3970029 7.03891226,50.4885694 C9.08094667,45.2171633 6.37359005,42.6168246 7.03891226,39.9634083 C7.70423447,37.3099919 10.6185743,34.856995 12.6605261,34.0359033" id="Path-20" stroke-linecap="round"></path>
            </g>
            <g id="Group-2" transform="translate(69.500000, 53.500000) scale(-1, 1) translate(-69.500000, -53.500000) translate(47.000000, 0.000000)">
                <path d="M33.8267119,106.31719 C36.3842525,106.31719 37.8309144,103.772969 37.8309144,98.4563822 C37.8309144,95.8211717 40.8072211,94.5909663 41.2467842,91.9638791 C41.8521338,88.345954 42.2742276,84.35441 42.5642896,80.3749593 C42.7705025,77.5458603 40.4579754,74.2678524 40.4579754,74.2678524 C40.4579754,74.2678524 41.9406818,72.488004 42.5642896,68.6770966 C43.1878974,64.8661891 42.9681188,58.9159393 42.9692591,56.899268 C42.9715718,52.8093862 40.4579754,51.5883927 40.4579754,51.5883927 C40.4579754,51.5883927 44.4508598,49.1887387 44.4508598,39.3964097 C44.4508598,16.6358499 43.8001966,0.164446721 35.8949704,0.164446721 C33.0064956,0.164446721 28.4280115,3.11886995 25.7529708,4.19491316 C23.3522401,5.16061432 20.7617098,4.57013579 18.5991794,6.29832711 C9.88390083,13.2631627 3.35768157,26.0199855 1.0729953,41.3432803 C0.692930382,43.8923597 0.811200783,46.5124621 0.937749255,49.1887387 C1.00422999,50.5946886 0,52.3575467 0,53.7923497 C0,55.8135607 1.11045186,57.4910009 1.19931841,59.4891053 C1.45746834,65.2934324 2.14944358,70.9227355 3.61728803,75.9265728 C4.13654718,77.6967115 5.5363073,77.4743424 6.06668857,79.0235363 C6.59706984,80.5727301 5.69378288,82.4659823 6.06668857,83.3202677 C6.83954907,85.0908049 8.83102828,85.9416616 9.73178565,87.5478968 C10.6618852,89.206455 10.5053079,91.6146554 11.5593949,93.0785814 C12.8769888,94.9084682 15.1335269,94.7548558 16.6227414,96.2458974 C18.0198358,97.6447058 18.6400549,100.709637 20.1672462,101.777304 C21.8887265,102.980799 23.8899532,105.644253 25.7529708,106.31719 C30.0062655,107.853513 30.9691915,106.31719 33.8267119,106.31719 Z" id="Oval"></path>
                <path d="M32.5431074,11.2754493 C31.8976499,8.67077967 28.2441898,7.68289532 26.9323918,10.6861819 C25.2074211,14.6354039 29.0324934,14.1283734 27.4722518,17.9828049 C26.3393704,20.7814826 22.4013961,18.4534437 22.4013961,22.1660476 C22.4013961,25.20717 26.2269323,26.6531211 26.2960429,27.1285701" id="Path-2" stroke-linecap="round"></path>
                <path d="M43.2770433,13.3156165 C42.1443783,12.5836828 41.95991,11.9833396 41.2898484,11.1442367 C40.6197868,10.3051338 39.725281,9.58606173 39.4552284,9.38945099 C38.1677594,8.4521143 35.6334135,9.38945099 35.6334135,9.38945099" id="Path-3" stroke-linecap="round"></path>
                <path d="M43.6109005,18.6076033 C40.7069877,15.1787788 39.9826094,14.2986342 36.3394046,16.8546469" id="Path-4" stroke-linecap="round"></path>
                <path d="M44.3179549,24.7183978 C42.7496764,23.577168 41.4522637,21.7822184 39.6131195,21.2947084 C38.8120497,21.0823654 38.4793616,22.7265162 37.6833395,22.9597315 C35.8576393,23.4946176 30.5560308,23.0696274 28.3332101,25.0290194 C22.9178528,29.8025971 24.6560716,35.335717 30.7616494,36.649921" id="Path-5" stroke-linecap="round"></path>
                <path d="M44.3073225,30.8566001 C43.827045,30.6918397 31.308112,25.5835687 36.8593288,31.8821081" id="Path-6" stroke-linecap="round"></path>
                <path d="M40.6455251,36.6898907 C39.1920766,38.0926365 38.0564109,40.0118297 36.2851794,40.898128 C34.3114535,41.8857515 31.8535349,41.1811193 29.8483266,42.0926507 C27.6738202,43.0811419 26.3987641,46.2180891 24.0483543,46.4607667 C21.4280777,46.7313078 19.2591009,42.9789394 16.664155,43.4539041 C10.1263298,44.6505519 11.6530099,55.6965812 13.9167437,59.0181011" id="Path-7" stroke-linecap="round"></path>
                <path d="M19.0330529,43.6423327 C19.4913585,42.8424829 20.0643953,42.4854956 20.0643953,41.3069608 C20.0643953,40.128426 20.0643953,38.971589 20.0643953,38.971589" id="Path-8" stroke-linecap="round"></path>
                <path d="M29.4240939,36.3444384 C28.5486933,37.1651493 28.0004161,39.1805733 25.5985577,39.1805733 C23.1966993,39.1805733 22.2719258,37.79726 21.1191291,37.0290621 C18.4454269,35.247367 17.0905482,35.6850876 14.1028107,34.6251708 C7.85705937,32.4094551 16.5334464,25.53289 16.9512297,24.4740117 C17.7570712,22.4315936 16.9937592,20.0377569 17.015024,17.8196294" id="Path-9" stroke-linecap="round"></path>
                <path d="M43.0750277,47.2961332 C33.200504,46.1918278 31.2886874,53.6503349 29.4251572,55.5418801 C23.8884504,61.1618219 21.5740043,62.6046547 24.7936853,73.6344454 C25.5293389,76.1546036 28.8498064,77.2004473 29.4804456,79.7532339 C31.0014335,85.9100939 20.7593655,90.0967619 35.2995562,91.569416" id="Path-10" stroke-linecap="round"></path>
                <path d="M24.8851239,60.5221034 C18.1115943,65.6035125 9.94214572,71.1185932 14.4175296,80.7410562" id="Path-11" stroke-linecap="round"></path>
                <path d="M18.8294425,65.3047622 C11.8149913,64.1959899 9.92949902,64.5954171 6.77071006,57.8475602" id="Path-12" stroke-linecap="round"></path>
                <path d="M28.1923308,56.3726787 C20.9213354,55.0543427 21.3970261,56.0350771 18.377034,49.9187158" id="Path-13" stroke-linecap="round"></path>
                <path d="M21.3509153,55.433391 C20.1934018,56.3549778 19.0358882,57.2765646 17.8783746,58.1981515" id="Path-14" stroke-linecap="round"></path>
                <path d="M32.4277459,60.2457415 C27.7341518,66.0175485 31.8714103,64.8424279 34.6052607,72.1338691 C35.5567738,74.6716459 36.0666836,77.6451183 35.3436807,80.9300557" id="Path-15" stroke-linecap="round"></path>
                <path d="M38.3446746,80.1038251 C38.3446746,80.1038251 38.9331777,82.8308999 37.9211391,84.1058024 C37.282731,84.9100286 36.3202663,85.5579747 34.295858,85.5579747" id="Path-16" stroke-linecap="round"></path>
                <path d="M28.386372,89.8781271 C27.6962469,90.9853413 27.343332,93.0481672 26.6011927,93.6147221 C24.1636445,95.4755654 21.3998243,93.6147221 21.3998243,93.6147221" id="Path-17" stroke-linecap="round"></path>
                <path d="M24.4406897,94.5597197 C23.6320395,96.9537387 25.6191957,101.743353 28.0897282,102.474289" id="Path-18" stroke-linecap="round"></path>
                <path d="M32.6744175,94.2473852 C37.0251779,95.999764 29.9818183,97.2188834 32.5404493,106.103537" id="Path-19" stroke-linecap="round"></path>
                <path d="M1.41729845,58.5281869 C1.70479188,56.9520357 5.52486543,54.3970029 7.03891226,50.4885694 C9.08094667,45.2171633 6.37359005,42.6168246 7.03891226,39.9634083 C7.70423447,37.3099919 10.6185743,34.856995 12.6605261,34.0359033" id="Path-20" stroke-linecap="round"></path>
            </g>
        </g>
    </g>
</svg>