<?xml version="1.0" encoding="UTF-8"?>
<svg width="1255px" height="223px" viewBox="0 0 1255 223" version="1.1" xmlns="http://www.w3.org/2000/svg" xmlns:xlink="http://www.w3.org/1999/xlink">
    <!-- Generator: Sketch 41.1 (35376) - http://www.bohemiancoding.com/sketch -->
    <title>Group</title>
    <desc>Created with Sketch.</desc>
    <defs></defs>
    <g id="Page-1" stroke="none" stroke-width="1" fill="none" fill-rule="evenodd">
        <g id="buzzfeed_logo" fill="#333333">
            <g id="Group">
                <path d="M0.27,0.128 C35.582,0.174 70.908,-0.356 106.203,0.453 C133.41,1.077 154.727,19.557 159.316,44.799 C164.51,73.373 149.684,97.771 126.812,104.318 C126.231,104.484 125.758,105.023 124.977,105.568 C146.778,111.809 159.792,126.239 163.455,147.857 C169.497,183.527 149.823,212.838 112.652,216.984 C104.408,217.903 96.037,217.879 87.723,217.922 C58.573,218.077 29.422,218.072 0.271,218.128 C0.27,145.461 0.27,72.795 0.27,0.128 Z M47.215,176.509 C47.821,176.717 48.425,177.105 49.029,177.106 C63.661,177.13 78.319,177.648 92.919,176.956 C108.027,176.239 117.01,166.954 117.411,153.271 C117.814,139.523 109.516,129.607 94.719,127.831 C85.367,126.708 75.813,127.222 66.349,127.09 C60.078,127.003 53.804,127.074 47.215,127.074 C47.215,143.738 47.215,159.803 47.215,176.509 Z M46.895,86.511 C60.535,86.511 73.486,86.534 86.437,86.491 C88.929,86.482 91.478,86.503 93.902,86.015 C103.047,84.179 109.934,79.49 112.329,69.958 C116.148,54.761 106.462,41.632 90.738,40.853 C83.427,40.492 76.086,40.753 68.758,40.746 C61.652,40.737 54.545,40.744 47.217,40.744 C47.072,42.318 46.907,43.278 46.906,44.238 C46.889,58.043 46.895,71.848 46.895,86.511 Z" id="Shape"></path>
                <path d="M842.27,222.128 C836.75,221.101 831.172,220.314 825.719,219.007 C783.024,208.774 761.269,172.025 765,131.421 C768.125,97.422 785.263,72.566 817.909,61.059 C863.485,44.993 916.339,66.684 924.138,127.327 C925.168,135.339 925.117,143.49 925.607,152.296 L866.351,152.296 L807.907,152.296 C810.635,167.237 818.169,177.717 831.307,183.288 C852.655,192.342 872.654,187.829 891.51,175.693 C892.624,174.976 893.652,174.124 894.735,173.354 C894.842,173.278 895.052,173.344 895.807,173.344 C901.576,181.835 907.532,190.604 914.225,200.458 C908.154,204.245 902.553,208.349 896.435,211.424 C885.181,217.079 873.081,220.077 860.508,221.124 C859.077,221.243 857.681,221.783 856.269,222.128 L842.27,222.128 Z M884.981,123.6 C885.8,104.021 867.146,89.069 843.528,90.001 C823.881,90.776 806.417,107.413 808.514,123.6 L884.981,123.6 Z" id="Shape"></path>
                <path d="M1011.27,222.128 C1004.478,220.761 997.575,219.795 990.912,217.957 C959.092,209.179 937.142,182.272 934.254,149.384 C931.528,118.363 940.52,92.073 965.422,72.503 C1003.158,42.848 1077.319,49.575 1092.05,119.74 C1093.106,124.768 1093.726,129.928 1094.044,135.058 C1094.383,140.506 1094.12,145.992 1094.12,152.294 L1035.6,152.294 L977.191,152.294 C978.208,161.064 981.615,168.117 987.266,173.95 C1000.199,187.298 1016.338,189.81 1033.776,186.75 C1044.89,184.799 1055.148,180.578 1064.379,172.668 C1070.592,181.775 1076.631,190.628 1083.203,200.262 C1078.303,203.541 1073.863,207.009 1068.986,209.677 C1056.864,216.309 1043.744,219.808 1030.006,221.094 C1028.409,221.243 1026.849,221.774 1025.271,222.127 C1020.603,222.128 1015.937,222.128 1011.27,222.128 Z M977.47,123.572 L1054.014,123.572 C1054.998,104.595 1036.784,89.52 1013.897,89.967 C993.588,90.362 976.007,106.424 977.47,123.572 Z" id="Shape"></path>
                <path d="M237.27,222.128 C232.268,221.104 227.233,220.217 222.269,219.033 C191.521,211.705 173.358,188.689 173.331,157.051 C173.306,126.724 173.326,96.398 173.326,66.071 L173.326,60.637 L214.887,60.637 L214.887,66.428 C214.887,95.089 214.971,123.749 214.849,152.409 C214.793,165.409 218.769,176.418 231.088,182.075 C244.438,188.206 258.111,187.983 270.462,179.186 C279.508,172.744 282.066,162.885 282.085,152.291 C282.139,123.797 282.104,95.303 282.104,66.81 L282.104,60.544 L323.215,60.544 C323.215,62.342 323.216,64.252 323.216,66.161 C323.216,96.155 323.23,126.149 323.212,156.142 C323.191,192.336 300.664,217.215 264.561,221.008 C262.779,221.195 261.034,221.745 259.271,222.126 C251.937,222.128 244.603,222.128 237.27,222.128 Z" id="Shape"></path>
                <path d="M629.708,217.628 L629.708,0.275 L780.886,0.275 L780.886,21.359 C780.886,26.025 780.573,30.718 780.974,35.35 C781.372,39.962 779.52,40.857 775.276,40.833 C745.447,40.663 715.616,40.743 685.786,40.743 L676.351,40.743 L676.351,86.511 L681.981,86.511 C704.479,86.511 726.978,86.64 749.473,86.404 C754.021,86.357 755.085,87.803 754.981,92.097 C754.702,103.549 754.885,115.012 754.885,127.038 L676.012,127.038 L676.012,217.627 C660.332,217.628 645.257,217.628 629.708,217.628 Z" id="Shape"></path>
                <path d="M1104.653,217.543 L1104.653,211.825 C1104.653,163.184 1104.652,114.544 1104.655,65.902 C1104.655,59.517 1104.662,59.461 1111.252,59.522 C1134.062,59.732 1156.965,58.76 1179.656,60.517 C1211.991,63.019 1237.298,77.582 1249.279,109.5 C1261.454,141.933 1252.174,178.95 1227.435,199.229 C1212.86,211.176 1195.709,217.058 1177.236,217.725 C1153.779,218.573 1130.27,217.992 1106.784,218.01 C1106.307,218.011 1105.829,217.809 1104.653,217.543 Z M1144.289,184.183 C1152.256,184.183 1159.715,184.185 1167.173,184.183 C1194.012,184.175 1210.911,169.05 1213.919,142.345 C1216.078,123.171 1205.707,104.1 1189.19,97.329 C1174.641,91.367 1159.442,94.537 1144.29,93.694 C1144.289,124.143 1144.289,153.747 1144.289,184.183 Z" id="Shape"></path>
                <path d="M407,96.14 L336.581,96.14 L336.581,60.474 L463.886,60.474 C463.886,67.203 463.548,73.965 463.985,80.679 C464.387,86.868 462.503,91.649 458.597,96.508 C437.424,122.856 416.585,149.469 395.637,175.996 C394.513,177.419 393.444,178.885 391.693,181.197 L464.731,181.197 L464.731,217.548 L336.194,217.548 C336.194,207.619 336.049,197.694 336.332,187.78 C336.381,186.078 338.091,184.305 339.296,182.771 C360.787,155.4 382.321,128.064 403.833,100.709 C404.729,99.568 405.493,98.322 407,96.14 Z" id="Shape"></path>
                <path d="M476.108,96.18 C476.108,84.925 476.098,74.608 476.122,64.29 C476.124,63.152 476.313,62.014 476.447,60.538 L603.359,60.538 C603.359,70.127 603.464,79.562 603.247,88.99 C603.214,90.411 601.813,91.908 600.809,93.183 C578.956,120.915 557.068,148.619 535.199,176.338 C534.119,177.707 533.155,179.169 531.473,181.511 L537.844,181.511 C558.502,181.511 579.161,181.597 599.819,181.436 C603.657,181.406 605.09,182.349 604.978,186.44 C604.697,196.729 604.885,207.031 604.885,217.639 L476.231,217.639 C476.231,207.363 476.149,197.259 476.335,187.16 C476.358,185.895 477.686,184.572 478.591,183.42 C499.576,156.7 520.588,130.002 541.591,103.296 C543.195,101.255 544.765,99.187 547.086,96.179 C522.865,96.18 499.847,96.18 476.108,96.18 Z" id="Shape"></path>
            </g>
        </g>
    </g>
</svg>