<?xml version="1.0" encoding="utf-8"?>
<!-- Generator: Adobe Illustrator 16.0.0, SVG Export Plug-In . SVG Version: 6.00 Build 0)  -->
<!DOCTYPE svg PUBLIC "-//W3C//DTD SVG 1.1//EN" "http://www.w3.org/Graphics/SVG/1.1/DTD/svg11.dtd">
<svg version="1.1" id="Layer_1" xmlns="http://www.w3.org/2000/svg" xmlns:xlink="http://www.w3.org/1999/xlink" x="0px" y="0px"
	 width="123px" height="108.375px" viewBox="-16.655 0 123 108.375" enable-background="new -16.655 0 123 108.375"
	 xml:space="preserve">
<g>
	<path fill="#BFBFBF" d="M52.009,108.375h-15.26c-1.705,0-3.096-1.377-3.114-3.076l-1.459-20.172
		c-0.508-3.086-2.947-5.854-5.769-9.059c-4.272-4.852-9.59-10.887-9.59-20.479c0-15.197,12.364-27.562,27.562-27.562
		S71.941,40.392,71.941,55.59c0,9.592-5.316,15.627-9.588,20.479c-2.822,3.205-5.263,5.973-5.769,9.059l-1.46,20.172
		C55.104,106.999,53.714,108.375,52.009,108.375z M44.379,29.897c-14.168,0-25.693,11.525-25.693,25.691
		c0,8.887,4.849,14.39,9.122,19.244c2.9,3.293,5.642,6.403,6.218,10.041l0.011,0.078l1.468,20.312c0,0.687,0.557,1.245,1.246,1.245
		h15.26c0.685,0,1.246-0.559,1.246-1.245l0.002-0.068l1.473-20.321c0.58-3.637,3.318-6.746,6.22-10.039
		c4.275-4.855,9.122-10.357,9.122-19.244C70.071,41.423,58.545,29.897,44.379,29.897z"/>
	<path fill="#E18F40" d="M44.846,15.416c0,0.774-0.626,1.401-1.401,1.401l0,0c-0.773,0-1.4-0.627-1.4-1.401V1.401
		C42.043,0.628,42.67,0,43.444,0l0,0c0.775,0,1.401,0.628,1.401,1.401L44.846,15.416L44.846,15.416z"/>
	<path fill="#E18F40" d="M75.266,36.026c-0.547,0.547-1.435,0.547-1.98,0l0,0c-0.548-0.548-0.548-1.435,0-1.982l9.908-9.909
		c0.55-0.548,1.436-0.548,1.981,0l0,0c0.549,0.547,0.549,1.434,0,1.981L75.266,36.026z"/>
	<path fill="#E18F40" d="M15.104,34.044c0.548,0.548,0.548,1.436,0,1.982l0,0c-0.547,0.547-1.435,0.547-1.98,0l-9.91-9.909
		c-0.547-0.548-0.547-1.435,0-1.982l0,0c0.548-0.548,1.435-0.548,1.981,0L15.104,34.044z"/>
	<path fill="#E18F40" d="M75.984,75.426c-0.635-0.443-0.791-1.316-0.349-1.951l0,0c0.441-0.635,1.313-0.792,1.95-0.35l11.505,8.004
		c0.635,0.443,0.79,1.314,0.349,1.951l0,0c-0.441,0.635-1.314,0.791-1.952,0.349L75.984,75.426z"/>
	<path fill="#E18F40" d="M11.466,73.181c0.604-0.483,1.486-0.386,1.97,0.218l0,0c0.483,0.604,0.386,1.486-0.218,1.971l-10.94,8.758
		c-0.604,0.483-1.485,0.387-1.969-0.219l0,0c-0.484-0.604-0.386-1.486,0.218-1.97L11.466,73.181z"/>
</g>
</svg>
