<?xml version="1.0" encoding="utf-8"?>
<!-- Generator: Adobe Illustrator 16.0.0, SVG Export Plug-In . SVG Version: 6.00 Build 0)  -->
<!DOCTYPE svg PUBLIC "-//W3C//DTD SVG 1.1//EN" "http://www.w3.org/Graphics/SVG/1.1/DTD/svg11.dtd">
<svg version="1.1" id="Layer_1" xmlns="http://www.w3.org/2000/svg" xmlns:xlink="http://www.w3.org/1999/xlink" x="0px" y="0px"
	 width="87.461px" height="72px" viewBox="0 0 87.461 72" enable-background="new 0 0 87.461 72" xml:space="preserve">
<g>
	<path fill="#BFBFBF" d="M-67.68,74.792h-15.26c-1.705,0-3.095-1.377-3.114-3.077l-1.459-20.171
		c-0.508-3.086-2.947-5.854-5.769-9.059c-4.272-4.851-9.589-10.887-9.589-20.479c0-15.197,12.364-27.562,27.562-27.562
		s27.561,12.364,27.561,27.562c0,9.592-5.317,15.628-9.588,20.479c-2.822,3.205-5.263,5.973-5.769,9.059l-1.46,20.171
		C-64.585,73.416-65.975,74.792-67.68,74.792z M-75.31-3.686c-14.168,0-25.693,11.525-25.693,25.692
		c0,8.886,4.848,14.389,9.122,19.244c2.9,3.292,5.641,6.403,6.218,10.04l0.01,0.079l1.468,20.311c0,0.687,0.557,1.246,1.246,1.246
		h15.26c0.685,0,1.246-0.559,1.246-1.246l0.002-0.068l1.473-20.321c0.58-3.637,3.318-6.747,6.219-10.04
		c4.276-4.855,9.123-10.357,9.123-19.244C-49.617,7.839-61.144-3.686-75.31-3.686z"/>
	<path fill="#E18F40" d="M-74.843-18.168c0,0.774-0.626,1.401-1.401,1.401l0,0c-0.774,0-1.401-0.627-1.401-1.401v-14.014
		c0-0.773,0.627-1.401,1.401-1.401l0,0c0.775,0,1.401,0.628,1.401,1.401V-18.168z"/>
	<path fill="#E18F40" d="M-44.423,2.443c-0.547,0.547-1.435,0.547-1.981,0l0,0c-0.547-0.548-0.547-1.435,0-1.982l9.909-9.909
		c0.549-0.548,1.435-0.548,1.981,0l0,0c0.549,0.547,0.549,1.434,0,1.981L-44.423,2.443z"/>
	<path fill="#E18F40" d="M-104.584,0.46c0.548,0.548,0.548,1.436,0,1.982l0,0c-0.547,0.547-1.435,0.547-1.981,0l-9.91-9.909
		c-0.547-0.548-0.547-1.435,0-1.982l0,0c0.548-0.548,1.435-0.548,1.982,0L-104.584,0.46z"/>
	<path fill="#E18F40" d="M-43.704,41.842c-0.635-0.443-0.791-1.316-0.349-1.951l0,0c0.441-0.635,1.313-0.792,1.95-0.349
		l11.505,8.004c0.635,0.442,0.79,1.314,0.349,1.95l0,0c-0.442,0.635-1.315,0.792-1.952,0.349L-43.704,41.842z"/>
	<path fill="#E18F40" d="M-108.223,39.597c0.604-0.484,1.486-0.386,1.97,0.218l0,0c0.483,0.604,0.386,1.486-0.218,1.97l-10.94,8.758
		c-0.604,0.484-1.486,0.387-1.969-0.218l0,0c-0.485-0.604-0.386-1.486,0.218-1.97L-108.223,39.597z"/>
</g>
<g>
	<g>
		<polygon fill="#BFBFBF" points="24.138,9.001 0,33.139 24.138,57.277 25.686,55.729 3.096,33.139 25.686,10.549 		"/>
		<polygon fill="#BFBFBF" points="63.323,9 61.775,10.548 84.365,33.138 61.775,55.728 63.323,57.276 87.461,33.138 		"/>
	</g>
	<polygon fill="#E18F40" points="36.161,72 33.461,72 51.461,0 54.161,0 	"/>
</g>
<g>
	<g>
		<path fill="#BFBFBF" d="M-281.539-18.5v20h72v-20H-281.539z M-211.539-0.5h-68v-16h68V-0.5z"/>
		<path fill="#BFBFBF" d="M-225.539-12.5h-50v8h50V-12.5z M-227.539-6.5h-46v-4h46V-6.5z"/>
		<path fill="#BFBFBF" d="M-281.539,27.682h72v-20h-72V27.682z M-279.539,9.682h68v16h-68V9.682z"/>
		<path fill="#BFBFBF" d="M-275.539,21.682h50v-8h-50V21.682z M-273.539,15.682h46v4h-46V15.682z"/>
		<path fill="#BFBFBF" d="M-281.539,53.864h72v-20h-72V53.864z M-279.539,35.864h68v16h-68V35.864z"/>
		<path fill="#BFBFBF" d="M-275.539,47.864h50v-8h-50V47.864z M-273.539,41.864h46v4h-46V41.864z"/>
	</g>
	<g>
		<rect x="-218.539" y="-12.5" fill="#E18F40" width="4" height="8"/>
		<rect x="-218.539" y="13.681" fill="#E18F40" width="4" height="8"/>
		<rect x="-218.539" y="39.863" fill="#E18F40" width="4" height="8"/>
	</g>
</g>
</svg>
