<?xml version="1.0" encoding="UTF-8"?>
<svg width="738px" height="234px" viewBox="0 0 738 234" version="1.1" xmlns="http://www.w3.org/2000/svg" xmlns:xlink="http://www.w3.org/1999/xlink">
    <g id="Page-1" stroke="none" stroke-width="1" fill="none" fill-rule="evenodd">
        <g id="Artboard" transform="translate(-118.000000, -104.000000)" fill="#E1E1E1">
            <g id="Page-1" transform="translate(118.000000, 104.000000)">
                <path d="M675.7856,143.2599 C672.6646,151.6969 668.2946,158.9369 662.6756,164.9759 C657.0566,171.0199 650.3946,175.7549 642.6986,179.1929 C634.9976,182.6289 626.4676,184.3479 617.1026,184.3479 C607.7386,184.3479 599.2036,182.6289 591.5076,179.1929 C583.8066,175.7549 577.1976,171.0199 571.6866,164.9759 C566.1706,158.9369 561.8536,151.6969 558.7326,143.2599 C555.6106,134.8239 554.0506,125.6069 554.0506,115.6079 C554.0506,106.0299 555.5576,97.0709 558.5766,88.7379 C561.5906,80.4079 565.9116,73.2709 571.5306,67.3339 C577.1486,61.3979 583.8066,56.7109 591.5076,53.2739 C599.2036,49.8369 607.7386,48.1179 617.1026,48.1179 C626.4676,48.1179 635.0516,49.8369 642.8546,53.2739 C650.6576,56.7109 657.3156,61.3979 662.8316,67.3339 C668.3436,73.2709 672.6646,80.4079 675.7856,88.7379 C678.9066,97.0709 680.4676,106.0299 680.4676,115.6079 C680.4676,125.6069 678.9066,134.8239 675.7856,143.2599 M728.5376,67.6469 C722.4996,53.3809 714.1256,41.2439 703.4096,31.2459 C692.6896,21.2469 679.9456,13.5429 665.1726,8.1239 C650.3946,2.7099 634.3736,-0.0001 617.1026,-0.0001 C599.8276,-0.0001 583.8596,2.7099 569.1886,8.1239 C554.5186,13.5429 541.8236,21.2469 531.1076,31.2459 C520.3886,41.2439 512.0146,53.3809 505.9806,67.6469 C499.9426,81.9169 496.9296,97.9059 496.9296,115.6079 C496.9296,133.1059 499.9426,149.0939 505.9806,163.5699 C512.0146,178.0499 520.3886,190.4409 531.1076,200.7509 C541.8236,211.0629 554.5186,219.0299 569.1886,224.6549 C583.8596,230.2789 599.8276,233.0899 617.1026,233.0899 C634.3736,233.0899 650.3946,230.2789 665.1726,224.6549 C679.9456,219.0299 692.6896,211.0629 703.4096,200.7509 C714.1256,190.4409 722.4996,178.0499 728.5376,163.5699 C734.5706,149.0939 737.5896,133.1059 737.5896,115.6079 C737.5896,97.9059 734.5706,81.9169 728.5376,67.6469 M411.3326,143.2599 C408.2116,151.6969 403.8416,158.9369 398.2236,164.9759 C392.6036,171.0199 385.9416,175.7549 378.2456,179.1929 C370.5446,182.6289 362.0146,184.3479 352.6496,184.3479 C343.2856,184.3479 334.7506,182.6289 327.0546,179.1929 C319.3536,175.7549 312.7446,171.0199 307.2336,164.9759 C301.7176,158.9369 297.4006,151.6969 294.2796,143.2599 C291.1586,134.8239 289.5976,125.6069 289.5976,115.6079 C289.5976,106.0299 291.1046,97.0709 294.1236,88.7379 C297.1376,80.4079 301.4586,73.2709 307.0776,67.3339 C312.6956,61.3979 319.3536,56.7109 327.0546,53.2739 C334.7506,49.8369 343.2856,48.1179 352.6496,48.1179 C362.0146,48.1179 370.5986,49.8369 378.4016,53.2739 C386.2056,56.7109 392.8626,61.3979 398.3786,67.3339 C403.8896,73.2709 408.2116,80.4079 411.3326,88.7379 C414.4546,97.0709 416.0146,106.0299 416.0146,115.6079 C416.0146,125.6069 414.4546,134.8239 411.3326,143.2599 M438.9576,31.2459 C428.2366,21.2469 415.4926,13.5429 400.7206,8.1239 C385.9416,2.7099 369.9206,-0.0001 352.6496,-0.0001 C335.3746,-0.0001 319.4076,2.7099 304.7366,8.1239 C290.0656,13.5429 277.3706,21.2469 266.6556,31.2459 C255.9346,41.2439 247.5606,53.3809 241.5276,67.6469 C235.4896,81.9169 232.4756,97.9059 232.4756,115.6079 C232.4756,133.1059 235.4896,149.0939 241.5276,163.5699 C247.5606,178.0499 255.9346,190.4409 266.6556,200.7509 C277.3706,211.0629 290.0656,219.0299 304.7366,224.6549 C319.4076,230.2789 335.3746,233.0899 352.6496,233.0899 C369.9206,233.0899 385.9416,230.2789 400.7206,224.6549 C415.4926,219.0299 428.2366,211.0629 438.9576,200.7509 C449.6726,190.4409 458.0466,178.0499 464.0846,163.5699 C470.1176,149.0939 473.1366,133.1059 473.1366,115.6079 C473.1366,97.9059 470.1176,81.9169 464.0846,67.6469 C458.0466,53.3809 449.6726,41.2439 438.9576,31.2459 M144.6776,146.8539 C140.6196,155.1869 135.2056,161.8509 128.4456,166.8509 C121.6816,171.8499 113.8776,175.4429 105.0356,177.6299 C96.1876,179.8179 86.9796,180.9099 77.4106,180.9099 L52.1276,180.9099 L52.1276,51.5549 L78.6596,51.5549 C87.8136,51.5549 96.7096,52.5999 105.3476,54.6799 C113.9796,56.7649 121.6816,60.2549 128.4456,65.1469 C135.2056,70.0439 140.6196,76.6049 144.6776,84.8309 C148.7356,93.0629 150.7646,103.4219 150.7646,115.9199 C150.7646,128.2129 148.7356,138.5249 144.6776,146.8539 M166.6826,29.5279 C154.8216,21.0909 141.2926,15.0519 126.1046,11.4059 C110.9126,7.7629 95.5146,5.9369 79.9086,5.9369 L-0.0004,5.9369 L-0.0004,227.1539 L82.4056,227.1539 C97.5926,227.1539 112.5756,225.0209 127.3536,220.7479 C142.1266,216.4819 155.3926,209.8129 167.1516,200.7509 C178.9056,191.6909 188.3766,180.1289 195.5566,166.0699 C202.7356,152.0089 206.3256,135.2919 206.3256,115.9199 C206.3256,95.0939 202.6816,77.5959 195.4006,63.4289 C188.1136,49.2659 178.5446,37.9629 166.6826,29.5279" id="Fill-1"></path>
            </g>
        </g>
    </g>
</svg>