<?xml version="1.0" encoding="UTF-8"?>
<svg width="526px" height="164px" viewBox="0 0 526 164" version="1.1" xmlns="http://www.w3.org/2000/svg" xmlns:xlink="http://www.w3.org/1999/xlink">
    <!-- Generator: Sketch 41.1 (35376) - http://www.bohemiancoding.com/sketch -->
    <title>doo_main_title</title>
    <desc>Created with Sketch.</desc>
    <defs>
        <ellipse id="path-1" cx="216.5" cy="77" rx="77.1036217" ry="77"></ellipse>
        <mask id="mask-2" maskContentUnits="userSpaceOnUse" maskUnits="objectBoundingBox" x="0" y="0" width="154.207243" height="154" fill="white">
            <use xlink:href="#path-1"></use>
        </mask>
        <ellipse id="path-3" cx="355.896378" cy="77" rx="77.1036217" ry="77"></ellipse>
        <mask id="mask-4" maskContentUnits="userSpaceOnUse" maskUnits="objectBoundingBox" x="0" y="0" width="154.207243" height="154" fill="white">
            <use xlink:href="#path-3"></use>
        </mask>
        <path d="M76.446798,154 C119.029952,154 153.55042,119.525926 153.55042,77 C153.55042,34.4740743 119.029952,2.37464369e-15 76.446798,2.37464369e-15 C46.0356046,2.37464369e-15 0,0 0,0 L0.376057124,154 L76.446798,154 Z" id="path-5"></path>
        <mask id="mask-6" maskContentUnits="userSpaceOnUse" maskUnits="objectBoundingBox" x="0" y="0" width="153.55042" height="154" fill="white">
            <use xlink:href="#path-5"></use>
        </mask>
        <rect id="path-7" x="358" y="0" width="168" height="164" rx="8"></rect>
        <mask id="mask-8" maskContentUnits="userSpaceOnUse" maskUnits="objectBoundingBox" x="0" y="0" width="168" height="164" fill="white">
            <use xlink:href="#path-7"></use>
        </mask>
    </defs>
    <g id="Page-1" stroke="none" stroke-width="1" fill="none" fill-rule="evenodd">
        <g id="Artboard" transform="translate(-238.000000, -80.000000)">
            <g id="doo_main_title" transform="translate(238.000000, 80.000000)">
                <g id="Group-2" transform="translate(46.000000, 10.000000)" stroke="#E6E6E6" stroke-width="80">
                    <use id="Oval" mask="url(#mask-2)" xlink:href="#path-1"></use>
                    <use id="Oval" mask="url(#mask-4)" xlink:href="#path-3"></use>
                    <use id="Oval" mask="url(#mask-6)" xlink:href="#path-5"></use>
                </g>
                <g id="Group">
                    <path d="M23.448,97 L11.464,77.008 L2.168,77.008 L2.168,97 L0.936,97 L0.936,57.352 L11.912,57.352 C13.3680073,57.352 14.8426592,57.4826654 16.336,57.744 C17.8293408,58.0053346 19.1639941,58.4999964 20.34,59.228 C21.5160059,59.9560036 22.4773296,60.9546603 23.224,62.224 C23.9706704,63.4933397 24.344,65.1359899 24.344,67.152 C24.344,69.018676 23.9893369,70.5679938 23.28,71.8 C22.5706631,73.0320062 21.6560056,74.0306628 20.536,74.796 C19.4159944,75.5613372 18.1746735,76.1119983 16.812,76.448 C15.4493265,76.7840017 14.1146732,76.952 12.808,76.952 L24.848,97 L23.448,97 Z M23.112,67.152 C23.112,65.4346581 22.7760034,64.0066724 22.104,62.868 C21.4319966,61.7293276 20.5453388,60.8333366 19.444,60.18 C18.3426612,59.5266634 17.0733405,59.0693346 15.636,58.808 C14.1986595,58.5466654 12.7333408,58.416 11.24,58.416 L2.168,58.416 L2.168,75.944 L11.856,75.944 C15.514685,75.944 18.3053237,75.1786743 20.228,73.648 C22.1506763,72.1173257 23.112,69.952014 23.112,67.152 Z M30.1827924,83.84 C30.1827924,85.4080078 30.4161234,86.9573257 30.8827924,88.488 C31.3494614,90.0186743 32.0587877,91.3906606 33.0107924,92.604 C33.9627972,93.8173394 35.1667851,94.7973296 36.6227924,95.544 C38.0787997,96.2906704 39.7961159,96.664 41.7747924,96.664 C43.7908025,96.664 45.5827846,96.2626707 47.1507924,95.46 C48.7188003,94.6573293 50.0814533,93.4906743 51.2387924,91.96 L52.1347924,92.744 C50.8654527,94.3866749 49.3814676,95.637329 47.6827924,96.496 C45.9841173,97.354671 44.0148036,97.784 41.7747924,97.784 C39.8707829,97.784 38.1348003,97.4386701 36.5667924,96.748 C34.9987846,96.0573299 33.6454648,95.0960062 32.5067924,93.864 C31.3681201,92.6319938 30.4907955,91.1573419 29.8747924,89.44 C29.2587893,87.7226581 28.9507924,85.8560101 28.9507924,83.84 C28.9507924,81.898657 29.2681226,80.1066749 29.9027924,78.464 C30.5374623,76.8213251 31.4054536,75.4026726 32.5067924,74.208 C33.6081313,73.0133274 34.9054516,72.0893366 36.3987924,71.436 C37.8921332,70.7826634 39.4974505,70.456 41.2147924,70.456 C43.2308025,70.456 44.9854516,70.8106631 46.4787924,71.52 C47.9721332,72.2293369 49.2134541,73.1626609 50.2027924,74.32 C51.1921307,75.4773391 51.9294567,76.793326 52.4147924,78.268 C52.9001282,79.742674 53.1427924,81.2453257 53.1427924,82.776 L53.1427924,83.84 L30.1827924,83.84 Z M51.9667924,82.776 C51.9294589,81.0959916 51.6401285,79.5653402 51.0987924,78.184 C50.5574564,76.8026598 49.8201304,75.6173383 48.8867924,74.628 C47.9534544,73.6386617 46.8334656,72.873336 45.5267924,72.332 C44.2201192,71.790664 42.7641338,71.52 41.1587924,71.52 C39.2174494,71.52 37.5561327,71.9213293 36.1747924,72.724 C34.7934522,73.5266707 33.6641301,74.5159941 32.7867924,75.692 C31.9094547,76.8680059 31.2654611,78.0999936 30.8547924,79.388 C30.4441237,80.6760064 30.2387924,81.8053285 30.2387924,82.776 L51.9667924,82.776 Z M79.9255848,78.352 C80.6722552,75.8133206 81.9415759,73.8626735 83.7335848,72.5 C85.5255938,71.1373265 87.5602401,70.456 89.8375848,70.456 C91.5549268,70.456 93.001579,70.7733302 94.1775848,71.408 C95.3535907,72.0426698 96.2869147,72.8826614 96.9775848,73.928 C97.668255,74.9733386 98.1629167,76.1493268 98.4615848,77.456 C98.760253,78.7626732 98.9095848,80.0879933 98.9095848,81.432 L98.9095848,97 L97.6775848,97 L97.6775848,81.544 C97.6775848,80.4986614 97.5562527,79.3786726 97.3135848,78.184 C97.070917,76.9893274 96.6509212,75.9066715 96.0535848,74.936 C95.4562485,73.9653285 94.6535899,73.1533366 93.6455848,72.5 C92.6375798,71.8466634 91.3682592,71.52 89.8375848,71.52 C88.4935781,71.52 87.2335907,71.8093304 86.0575848,72.388 C84.881579,72.9666696 83.8549226,73.7973279 82.9775848,74.88 C82.1002471,75.9626721 81.4002541,77.2786589 80.8775848,78.828 C80.3549156,80.3773411 80.0935848,82.1413234 80.0935848,84.12 L80.0935848,97 L78.8615848,97 L78.8615848,81.544 C78.8615848,80.4986614 78.7589192,79.3786726 78.5535848,78.184 C78.3482505,76.9893274 77.9655876,75.9066715 77.4055848,74.936 C76.845582,73.9653285 76.0709231,73.1533366 75.0815848,72.5 C74.0922466,71.8466634 72.8322592,71.52 71.3015848,71.52 C69.9575781,71.52 68.6975907,71.8093304 67.5215848,72.388 C66.345579,72.9666696 65.3189226,73.7973279 64.4415848,74.88 C63.5642471,75.9626721 62.8735874,77.2786589 62.3695848,78.828 C61.8655823,80.3773411 61.6135848,82.1413234 61.6135848,84.12 L61.6135848,97 L60.3815848,97 L60.3815848,77.736 C60.3815848,77.3253313 60.3722516,76.8213363 60.3535848,76.224 C60.3349181,75.6266637 60.3162516,75.0200031 60.2975848,74.404 C60.2789181,73.7879969 60.2509184,73.2000028 60.2135848,72.64 C60.1762513,72.0799972 60.1389184,71.6133352 60.1015848,71.24 L61.3335848,71.24 C61.3709184,71.6133352 61.3989181,72.0799972 61.4175848,72.64 C61.4362516,73.2000028 61.4549181,73.8066634 61.4735848,74.46 C61.4922516,75.1133366 61.5109181,75.7479969 61.5295848,76.364 C61.5482516,76.9800031 61.5575848,77.5306642 61.5575848,78.016 L61.6695848,78.016 C62.04292,76.8213274 62.5655815,75.757338 63.2375848,74.824 C63.9095882,73.890662 64.6655806,73.0973366 65.5055848,72.444 C66.345589,71.7906634 67.2602466,71.2960017 68.2495848,70.96 C69.2389231,70.6239983 70.2562463,70.456 71.3015848,70.456 C72.6455916,70.456 73.8122466,70.6613313 74.8015848,71.072 C75.7909231,71.4826687 76.6215815,72.0426631 77.2935848,72.752 C77.9655882,73.4613369 78.5069161,74.2919952 78.9175848,75.244 C79.3282536,76.1960048 79.6269172,77.2319944 79.8135848,78.352 L79.9255848,78.352 Z M108.500377,61.552 C108.164376,61.552 107.865712,61.4213346 107.604377,61.16 C107.343043,60.8986654 107.212377,60.5440022 107.212377,60.096 C107.212377,59.6853313 107.343043,59.3493346 107.604377,59.088 C107.865712,58.8266654 108.164376,58.696 108.500377,58.696 C108.836379,58.696 109.135043,58.8266654 109.396377,59.088 C109.657712,59.3493346 109.788377,59.6853313 109.788377,60.096 C109.788377,60.5440022 109.648379,60.8986654 109.368377,61.16 C109.088376,61.4213346 108.799045,61.552 108.500377,61.552 Z M107.884377,97 L107.884377,71.24 L109.116377,71.24 L109.116377,97 L107.884377,97 Z M119.88317,78.016 C120.256505,76.8213274 120.797833,75.757338 121.50717,74.824 C122.216507,73.890662 123.019165,73.0973366 123.91517,72.444 C124.811174,71.7906634 125.781831,71.2960017 126.82717,70.96 C127.872508,70.6239983 128.955164,70.456 130.07517,70.456 C131.867179,70.456 133.360497,70.7733302 134.55517,71.408 C135.749842,72.0426698 136.701833,72.8826614 137.41117,73.928 C138.120507,74.9733386 138.624502,76.1493268 138.92317,77.456 C139.221838,78.7626732 139.37117,80.0879933 139.37117,81.432 L139.37117,97 L138.13917,97 L138.13917,81.544 C138.13917,80.4986614 138.027171,79.3786726 137.80317,78.184 C137.579169,76.9893274 137.159173,75.9066715 136.54317,74.936 C135.927167,73.9653285 135.096508,73.1533366 134.05117,72.5 C133.005831,71.8466634 131.680511,71.52 130.07517,71.52 C128.656496,71.52 127.321843,71.8093304 126.07117,72.388 C124.820497,72.9666696 123.737841,73.7973279 122.82317,74.88 C121.908498,75.9626721 121.180506,77.2786589 120.63917,78.828 C120.097834,80.3773411 119.82717,82.1413234 119.82717,84.12 L119.82717,97 L118.59517,97 L118.59517,77.736 C118.59517,77.3253313 118.585836,76.8213363 118.56717,76.224 C118.548503,75.6266637 118.529836,75.0200031 118.51117,74.404 C118.492503,73.7879969 118.464503,73.2000028 118.42717,72.64 C118.389836,72.0799972 118.352503,71.6133352 118.31517,71.24 L119.54717,71.24 C119.584503,71.6133352 119.612503,72.0799972 119.63117,72.64 C119.649836,73.2000028 119.668503,73.8066634 119.68717,74.46 C119.705836,75.1133366 119.724503,75.7479969 119.74317,76.364 C119.761836,76.9800031 119.77117,77.5306642 119.77117,78.016 L119.88317,78.016 Z M170.745962,54.664 L171.977962,54.664 L171.977962,97 L170.745962,97 L170.745962,90.056 L170.577962,90.056 C169.457957,92.5946794 167.861972,94.5173268 165.789962,95.824 C163.717952,97.1306732 161.449974,97.784 158.985962,97.784 C157.119286,97.784 155.392637,97.4386701 153.805962,96.748 C152.219288,96.0573299 150.856634,95.1053394 149.717962,93.892 C148.57929,92.6786606 147.692632,91.2413416 147.057962,89.58 C146.423292,87.9186584 146.105962,86.117343 146.105962,84.176 C146.105962,82.234657 146.423292,80.4240084 147.057962,78.744 C147.692632,77.0639916 148.57929,75.6080062 149.717962,74.376 C150.856634,73.1439938 152.219288,72.1826701 153.805962,71.492 C155.392637,70.8013299 157.119286,70.456 158.985962,70.456 C161.449974,70.456 163.717952,71.1093268 165.789962,72.416 C167.861972,73.7226732 169.457957,75.6639871 170.577962,78.24 L170.745962,78.24 L170.745962,54.664 Z M147.337962,84.176 C147.337962,85.8560084 147.608626,87.4613257 148.149962,88.992 C148.691298,90.5226743 149.465957,91.8573276 150.473962,92.996 C151.481967,94.1346724 152.704622,95.0399966 154.141962,95.712 C155.579303,96.3840034 157.193953,96.72 158.985962,96.72 C160.703304,96.72 162.280622,96.3840034 163.717962,95.712 C165.155303,95.0399966 166.396624,94.1346724 167.441962,92.996 C168.487301,91.8573276 169.308626,90.5226743 169.905962,88.992 C170.503298,87.4613257 170.801962,85.8373419 170.801962,84.12 C170.801962,82.4026581 170.503298,80.7786743 169.905962,79.248 C169.308626,77.7173257 168.487301,76.3826724 167.441962,75.244 C166.396624,74.1053276 165.155303,73.2000034 163.717962,72.528 C162.280622,71.8559966 160.703304,71.52 158.985962,71.52 C157.193953,71.52 155.579303,71.8653299 154.141962,72.556 C152.704622,73.2466701 151.481967,74.1706609 150.473962,75.328 C149.465957,76.4853391 148.691298,77.8293257 148.149962,79.36 C147.608626,80.8906743 147.337962,82.4959916 147.337962,84.176 Z M180.280755,83.84 C180.280755,85.4080078 180.514086,86.9573257 180.980755,88.488 C181.447424,90.0186743 182.15675,91.3906606 183.108755,92.604 C184.060759,93.8173394 185.264747,94.7973296 186.720755,95.544 C188.176762,96.2906704 189.894078,96.664 191.872755,96.664 C193.888765,96.664 195.680747,96.2626707 197.248755,95.46 C198.816762,94.6573293 200.179415,93.4906743 201.336755,91.96 L202.232755,92.744 C200.963415,94.3866749 199.47943,95.637329 197.780755,96.496 C196.082079,97.354671 194.112766,97.784 191.872755,97.784 C189.968745,97.784 188.232762,97.4386701 186.664755,96.748 C185.096747,96.0573299 183.743427,95.0960062 182.604755,93.864 C181.466082,92.6319938 180.588758,91.1573419 179.972755,89.44 C179.356751,87.7226581 179.048755,85.8560101 179.048755,83.84 C179.048755,81.898657 179.366085,80.1066749 180.000755,78.464 C180.635424,76.8213251 181.503416,75.4026726 182.604755,74.208 C183.706093,73.0133274 185.003414,72.0893366 186.496755,71.436 C187.990095,70.7826634 189.595413,70.456 191.312755,70.456 C193.328765,70.456 195.083414,70.8106631 196.576755,71.52 C198.070095,72.2293369 199.311416,73.1626609 200.300755,74.32 C201.290093,75.4773391 202.027419,76.793326 202.512755,78.268 C202.99809,79.742674 203.240755,81.2453257 203.240755,82.776 L203.240755,83.84 L180.280755,83.84 Z M202.064755,82.776 C202.027421,81.0959916 201.738091,79.5653402 201.196755,78.184 C200.655418,76.8026598 199.918093,75.6173383 198.984755,74.628 C198.051417,73.6386617 196.931428,72.873336 195.624755,72.332 C194.318081,71.790664 192.862096,71.52 191.256755,71.52 C189.315411,71.52 187.654095,71.9213293 186.272755,72.724 C184.891414,73.5266707 183.762092,74.5159941 182.884755,75.692 C182.007417,76.8680059 181.363423,78.0999936 180.952755,79.388 C180.542086,80.6760064 180.336755,81.8053285 180.336755,82.776 L202.064755,82.776 Z M211.767547,78.016 C212.514217,75.3279866 213.708872,73.3960059 215.351547,72.22 C216.994222,71.0439941 218.767537,70.456 220.671547,70.456 L221.175547,70.456 C221.324881,70.456 221.492879,70.4746665 221.679547,70.512 L221.679547,71.576 C221.530213,71.5386665 221.390214,71.52 221.259547,71.52 L220.951547,71.52 C219.308872,71.52 217.908886,71.8839964 216.751547,72.612 C215.594208,73.3400036 214.642217,74.2919941 213.895547,75.468 C213.148877,76.6440059 212.598215,77.9506595 212.243547,79.388 C211.888879,80.8253405 211.711547,82.2533262 211.711547,83.672 L211.711547,97 L210.479547,97 L210.479547,77.736 C210.479547,77.3253313 210.470214,76.8213363 210.451547,76.224 C210.43288,75.6266637 210.414214,75.0200031 210.395547,74.404 C210.37688,73.7879969 210.34888,73.2000028 210.311547,72.64 C210.274213,72.0799972 210.23688,71.6133352 210.199547,71.24 L211.431547,71.24 C211.46888,71.6133352 211.49688,72.0799972 211.515547,72.64 C211.534214,73.2000028 211.55288,73.8066634 211.571547,74.46 C211.590214,75.1133366 211.60888,75.7479969 211.627547,76.364 C211.646214,76.9800031 211.655547,77.5306642 211.655547,78.016 L211.767547,78.016 Z M240.454339,90.28 C240.454339,91.4373391 240.230342,92.4733288 239.782339,93.388 C239.334337,94.3026712 238.727677,95.0773302 237.962339,95.712 C237.197002,96.3466698 236.310344,96.8319983 235.302339,97.168 C234.294334,97.5040017 233.211678,97.672 232.054339,97.672 C230.15033,97.672 228.42368,97.3080036 226.874339,96.58 C225.324998,95.8519964 224.046344,94.7786738 223.038339,93.36 L224.046339,92.688 C225.913015,95.3013464 228.600988,96.608 232.110339,96.608 C232.931677,96.608 233.762335,96.4773346 234.602339,96.216 C235.442344,95.9546654 236.207669,95.5626693 236.898339,95.04 C237.589009,94.5173307 238.149004,93.8640039 238.578339,93.08 C239.007675,92.2959961 239.222339,91.400005 239.222339,90.392 C239.222339,89.1973274 238.951675,88.2266704 238.410339,87.48 C237.869003,86.7333296 237.187677,86.1360022 236.366339,85.688 C235.545002,85.2399978 234.639678,84.8760014 233.650339,84.596 C232.661001,84.3159986 231.73701,84.0640011 230.878339,83.84 C229.945001,83.5786654 229.067677,83.2893349 228.246339,82.972 C227.425002,82.6546651 226.706342,82.2440025 226.090339,81.74 C225.474336,81.2359975 224.989008,80.6106704 224.634339,79.864 C224.279671,79.1173296 224.102339,78.1840056 224.102339,77.064 C224.102339,75.9439944 224.326337,74.9733374 224.774339,74.152 C225.222342,73.3306626 225.819669,72.649336 226.566339,72.108 C227.31301,71.566664 228.162335,71.1560014 229.114339,70.876 C230.066344,70.5959986 231.027668,70.456 231.998339,70.456 C235.50769,70.456 238.139664,71.7066542 239.894339,74.208 L238.830339,74.824 C237.971668,73.7039944 237.001011,72.873336 235.918339,72.332 C234.835667,71.790664 233.529014,71.52 231.998339,71.52 C231.289002,71.52 230.542343,71.6133324 229.758339,71.8 C228.974335,71.9866676 228.255676,72.2946645 227.602339,72.724 C226.949003,73.1533355 226.407675,73.7226631 225.978339,74.432 C225.549004,75.1413369 225.334339,75.999995 225.334339,77.008 C225.334339,78.1280056 225.511671,79.0239966 225.866339,79.696 C226.221008,80.3680034 226.71567,80.9093313 227.350339,81.32 C227.985009,81.7306687 228.750335,82.0759986 229.646339,82.356 C230.542344,82.6360014 231.531667,82.9066654 232.614339,83.168 C233.622344,83.4293346 234.602335,83.7373316 235.554339,84.092 C236.506344,84.4466684 237.346336,84.8853307 238.074339,85.408 C238.802343,85.9306693 239.381004,86.5839961 239.810339,87.368 C240.239675,88.1520039 240.454339,89.1226609 240.454339,90.28 Z M268.931924,97.056 C268.483922,97.2426676 267.961261,97.3919994 267.363924,97.504 C266.766588,97.6160006 266.187927,97.672 265.627924,97.672 C263.611914,97.672 262.165262,97.1026724 261.287924,95.964 C260.410586,94.8253276 259.971924,93.3973419 259.971924,91.68 L259.971924,72.304 L254.371924,72.304 L254.371924,71.24 L259.915924,71.24 L259.915924,63.68 L261.203924,63.68 L261.203924,71.24 L268.763924,71.24 L268.763924,72.304 L261.203924,72.304 L261.203924,91.68 C261.203924,93.4346754 261.633253,94.6946628 262.491924,95.46 C263.350595,96.2253372 264.48925,96.608 265.907924,96.608 C266.953263,96.608 267.905253,96.4400017 268.763924,96.104 L268.931924,97.056 Z M275.218717,78.016 C275.592052,76.8213274 276.124047,75.757338 276.814717,74.824 C277.505387,73.890662 278.298712,73.0973366 279.194717,72.444 C280.090721,71.7906634 281.061378,71.2960017 282.106717,70.96 C283.152055,70.6239983 284.234711,70.456 285.354717,70.456 C287.146726,70.456 288.640044,70.7733302 289.834717,71.408 C291.029389,72.0426698 291.98138,72.8826614 292.690717,73.928 C293.400054,74.9733386 293.904048,76.1493268 294.202717,77.456 C294.501385,78.7626732 294.650717,80.0879933 294.650717,81.432 L294.650717,97 L293.418717,97 L293.418717,81.544 C293.418717,80.4986614 293.306718,79.3786726 293.082717,78.184 C292.858716,76.9893274 292.43872,75.9066715 291.822717,74.936 C291.206714,73.9653285 290.376055,73.1533366 289.330717,72.5 C288.285378,71.8466634 286.960058,71.52 285.354717,71.52 C283.936043,71.52 282.60139,71.8093304 281.350717,72.388 C280.100044,72.9666696 279.017388,73.7973279 278.102717,74.88 C277.188045,75.9626721 276.460053,77.2786589 275.918717,78.828 C275.377381,80.3773411 275.106717,82.1413234 275.106717,84.12 L275.106717,97 L273.874717,97 L273.874717,54.664 L275.106717,54.664 L275.106717,78.016 L275.218717,78.016 Z M321.321509,91.176 C321.321509,92.1466715 321.368175,93.1826612 321.461509,94.284 C321.554843,95.3853388 321.657508,96.2906631 321.769509,97 L320.593509,97 C320.518842,96.6266648 320.462843,96.169336 320.425509,95.628 C320.388176,95.086664 320.341509,94.5266696 320.285509,93.948 C320.229509,93.3693304 320.192176,92.8000028 320.173509,92.24 C320.154842,91.6799972 320.145509,91.2133352 320.145509,90.84 L319.977509,90.84 C319.230839,93.1920118 317.942852,94.9373276 316.113509,96.076 C314.284167,97.2146724 312.324186,97.784 310.233509,97.784 C309.18817,97.784 308.152181,97.6346682 307.125509,97.336 C306.098837,97.0373318 305.174846,96.5893363 304.353509,95.992 C303.532172,95.3946637 302.869512,94.629338 302.365509,93.696 C301.861507,92.762662 301.609509,91.6613397 301.609509,90.392 C301.609509,88.5626575 302.085504,87.0880056 303.037509,85.968 C303.989514,84.8479944 305.174835,83.9800031 306.593509,83.364 C308.012183,82.7479969 309.533501,82.3466676 311.157509,82.16 C312.781517,81.9733324 314.265502,81.88 315.609509,81.88 L320.089509,81.88 L320.089509,79.808 C320.089509,76.933319 319.324183,74.83334 317.793509,73.508 C316.262835,72.18266 314.265521,71.52 311.801509,71.52 C310.270835,71.52 308.842849,71.7999972 307.517509,72.36 C306.192169,72.9200028 305.006848,73.666662 303.961509,74.6 L303.289509,73.648 C304.484182,72.6026614 305.837501,71.809336 307.349509,71.268 C308.861517,70.726664 310.345502,70.456 311.801509,70.456 C314.750857,70.456 317.074834,71.2119924 318.773509,72.724 C320.472184,74.2360076 321.321509,76.6159838 321.321509,79.864 L321.321509,91.176 Z M320.089509,82.944 L316.113509,82.944 C314.694835,82.944 313.201517,83.0279992 311.633509,83.196 C310.065501,83.3640008 308.628182,83.7093307 307.321509,84.232 C306.014836,84.7546693 304.941513,85.5013285 304.101509,86.472 C303.261505,87.4426715 302.841509,88.7493251 302.841509,90.392 C302.841509,91.5866726 303.07484,92.5853293 303.541509,93.388 C304.008178,94.1906707 304.605505,94.8346642 305.333509,95.32 C306.061513,95.8053358 306.864171,96.1599989 307.741509,96.384 C308.618847,96.6080011 309.449505,96.72 310.233509,96.72 C312.137519,96.72 313.724169,96.3653369 314.993509,95.656 C316.262849,94.9466631 317.280172,94.0413388 318.045509,92.94 C318.810846,91.8386612 319.342841,90.62534 319.641509,89.3 C319.940177,87.97466 320.089509,86.6773397 320.089509,85.408 L320.089509,82.944 Z M339.592301,97.056 C339.144299,97.2426676 338.621638,97.3919994 338.024301,97.504 C337.426965,97.6160006 336.848304,97.672 336.288301,97.672 C334.272291,97.672 332.825639,97.1026724 331.948301,95.964 C331.070964,94.8253276 330.632301,93.3973419 330.632301,91.68 L330.632301,72.304 L325.032301,72.304 L325.032301,71.24 L330.576301,71.24 L330.576301,63.68 L331.864301,63.68 L331.864301,71.24 L339.424301,71.24 L339.424301,72.304 L331.864301,72.304 L331.864301,91.68 C331.864301,93.4346754 332.293631,94.6946628 333.152301,95.46 C334.010972,96.2253372 335.149628,96.608 336.568301,96.608 C337.61364,96.608 338.565631,96.4400017 339.424301,96.104 L339.592301,97.056 Z M413.571471,97 L404.331471,97 L398.843471,79.64 L398.731471,79.64 L393.355471,97 L384.115471,97 L374.483471,69.112 L384.395471,69.112 L389.211471,86.752 L389.379471,86.752 L394.363471,69.112 L403.603471,69.112 L408.755471,86.752 L408.867471,86.752 L413.739471,69.112 L423.259471,69.112 L413.571471,97 Z M454.298264,82.944 C454.298264,85.2213447 453.887601,87.2839908 453.066264,89.132 C452.244926,90.9800092 451.124937,92.5479936 449.706264,93.836 C448.28759,95.1240064 446.64494,96.1226631 444.778264,96.832 C442.911588,97.5413369 440.914274,97.896 438.786264,97.896 C436.695586,97.896 434.707606,97.5413369 432.822264,96.832 C430.936921,96.1226631 429.294271,95.1240064 427.894264,93.836 C426.494257,92.5479936 425.383601,90.9800092 424.562264,89.132 C423.740926,87.2839908 423.330264,85.2213447 423.330264,82.944 C423.330264,80.6666553 423.740926,78.6133425 424.562264,76.784 C425.383601,74.9546575 426.494257,73.4053397 427.894264,72.136 C429.294271,70.8666603 430.936921,69.8960034 432.822264,69.224 C434.707606,68.5519966 436.695586,68.216 438.786264,68.216 C440.914274,68.216 442.911588,68.5519966 444.778264,69.224 C446.64494,69.8960034 448.28759,70.8666603 449.706264,72.136 C451.124937,73.4053397 452.244926,74.9546575 453.066264,76.784 C453.887601,78.6133425 454.298264,80.6666553 454.298264,82.944 Z M445.450264,82.944 C445.450264,82.0479955 445.300932,81.170671 445.002264,80.312 C444.703595,79.453329 444.274266,78.6973366 443.714264,78.044 C443.154261,77.3906634 442.463601,76.8586687 441.642264,76.448 C440.820926,76.0373313 439.868936,75.832 438.786264,75.832 C437.703592,75.832 436.751601,76.0373313 435.930264,76.448 C435.108926,76.8586687 434.4276,77.3906634 433.886264,78.044 C433.344928,78.6973366 432.934265,79.453329 432.654264,80.312 C432.374262,81.170671 432.234264,82.0479955 432.234264,82.944 C432.234264,83.8400045 432.374262,84.717329 432.654264,85.576 C432.934265,86.434671 433.354261,87.2093299 433.914264,87.9 C434.474266,88.5906701 435.164926,89.1413313 435.986264,89.552 C436.807601,89.9626687 437.759592,90.168 438.842264,90.168 C439.924936,90.168 440.876926,89.9626687 441.698264,89.552 C442.519601,89.1413313 443.210261,88.5906701 443.770264,87.9 C444.330266,87.2093299 444.750262,86.434671 445.030264,85.576 C445.310265,84.717329 445.450264,83.8400045 445.450264,82.944 Z M476.097056,76.616 C475.686387,76.5039994 475.285058,76.4293335 474.893056,76.392 C474.501054,76.3546665 474.118391,76.336 473.745056,76.336 C472.51305,76.336 471.47706,76.5599978 470.637056,77.008 C469.797052,77.4560022 469.125059,77.9973302 468.621056,78.632 C468.117053,79.2666698 467.753057,79.9573296 467.529056,80.704 C467.305055,81.4506704 467.193056,82.1039972 467.193056,82.664 L467.193056,97 L458.009056,97 L458.009056,69.112 L466.857056,69.112 L466.857056,73.144 L466.969056,73.144 C467.678393,71.7253262 468.686383,70.5680045 469.993056,69.672 C471.299729,68.7759955 472.811714,68.328 474.529056,68.328 C474.902391,68.328 475.266388,68.3466665 475.621056,68.384 C475.975724,68.4213335 476.265055,68.477333 476.489056,68.552 L476.097056,76.616 Z M508.031848,97 L496.663848,97 L487.535848,83.616 L487.367848,83.616 L487.367848,97 L478.127848,97 L478.127848,54.664 L487.367848,54.664 L487.367848,80.424 L487.535848,80.424 L496.439848,69.112 L507.583848,69.112 L496.831848,81.712 L508.031848,97 Z" id="Reminders-that-work" fill="#000000"></path>
                    <use id="Rectangle" stroke="#3A3A3A" mask="url(#mask-8)" stroke-width="4" xlink:href="#path-7"></use>
                </g>
            </g>
        </g>
    </g>
</svg>