<?xml version="1.0" encoding="utf-8"?>
<!-- Generator: Adobe Illustrator 16.0.0, SVG Export Plug-In . SVG Version: 6.00 Build 0)  -->
<!DOCTYPE svg PUBLIC "-//W3C//DTD SVG 1.1//EN" "http://www.w3.org/Graphics/SVG/1.1/DTD/svg11.dtd">
<svg version="1.1" id="Layer_1" xmlns="http://www.w3.org/2000/svg" xmlns:xlink="http://www.w3.org/1999/xlink" x="0px" y="0px"
	 width="50px" height="50px" viewBox="0 0 50 50" enable-background="new 0 0 50 50" xml:space="preserve">
<g>
	<path fill="#BFBFBF" d="M207.859,161.792H192.6c-1.705,0-3.095-1.377-3.114-3.077l-1.459-20.171
		c-0.508-3.086-2.947-5.854-5.769-9.059c-4.272-4.851-9.589-10.887-9.589-20.479c0-15.197,12.364-27.562,27.562-27.562
		s27.561,12.364,27.561,27.562c0,9.592-5.317,15.628-9.588,20.479c-2.822,3.205-5.263,5.973-5.769,9.059l-1.46,20.171
		C210.954,160.416,209.564,161.792,207.859,161.792z M200.229,83.314c-14.168,0-25.693,11.525-25.693,25.692
		c0,8.886,4.848,14.389,9.122,19.244c2.9,3.292,5.641,6.403,6.218,10.04l0.01,0.079l1.468,20.311c0,0.687,0.557,1.246,1.246,1.246
		h15.26c0.685,0,1.246-0.559,1.246-1.246l0.002-0.068l1.473-20.321c0.58-3.637,3.318-6.747,6.219-10.04
		c4.276-4.855,9.123-10.357,9.123-19.244C225.922,94.839,214.396,83.314,200.229,83.314z"/>
	<path fill="#E18F40" d="M200.696,68.832c0,0.774-0.626,1.401-1.401,1.401l0,0c-0.774,0-1.401-0.627-1.401-1.401V54.818
		c0-0.773,0.627-1.401,1.401-1.401l0,0c0.775,0,1.401,0.628,1.401,1.401V68.832z"/>
	<path fill="#E18F40" d="M231.116,89.443c-0.547,0.547-1.435,0.547-1.981,0l0,0c-0.547-0.548-0.547-1.435,0-1.982l9.909-9.909
		c0.549-0.548,1.435-0.548,1.981,0l0,0c0.549,0.547,0.549,1.434,0,1.981L231.116,89.443z"/>
	<path fill="#E18F40" d="M170.955,87.46c0.548,0.548,0.548,1.436,0,1.982l0,0c-0.547,0.547-1.435,0.547-1.981,0l-9.91-9.909
		c-0.547-0.548-0.547-1.435,0-1.982l0,0c0.548-0.548,1.435-0.548,1.982,0L170.955,87.46z"/>
	<path fill="#E18F40" d="M231.835,128.842c-0.635-0.443-0.791-1.316-0.349-1.951l0,0c0.441-0.635,1.313-0.792,1.95-0.349
		l11.505,8.004c0.635,0.442,0.79,1.314,0.349,1.95l0,0c-0.442,0.635-1.315,0.792-1.952,0.349L231.835,128.842z"/>
	<path fill="#E18F40" d="M167.316,126.597c0.604-0.484,1.486-0.386,1.97,0.218l0,0c0.483,0.604,0.386,1.486-0.218,1.97l-10.94,8.758
		c-0.604,0.484-1.486,0.387-1.969-0.218l0,0c-0.485-0.604-0.386-1.486,0.218-1.97L167.316,126.597z"/>
</g>
<g>
	<g>
		<polygon fill="#BFBFBF" points="299.677,96.001 275.539,120.139 299.677,144.277 301.225,142.729 278.635,120.139 301.225,97.549 
					"/>
		<polygon fill="#BFBFBF" points="338.862,96 337.314,97.548 359.904,120.138 337.314,142.728 338.862,144.276 363,120.138 		"/>
	</g>
	<polygon fill="#E18F40" points="311.7,159 309,159 327,87 329.7,87 	"/>
</g>
<g>
	<g>
		<path fill="#BFBFBF" d="M-6,68.5v15.833h57V68.5H-6z M49.417,82.75H-4.417V70.083h53.833V82.75z"/>
		<path fill="#BFBFBF" d="M38.333,73.25H-1.25v6.333h39.583V73.25z M36.75,78H0.333v-3.167H36.75V78z"/>
		<path fill="#BFBFBF" d="M-6,105.061h57V89.227H-6V105.061z M-4.417,90.811h53.833v12.667H-4.417V90.811z"/>
		<path fill="#BFBFBF" d="M-1.25,100.311h39.583v-6.333H-1.25V100.311z M0.333,95.56H36.75v3.167H0.333V95.56z"/>
		<path fill="#BFBFBF" d="M-6,125.788h57v-15.833H-6V125.788z M-4.417,111.538h53.833v12.667H-4.417V111.538z"/>
		<path fill="#BFBFBF" d="M-1.25,121.038h39.583v-6.333H-1.25V121.038z M0.333,116.288H36.75v3.167H0.333V116.288z"/>
	</g>
	<g>
		<rect x="43.875" y="73.25" fill="#E18F40" width="3.167" height="6.333"/>
		<rect x="43.875" y="93.977" fill="#E18F40" width="3.167" height="6.333"/>
		<rect x="43.875" y="114.704" fill="#E18F40" width="3.167" height="6.333"/>
	</g>
</g>
<g>
	<polygon fill="#BFBFBF" points="76,34 76,70 88,70 88,68 78,68 78,36 110,36 110,46 112,46 112,34 	"/>
	<path fill="#E18F40" d="M88,46v36h36V46H88z M122,80H90V48h32V80z"/>
</g>
<g>
	<path fill="#BFBFBF" d="M44,0H6C2.687,0,0,2.687,0,6v38c0,3.313,2.687,6,6,6h38c3.313,0,6-2.687,6-6V6C50,2.687,47.313,0,44,0z
		 M48,44c0,2.209-1.791,4-4,4H6c-2.209,0-4-1.791-4-4V6c0-2.209,1.791-4,4-4h38c2.209,0,4,1.791,4,4V44z"/>
	<path fill="#E18F40" d="M26.295,40l-2.799-6.999l-5.682,2.435V10L34,28.499l-5.144,2.205l2.852,7.131L26.295,40z M24.56,30.43
		l2.818,7.044l1.804-0.723l-2.836-7.087l4.431-1.898L19.756,15.172v17.317L24.56,30.43z"/>
</g>
</svg>
