<?xml version="1.0" encoding="utf-8"?>
<!-- Generator: Adobe Illustrator 16.0.0, SVG Export Plug-In . SVG Version: 6.00 Build 0)  -->
<!DOCTYPE svg PUBLIC "-//W3C//DTD SVG 1.1//EN" "http://www.w3.org/Graphics/SVG/1.1/DTD/svg11.dtd">
<svg version="1.1" id="Layer_1" xmlns="http://www.w3.org/2000/svg" xmlns:xlink="http://www.w3.org/1999/xlink" x="0px" y="0px"
	 width="302.801px" height="131.16px" viewBox="0 0 302.801 131.16" enable-background="new 0 0 302.801 131.16"
	 xml:space="preserve">
<g>
	<g>
		<path fill="#C6C6C6" d="M12.954,69.628v-1.619V56.674c-4.32,0-7.557-1.079-9.717-3.239c-0.432-1.401-0.784-2.915-1.052-4.533
			c-0.27-1.619-0.461-2.915-0.566-3.887v-1.294c4.316,0,7.555,1.081,9.716,3.237c1.076,2.161,1.619,5.4,1.619,9.716
			c0-5.396,0.538-9.174,1.618-11.334v8.095c0-0.863,0.35-1.887,1.052-3.077c0.703-1.186,1.43-1.781,2.188-1.781
			c0.971-0.971,2.13-1.724,3.481-2.267c1.349-0.538,2.454-0.863,3.319-0.97h1.295c0,4.317-1.08,7.557-3.237,9.716
			c-2.162,1.081-4.858,1.619-8.098,1.619v8.095c0-2.156,0.541-3.777,1.619-4.858c1.404-0.971,2.917-1.724,4.535-2.267
			c1.619-0.538,2.915-0.863,3.886-0.971h1.295c1.079,4.318,0,7.557-3.237,9.717c-0.648,1.293-2.08,2.348-4.292,3.155
			c-2.214,0.812-3.481,1.377-3.807,1.7v1.621c0-1.079-0.54-1.621-1.618-1.621c-4.32,0-7.557-1.076-9.717-3.238
			c-0.97-1.4-1.728-3.048-2.266-4.939C0.43,61.183,0.105,59.644,0,58.455v-1.781c4.315,0,7.555,1.081,9.714,3.237
			C11.873,62.072,12.954,65.312,12.954,69.628z M40.481,103.632c-1.513,4.533-4.209,7.772-8.097,9.716h-1.619
			c0-1.078-0.542-2.158-1.619-3.24c-2.161-4.314-4.32-7.555-6.477-9.715c-0.218,0-1,0.108-2.348,0.324
			c-1.353,0.217-2.835,0.322-4.454,0.322c-1.619,0-3.132-0.215-4.533-0.646c-1.944-0.972-3.591-2.401-4.939-4.291
			c-1.351-1.889-2.186-3.535-2.51-4.938l-0.648-2.106c4.318-1.076,8.636-1.076,12.954,0l3.24,3.239
			c-0.54-0.538-1.081-1.619-1.619-3.239c-0.543-1.619-1.081-2.697-1.621-3.238c-4.317,1.082-8.095,0-11.332-3.238
			c-1.406-0.971-2.51-2.268-3.321-3.885c-0.811-1.619-1.269-3.022-1.377-4.211L0,72.867c4.315-1.079,8.095-0.541,11.335,1.619
			c2.157,2.16,3.237,3.779,3.237,4.857v-4.857c0,0.433,0.268,1.322,0.811,2.671c0.538,1.353,0.808,2.62,0.808,3.806
			c0-2.158,1.078-4.316,3.24-6.477c0.971-1.401,2.267-2.645,3.888-3.726c1.619-1.077,3.019-1.78,4.208-2.104l1.621-0.648
			c1.076,5.398,0.538,9.716-1.621,12.954c-1.188,1.189-2.996,2.186-5.422,2.996c-2.429,0.811-3.861,1.432-4.292,1.861
			c0.538,1.082,1.349,2.971,2.429,5.668c1.076,2.701,1.887,4.59,2.43,5.668c0-0.215-0.11-0.997-0.325-2.348
			c-0.217-1.349-0.323-2.673-0.323-3.969c0-1.294,0.215-2.427,0.648-3.4c0.97-1.943,2.267-3.586,3.885-4.938
			c1.619-1.349,3.022-2.185,4.21-2.508l1.619-0.648c0.215,0.433,0.459,1.052,0.729,1.863c0.268,0.808,0.648,2.429,1.133,4.858
			c0.485,2.426,0.404,4.506-0.241,6.231c-1.406,2.161-3.106,3.78-5.102,4.858c-1.999,1.08-3.536,1.619-4.615,1.619l4.858,9.716
			c0-0.753-0.11-1.646-0.325-2.673c-0.218-1.023-0.323-1.94-0.323-2.752c0-0.81,0.215-1.699,0.648-2.672
			c0.43-1.94,1.456-3.723,3.077-5.343c1.618-1.618,3.129-2.752,4.533-3.399l2.104-0.971c0.108,0.217,0.271,0.459,0.487,0.729
			c0.216,0.27,0.538,0.917,0.972,1.941c0.43,1.026,0.752,2.024,0.97,2.996c0.215,0.973,0.296,2.133,0.244,3.48
			C41.479,101.18,41.129,102.445,40.481,103.632z M22.67,45.34c-0.973,0.432-1.999,0.647-3.078,0.647
			c-1.08,0-2.106-0.107-3.076-0.325c-0.971-0.215-1.619-0.322-1.944-0.322c-1.08,0-2.51-0.459-4.291-1.378
			c-1.781-0.915-3.051-2.077-3.804-3.48C6.044,39.51,5.693,38.351,5.425,37c-0.272-1.348-0.461-2.455-0.566-3.318v-1.295
			c4.315,0,7.015,1.081,8.095,3.237c0.43,0.433,0.782,1.052,1.052,1.862c0.268,0.811,0.459,1.485,0.566,2.025v0.971
			c0-2.159,0.541-4.316,1.619-6.477c-3.237,0-5.398-1.619-6.476-4.858c-0.433-0.971-0.648-2.13-0.648-3.481
			c0-1.348,0.107-2.453,0.324-3.318l0.324-1.295c3.239,1.081,5.398,3.237,6.476,6.478v4.858c0.431-0.756,0.811-1.621,1.135-2.592
			c0.324-0.971,0.646-1.752,0.971-2.348c0.323-0.593,0.7-1.105,1.133-1.538c-1.081,1.078-1.619,3.237-1.619,6.477
			c0-0.863,0.323-1.621,0.971-2.269c0.648-0.646,1.401-0.971,2.267-0.971c0.973-0.431,2.13-0.648,3.481-0.648
			c1.349,0,2.456,0.11,3.321,0.325l1.296,0.323c-1.081,3.24-2.699,5.398-4.858,6.477H16.19c0,0.542-0.27,1.621-0.808,3.24
			c-0.543,1.619-0.811,2.699-0.811,3.237c0.325-0.323,0.701-0.835,1.133-1.538c0.43-0.701,0.916-1.32,1.458-1.862
			c0.538-0.538,1.295-1.023,2.267-1.457c0.971-0.43,2.131-0.647,3.481-0.647c1.349,0,2.456,0.107,3.321,0.323l1.293,0.325
			C27.525,40.481,25.907,43.18,22.67,45.34z M21.049,103.632c3.888,1.296,7.125,4.533,9.716,9.716
			c-0.433,0.323-1.081,0.756-1.944,1.295c-0.865,0.541-2.429,1.107-4.696,1.7s-4.373,0.675-6.314,0.242
			c-1.943-0.971-3.725-2.267-5.343-3.885c-1.621-1.621-2.754-3.022-3.402-4.21l-0.971-1.618c0.431-0.325,1.078-0.755,1.944-1.296
			c0.863-0.54,2.429-1.107,4.696-1.699C17.001,103.283,19.107,103.202,21.049,103.632z M25.907,25.909
			c-0.97,0.433-1.862,0.646-2.67,0.646c-0.811,0-1.566-0.105-2.269-0.323c-0.703-0.215-1.215-0.323-1.538-0.323
			c-0.323-0.107-0.755-0.296-1.295-0.567c-0.541-0.27-1.27-0.973-2.186-2.106c-0.918-1.133-1.377-2.401-1.377-3.806
			c-0.432-0.971-0.648-1.995-0.648-3.075c0-1.079,0.108-1.889,0.326-2.429l0.322-0.973c3.24,1.08,4.858,2.701,4.858,4.858
			c0.431,0.433,0.648,1.052,0.648,1.862c0,0.811-0.11,1.7-0.325,2.673c-0.218,0.971-0.323,1.619-0.323,1.941
			c0.431-0.753,0.81-1.618,1.133-2.589c0.325-0.973,0.648-1.755,0.973-2.347c0.322-0.593,0.7-1.107,1.133-1.54
			c0,0.542-0.273,1.351-0.811,2.429c-0.542,1.081-0.81,1.892-0.81,2.43c0-1.079,1.079-1.619,3.239-1.619
			c0.971-0.431,1.997-0.648,3.077-0.648c1.076,0,1.887,0.107,2.429,0.323l0.971,0.325C29.685,24.288,28.065,25.909,25.907,25.909z
			 M38.86,111.729c0.43-1.941,1.322-3.857,2.673-5.748c1.348-1.887,2.616-3.318,3.806-4.293l1.618-1.295
			c0.43,0.433,0.997,1.109,1.7,2.025c0.701,0.917,1.511,2.646,2.428,5.182c0.917,2.539,1.158,4.994,0.729,7.367
			c-1.081,3.24-3.779,7.02-8.098,11.335l1.622,1.619h-1.622l-1.617-1.619c-0.972,0.972-2.915,2.025-5.829,3.158
			c-2.915,1.134-5.83,1.7-8.746,1.7c-1.941-0.432-3.861-1.458-5.747-3.077c-1.889-1.618-3.319-3.13-4.292-4.533l-1.296-2.106
			c4.318-3.236,9.176-4.856,14.575-4.856c0.538,0.542,1.619,1.081,3.24,1.621c1.618,0.541,2.697,1.079,3.237,1.619
			c-2.161-2.159-3.78-4.318-4.858-6.478c4.318,4.318,7.017,7.558,8.097,9.715C38.32,118.747,37.78,114.967,38.86,111.729z
			 M34.005,16.193c-1.081,2.161-2.702,3.237-4.858,3.237c-1.19,0-2.458-0.268-3.806-0.808c-1.351-0.541-2.242-0.811-2.67-0.811
			c0-0.538-0.542-1.348-1.621-2.429c-1.081-1.079-1.619-1.887-1.619-2.429c-0.433-1.076-0.54-2.104-0.323-3.077
			c0.216-0.971,0.591-1.781,1.133-2.427l0.809-0.973c2.159,1.081,3.239,2.7,3.239,4.858v3.239c2.159-2.159,3.237-3.777,3.237-4.858
			c0.54,0,1.349-0.268,2.429-0.811c1.079-0.539,1.889-0.811,2.429-0.811c0.973,0,1.996,0.139,3.077,0.407
			c1.078,0.27,1.889,0.566,2.429,0.889l0.971,0.325c-2.159,2.161-3.779,3.237-4.855,3.237c-0.973,0-1.863-0.134-2.673-0.404
			c-0.81-0.268-1.377-0.567-1.7-0.892l-0.485-0.323c-1.621,0-3.24,1.619-4.858,4.858l3.237-3.239c0.973,0,1.997,0.272,3.077,0.81
			c1.079,0.54,1.889,1.081,2.429,1.619L34.005,16.193z M30.765,4.858c0,3.237-1.081,4.858-3.24,4.858
			c-2.159-1.078-3.237-2.697-3.237-4.858c0-0.971,0.268-1.863,0.811-2.673c0.538-0.808,1.076-1.375,1.619-1.7L27.525,0
			C29.685,1.081,30.765,2.699,30.765,4.858z M263.938,111.729c0,5.399-0.541,9.177-1.617,11.334
			c1.076-2.157,3.773-5.396,8.097-9.715c-1.081,2.159-2.702,4.318-4.858,6.478c0.431-0.431,0.944-0.81,1.537-1.134
			c0.592-0.324,1.375-0.647,2.35-0.973c0.972-0.322,1.832-0.699,2.588-1.133c1.945,0,4.128,0.406,6.558,1.214
			c2.431,0.81,4.345,1.595,5.75,2.349l2.267,1.295c-0.324,0.647-0.838,1.433-1.536,2.349c-0.703,0.918-2.188,2.267-4.454,4.048
			c-2.266,1.78-4.59,2.891-6.962,3.32c-3.022,0-5.939-0.594-8.746-1.781c-2.808-1.188-4.208-2.212-4.208-3.077
			c-0.436,0.433-0.918,0.784-1.459,1.052c-0.54,0.271-0.971,0.463-1.295,0.567h-0.484c0-1.079,0.536-1.619,1.618-1.619
			c-0.11-0.104-0.567-0.538-1.375-1.295c-0.81-0.754-1.537-1.457-2.187-2.104c-0.646-0.646-1.35-1.402-2.104-2.269
			c-0.756-0.86-1.353-1.806-1.783-2.833c-0.431-1.023-0.646-1.968-0.646-2.833c-0.43-2.374-0.377-4.776,0.162-7.206
			c0.541-2.429,1.187-4.234,1.941-5.425l1.133-1.942C259.619,103.632,262.855,107.412,263.938,111.729z M263.938,90.68
			c4.316,2.16,7.556,5.397,9.717,9.713v8.098l-1.621,1.619v3.24c0-1.836,0.865-3.726,2.591-5.668
			c1.728-1.945,4.103-3.293,7.125-4.049c1.944-0.431,3.991-0.377,6.153,0.163c2.156,0.54,3.83,1.188,5.021,1.94l1.778,1.137
			c-2.161,4.318-5.396,7.557-9.715,9.714c-1.942,0.433-4.131,0.38-6.559-0.161c-2.425-0.54-4.345-1.188-5.746-1.943l-2.267-1.133
			c-5.183-2.592-8.421-5.83-9.716-9.716c-0.436-1.944-0.383-3.993,0.162-6.153c0.535-2.157,1.186-3.83,1.941-5.02L263.938,90.68z
			 M268.794,12.954c-0.971,0-1.862-0.268-2.67-0.809c-0.808-0.54-1.378-1.078-1.7-1.621l-0.486-0.808
			c0.215-0.215,0.514-0.459,0.892-0.729c0.378-0.268,1.055-0.648,2.024-1.133c0.971-0.485,1.616-0.404,1.941,0.242
			c0.973,0,1.863,0.139,2.671,0.407c0.812,0.27,1.378,0.566,1.7,0.889l0.488,0.325c-1.081-2.159-1.621-3.778-1.621-4.858
			c0-0.971,0.268-1.863,0.812-2.673c0.535-0.808,1.075-1.375,1.616-1.7L275.273,0c1.076,1.081,1.617,2.699,1.617,4.858
			c0,0.97-0.137,1.862-0.404,2.67c-0.273,0.81-0.567,1.377-0.893,1.702l-0.32,0.486c0,1.081,1.076,2.699,3.237,4.858
			c-1.081-1.079-1.62-2.159-1.62-3.239c0.43-0.971,1.053-1.863,1.862-2.671c0.812-0.811,1.483-1.377,2.024-1.702l0.972-0.485
			c1.08,2.162,1.62,4.32,1.62,6.477c0,0.542-0.54,1.35-1.62,2.429c-1.082,1.081-1.617,1.891-1.617,2.429
			c0,0.433,0.269,1.052,0.81,1.862c0.539,0.811,0.809,1.81,0.809,2.996v-4.858c0.43-0.971,1.054-1.862,1.861-2.671
			c0.809-0.81,1.484-1.377,2.024-1.699l0.972-0.488c0.215,0.218,0.457,0.542,0.729,0.973c0.268,0.432,0.645,1.24,1.133,2.429
			c0.488,1.188,0.404,2.213-0.24,3.075c-0.436,0.973-1.056,1.863-1.863,2.673c-0.809,0.811-1.484,1.377-2.024,1.7l-0.971,0.485
			c0,1.081,0.268,2.429,0.808,4.048c0.541,1.621,0.811,2.971,0.811,4.05c0-1.188-0.27-2.456-0.811-3.806
			c-0.54-1.349-0.808-2.238-0.808-2.671c-0.325,0-0.972,0.107-1.946,0.323c-0.97,0.218-1.857,0.323-2.67,0.323
			c-0.809,0-1.434-0.213-1.863-0.646c-0.971-0.431-1.863-1.054-2.67-1.862c-0.809-0.811-1.375-1.483-1.699-2.025l-0.488-0.971
			c2.16-1.078,4.318-1.621,6.479-1.621l3.238,3.24c-0.541-0.538-1.082-1.349-1.617-2.43c-0.545-1.078-1.081-1.886-1.621-2.429
			c-2.16,1.081-3.781,1.619-4.857,1.619c-0.971-0.428-2-1.052-3.075-1.86c-1.08-0.81-1.894-1.484-2.429-2.025l-0.976-0.971
			c2.162-1.079,4.317-1.621,6.479-1.621c0.539,0.542,1.348,1.08,2.429,1.621c1.075,0.541,1.888,1.081,2.428,1.619
			c-0.649-0.648-1.271-1.32-1.862-2.025c-0.593-0.701-1.002-1.239-1.211-1.618c-0.221-0.378-0.463-0.672-0.729-0.892
			c-0.272-0.213-0.624-0.323-1.054-0.323C271.492,12.416,269.871,12.954,268.794,12.954z M280.132,97.155
			c0.535-1.078,1.349-2.968,2.429-5.669c1.076-2.696,1.885-4.584,2.426-5.666c0,0.541-0.269,1.619-0.81,3.238
			c-0.54,1.621-0.808,2.701-0.808,3.238c0-0.43,0.132-0.811,0.404-1.133c0.268-0.325,0.703-0.648,1.295-0.971
			c0.594-0.325,1.106-0.703,1.537-1.135c1.941-0.429,3.994-0.646,6.153-0.646c2.157,0,3.831,0.107,5.021,0.322l1.779,0.324
			c-1.08,5.399-3.777,9.178-8.096,11.334c-1.727,0.543-3.426,0.758-5.1,0.647c-1.674-0.104-3.131-0.375-4.375-0.808
			c-1.238-0.431-1.857-0.916-1.857-1.459c-2.161,2.162-4.322,5.401-6.479,9.717l4.856-9.717c-1.19,0-2.754-0.646-4.694-1.942
			c-1.947-1.293-3.621-3.345-5.021-6.152c-0.971-1.401-1.458-3.048-1.458-4.938c0-1.887,0.269-3.426,0.813-4.615l0.645-1.781
			c5.398,1.081,8.636,3.238,9.716,6.477c0.972,1.515,1.59,2.863,1.862,4.049c0.268,1.189,0.294,2.617,0.08,4.292
			C280.236,95.835,280.132,96.831,280.132,97.155z M297.943,82.582c-1.406,1.404-3.053,2.376-4.942,2.914
			c-1.888,0.542-3.425,0.758-4.61,0.648l-1.783-0.324h-1.621c-0.756-0.324-1.778-0.699-3.075-1.133
			c-1.295-0.431-2.485-0.916-3.562-1.457c-1.082-0.539-2.104-1.297-3.074-2.268c-0.976-1.4-1.594-3.183-1.863-5.344
			c-0.271-2.159-0.298-3.939-0.083-5.344l0.325-2.268c4.318,1.081,7.556,2.7,9.717,4.858c0.324,0.54,0.729,1.241,1.212,2.104
			c0.487,0.866,0.835,1.54,1.056,2.025c0.215,0.485,0.43,1.08,0.646,1.78c0.215,0.703,0.325,1.433,0.325,2.187
			c0-3.237,0.539-5.396,1.621-6.478c0,1.082-0.273,2.699-0.813,4.858c-0.54,2.162-0.808,3.78-0.808,4.858
			c0-0.973,0.431-2.456,1.295-4.454c0.861-1.996,2.052-3.749,3.562-5.263c1.402-0.971,3.049-1.592,4.938-1.861
			c1.89-0.268,3.427-0.297,4.617-0.082l1.783,0.325C302.801,77.186,301.182,80.425,297.943,82.582z M281.749,29.146
			c0.864,0,1.62,0.325,2.267,0.971c0.648,0.648,0.971,1.406,0.971,2.269c0-2.159,0.541-4.318,1.621-6.477
			c0.431-0.973,1.054-1.862,1.861-2.673c0.809-0.81,1.484-1.377,2.025-1.7l0.97-0.485c0.216,0.322,0.457,0.784,0.729,1.375
			c0.269,0.595,0.646,1.675,1.134,3.239c0.487,1.566,0.403,2.728-0.241,3.481c-0.436,0.971-1.189,1.862-2.268,2.673
			c-1.08,0.808-2.057,1.375-2.916,1.7l-1.297,0.486c-1.08,1.08-3.776,1.618-8.096,1.618c-0.971-0.43-1.861-1.186-2.67-2.267
			c-0.812-1.078-1.379-2.049-1.699-2.915l-0.488-1.295C276.891,28.068,279.587,28.068,281.749,29.146z M283.369,37.244l4.857,4.856
			c-1.08-1.076-1.621-3.778-1.621-8.095c0,1.188,0.269,2.457,0.809,3.806c0.54,1.351,0.812,2.24,0.812,2.671
			c0-2.159,0.535-3.778,1.616-4.858c0.431-0.971,1.19-1.862,2.267-2.67c1.08-0.811,2.053-1.377,2.916-1.7l1.297-0.488
			c1.076,4.32,1.076,7.557,0,9.716c-3.236,3.239-5.938,4.858-8.096,4.858c-0.221,0-0.787,0.055-1.699,0.162
			c-0.918,0.108-1.73,0.188-2.43,0.242c-0.703,0.057-1.459-0.082-2.268-0.404c-0.812-0.325-1.378-0.863-1.699-1.619
			c-1.404-0.43-2.512-1.188-3.32-2.269c-0.809-1.077-1.271-2.049-1.375-2.914l-0.164-1.294
			C278.511,36.166,281.208,36.166,283.369,37.244z M284.986,48.577c0.754,0,1.482,0.595,2.187,1.781
			c0.703,1.19,1.056,2.214,1.056,3.077V45.34c0,1.08,0.269,2.699,0.809,4.857c0.54,2.161,0.809,3.78,0.809,4.858v1.619
			c0-4.316,0.539-7.555,1.619-9.716c0.971-0.971,2.133-1.724,3.483-2.267c1.35-0.538,2.452-0.863,3.315-0.971h1.297
			c1.08,3.237,0.541,6.478-1.617,9.714c-0.976,0.973-2.133,1.728-3.482,2.269c-1.354,0.54-2.456,0.863-3.32,0.971h-1.295
			c0,5.398-0.541,9.176-1.617,11.334v1.619c-4.316,0-7.561-1.078-9.717-3.236c-0.971-0.974-1.727-2.27-2.267-3.888
			c-0.54-1.619-0.865-3.02-0.97-4.21v-1.619c4.312,0,7.555,1.081,9.711,3.237c2.16,2.161,3.242,3.782,3.242,4.858v-8.095
			c-3.242,0-5.939-0.538-8.097-1.619c-1.405-0.973-2.512-2.269-3.321-3.887c-0.808-1.619-1.27-3.02-1.375-4.21l-0.162-1.618
			C279.587,45.34,282.829,46.42,284.986,48.577z M299.561,66.391c-1.401,1.403-3.05,2.375-4.938,2.916
			c-1.891,0.539-3.432,0.754-4.617,0.647l-1.777-0.325c0-0.971,0.43-2.454,1.295-4.452c0.86-1.997,2.047-3.751,3.562-5.265
			c0.971-0.971,2.268-1.724,3.882-2.267c1.622-0.538,3.022-0.863,4.214-0.971h1.619C302.801,60.992,301.721,64.231,299.561,66.391z"
			/>
	</g>
	<g>
		<path fill="#AD845E" d="M56.6,58.473c0-1.147-0.062-4.93-0.093-5.426c-0.093-1.798-0.589-1.86-1.612-1.86h-0.992
			c-0.217,0-0.217-0.031-0.217-0.279v-0.713c0-0.186,0.031-0.279,0.248-0.279c0.403,0,1.892,0.093,4.837,0.093
			c0.992,0,2.853-0.093,4.961-0.093c2.232,0,4.217,0.217,5.302,0.837c1.768,0.961,2.388,2.388,2.388,4.217
			c0,2.046-1.24,4.031-4.527,5.116v0.062c3.845,0.992,5.86,2.853,5.86,6.14c0,1.674-0.93,3.969-2.418,4.713
			c-1.271,0.651-3.442,1.147-7.287,1.147c-0.279,0-1.085-0.062-1.954-0.094c-0.899-0.062-1.86-0.093-2.449-0.093
			c-1.55,0-2.573,0.031-3.256,0.031c-0.651,0.03-0.992,0.062-1.209,0.062c-0.31,0-0.341-0.093-0.341-0.341V71.03
			c0-0.187,0.031-0.248,0.31-0.248h1.085c0.93,0,1.085-0.372,1.209-1.302c0.093-0.713,0.155-4.807,0.155-7.35V58.473z
			 M61.127,59.744c1.271,0.124,3.256-0.062,4.155-0.868c1.023-0.899,1.488-2.294,1.488-3.659c0-1.178-0.372-2.418-1.271-3.132
			c-1.055-0.837-2.574-1.116-2.915-1.116c-0.651,0-1.333,0.031-1.364,0.527c-0.062,0.62-0.093,3.317-0.093,5.891V59.744z
			 M61.127,66.938c0,2.945,0.682,4.154,2.325,4.154c2.202,0,4.279-1.085,4.279-4.961c0-2.512-1.116-4.155-2.791-4.806
			c-1.55-0.589-3.038-0.527-3.813-0.527V66.938z"/>
		<path fill="#AD845E" d="M79.075,64.239v0.837c0,3.225,1.829,4.806,4.093,4.806c1.52,0,2.76-0.713,3.38-1.706
			c0.062-0.154,0.186-0.186,0.31-0.093l0.527,0.278c0.124,0.062,0.217,0.218-0.062,0.744c-0.558,1.147-2.574,3.287-5.488,3.287
			c-1.984,0-3.628-0.341-4.651-1.457c-1.581-1.705-2.108-2.914-2.139-5.333c0-0.868,0-2.511,1.395-4.558
			c1.116-1.644,3.008-2.542,5.396-2.542c5.022,0,5.302,4.806,5.302,5.302c0,0.403-0.279,0.434-0.961,0.434h-7.102V64.239z
			 M82.083,63.062c0.682,0,0.992-0.155,0.992-0.62c0-1.364-0.559-2.698-1.52-2.698c-1.457,0-2.232,1.147-2.449,3.318H82.083z"/>
		<path fill="#AD845E" d="M98.699,62.038c0.031,0.155,0,0.217-0.124,0.279l-0.558,0.248c-0.093,0.062-0.186,0.031-0.31-0.093
			l-1.736-1.86c-0.403-0.403-0.992-0.899-1.922-0.899c-0.93,0-1.829,0.62-1.829,1.674c0.062,1.085,0.434,1.396,2.729,2.016
			c1.519,0.403,2.263,0.62,3.193,1.612c0.806,0.806,0.992,1.549,0.992,2.635c0,2.76-2.17,4.744-5.55,4.744
			c-1.736,0-3.256-0.619-3.628-0.898c-0.124-0.094-0.155-0.217-0.186-0.403l-0.403-2.977c0-0.155,0.093-0.218,0.217-0.248
			l0.558-0.155c0.093-0.031,0.155,0,0.217,0.124l1.24,1.83c0.558,0.806,1.271,1.582,2.697,1.582c1.147,0,1.829-0.808,1.829-1.892
			c0-1.24-0.899-1.645-2.914-2.265c-2.202-0.651-3.783-1.705-3.783-3.938c0-1.457,0.435-2.667,1.612-3.535
			c1.24-0.899,2.108-1.116,3.411-1.116c1.674,0,2.697,0.372,3.255,0.651c0.465,0.217,0.527,0.372,0.558,0.589L98.699,62.038z"/>
		<path fill="#AD845E" d="M106.603,67.434c0,2.541,0.961,3.101,1.706,3.101c0.651,0,1.116-0.093,1.612-0.372
			c0.093-0.062,0.186-0.062,0.279,0.124l0.217,0.465c0.093,0.155,0,0.31-0.124,0.403c-0.527,0.371-1.922,1.24-4.341,1.24
			c-2.108,0-3.442-1.459-3.442-2.884c0-1.085,0.062-3.442,0.062-4.62l0.031-4.093h-1.706c-0.279,0-0.496-0.124-0.496-0.434
			c0-0.31,0.187-0.527,0.683-0.775c1.023-0.465,3.627-2.791,4.774-4.093c0.217-0.248,0.435-0.311,0.589-0.311
			c0.279,0,0.403,0.217,0.403,0.465l-0.124,3.287h3.938c0.186,0,0.279,0.155,0.217,0.279l-0.311,1.333
			c-0.031,0.124-0.093,0.248-0.279,0.248h-3.627c-0.062,1.271-0.062,2.76-0.062,4.186L106.603,67.434L106.603,67.434z"/>
		<path fill="#AD845E" d="M137.295,62.938c0-2.76-0.031-4.279-0.093-5.829c-0.031-1.209-0.187-4.248-0.279-4.713
			c-0.186-0.775-0.93-1.209-1.644-1.209h-0.992c-0.155,0-0.186-0.093-0.186-0.279v-0.775c0-0.155,0.031-0.217,0.279-0.217
			c0.341,0,1.333,0.093,3.627,0.093c1.86,0,2.604-0.093,2.946-0.093c0.279,0,0.31,0.062,0.31,0.248v0.744
			c0,0.155-0.031,0.279-0.155,0.279h-0.868c-0.527,0-0.837,0.527-0.93,1.643c-0.217,2.078-0.713,9.085-0.713,13.178v5.303
			c0,0.465-0.031,1.022-0.465,1.022c-0.465,0-0.868-0.155-1.209-0.496c-0.527-0.496-2.046-2.14-3.907-4.341
			c-2.232-2.636-4.713-5.612-5.302-6.294c-0.527-0.62-4.806-5.953-5.519-6.977h-0.248v6.263c0,2.574,0.279,6.387,0.31,7.565
			c0.062,1.799,0.62,2.729,1.923,2.729h0.775c0.217,0,0.248,0.093,0.248,0.278v0.744c0,0.188-0.031,0.248-0.248,0.248
			c-0.31,0-2.17-0.093-3.627-0.093c-0.961,0-3.101,0.093-3.411,0.093c-0.124,0-0.155-0.062-0.155-0.279v-0.806
			c0-0.093,0.031-0.186,0.186-0.186h1.085c0.683,0,1.179-0.992,1.333-3.07c0.031-0.589,0.279-5.55,0.279-10.139v-2.791
			c0-1.83-1.116-3.566-2.666-3.597l-0.775-0.031c-0.155,0-0.186-0.124-0.186-0.217V50.1c0-0.124,0.031-0.186,0.186-0.186
			c0.155,0,0.403,0.031,0.992,0.031c0.62,0.031,1.612,0.062,3.225,0.062c1.054,0,1.984-0.062,2.356-0.062
			c0.403,0,0.651,0.124,0.899,0.403c0.155,0.187,6.263,7.659,7.193,8.806c0.434,0.527,4.961,6.201,5.302,6.604h0.124V62.938
			L137.295,62.938z"/>
		<path fill="#AD845E" d="M146.654,64.239v0.837c0,3.225,1.83,4.806,4.093,4.806c1.519,0,2.759-0.713,3.379-1.706
			c0.062-0.154,0.187-0.186,0.312-0.093l0.526,0.278c0.124,0.062,0.218,0.218-0.062,0.744c-0.559,1.147-2.573,3.287-5.488,3.287
			c-1.984,0-3.627-0.341-4.65-1.457c-1.582-1.705-2.108-2.914-2.14-5.333c0-0.868,0-2.511,1.396-4.558
			c1.116-1.644,3.007-2.542,5.395-2.542c5.022,0,5.302,4.806,5.302,5.302c0,0.403-0.279,0.434-0.961,0.434h-7.102V64.239z
			 M149.661,63.062c0.683,0,0.992-0.155,0.992-0.62c0-1.364-0.558-2.698-1.519-2.698c-1.458,0-2.232,1.147-2.45,3.318H149.661z"/>
		<path fill="#AD845E" d="M155.425,59.093c0-0.155,0.031-0.248,0.187-0.248c0.434,0,1.054,0.093,3.688,0.093
			c1.552,0,2.296-0.093,2.761-0.093c0.186,0,0.248,0.062,0.248,0.248v0.682c0,0.155-0.031,0.248-0.248,0.248h-0.403
			c-0.279,0-0.403,0.279-0.279,0.713l2.108,6.418h0.186l1.893-4.837c0.154-0.435,0.031-1.427-0.279-1.83
			c-0.186-0.248-0.527-0.279-0.807-0.279h-0.217c-0.186,0-0.248-0.093-0.248-0.248v-0.683c0-0.186,0.094-0.248,0.279-0.248
			c0.248,0,1.24,0.093,3.193,0.093c1.799,0,2.479-0.093,2.729-0.093c0.217,0,0.279,0.062,0.279,0.187v0.682
			c0,0.155-0.031,0.311-0.186,0.311h-0.435c-0.248,0-0.526,0.31-0.403,0.682l2.202,6.108h0.124l1.674-4.713
			c0.59-1.612,0.155-2.264-0.682-2.264h-0.434c-0.155,0-0.187-0.093-0.187-0.248v-0.713c0-0.155,0.093-0.217,0.217-0.217
			c0.187,0,1.116,0.093,2.853,0.093c1.334,0,1.892-0.093,2.264-0.093c0.154,0,0.217,0.093,0.217,0.279v0.651
			c0,0.155-0.062,0.248-0.217,0.248h-0.311c-0.496,0-1.053,0.187-1.271,0.651c-0.248,0.527-4.278,10.263-4.774,11.349
			c-0.154,0.34-0.465,0.402-0.713,0.402c-0.341,0-0.465-0.217-0.682-0.744l-3.132-7.968h-0.187l-3.473,8.216
			c-0.154,0.342-0.436,0.496-0.744,0.496c-0.311,0-0.465-0.248-0.619-0.619L157.1,60.86c-0.248-0.62-0.713-0.837-1.084-0.837h-0.373
			c-0.187,0-0.217-0.093-0.217-0.279L155.425,59.093L155.425,59.093z"/>
		<path fill="#AD845E" d="M189.371,63.464c-0.248,0.651-1.768,4.899-1.768,5.892c0,0.682,0.279,1.426,1.209,1.426h1.086
			c0.31,0,0.341,0.124,0.341,0.248v0.682c0,0.248-0.031,0.341-0.279,0.341c-0.403,0-1.674-0.093-4.217-0.093
			c-2.263,0-2.946,0.093-3.379,0.093c-0.187,0-0.218-0.186-0.218-0.403v-0.588c0-0.187,0.031-0.279,0.218-0.279h0.806
			c0.744,0,1.488-0.434,2.107-1.364c0.436-0.651,2.637-6.046,3.66-8.775c0.248-0.62,2.758-7.286,3.037-8.123
			c0.094-0.311,0.248-0.713,0.031-1.055c-0.093-0.124-0.217-0.279-0.217-0.403c0-0.093,0.062-0.217,0.311-0.279
			c0.991-0.217,3.008-1.023,3.473-1.551c0.154-0.155,0.248-0.279,0.402-0.279c0.187,0,0.248,0.186,0.342,0.527
			c0.589,1.954,3.008,8.899,3.597,10.883c0.713,2.418,2.729,8.186,3.163,9.023c0.527,1.023,1.333,1.396,1.798,1.396h1.056
			c0.186,0,0.217,0.124,0.217,0.278v0.59c0,0.186-0.031,0.402-0.279,0.402c-0.59,0-1.24-0.093-5.209-0.093
			c-2.573,0-3.658,0.093-4.278,0.093c-0.312,0-0.341-0.186-0.341-0.402v-0.59c0-0.154,0.031-0.278,0.186-0.278h0.868
			c0.837,0,1.116-0.31,0.931-1.116c-0.279-1.116-1.488-5.085-1.86-6.201L189.371,63.464L189.371,63.464z M195.883,62.224
			c-0.279-0.93-2.107-7.441-2.326-8.216c-0.123-0.465-0.186-0.683-0.341-0.683c-0.187,0-0.278,0.124-0.372,0.403
			c-0.154,0.403-2.82,7.721-3.068,8.496H195.883z"/>
		<path fill="#AD845E" d="M208.156,63.682c0-1.055-0.094-1.52-1.023-2.016l-0.713-0.372c-0.154-0.093-0.217-0.155-0.217-0.279
			v-0.403c0-0.093,0.062-0.155,0.217-0.217l4.031-1.581c0.402-0.155,0.682-0.31,0.961-0.31c0.186,0,0.279,0.217,0.372,0.651
			l0.217,1.146h0.124c0.775-0.961,2.389-1.798,3.938-1.798c1.676,0,2.822,0.465,3.846,1.582c1.303,1.426,1.736,2.511,1.675,4.31
			c0.031,4.713-3.132,8-7.069,8c-0.527,0-1.52-0.031-2.326-0.496l0.031,4.744c0.031,2.512,0.342,2.666,1.086,2.666h0.774
			c0.248,0,0.278,0.125,0.278,0.311v0.589c0,0.187-0.062,0.279-0.278,0.279c-0.155,0-1.209-0.093-3.97-0.093
			c-2.262,0-3.348,0.093-3.596,0.093c-0.218,0-0.279-0.093-0.279-0.31v-0.621c0-0.154,0.062-0.248,0.371-0.248h0.713
			c0.527,0,0.744-0.311,0.807-0.807c0.062-0.682,0.062-1.611,0.062-3.379L208.156,63.682z M212.188,68.673
			c0,0.496,0.217,1.302,0.836,1.798c0.465,0.372,1.117,0.713,1.86,0.713c1.302,0,2.449-1.146,2.449-4.123
			c0-1.955-0.217-6.418-3.226-6.418c-0.588,0-1.426,0.248-1.922,0.837v7.194H212.188z"/>
		<path fill="#AD845E" d="M224.865,63.682c0-1.055-0.094-1.52-1.023-2.016l-0.713-0.372c-0.154-0.093-0.217-0.155-0.217-0.279
			v-0.403c0-0.093,0.062-0.155,0.217-0.217l4.031-1.581c0.402-0.155,0.682-0.31,0.961-0.31c0.188,0,0.279,0.217,0.372,0.651
			l0.217,1.146h0.124c0.775-0.961,2.387-1.798,3.938-1.798c1.674,0,2.821,0.465,3.846,1.582c1.302,1.426,1.736,2.511,1.674,4.31
			c0.031,4.713-3.131,8-7.068,8c-0.527,0-1.52-0.031-2.326-0.496l0.031,4.744c0.031,2.512,0.342,2.666,1.086,2.666h0.774
			c0.248,0,0.278,0.125,0.278,0.311v0.589c0,0.187-0.062,0.279-0.278,0.279c-0.155,0-1.209-0.093-3.97-0.093
			c-2.264,0-3.348,0.093-3.596,0.093c-0.218,0-0.279-0.093-0.279-0.31v-0.621c0-0.154,0.062-0.248,0.371-0.248h0.713
			c0.527,0,0.744-0.311,0.808-0.807c0.062-0.682,0.062-1.611,0.062-3.379L224.865,63.682z M228.896,68.673
			c0,0.496,0.217,1.302,0.836,1.798c0.466,0.372,1.117,0.713,1.86,0.713c1.304,0,2.45-1.146,2.45-4.123
			c0-1.955-0.217-6.418-3.225-6.418c-0.59,0-1.426,0.248-1.922,0.837V68.673z"/>
		<path fill="#AD845E" d="M249.82,62.038c0.031,0.155,0,0.217-0.123,0.279l-0.559,0.248c-0.093,0.062-0.186,0.031-0.31-0.093
			l-1.736-1.86c-0.403-0.403-0.991-0.899-1.922-0.899c-0.93,0-1.829,0.62-1.829,1.674c0.062,1.085,0.434,1.396,2.729,2.016
			c1.52,0.403,2.264,0.62,3.193,1.612c0.807,0.806,0.992,1.549,0.992,2.635c0,2.76-2.17,4.744-5.55,4.744
			c-1.735,0-3.256-0.619-3.628-0.898c-0.124-0.094-0.155-0.217-0.186-0.403l-0.403-2.977c0-0.155,0.093-0.218,0.217-0.248
			l0.558-0.155c0.094-0.031,0.155,0,0.217,0.124l1.24,1.83c0.559,0.806,1.271,1.582,2.697,1.582c1.146,0,1.829-0.808,1.829-1.892
			c0-1.24-0.899-1.645-2.914-2.265c-2.202-0.651-3.783-1.705-3.783-3.938c0-1.457,0.435-2.667,1.612-3.535
			c1.24-0.899,2.107-1.116,3.411-1.116c1.674,0,2.696,0.372,3.255,0.651c0.465,0.217,0.527,0.372,0.559,0.589L249.82,62.038z"/>
	</g>
	<path fill="#606060" d="M122.293,29.23h5.085v1.023h-3.866v3.137h3.572v1.009h-3.572v4.272h-1.219V29.23z"/>
	<path fill="#606060" d="M134,34.246h-3.67v3.403h4.09v1.022h-5.309V29.23h5.099v1.023h-3.88v2.982H134V34.246z"/>
	<path fill="#606060" d="M137.526,35.702l-0.98,2.97h-1.261l3.208-9.441h1.471l3.222,9.441h-1.303l-1.008-2.97H137.526z
		 M140.622,34.75l-0.924-2.718c-0.21-0.616-0.35-1.177-0.49-1.723h-0.028c-0.14,0.56-0.294,1.134-0.476,1.708l-0.924,2.732
		L140.622,34.75L140.622,34.75z"/>
	<path fill="#606060" d="M145.282,30.268h-2.872V29.23h6.99v1.037h-2.885v8.404h-1.233V30.268L145.282,30.268z"/>
	<path fill="#606060" d="M151.666,29.23v5.59c0,2.115,0.938,3.012,2.199,3.012c1.4,0,2.297-0.926,2.297-3.012v-5.59h1.232v5.506
		c0,2.898-1.527,4.09-3.572,4.09c-1.933,0-3.39-1.107-3.39-4.034V29.23H151.666z"/>
	<path fill="#606060" d="M159.505,29.357c0.617-0.127,1.499-0.197,2.339-0.197c1.303,0,2.143,0.238,2.731,0.771
		c0.478,0.42,0.743,1.064,0.743,1.793c0,1.246-0.785,2.072-1.779,2.408v0.043c0.729,0.252,1.163,0.924,1.387,1.904
		c0.309,1.316,0.532,2.228,0.729,2.592h-1.26c-0.154-0.266-0.365-1.078-0.631-2.256c-0.279-1.303-0.783-1.793-1.891-1.834h-1.148
		v4.09h-1.219L159.505,29.357L159.505,29.357z M160.725,33.657h1.246c1.303,0,2.129-0.714,2.129-1.793
		c0-1.219-0.883-1.751-2.17-1.765c-0.589,0-1.009,0.056-1.205,0.111V33.657L160.725,33.657z"/>
	<path fill="#606060" d="M171.926,34.246h-3.67v3.403h4.09v1.022h-5.309V29.23h5.099v1.023h-3.88v2.982h3.67V34.246L171.926,34.246z
		"/>
	<path fill="#606060" d="M173.925,29.357c0.743-0.113,1.625-0.197,2.591-0.197c1.752,0,2.998,0.406,3.824,1.178
		c0.84,0.77,1.331,1.862,1.331,3.389c0,1.541-0.476,2.803-1.358,3.67c-0.883,0.883-2.338,1.359-4.174,1.359
		c-0.869,0-1.597-0.042-2.213-0.111L173.925,29.357L173.925,29.357z M175.145,37.705c0.308,0.057,0.756,0.07,1.232,0.07
		c2.605,0,4.02-1.457,4.02-4.006c0.015-2.228-1.246-3.643-3.823-3.643c-0.63,0-1.106,0.057-1.429,0.127V37.705z"/>
</g>
</svg>
