<?xml version="1.0" encoding="utf-8"?>
<!-- Generator: Adobe Illustrator 16.0.0, SVG Export Plug-In . SVG Version: 6.00 Build 0)  -->
<!DOCTYPE svg PUBLIC "-//W3C//DTD SVG 1.1//EN" "http://www.w3.org/Graphics/SVG/1.1/DTD/svg11.dtd">
<svg version="1.1" id="Layer_1" xmlns="http://www.w3.org/2000/svg" xmlns:xlink="http://www.w3.org/1999/xlink" x="0px" y="0px"
	 width="302.801px" height="131.16px" viewBox="0 0 302.801 131.16" enable-background="new 0 0 302.801 131.16"
	 xml:space="preserve">
<g>
	<path fill="#606161" d="M275.859-13.047H260.6c-1.705,0-3.095-1.377-3.114-3.077l-1.459-20.171
		c-0.508-3.086-2.947-5.854-5.769-9.059c-4.272-4.851-9.589-10.887-9.589-20.479c0-15.197,12.364-27.562,27.562-27.562
		s27.561,12.364,27.561,27.562c0,9.592-5.317,15.628-9.588,20.479c-2.822,3.205-5.263,5.973-5.769,9.059l-1.46,20.171
		C278.954-14.424,277.564-13.047,275.859-13.047z M268.229-91.526c-14.168,0-25.693,11.525-25.693,25.692
		c0,8.886,4.848,14.389,9.122,19.244c2.9,3.292,5.641,6.403,6.218,10.04l0.01,0.079l1.468,20.311c0,0.687,0.557,1.246,1.246,1.246
		h15.26c0.685,0,1.246-0.559,1.246-1.246l0.002-0.068l1.473-20.321c0.58-3.637,3.318-6.747,6.219-10.04
		c4.276-4.855,9.123-10.357,9.123-19.244C293.922-80,282.396-91.526,268.229-91.526z"/>
	<g>
		<path fill="#D9686A" d="M267.295-121.423c-0.774,0-1.401,0.628-1.401,1.401v14.014c0,0.774,0.627,1.401,1.401,1.401
			c0.775,0,1.401-0.627,1.401-1.401v-14.014C268.696-120.795,268.07-121.423,267.295-121.423z"/>
		<path fill="#D9686A" d="M309.025-97.288c-0.547-0.548-1.433-0.548-1.981,0l-9.909,9.909c-0.547,0.548-0.547,1.435,0,1.982
			c0.547,0.547,1.435,0.547,1.981,0l9.909-9.91C309.574-95.854,309.574-96.741,309.025-97.288z"/>
		<path fill="#D9686A" d="M229.046-97.288c-0.548-0.548-1.435-0.548-1.982,0c-0.547,0.547-0.547,1.434,0,1.982l9.91,9.909
			c0.547,0.547,1.435,0.547,1.981,0c0.548-0.547,0.548-1.435,0-1.982L229.046-97.288z"/>
		<path fill="#D9686A" d="M312.941-40.293l-11.505-8.004c-0.637-0.443-1.509-0.286-1.95,0.349c-0.442,0.635-0.286,1.508,0.349,1.951
			l11.503,8.003c0.637,0.443,1.51,0.286,1.952-0.349C313.731-38.979,313.576-39.852,312.941-40.293z"/>
		<path fill="#D9686A" d="M235.316-48.243l-10.94,8.759c-0.604,0.483-0.703,1.365-0.218,1.97c0.483,0.604,1.365,0.702,1.969,0.218
			l10.94-8.758c0.604-0.484,0.702-1.366,0.218-1.97C236.802-48.629,235.92-48.727,235.316-48.243z"/>
	</g>
</g>
<g>
	<g>
		<polygon fill="#606161" points="367.677,-78.839 343.539,-54.701 367.677,-30.563 369.225,-32.111 346.635,-54.701 
			369.225,-77.291 		"/>
		<polygon fill="#606161" points="406.862,-78.84 405.314,-77.292 427.904,-54.702 405.314,-32.112 406.862,-30.564 431,-54.702 		
			"/>
	</g>
	<polygon fill="#A51E22" points="379.7,-15.84 377,-15.84 395,-87.84 397.7,-87.84 	"/>
</g>
<g>
	<g>
		<path fill="#BFBFBF" d="M62-106.34v15.833h57v-15.833H62z M117.417-92.09H63.583v-12.667h53.833V-92.09z"/>
		<path fill="#BFBFBF" d="M106.333-101.59H66.75v6.333h39.583V-101.59z M104.75-96.84H68.333v-3.167h36.417V-96.84z"/>
		<path fill="#BFBFBF" d="M62-69.779h57v-15.833H62V-69.779z M63.583-84.029h53.833v12.667H63.583V-84.029z"/>
		<path fill="#BFBFBF" d="M66.75-74.529h39.583v-6.333H66.75V-74.529z M68.333-79.28h36.417v3.167H68.333V-79.28z"/>
		<path fill="#BFBFBF" d="M62-49.052h57v-15.833H62V-49.052z M63.583-63.302h53.833v12.667H63.583V-63.302z"/>
		<path fill="#BFBFBF" d="M66.75-53.802h39.583v-6.333H66.75V-53.802z M68.333-58.552h36.417v3.167H68.333V-58.552z"/>
	</g>
	<g>
		<rect x="111.875" y="-101.59" fill="#E18F40" width="3.167" height="6.333"/>
		<rect x="111.875" y="-80.863" fill="#E18F40" width="3.167" height="6.333"/>
		<rect x="111.875" y="-60.136" fill="#E18F40" width="3.167" height="6.333"/>
	</g>
</g>
<g>
	<polygon fill="#BFBFBF" points="132,-138.84 132,-102.84 144,-102.84 144,-104.84 134,-104.84 134,-136.84 166,-136.84 
		166,-126.84 168,-126.84 168,-138.84 	"/>
	<path fill="#E18F40" d="M144-126.84v36h36v-36H144z M178-92.84h-32v-32h32V-92.84z"/>
</g>
<g>
	<path fill="#BFBFBF" d="M38-120.84H0c-3.313,0-6,2.687-6,6v38c0,3.313,2.687,6,6,6h38c3.313,0,6-2.687,6-6v-38
		C44-118.153,41.313-120.84,38-120.84z M42-76.84c0,2.209-1.791,4-4,4H0c-2.209,0-4-1.791-4-4v-38c0-2.209,1.791-4,4-4h38
		c2.209,0,4,1.791,4,4V-76.84z"/>
	<path fill="#E18F40" d="M20.295-80.84l-2.799-6.999l-5.682,2.435v-25.436L28-92.341l-5.144,2.205l2.852,7.131L20.295-80.84z
		 M18.56-90.41l2.818,7.044l1.804-0.723l-2.836-7.087l4.431-1.898l-11.021-12.594v17.317L18.56-90.41z"/>
</g>
<g>
	<path fill="#BFBFBF" d="M0-186.84v24h44v-24H0z M42-164.84H2v-20h40V-164.84z"/>
	<rect y="-158.84" fill="#BFBFBF" width="26" height="2"/>
	<rect y="-152.84" fill="#BFBFBF" width="20" height="2"/>
	<rect y="-146.84" fill="#BFBFBF" width="22" height="2"/>
	<path fill="#E18F40" d="M32-158.84v20h12v-20H32z M42-140.84h-8v-16h8V-140.84z"/>
	<rect y="-140.84" fill="#BFBFBF" width="26" height="2"/>
</g>
<g>
	<g>
		<path fill="#BFBFBF" d="M150-208.84h-26c-3.313,0-6,2.687-6,6v38c0,3.313,2.687,6,6,6h26c3.313,0,6-2.687,6-6v-38
			C156-206.153,153.313-208.84,150-208.84z M154-164.84c0,2.209-1.791,4-4,4h-26c-2.209,0-4-1.791-4-4v-38c0-2.209,1.791-4,4-4h26
			c2.209,0,4,1.791,4,4V-164.84z"/>
	</g>
	<polygon fill="#BFBFBF" points="130.566,-181.04 128.05,-183.478 126.95,-182.378 129.466,-179.94 130.566,-178.84 
		131.666,-179.94 140,-187.428 138.9,-188.528 	"/>
	<polygon fill="#BFBFBF" points="130.183,-167.939 127.667,-170.378 126.566,-169.278 129.083,-166.84 130.183,-165.74 
		131.282,-166.84 139.616,-174.328 138.516,-175.428 	"/>
	<polygon fill="#E18F40" points="130.183,-193.352 127.667,-195.79 126.566,-194.69 129.083,-192.252 130.183,-191.152 
		131.282,-192.252 139.616,-199.74 138.516,-200.84 	"/>
</g>
<path fill="#BFBFBF" d="M85-170.84c-13.807,0-25,11.193-25,25s11.193,25,25,25s25-11.193,25-25S98.807-170.84,85-170.84z M85-122.84
	c-12.703,0-23-10.297-23-23s10.297-23,23-23s23,10.297,23,23S97.703-122.84,85-122.84z"/>
<path fill="#E18F40" d="M102.81-134.751c2.01-3.221,3.19-7.013,3.19-11.089c0-11.598-9.402-21-21-21c-0.337,0-0.667,0.035-1,0.05
	v20.657L102.81-134.751z"/>
<g>
	<g>
		<path fill="#C1C1C0" d="M12.954,69.628v-1.619V56.674c-4.32,0-7.557-1.079-9.717-3.239c-0.432-1.401-0.784-2.915-1.052-4.533
			c-0.27-1.619-0.461-2.915-0.566-3.887v-1.294c4.316,0,7.555,1.081,9.716,3.237c1.076,2.161,1.619,5.4,1.619,9.716
			c0-5.396,0.538-9.174,1.618-11.334v8.095c0-0.863,0.35-1.887,1.052-3.077c0.703-1.186,1.43-1.781,2.188-1.781
			c0.971-0.971,2.13-1.724,3.481-2.267c1.349-0.538,2.454-0.863,3.319-0.97h1.295c0,4.317-1.08,7.557-3.237,9.716
			c-2.162,1.081-4.858,1.619-8.098,1.619v8.095c0-2.156,0.541-3.777,1.619-4.858c1.404-0.971,2.917-1.724,4.535-2.267
			c1.619-0.538,2.915-0.863,3.886-0.971h1.295c1.079,4.318,0,7.557-3.237,9.716c-0.648,1.293-2.08,2.348-4.292,3.156
			c-2.214,0.811-3.481,1.377-3.807,1.7v1.621c0-1.079-0.54-1.621-1.618-1.621c-4.32,0-7.557-1.076-9.717-3.238
			c-0.97-1.4-1.728-3.048-2.266-4.939C0.43,61.183,0.105,59.644,0,58.455v-1.781c4.315,0,7.555,1.081,9.714,3.237
			C11.873,62.072,12.954,65.312,12.954,69.628z M40.481,103.632c-1.513,4.533-4.209,7.772-8.097,9.716h-1.619
			c0-1.079-0.542-2.159-1.619-3.24c-2.161-4.315-4.32-7.555-6.477-9.716c-0.218,0-1,0.109-2.348,0.325
			c-1.353,0.217-2.835,0.322-4.454,0.322c-1.619,0-3.132-0.215-4.533-0.647c-1.944-0.971-3.591-2.401-4.939-4.29
			c-1.351-1.889-2.186-3.536-2.51-4.939l-0.648-2.106c4.318-1.076,8.636-1.076,12.954,0l3.24,3.239
			c-0.54-0.538-1.081-1.619-1.619-3.239c-0.543-1.619-1.081-2.697-1.621-3.238c-4.317,1.081-8.095,0-11.332-3.239
			c-1.406-0.971-2.51-2.267-3.321-3.885c-0.811-1.619-1.269-3.022-1.377-4.21L0,72.867c4.315-1.079,8.095-0.541,11.335,1.619
			c2.157,2.161,3.237,3.78,3.237,4.858v-4.858c0,0.433,0.268,1.322,0.811,2.671c0.538,1.353,0.808,2.62,0.808,3.806
			c0-2.159,1.078-4.316,3.24-6.477c0.971-1.401,2.267-2.644,3.888-3.725c1.619-1.078,3.019-1.781,4.208-2.104l1.621-0.648
			c1.076,5.398,0.538,9.716-1.621,12.954c-1.188,1.19-2.996,2.185-5.422,2.996c-2.429,0.81-3.861,1.432-4.292,1.862
			c0.538,1.081,1.349,2.97,2.429,5.667c1.076,2.702,1.887,4.59,2.43,5.668c0-0.215-0.11-0.997-0.325-2.347
			c-0.217-1.349-0.323-2.673-0.323-3.969c0-1.294,0.215-2.427,0.648-3.4c0.97-1.944,2.267-3.586,3.885-4.939
			c1.619-1.349,3.022-2.185,4.21-2.508l1.619-0.648c0.215,0.433,0.459,1.052,0.729,1.863c0.268,0.808,0.648,2.429,1.133,4.858
			c0.485,2.426,0.404,4.506-0.241,6.232c-1.406,2.161-3.106,3.78-5.102,4.858c-1.999,1.081-3.536,1.619-4.615,1.619l4.858,9.716
			c0-0.753-0.11-1.645-0.325-2.672c-0.218-1.024-0.323-1.941-0.323-2.752c0-0.81,0.215-1.7,0.648-2.672
			c0.43-1.941,1.456-3.723,3.077-5.343c1.618-1.619,3.129-2.752,4.533-3.4l2.104-0.971c0.108,0.218,0.271,0.459,0.487,0.729
			c0.216,0.27,0.538,0.917,0.972,1.941c0.43,1.027,0.752,2.025,0.97,2.996c0.215,0.973,0.296,2.133,0.244,3.481
			C41.479,101.179,41.129,102.446,40.481,103.632z M22.67,45.34c-0.973,0.432-1.999,0.647-3.078,0.647
			c-1.08,0-2.106-0.107-3.076-0.325c-0.971-0.215-1.619-0.322-1.944-0.322c-1.08,0-2.51-0.459-4.291-1.378
			c-1.781-0.915-3.051-2.077-3.804-3.48C6.044,39.51,5.693,38.351,5.425,37c-0.272-1.348-0.461-2.455-0.566-3.318v-1.295
			c4.315,0,7.015,1.081,8.095,3.237c0.43,0.433,0.782,1.052,1.052,1.862c0.268,0.811,0.459,1.485,0.566,2.025v0.971
			c0-2.159,0.541-4.316,1.619-6.477c-3.237,0-5.398-1.619-6.476-4.858c-0.433-0.971-0.648-2.13-0.648-3.481
			c0-1.348,0.107-2.453,0.324-3.318l0.324-1.295c3.239,1.081,5.398,3.237,6.476,6.477v4.858c0.431-0.756,0.811-1.621,1.135-2.592
			c0.324-0.971,0.646-1.752,0.971-2.348c0.323-0.593,0.7-1.105,1.133-1.538c-1.081,1.078-1.619,3.237-1.619,6.477
			c0-0.863,0.323-1.621,0.971-2.269c0.648-0.646,1.401-0.971,2.267-0.971c0.973-0.431,2.13-0.648,3.481-0.648
			c1.349,0,2.456,0.11,3.321,0.325l1.296,0.323c-1.081,3.24-2.699,5.398-4.858,6.477H16.19c0,0.542-0.27,1.621-0.808,3.24
			c-0.543,1.619-0.811,2.699-0.811,3.237c0.325-0.323,0.701-0.835,1.133-1.538c0.43-0.701,0.916-1.32,1.458-1.862
			c0.538-0.538,1.295-1.023,2.267-1.457c0.971-0.43,2.131-0.647,3.481-0.647c1.349,0,2.456,0.107,3.321,0.323l1.293,0.325
			C27.525,40.481,25.907,43.18,22.67,45.34z M21.049,103.632c3.888,1.296,7.125,4.533,9.716,9.716
			c-0.433,0.323-1.081,0.755-1.944,1.295c-0.865,0.541-2.429,1.107-4.696,1.7c-2.267,0.593-4.373,0.675-6.314,0.242
			c-1.943-0.971-3.725-2.267-5.343-3.885c-1.621-1.621-2.754-3.022-3.402-4.21l-0.971-1.618c0.431-0.325,1.078-0.755,1.944-1.296
			c0.863-0.54,2.429-1.107,4.696-1.699C17.001,103.283,19.107,103.202,21.049,103.632z M25.907,25.909
			c-0.97,0.433-1.862,0.646-2.67,0.646c-0.811,0-1.566-0.105-2.269-0.323c-0.703-0.215-1.215-0.323-1.538-0.323
			c-0.323-0.107-0.755-0.296-1.295-0.567c-0.541-0.27-1.27-0.973-2.186-2.106c-0.918-1.133-1.377-2.401-1.377-3.806
			c-0.432-0.971-0.648-1.995-0.648-3.075c0-1.079,0.108-1.889,0.326-2.429l0.322-0.973c3.24,1.08,4.858,2.701,4.858,4.858
			c0.431,0.433,0.648,1.052,0.648,1.862c0,0.811-0.11,1.7-0.325,2.673c-0.218,0.971-0.323,1.619-0.323,1.941
			c0.431-0.753,0.81-1.618,1.133-2.589c0.325-0.973,0.648-1.755,0.973-2.347c0.322-0.593,0.7-1.107,1.133-1.54
			c0,0.542-0.273,1.351-0.811,2.429c-0.542,1.081-0.81,1.892-0.81,2.43c0-1.079,1.079-1.619,3.239-1.619
			c0.971-0.431,1.997-0.648,3.077-0.648c1.076,0,1.887,0.107,2.429,0.323l0.971,0.325C29.685,24.288,28.065,25.909,25.907,25.909z
			 M38.86,111.728c0.43-1.941,1.322-3.857,2.673-5.748c1.348-1.886,2.616-3.318,3.806-4.292l1.618-1.295
			c0.43,0.432,0.997,1.109,1.7,2.025c0.701,0.917,1.511,2.646,2.428,5.181c0.917,2.539,1.158,4.995,0.729,7.368
			c-1.081,3.24-3.779,7.02-8.098,11.335l1.622,1.619h-1.622l-1.617-1.619c-0.972,0.972-2.915,2.025-5.829,3.158
			c-2.915,1.134-5.83,1.7-8.746,1.7c-1.941-0.431-3.861-1.458-5.747-3.077c-1.889-1.618-3.319-3.13-4.292-4.533l-1.296-2.106
			c4.318-3.237,9.176-4.857,14.575-4.857c0.538,0.542,1.619,1.081,3.24,1.621c1.618,0.541,2.697,1.079,3.237,1.619
			c-2.161-2.159-3.78-4.318-4.858-6.477c4.318,4.318,7.017,7.557,8.097,9.714C38.32,118.747,37.78,114.967,38.86,111.728z
			 M34.005,16.193c-1.081,2.161-2.702,3.237-4.858,3.237c-1.19,0-2.458-0.268-3.806-0.808c-1.351-0.541-2.242-0.811-2.67-0.811
			c0-0.538-0.542-1.348-1.621-2.429c-1.081-1.079-1.619-1.887-1.619-2.429c-0.433-1.076-0.54-2.104-0.323-3.077
			c0.216-0.971,0.591-1.781,1.133-2.427l0.809-0.973c2.159,1.081,3.239,2.7,3.239,4.858v3.239c2.159-2.159,3.237-3.777,3.237-4.858
			c0.54,0,1.349-0.268,2.429-0.811c1.079-0.539,1.889-0.811,2.429-0.811c0.973,0,1.996,0.139,3.077,0.407
			c1.078,0.27,1.889,0.566,2.429,0.889l0.971,0.325c-2.159,2.161-3.779,3.237-4.855,3.237c-0.973,0-1.863-0.134-2.673-0.404
			c-0.81-0.268-1.377-0.567-1.7-0.892l-0.485-0.323c-1.621,0-3.24,1.619-4.858,4.858l3.237-3.239c0.973,0,1.997,0.272,3.077,0.81
			c1.079,0.54,1.889,1.081,2.429,1.619L34.005,16.193z M30.765,4.858c0,3.237-1.081,4.858-3.24,4.858
			c-2.159-1.078-3.237-2.697-3.237-4.858c0-0.971,0.268-1.863,0.811-2.673c0.538-0.808,1.076-1.375,1.619-1.7L27.525,0
			C29.685,1.081,30.765,2.699,30.765,4.858z M263.937,111.728c0,5.4-0.54,9.177-1.616,11.334c1.076-2.157,3.773-5.396,8.096-9.714
			c-1.081,2.159-2.702,4.318-4.859,6.477c0.431-0.43,0.945-0.81,1.537-1.133c0.593-0.325,1.375-0.648,2.35-0.973
			c0.972-0.322,1.832-0.7,2.588-1.133c1.945,0,4.128,0.406,6.558,1.214c2.43,0.81,4.344,1.595,5.75,2.348l2.267,1.295
			c-0.325,0.648-0.839,1.433-1.537,2.349c-0.703,0.918-2.188,2.267-4.454,4.048c-2.266,1.78-4.59,2.89-6.962,3.32
			c-3.022,0-5.939-0.593-8.746-1.781s-4.208-2.212-4.208-3.077c-0.436,0.433-0.918,0.784-1.459,1.052
			c-0.54,0.271-0.97,0.462-1.295,0.567h-0.484c0-1.079,0.536-1.619,1.618-1.619c-0.11-0.104-0.567-0.538-1.375-1.295
			c-0.809-0.754-1.537-1.457-2.187-2.104c-0.646-0.647-1.349-1.403-2.104-2.269c-0.756-0.861-1.353-1.806-1.783-2.833
			c-0.431-1.023-0.646-1.968-0.646-2.833c-0.43-2.374-0.377-4.776,0.163-7.206c0.541-2.429,1.186-4.234,1.941-5.425l1.133-1.943
			C259.619,103.632,262.856,107.412,263.937,111.728z M263.937,90.679c4.317,2.161,7.556,5.398,9.717,9.714v8.097l-1.621,1.619v3.24
			c0-1.836,0.865-3.725,2.591-5.668c1.727-1.944,4.103-3.292,7.125-4.048c1.945-0.431,3.991-0.377,6.153,0.163
			c2.157,0.54,3.83,1.188,5.021,1.941l1.778,1.136c-2.161,4.318-5.397,7.557-9.715,9.714c-1.942,0.433-4.13,0.38-6.559-0.161
			c-2.424-0.54-4.344-1.188-5.745-1.943l-2.267-1.133c-5.183-2.592-8.421-5.831-9.716-9.716c-0.436-1.944-0.383-3.993,0.162-6.154
			c0.536-2.157,1.186-3.83,1.942-5.019L263.937,90.679z M268.794,12.954c-0.971,0-1.862-0.268-2.67-0.809
			c-0.808-0.54-1.378-1.078-1.7-1.621l-0.487-0.808c0.215-0.215,0.514-0.459,0.892-0.729c0.378-0.268,1.055-0.648,2.025-1.133
			c0.97-0.485,1.616-0.404,1.941,0.242c0.972,0,1.863,0.139,2.671,0.407c0.812,0.27,1.378,0.566,1.7,0.889l0.488,0.325
			c-1.081-2.159-1.621-3.778-1.621-4.858c0-0.971,0.268-1.863,0.812-2.673c0.536-0.808,1.076-1.375,1.617-1.7L275.274,0
			c1.076,1.081,1.616,2.699,1.616,4.858c0,0.97-0.136,1.862-0.404,2.67c-0.273,0.81-0.567,1.377-0.892,1.702l-0.32,0.486
			c0,1.081,1.076,2.699,3.237,4.858c-1.081-1.079-1.621-2.159-1.621-3.239c0.43-0.971,1.054-1.863,1.863-2.671
			c0.812-0.811,1.484-1.377,2.024-1.702l0.972-0.485c1.08,2.162,1.62,4.32,1.62,6.477c0,0.542-0.54,1.35-1.62,2.429
			c-1.082,1.081-1.617,1.891-1.617,2.429c0,0.433,0.269,1.052,0.809,1.862c0.54,0.811,0.809,1.81,0.809,2.996v-4.858
			c0.43-0.971,1.054-1.862,1.861-2.671c0.809-0.81,1.485-1.377,2.025-1.699l0.971-0.488c0.215,0.218,0.457,0.542,0.729,0.973
			c0.268,0.432,0.645,1.24,1.133,2.429c0.488,1.188,0.404,2.213-0.241,3.075c-0.435,0.973-1.055,1.863-1.863,2.673
			c-0.808,0.811-1.484,1.377-2.024,1.7l-0.971,0.485c0,1.081,0.268,2.429,0.808,4.048c0.541,1.621,0.81,2.971,0.81,4.05
			c0-1.188-0.269-2.456-0.81-3.806c-0.54-1.349-0.808-2.238-0.808-2.671c-0.325,0-0.971,0.107-1.946,0.323
			c-0.97,0.218-1.858,0.323-2.67,0.323c-0.809,0-1.433-0.213-1.863-0.646c-0.971-0.431-1.863-1.054-2.67-1.862
			c-0.809-0.811-1.375-1.483-1.7-2.025l-0.488-0.971c2.161-1.078,4.318-1.621,6.479-1.621l3.238,3.24
			c-0.541-0.538-1.082-1.349-1.617-2.43c-0.545-1.078-1.081-1.886-1.621-2.429c-2.161,1.081-3.781,1.619-4.857,1.619
			c-0.971-0.428-2-1.052-3.076-1.86c-1.08-0.81-1.893-1.484-2.428-2.025l-0.976-0.971c2.162-1.079,4.318-1.621,6.479-1.621
			c0.54,0.542,1.348,1.08,2.429,1.621c1.076,0.541,1.888,1.081,2.428,1.619c-0.65-0.648-1.27-1.32-1.862-2.025
			c-0.593-0.701-1.002-1.239-1.212-1.618c-0.22-0.378-0.462-0.672-0.729-0.892c-0.272-0.213-0.624-0.323-1.054-0.323
			C271.492,12.416,269.871,12.954,268.794,12.954z M280.132,97.155c0.535-1.078,1.349-2.967,2.429-5.668
			c1.076-2.697,1.885-4.585,2.426-5.667c0,0.541-0.269,1.619-0.81,3.238c-0.54,1.621-0.808,2.702-0.808,3.239
			c0-0.43,0.132-0.811,0.404-1.133c0.268-0.325,0.703-0.648,1.296-0.971c0.593-0.325,1.106-0.703,1.537-1.135
			c1.941-0.428,3.993-0.646,6.153-0.646c2.157,0,3.831,0.108,5.021,0.323l1.779,0.323c-1.08,5.4-3.777,9.178-8.096,11.335
			c-1.726,0.542-3.426,0.757-5.1,0.647c-1.673-0.105-3.131-0.375-4.374-0.808c-1.239-0.43-1.858-0.916-1.858-1.458
			c-2.161,2.162-4.322,5.401-6.479,9.716l4.857-9.716c-1.19,0-2.754-0.647-4.695-1.943c-1.946-1.293-3.62-3.345-5.021-6.152
			c-0.971-1.401-1.458-3.048-1.458-4.939c0-1.887,0.268-3.426,0.813-4.615l0.645-1.781c5.399,1.081,8.636,3.238,9.716,6.477
			c0.972,1.514,1.59,2.862,1.862,4.048c0.268,1.19,0.294,2.618,0.08,4.292C280.237,95.835,280.132,96.831,280.132,97.155z
			 M297.943,82.582c-1.406,1.405-3.053,2.376-4.942,2.914c-1.888,0.542-3.425,0.758-4.611,0.648l-1.783-0.323h-1.62
			c-0.756-0.325-1.779-0.7-3.076-1.133c-1.295-0.431-2.485-0.916-3.561-1.458c-1.082-0.538-2.105-1.296-3.075-2.267
			c-0.975-1.401-1.594-3.183-1.863-5.344c-0.272-2.159-0.298-3.94-0.083-5.344l0.326-2.267c4.317,1.081,7.555,2.7,9.716,4.858
			c0.325,0.54,0.729,1.241,1.212,2.104c0.488,0.866,0.835,1.54,1.055,2.025c0.215,0.485,0.431,1.08,0.646,1.781
			c0.215,0.703,0.325,1.432,0.325,2.186c0-3.238,0.54-5.396,1.621-6.477c0,1.081-0.273,2.699-0.813,4.858
			c-0.54,2.162-0.808,3.78-0.808,4.858c0-0.973,0.431-2.456,1.296-4.454c0.86-1.996,2.051-3.749,3.562-5.262
			c1.402-0.971,3.049-1.592,4.938-1.862c1.889-0.268,3.426-0.297,4.616-0.082l1.783,0.325
			C302.801,77.185,301.181,80.425,297.943,82.582z M281.749,29.146c0.864,0,1.62,0.325,2.266,0.971
			c0.649,0.648,0.972,1.406,0.972,2.269c0-2.159,0.54-4.318,1.62-6.477c0.431-0.973,1.054-1.862,1.862-2.673
			c0.809-0.81,1.484-1.377,2.025-1.7l0.97-0.485c0.216,0.322,0.457,0.784,0.729,1.375c0.269,0.595,0.646,1.675,1.134,3.239
			c0.487,1.566,0.403,2.728-0.241,3.481c-0.436,0.971-1.19,1.862-2.267,2.673c-1.081,0.808-2.057,1.375-2.917,1.7l-1.296,0.486
			c-1.08,1.08-3.777,1.618-8.096,1.618c-0.971-0.43-1.862-1.186-2.67-2.267c-0.813-1.078-1.379-2.049-1.7-2.915l-0.487-1.295
			C276.89,28.068,279.587,28.068,281.749,29.146z M283.369,37.244l4.858,4.856c-1.081-1.076-1.621-3.778-1.621-8.095
			c0,1.188,0.268,2.457,0.808,3.806c0.54,1.351,0.813,2.24,0.813,2.671c0-2.159,0.535-3.778,1.616-4.858
			c0.43-0.971,1.19-1.862,2.267-2.67c1.08-0.811,2.052-1.377,2.916-1.7l1.297-0.488c1.076,4.32,1.076,7.557,0,9.716
			c-3.237,3.239-5.939,4.858-8.096,4.858c-0.221,0-0.787,0.055-1.7,0.162c-0.918,0.108-1.73,0.188-2.43,0.242
			c-0.702,0.057-1.458-0.082-2.267-0.404c-0.812-0.325-1.378-0.863-1.699-1.619c-1.405-0.43-2.512-1.188-3.321-2.269
			c-0.808-1.077-1.27-2.049-1.375-2.914l-0.163-1.294C278.511,36.166,281.208,36.166,283.369,37.244z M284.986,48.577
			c0.754,0,1.483,0.595,2.187,1.781c0.703,1.19,1.055,2.214,1.055,3.077V45.34c0,1.08,0.269,2.699,0.809,4.857
			c0.54,2.161,0.808,3.78,0.808,4.858v1.619c0-4.316,0.54-7.555,1.62-9.716c0.971-0.971,2.132-1.724,3.483-2.267
			c1.35-0.538,2.452-0.863,3.316-0.971h1.296c1.081,3.237,0.541,6.477-1.616,9.714c-0.976,0.973-2.134,1.728-3.483,2.269
			c-1.353,0.54-2.456,0.863-3.32,0.971h-1.296c0,5.398-0.54,9.176-1.616,11.334v1.619c-4.317,0-7.561-1.078-9.717-3.237
			c-0.971-0.973-1.727-2.269-2.267-3.887c-0.54-1.619-0.865-3.02-0.97-4.21v-1.619c4.313,0,7.555,1.081,9.712,3.237
			c2.16,2.161,3.241,3.782,3.241,4.858v-8.095c-3.241,0-5.939-0.538-8.096-1.619c-1.405-0.973-2.512-2.269-3.321-3.887
			c-0.808-1.619-1.27-3.02-1.375-4.21l-0.163-1.618C279.587,45.34,282.829,46.42,284.986,48.577z M299.56,66.391
			c-1.401,1.403-3.049,2.374-4.937,2.915c-1.89,0.54-3.431,0.755-4.617,0.648l-1.778-0.325c0-0.971,0.43-2.454,1.296-4.452
			c0.86-1.997,2.047-3.751,3.562-5.265c0.971-0.971,2.267-1.724,3.882-2.267c1.622-0.538,3.022-0.863,4.213-0.971h1.62
			C302.801,60.992,301.721,64.231,299.56,66.391z"/>
	</g>
	<g>
		<path fill="#936627" d="M56.6,58.473c0-1.147-0.062-4.93-0.093-5.426c-0.093-1.798-0.589-1.86-1.612-1.86h-0.992
			c-0.217,0-0.217-0.031-0.217-0.279v-0.713c0-0.186,0.031-0.279,0.248-0.279c0.403,0,1.892,0.093,4.837,0.093
			c0.992,0,2.853-0.093,4.961-0.093c2.232,0,4.217,0.217,5.302,0.837c1.768,0.961,2.388,2.388,2.388,4.217
			c0,2.046-1.24,4.031-4.527,5.116v0.062c3.845,0.992,5.86,2.853,5.86,6.14c0,1.674-0.93,3.969-2.418,4.713
			c-1.271,0.651-3.442,1.147-7.287,1.147c-0.279,0-1.085-0.062-1.954-0.093c-0.899-0.062-1.86-0.093-2.449-0.093
			c-1.55,0-2.573,0.031-3.256,0.031c-0.651,0.031-0.992,0.062-1.209,0.062c-0.31,0-0.341-0.093-0.341-0.341V71.03
			c0-0.186,0.031-0.248,0.31-0.248h1.085c0.93,0,1.085-0.372,1.209-1.302c0.093-0.713,0.155-4.806,0.155-7.349V58.473z
			 M61.127,59.744c1.271,0.124,3.256-0.062,4.155-0.868c1.023-0.899,1.488-2.294,1.488-3.659c0-1.178-0.372-2.418-1.271-3.132
			c-1.055-0.837-2.574-1.116-2.915-1.116c-0.651,0-1.333,0.031-1.364,0.527c-0.062,0.62-0.093,3.317-0.093,5.891V59.744z
			 M61.127,66.937c0,2.946,0.682,4.155,2.325,4.155c2.202,0,4.279-1.085,4.279-4.961c0-2.512-1.116-4.155-2.791-4.806
			c-1.55-0.589-3.038-0.527-3.813-0.527V66.937z"/>
		<path fill="#936627" d="M79.075,64.239v0.837c0,3.225,1.829,4.806,4.093,4.806c1.52,0,2.76-0.713,3.38-1.706
			c0.062-0.155,0.186-0.186,0.31-0.093l0.527,0.279c0.124,0.062,0.217,0.217-0.062,0.744c-0.558,1.147-2.574,3.287-5.488,3.287
			c-1.984,0-3.628-0.341-4.651-1.458c-1.581-1.705-2.108-2.914-2.139-5.333c0-0.868,0-2.511,1.395-4.558
			c1.116-1.644,3.008-2.542,5.396-2.542c5.022,0,5.302,4.806,5.302,5.302c0,0.403-0.279,0.434-0.961,0.434H79.075z M82.083,63.062
			c0.682,0,0.992-0.155,0.992-0.62c0-1.364-0.559-2.698-1.52-2.698c-1.457,0-2.232,1.147-2.449,3.318H82.083z"/>
		<path fill="#936627" d="M98.699,62.038c0.031,0.155,0,0.217-0.124,0.279l-0.558,0.248c-0.093,0.062-0.186,0.031-0.31-0.093
			l-1.736-1.86c-0.403-0.403-0.992-0.899-1.922-0.899s-1.829,0.62-1.829,1.674c0.062,1.085,0.434,1.396,2.729,2.016
			c1.519,0.403,2.263,0.62,3.193,1.612c0.806,0.806,0.992,1.55,0.992,2.636c0,2.759-2.17,4.744-5.55,4.744
			c-1.736,0-3.256-0.62-3.628-0.899c-0.124-0.093-0.155-0.217-0.186-0.403l-0.403-2.977c0-0.155,0.093-0.217,0.217-0.248
			l0.558-0.155c0.093-0.031,0.155,0,0.217,0.124l1.24,1.83c0.558,0.806,1.271,1.582,2.697,1.582c1.147,0,1.829-0.807,1.829-1.892
			c0-1.24-0.899-1.644-2.914-2.264c-2.202-0.651-3.783-1.705-3.783-3.938c0-1.457,0.435-2.667,1.612-3.535
			c1.24-0.899,2.108-1.116,3.411-1.116c1.674,0,2.697,0.372,3.255,0.651c0.465,0.217,0.527,0.372,0.558,0.589L98.699,62.038z"/>
		<path fill="#936627" d="M106.603,67.433c0,2.542,0.961,3.101,1.706,3.101c0.651,0,1.116-0.093,1.612-0.372
			c0.093-0.062,0.186-0.062,0.279,0.124l0.217,0.465c0.093,0.155,0,0.31-0.124,0.403c-0.527,0.372-1.922,1.24-4.341,1.24
			c-2.108,0-3.442-1.458-3.442-2.883c0-1.085,0.062-3.442,0.062-4.62l0.031-4.093h-1.706c-0.279,0-0.496-0.124-0.496-0.434
			s0.187-0.527,0.683-0.775c1.023-0.465,3.627-2.791,4.774-4.093c0.217-0.248,0.435-0.311,0.589-0.311
			c0.279,0,0.403,0.217,0.403,0.465l-0.124,3.287h3.938c0.186,0,0.279,0.155,0.217,0.279l-0.311,1.333
			c-0.031,0.124-0.093,0.248-0.279,0.248h-3.627c-0.062,1.271-0.062,2.76-0.062,4.186V67.433z"/>
		<path fill="#936627" d="M137.295,62.938c0-2.76-0.031-4.279-0.093-5.829c-0.031-1.209-0.187-4.248-0.279-4.713
			c-0.186-0.775-0.93-1.209-1.644-1.209h-0.992c-0.155,0-0.186-0.093-0.186-0.279v-0.775c0-0.155,0.031-0.217,0.279-0.217
			c0.341,0,1.333,0.093,3.627,0.093c1.86,0,2.604-0.093,2.946-0.093c0.279,0,0.31,0.062,0.31,0.248v0.744
			c0,0.155-0.031,0.279-0.155,0.279h-0.868c-0.527,0-0.837,0.527-0.93,1.643c-0.217,2.078-0.713,9.085-0.713,13.178v5.302
			c0,0.465-0.031,1.023-0.465,1.023c-0.465,0-0.868-0.155-1.209-0.496c-0.527-0.496-2.046-2.14-3.907-4.341
			c-2.232-2.636-4.713-5.612-5.302-6.294c-0.527-0.62-4.806-5.953-5.519-6.977h-0.248v6.263c0,2.574,0.279,6.387,0.31,7.565
			c0.062,1.798,0.62,2.729,1.923,2.729h0.775c0.217,0,0.248,0.093,0.248,0.279v0.744c0,0.187-0.031,0.248-0.248,0.248
			c-0.31,0-2.17-0.093-3.627-0.093c-0.961,0-3.101,0.093-3.411,0.093c-0.124,0-0.155-0.062-0.155-0.279v-0.806
			c0-0.093,0.031-0.186,0.186-0.186h1.085c0.683,0,1.179-0.992,1.333-3.07c0.031-0.589,0.279-5.55,0.279-10.139v-2.791
			c0-1.83-1.116-3.566-2.666-3.597l-0.775-0.031c-0.155,0-0.186-0.124-0.186-0.217v-0.837c0-0.124,0.031-0.186,0.186-0.186
			s0.403,0.031,0.992,0.031c0.62,0.031,1.612,0.062,3.225,0.062c1.054,0,1.984-0.062,2.356-0.062c0.403,0,0.651,0.124,0.899,0.403
			c0.155,0.187,6.263,7.659,7.193,8.806c0.434,0.527,4.961,6.201,5.302,6.604h0.124V62.938z"/>
		<path fill="#936627" d="M146.654,64.239v0.837c0,3.225,1.83,4.806,4.093,4.806c1.519,0,2.759-0.713,3.379-1.706
			c0.062-0.155,0.187-0.186,0.311-0.093l0.527,0.279c0.124,0.062,0.217,0.217-0.062,0.744c-0.558,1.147-2.573,3.287-5.488,3.287
			c-1.984,0-3.627-0.341-4.65-1.458c-1.582-1.705-2.108-2.914-2.14-5.333c0-0.868,0-2.511,1.396-4.558
			c1.116-1.644,3.007-2.542,5.395-2.542c5.023,0,5.302,4.806,5.302,5.302c0,0.403-0.279,0.434-0.961,0.434H146.654z M149.661,63.062
			c0.683,0,0.992-0.155,0.992-0.62c0-1.364-0.558-2.698-1.519-2.698c-1.458,0-2.232,1.147-2.45,3.318H149.661z"/>
		<path fill="#936627" d="M155.425,59.093c0-0.155,0.031-0.248,0.186-0.248c0.434,0,1.054,0.093,3.689,0.093
			c1.551,0,2.295-0.093,2.76-0.093c0.186,0,0.248,0.062,0.248,0.248v0.682c0,0.155-0.031,0.248-0.248,0.248h-0.403
			c-0.279,0-0.403,0.279-0.279,0.713l2.108,6.418h0.186l1.892-4.837c0.155-0.435,0.031-1.427-0.279-1.83
			c-0.186-0.248-0.527-0.279-0.806-0.279h-0.217c-0.186,0-0.248-0.093-0.248-0.248v-0.683c0-0.186,0.093-0.248,0.279-0.248
			c0.248,0,1.24,0.093,3.193,0.093c1.799,0,2.48-0.093,2.729-0.093c0.217,0,0.279,0.062,0.279,0.187v0.682
			c0,0.155-0.031,0.311-0.186,0.311h-0.434c-0.248,0-0.527,0.31-0.403,0.682l2.202,6.108h0.124l1.674-4.713
			c0.589-1.612,0.155-2.264-0.682-2.264h-0.434c-0.155,0-0.186-0.093-0.186-0.248v-0.713c0-0.155,0.093-0.217,0.217-0.217
			c0.186,0,1.116,0.093,2.853,0.093c1.333,0,1.891-0.093,2.263-0.093c0.155,0,0.217,0.093,0.217,0.279v0.651
			c0,0.155-0.062,0.248-0.217,0.248h-0.31c-0.496,0-1.054,0.187-1.271,0.651c-0.248,0.527-4.278,10.263-4.774,11.348
			c-0.155,0.341-0.465,0.403-0.713,0.403c-0.341,0-0.465-0.217-0.682-0.744l-3.132-7.968h-0.186l-3.473,8.216
			c-0.155,0.341-0.435,0.496-0.744,0.496c-0.311,0-0.465-0.248-0.62-0.62L157.1,60.86c-0.248-0.62-0.713-0.837-1.085-0.837h-0.372
			c-0.187,0-0.217-0.093-0.217-0.279V59.093z"/>
		<path fill="#936627" d="M189.371,63.464c-0.248,0.651-1.767,4.899-1.767,5.891c0,0.682,0.279,1.426,1.209,1.426h1.085
			c0.31,0,0.341,0.124,0.341,0.248v0.682c0,0.248-0.031,0.341-0.279,0.341c-0.403,0-1.674-0.093-4.217-0.093
			c-2.263,0-2.946,0.093-3.379,0.093c-0.187,0-0.217-0.186-0.217-0.403v-0.589c0-0.186,0.031-0.279,0.217-0.279h0.806
			c0.744,0,1.488-0.434,2.108-1.364c0.435-0.651,2.636-6.046,3.659-8.775c0.248-0.62,2.759-7.286,3.038-8.123
			c0.093-0.311,0.248-0.713,0.031-1.055c-0.093-0.124-0.217-0.279-0.217-0.403c0-0.093,0.062-0.217,0.31-0.279
			c0.992-0.217,3.008-1.023,3.473-1.551c0.155-0.155,0.248-0.279,0.403-0.279c0.186,0,0.248,0.186,0.341,0.527
			c0.589,1.954,3.008,8.899,3.597,10.883c0.713,2.418,2.729,8.186,3.163,9.023c0.527,1.023,1.333,1.395,1.798,1.395h1.055
			c0.186,0,0.217,0.124,0.217,0.279v0.589c0,0.186-0.031,0.403-0.279,0.403c-0.589,0-1.24-0.093-5.209-0.093
			c-2.573,0-3.658,0.093-4.278,0.093c-0.311,0-0.341-0.186-0.341-0.403v-0.589c0-0.155,0.031-0.279,0.186-0.279h0.868
			c0.837,0,1.116-0.31,0.93-1.116c-0.279-1.116-1.488-5.085-1.86-6.201H189.371z M195.883,62.224
			c-0.279-0.93-2.108-7.441-2.326-8.216c-0.124-0.465-0.186-0.683-0.341-0.683c-0.186,0-0.279,0.124-0.372,0.403
			c-0.155,0.403-2.821,7.721-3.069,8.496H195.883z"/>
		<path fill="#936627" d="M208.156,63.682c0-1.055-0.093-1.52-1.023-2.016l-0.713-0.372c-0.155-0.093-0.217-0.155-0.217-0.279
			v-0.403c0-0.093,0.062-0.155,0.217-0.217l4.031-1.581c0.403-0.155,0.682-0.31,0.961-0.31c0.186,0,0.279,0.217,0.372,0.651
			l0.217,1.147h0.124c0.775-0.961,2.388-1.798,3.938-1.798c1.675,0,2.822,0.465,3.845,1.582c1.303,1.426,1.736,2.511,1.675,4.31
			c0.031,4.713-3.132,8-7.069,8c-0.527,0-1.52-0.031-2.326-0.496l0.031,4.744c0.031,2.512,0.341,2.667,1.085,2.667h0.775
			c0.248,0,0.279,0.124,0.279,0.31v0.589c0,0.186-0.062,0.279-0.279,0.279c-0.155,0-1.209-0.093-3.969-0.093
			c-2.263,0-3.349,0.093-3.597,0.093c-0.217,0-0.279-0.093-0.279-0.31v-0.62c0-0.155,0.062-0.248,0.372-0.248h0.713
			c0.527,0,0.744-0.311,0.806-0.807c0.062-0.682,0.062-1.612,0.062-3.379L208.156,63.682z M212.187,68.673
			c0,0.496,0.217,1.302,0.837,1.798c0.465,0.372,1.116,0.713,1.86,0.713c1.302,0,2.449-1.147,2.449-4.124
			c0-1.954-0.217-6.418-3.225-6.418c-0.589,0-1.426,0.248-1.922,0.837V68.673z"/>
		<path fill="#936627" d="M224.865,63.682c0-1.055-0.093-1.52-1.023-2.016l-0.713-0.372c-0.155-0.093-0.217-0.155-0.217-0.279
			v-0.403c0-0.093,0.062-0.155,0.217-0.217l4.031-1.581c0.403-0.155,0.682-0.31,0.961-0.31c0.187,0,0.279,0.217,0.372,0.651
			l0.217,1.147h0.124c0.775-0.961,2.387-1.798,3.938-1.798c1.674,0,2.821,0.465,3.845,1.582c1.302,1.426,1.736,2.511,1.674,4.31
			c0.031,4.713-3.131,8-7.069,8c-0.527,0-1.519-0.031-2.325-0.496l0.031,4.744c0.031,2.512,0.341,2.667,1.085,2.667h0.775
			c0.248,0,0.279,0.124,0.279,0.31v0.589c0,0.186-0.062,0.279-0.279,0.279c-0.155,0-1.209-0.093-3.969-0.093
			c-2.264,0-3.349,0.093-3.597,0.093c-0.217,0-0.279-0.093-0.279-0.31v-0.62c0-0.155,0.062-0.248,0.372-0.248h0.713
			c0.527,0,0.744-0.311,0.807-0.807c0.062-0.682,0.062-1.612,0.062-3.379L224.865,63.682z M228.896,68.673
			c0,0.496,0.217,1.302,0.837,1.798c0.465,0.372,1.116,0.713,1.86,0.713c1.303,0,2.45-1.147,2.45-4.124
			c0-1.954-0.217-6.418-3.225-6.418c-0.589,0-1.426,0.248-1.922,0.837V68.673z"/>
		<path fill="#936627" d="M249.821,62.038c0.031,0.155,0,0.217-0.124,0.279l-0.558,0.248c-0.093,0.062-0.186,0.031-0.31-0.093
			l-1.736-1.86c-0.403-0.403-0.992-0.899-1.922-0.899s-1.829,0.62-1.829,1.674c0.062,1.085,0.434,1.396,2.729,2.016
			c1.519,0.403,2.263,0.62,3.193,1.612c0.806,0.806,0.992,1.55,0.992,2.636c0,2.759-2.17,4.744-5.55,4.744
			c-1.736,0-3.256-0.62-3.628-0.899c-0.124-0.093-0.155-0.217-0.186-0.403l-0.403-2.977c0-0.155,0.093-0.217,0.217-0.248
			l0.558-0.155c0.093-0.031,0.155,0,0.217,0.124l1.24,1.83c0.558,0.806,1.271,1.582,2.697,1.582c1.147,0,1.829-0.807,1.829-1.892
			c0-1.24-0.899-1.644-2.914-2.264c-2.202-0.651-3.783-1.705-3.783-3.938c0-1.457,0.435-2.667,1.612-3.535
			c1.24-0.899,2.108-1.116,3.411-1.116c1.674,0,2.697,0.372,3.255,0.651c0.465,0.217,0.527,0.372,0.558,0.589L249.821,62.038z"/>
	</g>
	<path fill="#777777" d="M122.293,29.23h5.085v1.023h-3.866v3.137h3.572v1.009h-3.572v4.272h-1.219V29.23z"/>
	<path fill="#777777" d="M134,34.246h-3.67v3.403h4.09v1.022h-5.309V29.23h5.099v1.023h-3.88v2.982H134V34.246z"/>
	<path fill="#777777" d="M137.526,35.702l-0.98,2.97h-1.261l3.208-9.441h1.471l3.222,9.441h-1.303l-1.008-2.97H137.526z
		 M140.622,34.75l-0.924-2.718c-0.21-0.616-0.35-1.177-0.49-1.723h-0.028c-0.14,0.56-0.294,1.134-0.476,1.708l-0.924,2.732H140.622z
		"/>
	<path fill="#777777" d="M145.282,30.268h-2.872V29.23h6.99v1.037h-2.885v8.404h-1.233V30.268z"/>
	<path fill="#777777" d="M151.666,29.23v5.59c0,2.115,0.938,3.012,2.199,3.012c1.401,0,2.297-0.926,2.297-3.012v-5.59h1.232v5.506
		c0,2.898-1.527,4.09-3.572,4.09c-1.933,0-3.39-1.107-3.39-4.034V29.23H151.666z"/>
	<path fill="#777777" d="M159.505,29.357c0.617-0.127,1.499-0.197,2.339-0.197c1.303,0,2.143,0.238,2.731,0.771
		c0.477,0.42,0.743,1.064,0.743,1.793c0,1.246-0.785,2.072-1.779,2.408v0.043c0.729,0.252,1.163,0.924,1.387,1.904
		c0.308,1.316,0.532,2.228,0.729,2.592h-1.261c-0.154-0.266-0.364-1.078-0.63-2.256c-0.28-1.303-0.784-1.793-1.891-1.834h-1.148
		v4.09h-1.219V29.357z M160.724,33.657h1.247c1.303,0,2.129-0.714,2.129-1.793c0-1.219-0.883-1.751-2.171-1.765
		c-0.588,0-1.008,0.056-1.205,0.111V33.657z"/>
	<path fill="#777777" d="M171.926,34.246h-3.67v3.403h4.09v1.022h-5.309V29.23h5.099v1.023h-3.88v2.982h3.67V34.246z"/>
	<path fill="#777777" d="M173.925,29.357c0.743-0.113,1.625-0.197,2.591-0.197c1.751,0,2.998,0.406,3.824,1.178
		c0.84,0.77,1.331,1.862,1.331,3.389c0,1.541-0.476,2.803-1.358,3.67c-0.883,0.883-2.339,1.359-4.174,1.359
		c-0.869,0-1.597-0.042-2.213-0.111V29.357z M175.144,37.705c0.308,0.057,0.756,0.07,1.233,0.07c2.605,0,4.02-1.457,4.02-4.006
		c0.014-2.228-1.247-3.643-3.824-3.643c-0.63,0-1.106,0.057-1.429,0.127V37.705z"/>
</g>
</svg>
