<?xml version="1.0" encoding="utf-8"?>
<!-- Generator: Adobe Illustrator 16.0.0, SVG Export Plug-In . SVG Version: 6.00 Build 0)  -->
<!DOCTYPE svg PUBLIC "-//W3C//DTD SVG 1.1//EN" "http://www.w3.org/Graphics/SVG/1.1/DTD/svg11.dtd">
<svg version="1.1" id="Layer_1" xmlns="http://www.w3.org/2000/svg" xmlns:xlink="http://www.w3.org/1999/xlink" x="0px" y="0px"
	 width="130px" height="130px" viewBox="0 0 130 130" enable-background="new 0 0 130 130" xml:space="preserve">
<path fill="#AF9631" d="M107.92,46.535c0-6.988-6.341-12.232-12.652-12.653c-18.98-1.265-20.668,3.796-30.791,3.796
	c-10.123,0-14.762-4.64-32.477-3.796c-8.468,0.404-12.653,5.665-12.653,12.653l-8.014,37.96c0,6.987,3.375,13.075,12.653,12.653
	c9.279-0.422,10.544-20.666,25.307-23.198c15.994-2.741,21.611-1.222,28.839,0.001c15.804,2.672,14.604,24.04,25.57,23.197
	c10.967-0.844,12.653-5.666,12.653-12.653L107.92,46.535z M28.836,47.379c0-3.028,2.454-5.483,5.482-5.483
	c3.028,0,5.484,2.455,5.484,5.483c0,3.027-2.456,5.482-5.484,5.482C31.29,52.861,28.836,50.406,28.836,47.379z M45.707,68.678
	c-4.193,0-7.592-3.396-7.592-7.591c0-4.194,3.399-7.593,7.592-7.593s7.593,3.399,7.593,7.593C53.3,65.281,49.9,68.678,45.707,68.678
	z M90.627,36.624c2.213,0,4.007,1.795,4.007,4.007c0,2.213-1.794,4.007-4.007,4.007s-4.007-1.794-4.007-4.007
	C86.62,38.419,88.414,36.624,90.627,36.624z M78.395,68.046c-3.027,0-5.481-2.455-5.481-5.483c0-3.027,2.454-5.483,5.481-5.483
	c3.028,0,5.484,2.456,5.484,5.483C83.879,65.591,81.423,68.046,78.395,68.046z M83.035,52.018c-2.213,0-4.006-1.793-4.006-4.007
	c0-2.212,1.793-4.006,4.006-4.006s4.007,1.794,4.007,4.006C87.042,50.225,85.248,52.018,83.035,52.018z M90.627,59.61
	c-2.213,0-4.007-1.794-4.007-4.007s1.794-4.006,4.007-4.006s4.007,1.793,4.007,4.006S92.84,59.61,90.627,59.61z M98.219,52.229
	c-2.213,0-4.007-1.794-4.007-4.007c0-2.212,1.794-4.007,4.007-4.007s4.008,1.795,4.008,4.007
	C102.227,50.436,100.432,52.229,98.219,52.229z"/>
</svg>
