<?xml version="1.0" encoding="UTF-8"?>
<svg width="111px" height="111px" viewBox="0 0 111 111" version="1.1" xmlns="http://www.w3.org/2000/svg" xmlns:xlink="http://www.w3.org/1999/xlink">
    <!-- Generator: Sketch 41.1 (35376) - http://www.bohemiancoding.com/sketch -->
    <title>heading_accent_dark</title>
    <desc>Created with Sketch.</desc>
    <defs>
        <rect id="path-1" x="17" y="17" width="79" height="79" rx="2"></rect>
        <mask id="mask-2" maskContentUnits="userSpaceOnUse" maskUnits="objectBoundingBox" x="0" y="0" width="79" height="79" fill="white">
            <use xlink:href="#path-1"></use>
        </mask>
        <rect id="path-3" x="17" y="17" width="79" height="79" rx="2"></rect>
        <mask id="mask-4" maskContentUnits="userSpaceOnUse" maskUnits="objectBoundingBox" x="0" y="0" width="79" height="79" fill="white">
            <use xlink:href="#path-3"></use>
        </mask>
        <rect id="path-5" x="17" y="17" width="79" height="79" rx="2"></rect>
        <mask id="mask-6" maskContentUnits="userSpaceOnUse" maskUnits="objectBoundingBox" x="0" y="0" width="79" height="79" fill="white">
            <use xlink:href="#path-5"></use>
        </mask>
        <rect id="path-7" x="17" y="17" width="79" height="79" rx="2"></rect>
        <mask id="mask-8" maskContentUnits="userSpaceOnUse" maskUnits="objectBoundingBox" x="0" y="0" width="79" height="79" fill="white">
            <use xlink:href="#path-7"></use>
        </mask>
        <rect id="path-9" x="17" y="17" width="79" height="79" rx="2"></rect>
        <mask id="mask-10" maskContentUnits="userSpaceOnUse" maskUnits="objectBoundingBox" x="0" y="0" width="79" height="79" fill="white">
            <use xlink:href="#path-9"></use>
        </mask>
        <rect id="path-11" x="17" y="17" width="79" height="79" rx="2"></rect>
        <mask id="mask-12" maskContentUnits="userSpaceOnUse" maskUnits="objectBoundingBox" x="0" y="0" width="79" height="79" fill="white">
            <use xlink:href="#path-11"></use>
        </mask>
    </defs>
    <g id="Page-1" stroke="none" stroke-width="1" fill="none" fill-rule="evenodd">
        <g id="heading_accent_dark" transform="translate(-1.000000, -1.000000)" stroke="#E1E1E1" stroke-width="2">
            <use id="Rectangle" mask="url(#mask-2)" xlink:href="#path-1"></use>
            <use id="Rectangle" mask="url(#mask-4)" transform="translate(56.500000, 56.500000) rotate(-345.000000) translate(-56.500000, -56.500000) " xlink:href="#path-3"></use>
            <use id="Rectangle" mask="url(#mask-6)" transform="translate(56.500000, 56.500000) rotate(-330.000000) translate(-56.500000, -56.500000) " xlink:href="#path-5"></use>
            <use id="Rectangle" mask="url(#mask-8)" transform="translate(56.500000, 56.500000) rotate(-315.000000) translate(-56.500000, -56.500000) " xlink:href="#path-7"></use>
            <use id="Rectangle" mask="url(#mask-10)" transform="translate(56.500000, 56.500000) rotate(-300.000000) translate(-56.500000, -56.500000) " xlink:href="#path-9"></use>
            <use id="Rectangle" mask="url(#mask-12)" transform="translate(56.500000, 56.500000) rotate(-285.000000) translate(-56.500000, -56.500000) " xlink:href="#path-11"></use>
        </g>
    </g>
</svg>