<?xml version="1.0" encoding="utf-8"?>
<!-- Generator: Adobe Illustrator 16.0.0, SVG Export Plug-In . SVG Version: 6.00 Build 0)  -->
<!DOCTYPE svg PUBLIC "-//W3C//DTD SVG 1.1//EN" "http://www.w3.org/Graphics/SVG/1.1/DTD/svg11.dtd">
<svg version="1.1" id="Layer_1" xmlns="http://www.w3.org/2000/svg" xmlns:xlink="http://www.w3.org/1999/xlink" x="0px" y="0px"
	 width="131.75px" height="122.165px" viewBox="0 0 131.75 122.165" enable-background="new 0 0 131.75 122.165"
	 xml:space="preserve">
<path fill="#89162A" d="M57.958,122.165c-1.985,0-3.775-1.251-4.455-3.112c-0.646-1.768-0.115-3.707,1.351-4.941
	c1.257-1.059,2.519-2.111,3.784-3.16c-7.92-9.933-17.834-19.485-30.207-29.119C18.879,74.396,8.052,65.968,2.772,53.489
	c-3.987-9.42-4.128-25.867,2.595-36.013c3.916-5.908,9.625-9.03,16.511-9.03l0.277,0.002c8.953,0.108,17.066,4.654,22.389,8.063
	c4.781,3.062,9.469,6.664,13.981,10.738c2.626-4.244,6.04-8.353,10.19-12.259C74.753,9.31,80.542,5.299,86.418,2.729
	C90.556,0.918,94.765,0,98.926,0c7.375,0,13.968,2.87,19.066,8.3c7.167,7.631,12.353,18.962,13.536,29.572
	c1.127,10.124-2.067,19.946-9.495,29.192c-8.194,10.2-18.405,18.76-28.28,27.037l-0.902,0.756
	c-5.105,4.282-10.354,8.545-15.43,12.667c-2.365,1.921-4.73,3.843-7.09,5.771c-0.07,0.438-0.209,0.868-0.416,1.275
	c-0.787,1.552-2.449,2.555-4.234,2.555l0,0c-0.002,0-0.004,0-0.005,0c-1.577,1.304-3.151,2.613-4.718,3.933
	C60.112,121.772,59.046,122.165,57.958,122.165z M22.455,17.639c-0.733,0-1.451,0.059-2.133,0.175
	c-7.499,1.272-9.971,10.26-10.776,15.504c-1.471,9.566,1.298,18.699,8.007,26.411c4.766,5.479,10.391,9.926,16.347,14.635
	c2.647,2.094,5.386,4.258,8.019,6.506c9.465,8.08,17.301,16.03,23.861,24.215c1.739-1.417,3.48-2.831,5.222-4.245
	c4.349-3.53,8.845-7.181,13.216-10.817c8.192-6.817,18.389-15.301,26.883-24.459c8.372-9.026,11.986-17.035,11.377-25.204
	c-0.36-4.815-1.893-10.058-4.557-15.582c-2.41-4.998-4.816-8.503-7.572-11.03c-3.26-2.989-7.134-4.505-11.513-4.505
	c-3.692,0-7.618,1.114-11.354,3.22C76.519,18.645,67.875,27.635,63.762,37.13c-0.722,1.666-2.27,2.701-4.038,2.701
	c-1.873,0-3.541-1.16-4.295-2.803c-5.465-5.336-11.037-9.761-16.573-13.161C34.134,20.967,28.001,17.639,22.455,17.639z"/>
</svg>
