<?xml version="1.0" encoding="utf-8"?>
<!-- Generator: Adobe Illustrator 16.0.0, SVG Export Plug-In . SVG Version: 6.00 Build 0)  -->
<!DOCTYPE svg PUBLIC "-//W3C//DTD SVG 1.1//EN" "http://www.w3.org/Graphics/SVG/1.1/DTD/svg11.dtd">
<svg version="1.1" id="Layer_1" xmlns="http://www.w3.org/2000/svg" xmlns:xlink="http://www.w3.org/1999/xlink" x="0px" y="0px"
	 width="75px" height="75px" viewBox="0 0 75 75" enable-background="new 0 0 75 75" xml:space="preserve">
<path d="M37.618,4.672L65.98,33.035h-6.865v35.959H46.5V47.582H30v21.412H16.291V33.035H9.256L37.618,4.672 M37.618,0.672
	c-1.061,0-2.078,0.421-2.829,1.171L6.428,30.206c-1.144,1.144-1.486,2.865-0.867,4.359s2.078,2.469,3.695,2.469h3.035v31.959
	c0,2.209,1.791,4,4,4H30c2.209,0,4-1.791,4-4V51.582h8.5v17.412c0,2.209,1.791,4,4,4h12.615c2.209,0,4-1.791,4-4V37.035h2.865
	c1.618,0,3.076-0.975,3.695-2.469s0.277-3.215-0.867-4.359L40.447,1.844C39.696,1.094,38.679,0.672,37.618,0.672L37.618,0.672z"/>
</svg>
