<?xml version="1.0" encoding="utf-8"?>
<!-- Generator: Adobe Illustrator 16.0.0, SVG Export Plug-In . SVG Version: 6.00 Build 0)  -->
<!DOCTYPE svg PUBLIC "-//W3C//DTD SVG 1.1//EN" "http://www.w3.org/Graphics/SVG/1.1/DTD/svg11.dtd">
<svg version="1.1" id="Layer_1" xmlns="http://www.w3.org/2000/svg" xmlns:xlink="http://www.w3.org/1999/xlink" x="0px" y="0px"
	 width="374.418px" height="252.325px" viewBox="0 0 374.418 252.325" enable-background="new 0 0 374.418 252.325"
	 xml:space="preserve">
<path fill="#DD8027" d="M362.418,0H12C5.373,0,0,5.373,0,12v228.325c0,6.627,5.373,12,12,12h350.418c6.628,0,12-5.373,12-12V12
	C374.418,5.373,369.046,0,362.418,0z M270.116,17.605v216.279H65V17.605H270.116z M18.604,227.884V23.605c0-3.313,2.687-6,6-6
	h25.279v216.279H24.604C21.291,233.884,18.604,231.197,18.604,227.884z M356.976,227.884c0,3.313-2.687,6-6,6h-65.744V17.605h65.744
	c3.313,0,6,2.687,6,6V227.884z"/>
</svg>
