<?xml version="1.0" encoding="utf-8"?>
<!-- Generator: Adobe Illustrator 16.0.0, SVG Export Plug-In . SVG Version: 6.00 Build 0)  -->
<!DOCTYPE svg PUBLIC "-//W3C//DTD SVG 1.1//EN" "http://www.w3.org/Graphics/SVG/1.1/DTD/svg11.dtd">
<svg version="1.1" id="Layer_1" xmlns="http://www.w3.org/2000/svg" xmlns:xlink="http://www.w3.org/1999/xlink" x="0px" y="0px"
	 width="360px" height="360px" viewBox="0 0 360 360" enable-background="new 0 0 360 360" xml:space="preserve">
<g>
	<path fill="#B5B5B5" d="M45.507,289.244c0,11.045,8.954,20,20,20h225.487c11.046,0,20-8.955,20-20V129.752H45.507V289.244z
		 M179.75,155.751c34.378,0,62.247,27.869,62.247,62.247s-27.869,62.247-62.247,62.247s-62.247-27.869-62.247-62.247
		S145.372,155.751,179.75,155.751z"/>
	<path fill="#B5B5B5" d="M290.994,43.757H65.507c-11.046,0-20,8.954-20,20v46.497h265.487V63.757
		C310.994,52.711,302.04,43.757,290.994,43.757z M291.495,93.254h-59.997V61.756h59.997V93.254z"/>
</g>
</svg>
