<?xml version="1.0" encoding="utf-8"?>
<!-- Generator: Adobe Illustrator 16.0.0, SVG Export Plug-In . SVG Version: 6.00 Build 0)  -->
<!DOCTYPE svg PUBLIC "-//W3C//DTD SVG 1.1//EN" "http://www.w3.org/Graphics/SVG/1.1/DTD/svg11.dtd">
<svg version="1.1" id="Layer_1" xmlns="http://www.w3.org/2000/svg" xmlns:xlink="http://www.w3.org/1999/xlink" x="0px" y="0px"
	 width="224.667px" height="144.333px" viewBox="0 0 224.667 144.333" enable-background="new 0 0 224.667 144.333"
	 xml:space="preserve">
<g>
	<path fill="#FFFFFF" d="M215.667,0H28.333c-4.962,0-9,4.038-9,9v10.333H5c-2.757,0-5,2.243-5,5v115c0,2.757,2.243,5,5,5h55
		c2.757,0,5-2.243,5-5V138h150.667c4.962,0,9-4.038,9-9V9C224.667,4.038,220.629,0,215.667,0z M63,139.333c0,1.654-1.346,3-3,3H5
		c-1.654,0-3-1.346-3-3v-115c0-1.654,1.346-3,3-3h55c1.654,0,3,1.346,3,3V139.333z M60,19.333H43.667V8h156v121.667H65V24.333
		C65,21.577,62.757,19.333,60,19.333z M222.667,129c0,3.86-3.14,7-7,7H65v-4.333h136.667V6h-160v13.333H21.333V9c0-3.86,3.14-7,7-7
		h187.333c3.86,0,7,3.14,7,7V129z"/>
	<path fill="#FFFFFF" d="M3.667,126H61V36.667H3.667V126z M5.667,38.667H59V124H5.667V38.667z"/>
	<path fill="#FFFFFF" d="M32.5,126.667c-3.952,0-7.167,3.215-7.167,7.167S28.548,141,32.5,141s7.167-3.215,7.167-7.167
		S36.451,126.667,32.5,126.667z M32.5,139c-2.849,0-5.167-2.318-5.167-5.167c0-2.849,2.318-5.167,5.167-5.167
		c2.849,0,5.167,2.318,5.167,5.167C37.667,136.683,35.349,139,32.5,139z"/>
	<path fill="#FFFFFF" d="M211.833,62c-3.952,0-7.167,3.215-7.167,7.167s3.215,7.167,7.167,7.167S219,73.119,219,69.167
		S215.785,62,211.833,62z M211.833,74.334c-2.849,0-5.167-2.318-5.167-5.167c0-2.849,2.318-5.167,5.167-5.167
		c2.849,0,5.167,2.318,5.167,5.167C217,72.016,214.682,74.334,211.833,74.334z"/>
</g>
</svg>
