<?xml version="1.0" encoding="utf-8"?>
<!-- Generator: Adobe Illustrator 16.0.0, SVG Export Plug-In . SVG Version: 6.00 Build 0)  -->
<!DOCTYPE svg PUBLIC "-//W3C//DTD SVG 1.1//EN" "http://www.w3.org/Graphics/SVG/1.1/DTD/svg11.dtd">
<svg version="1.1" id="Layer_1" xmlns="http://www.w3.org/2000/svg" xmlns:xlink="http://www.w3.org/1999/xlink" x="0px" y="0px"
	 width="69px" height="69.001px" viewBox="0 0 69 69.001" enable-background="new 0 0 69 69.001" xml:space="preserve">
<path fill="#282828" d="M64.357,17.214L51.715,4.601L34.46,0L17.214,4.643L4.602,17.286L0,34.542l4.643,17.245L17.286,64.4
	l17.256,4.602l17.245-4.644l12.611-12.643L69,34.459L64.357,17.214z M37.17,28.983h-2.109v10.793h2.109v2.754h-8.203v-2.754h1.969
	V28.983h-0.387L25.498,42.53H23.74l-5.109-13.547h-0.387v10.793h2.133v2.754h-6.891v-2.754h2.109V28.983h-2.109v-2.754h8.177
	l3.576,9.549l3.598-9.549h8.333V28.983z M47.881,42.729c-2.93,0-5.139-0.789-6.627-2.367s-2.232-3.574-2.232-5.988
	c0-1.719,0.387-3.223,1.16-4.512s1.814-2.26,3.123-2.912s2.744-0.979,4.307-0.979c1.945,0,3.574,0.508,4.887,1.523v-1.266h2.754
	v5.742h-2.754c-0.781-2.062-2.137-3.094-4.066-3.094c-1.594,0-2.799,0.543-3.615,1.629s-1.225,2.387-1.225,3.902
	c0,1.586,0.432,2.869,1.295,3.85s1.963,1.471,3.299,1.471c1.094,0,2.051-0.371,2.871-1.113s1.375-1.773,1.664-3.094l3.211,1.529
	C54.713,40.836,52.029,42.729,47.881,42.729z"/>
</svg>
