<?xml version="1.0" encoding="utf-8"?>
<!-- Generator: Adobe Illustrator 16.0.0, SVG Export Plug-In . SVG Version: 6.00 Build 0)  -->
<!DOCTYPE svg PUBLIC "-//W3C//DTD SVG 1.1//EN" "http://www.w3.org/Graphics/SVG/1.1/DTD/svg11.dtd">
<svg version="1.1" id="Layer_1" xmlns="http://www.w3.org/2000/svg" xmlns:xlink="http://www.w3.org/1999/xlink" x="0px" y="0px"
	 width="129.971px" height="162px" viewBox="0 0 129.971 162" enable-background="new 0 0 129.971 162" xml:space="preserve">
<g>
	<polygon fill="#490D54" points="129.97,66.353 79.323,15.706 79.323,28.953 116.723,66.353 108.699,74.376 79.323,45 
		79.323,58.247 102.076,81 79.323,103.752 79.323,117 108.699,87.623 116.723,95.646 79.323,133.047 79.323,146.294 129.97,95.646 
		115.323,81 	"/>
	<polygon fill="#490D54" points="61.323,162 70.323,153 70.323,9 61.323,0 	"/>
	<polygon fill="#490D54" points="14.647,81.618 0,96.266 50.646,146.911 50.646,133.664 13.247,96.266 21.271,88.241 
		50.646,117.617 50.646,104.37 27.894,81.618 50.646,58.865 50.646,45.617 21.271,74.994 13.247,66.971 50.646,29.57 50.646,16.323 
		0,66.971 	"/>
</g>
</svg>
