<?xml version="1.0" encoding="UTF-8"?>
<svg width="91px" height="116px" viewBox="0 0 91 116" version="1.1" xmlns="http://www.w3.org/2000/svg" xmlns:xlink="http://www.w3.org/1999/xlink">
    <!-- Generator: Sketch 41.1 (35376) - http://www.bohemiancoding.com/sketch -->
    <title>nav_icon</title>
    <desc>Created with Sketch.</desc>
    <defs>
        <rect id="path-1" x="0" y="0" width="91" height="104" rx="8"></rect>
        <path d="M0,6.0029638 C0,2.68761844 2.68511093,0 6.00268121,0 L72.9973188,0 C76.3125081,0 79,2.68851188 79,6.0029638 L79,97.9970362 C79,101.312382 76.3148891,104 72.9973188,104 L6.00268121,104 C2.68749192,104 0,101.311488 0,97.9970362 L0,6.0029638 Z" id="path-3"></path>
        <path d="M0,3.99733833 C0,1.78966933 1.79208815,0 3.99050808,0 L63.0094919,0 C65.2133887,0 67,1.78323349 67,3.99733833 L67,100.002662 C67,102.210331 65.2079118,104 63.0094919,104 L3.99050808,104 C1.78661132,104 0,102.216767 0,100.002662 L0,3.99733833 Z" id="path-5"></path>
    </defs>
    <g id="Page-1" stroke="none" stroke-width="1" fill="none" fill-rule="evenodd">
        <g id="nav_icon">
            <g id="Page-1">
                <g id="Group">
                    <g id="Rectangle-Clipped">
                        <mask id="mask-2" fill="white">
                            <use xlink:href="#path-1"></use>
                        </mask>
                        <g id="path-1"></g>
                        <g id="Rectangle" mask="url(#mask-2)" stroke="#B6BCDA" stroke-width="3">
                            <g transform="translate(0.000000, -0.000000)" id="path-1">
                                <rect x="0" y="7.10542736e-15" width="91" height="104" rx="8"></rect>
                            </g>
                        </g>
                    </g>
                    <g id="Rectangle-Clipped" transform="translate(6.000000, 6.000000)">
                        <mask id="mask-4" fill="white">
                            <use xlink:href="#path-3"></use>
                        </mask>
                        <g id="path-3"></g>
                        <g id="Rectangle" mask="url(#mask-4)" stroke="#B6BCDA" stroke-width="3">
                            <g transform="translate(0.000000, 0.000000)" id="path-3">
                                <path d="M-7.10542736e-15,6.0029638 C-7.10542736e-15,2.68761844 2.68511093,0 6.00268121,0 L72.9973188,0 C76.3125081,0 79,2.68851188 79,6.0029638 L79,97.9970362 C79,101.312382 76.3148891,104 72.9973188,104 L6.00268121,104 C2.68749192,104 -7.10542736e-15,101.311488 -7.10542736e-15,97.9970362 L-7.10542736e-15,6.0029638 Z"></path>
                            </g>
                        </g>
                    </g>
                    <g id="Rectangle-Clipped" transform="translate(12.000000, 12.000000)">
                        <mask id="mask-6" fill="white">
                            <use xlink:href="#path-5"></use>
                        </mask>
                        <g id="path-3"></g>
                        <g id="Rectangle" mask="url(#mask-6)" stroke="#B6BCDA" stroke-width="3">
                            <g transform="translate(0.000000, 0.000000)" id="path-3">
                                <path d="M-7.10542736e-15,3.99733833 C-7.10542736e-15,1.78966933 1.79208815,0 3.99050808,0 L63.0094919,0 C65.2133887,0 67,1.78323349 67,3.99733833 L67,100.002662 C67,102.210331 65.2079118,104 63.0094919,104 L3.99050808,104 C1.78661132,104 -7.10542736e-15,102.216767 -7.10542736e-15,100.002662 L-7.10542736e-15,3.99733833 Z"></path>
                            </g>
                        </g>
                    </g>
                </g>
            </g>
        </g>
    </g>
</svg>