<?xml version="1.0" encoding="UTF-8"?>
<svg width="163px" height="58px" viewBox="0 0 163 58" version="1.1" xmlns="http://www.w3.org/2000/svg" xmlns:xlink="http://www.w3.org/1999/xlink">
    <!-- Generator: Sketch 41.1 (35376) - http://www.bohemiancoding.com/sketch -->
    <title>Page-1</title>
    <desc>Created with Sketch.</desc>
    <defs></defs>
    <g id="Page-1" stroke="none" stroke-width="1" fill="none" fill-rule="evenodd">
        <g id="netted_logo" fill="#333333">
            <g id="Page-1">
                <g id="Group-2">
                    <path d="M0.864,0.016 L0.864,40 L9.096,40 L9.096,13.232 L9.208,13.232 L25.84,40 L34.632,40 L34.632,0.016 L26.4,0.016 L26.4,26.84 L26.288,26.84 L9.6,0.016 L0.864,0.016 Z M58.8947924,22.416 L45.9587924,22.416 C45.9961259,21.8559972 46.1174581,21.2213369 46.3227924,20.512 C46.5281268,19.8026631 46.8827899,19.1306698 47.3867924,18.496 C47.8907949,17.8613302 48.5627882,17.3293355 49.4027924,16.9 C50.2427966,16.4706645 51.2974527,16.256 52.5667924,16.256 C54.5081355,16.256 55.9547877,16.7786614 56.9067924,17.824 C57.8587972,18.8693386 58.5214572,20.3999899 58.8947924,22.416 Z M45.9587924,27.456 L66.8467924,27.456 C66.9961265,25.2159888 66.8094617,23.0693436 66.2867924,21.016 C65.7641231,18.9626564 64.9147983,17.1333414 63.7387924,15.528 C62.5627865,13.9226586 61.0601349,12.6440048 59.2307924,11.692 C57.4014499,10.7399952 55.2548047,10.264 52.7907924,10.264 C50.5881147,10.264 48.5814681,10.6559961 46.7707924,11.44 C44.9601167,12.2240039 43.4014656,13.2973265 42.0947924,14.66 C40.7881192,16.0226735 39.7801293,17.637324 39.0707924,19.504 C38.3614555,21.370676 38.0067924,23.3866558 38.0067924,25.552 C38.0067924,27.7920112 38.3521223,29.845324 39.0427924,31.712 C39.7334625,33.578676 40.7134527,35.1839933 41.9827924,36.528 C43.2521321,37.8720067 44.8014499,38.9079964 46.6307924,39.636 C48.4601349,40.3640036 50.5134477,40.728 52.7907924,40.728 C56.0761422,40.728 58.8761142,39.9813408 61.1907924,38.488 C63.5054707,36.9946592 65.2227868,34.5120174 66.3427924,31.04 L59.3427924,31.04 C59.0814578,31.9360045 58.3721315,32.7853293 57.2147924,33.588 C56.0574533,34.3906707 54.6761338,34.792 53.0707924,34.792 C50.8307812,34.792 49.1134651,34.2133391 47.9187924,33.056 C46.7241198,31.8986609 46.070793,30.0320129 45.9587924,27.456 Z M79.5175848,11.048 L79.5175848,2.368 L71.5655848,2.368 L71.5655848,11.048 L66.7495848,11.048 L66.7495848,16.368 L71.5655848,16.368 L71.5655848,33.448 C71.5655848,34.9040073 71.8082491,36.0799955 72.2935848,36.976 C72.7789206,37.8720045 73.4415806,38.5626642 74.2815848,39.048 C75.121589,39.5333358 76.092246,39.8599992 77.1935848,40.028 C78.2949237,40.1960008 79.4615787,40.28 80.6935848,40.28 C81.4775888,40.28 82.2802474,40.2613335 83.1015848,40.224 C83.9229223,40.1866665 84.6695815,40.1120006 85.3415848,40 L85.3415848,33.84 C84.9682496,33.914667 84.5762536,33.9706665 84.1655848,34.008 C83.7549161,34.0453335 83.3255871,34.064 82.8775848,34.064 C81.5335781,34.064 80.6375871,33.8400022 80.1895848,33.392 C79.7415826,32.9439978 79.5175848,32.0480067 79.5175848,30.704 L79.5175848,16.368 L85.3415848,16.368 L85.3415848,11.048 L79.5175848,11.048 Z M97.1163773,11.048 L97.1163773,2.368 L89.1643773,2.368 L89.1643773,11.048 L84.3483773,11.048 L84.3483773,16.368 L89.1643773,16.368 L89.1643773,33.448 C89.1643773,34.9040073 89.4070415,36.0799955 89.8923773,36.976 C90.377713,37.8720045 91.0403731,38.5626642 91.8803773,39.048 C92.7203815,39.5333358 93.6910384,39.8599992 94.7923773,40.028 C95.8937161,40.1960008 97.0603711,40.28 98.2923773,40.28 C99.0763812,40.28 99.8790398,40.2613335 100.700377,40.224 C101.521715,40.1866665 102.268374,40.1120006 102.940377,40 L102.940377,33.84 C102.567042,33.914667 102.175046,33.9706665 101.764377,34.008 C101.353709,34.0453335 100.92438,34.064 100.476377,34.064 C99.1323705,34.064 98.2363795,33.8400022 97.7883773,33.392 C97.340375,32.9439978 97.1163773,32.0480067 97.1163773,30.704 L97.1163773,16.368 L102.940377,16.368 L102.940377,11.048 L97.1163773,11.048 Z M124.12317,22.416 L111.18717,22.416 C111.224503,21.8559972 111.345835,21.2213369 111.55117,20.512 C111.756504,19.8026631 112.111167,19.1306698 112.61517,18.496 C113.119172,17.8613302 113.791165,17.3293355 114.63117,16.9 C115.471174,16.4706645 116.52583,16.256 117.79517,16.256 C119.736513,16.256 121.183165,16.7786614 122.13517,17.824 C123.087174,18.8693386 123.749834,20.3999899 124.12317,22.416 Z M111.18717,27.456 L132.07517,27.456 C132.224504,25.2159888 132.037839,23.0693436 131.51517,21.016 C130.9925,18.9626564 130.143176,17.1333414 128.96717,15.528 C127.791164,13.9226586 126.288512,12.6440048 124.45917,11.692 C122.629827,10.7399952 120.483182,10.264 118.01917,10.264 C115.816492,10.264 113.809845,10.6559961 111.99917,11.44 C110.188494,12.2240039 108.629843,13.2973265 107.32317,14.66 C106.016496,16.0226735 105.008507,17.637324 104.29917,19.504 C103.589833,21.370676 103.23517,23.3866558 103.23517,25.552 C103.23517,27.7920112 103.5805,29.845324 104.27117,31.712 C104.96184,33.578676 105.94183,35.1839933 107.21117,36.528 C108.480509,37.8720067 110.029827,38.9079964 111.85917,39.636 C113.688512,40.3640036 115.741825,40.728 118.01917,40.728 C121.304519,40.728 124.104491,39.9813408 126.41917,38.488 C128.733848,36.9946592 130.451164,34.5120174 131.57117,31.04 L124.57117,31.04 C124.309835,31.9360045 123.600509,32.7853293 122.44317,33.588 C121.285831,34.3906707 119.904511,34.792 118.29917,34.792 C116.059158,34.792 114.341842,34.2133391 113.14717,33.056 C111.952497,31.8986609 111.29917,30.0320129 111.18717,27.456 Z M155.217962,25.44 C155.217962,26.6346726 155.105963,27.7919944 154.881962,28.912 C154.657961,30.0320056 154.284631,31.0306623 153.761962,31.908 C153.239293,32.7853377 152.5393,33.4853307 151.661962,34.008 C150.784624,34.5306693 149.692635,34.792 148.385962,34.792 C147.153956,34.792 146.0993,34.521336 145.221962,33.98 C144.344624,33.438664 143.616632,32.7293377 143.037962,31.852 C142.459293,30.9746623 142.039297,29.9760056 141.777962,28.856 C141.516627,27.7359944 141.385962,26.6160056 141.385962,25.496 C141.385962,24.3013274 141.507294,23.1533388 141.749962,22.052 C141.99263,20.9506612 142.384626,19.970671 142.925962,19.112 C143.467298,18.253329 144.185958,17.5626693 145.081962,17.04 C145.977967,16.5173307 147.079289,16.256 148.385962,16.256 C149.692635,16.256 150.775291,16.5173307 151.633962,17.04 C152.492633,17.5626693 153.192626,18.2439958 153.733962,19.084 C154.275298,19.9240042 154.657961,20.8946612 154.881962,21.996 C155.105963,23.0973388 155.217962,24.2453274 155.217962,25.44 Z M155.329962,36.304 L155.329962,40 L162.889962,40 L162.889962,0.016 L154.937962,0.016 L154.937962,14.576 L154.825962,14.576 C153.929958,13.1573262 152.707303,12.0840036 151.157962,11.356 C149.608621,10.6279964 147.975304,10.264 146.257962,10.264 C144.129951,10.264 142.263303,10.6839958 140.657962,11.524 C139.052621,12.3640042 137.717967,13.4746598 136.653962,14.856 C135.589957,16.2373402 134.787298,17.8333243 134.245962,19.644 C133.704626,21.4546757 133.433962,23.330657 133.433962,25.272 C133.433962,27.2880101 133.704626,29.229324 134.245962,31.096 C134.787298,32.962676 135.589957,34.6146595 136.653962,36.052 C137.717967,37.4893405 139.071287,38.6279958 140.713962,39.468 C142.356637,40.3080042 144.260618,40.728 146.425962,40.728 C148.329972,40.728 150.037955,40.3826701 151.549962,39.692 C153.06197,39.0013299 154.284624,37.8720078 155.217962,36.304 L155.329962,36.304 Z" id="Netted"></path>
                    <path d="M0.819,47.718 L4.537,47.718 C5.09166944,47.718 5.55533147,47.7873326 5.928,47.926 C6.30066853,48.0646674 6.59966554,48.2466655 6.825,48.472 C7.05033446,48.6973345 7.21283284,48.9551652 7.3125,49.2455 C7.41216716,49.5358348 7.462,49.8283319 7.462,50.123 C7.462,50.3743346 7.4186671,50.6126655 7.332,50.838 C7.2453329,51.0633345 7.12183414,51.2626658 6.9615,51.436 C6.80116587,51.6093342 6.6105011,51.7544994 6.3895,51.8715 C6.16849889,51.9885006 5.92366801,52.0643332 5.655,52.099 L5.681,52.125 C5.74166697,52.1163333 5.88466554,52.142333 6.11,52.203 C6.33533446,52.263667 6.57149877,52.3784992 6.8185,52.5475 C7.06550123,52.7165008 7.28649902,52.9504985 7.4815,53.2495 C7.67650097,53.5485015 7.774,53.9319977 7.774,54.4 C7.774,54.8246688 7.69600078,55.1973317 7.54,55.518 C7.38399922,55.8386683 7.16516807,56.1094989 6.8835,56.3305 C6.60183192,56.5515011 6.26166866,56.7183328 5.863,56.831 C5.46433134,56.9436672 5.02233576,57 4.537,57 L0.819,57 L0.819,47.718 Z M4.537,51.93 C5.32567061,51.93 5.91499805,51.7545018 6.305,51.4035 C6.69500195,51.0524982 6.89,50.5910029 6.89,50.019 C6.89,49.6809983 6.82500065,49.3971678 6.695,49.1675 C6.56499935,48.9378322 6.39166775,48.7515007 6.175,48.6085 C5.95833225,48.4654993 5.70916808,48.363667 5.4275,48.303 C5.14583192,48.242333 4.84900156,48.212 4.537,48.212 L1.391,48.212 L1.391,51.93 L4.537,51.93 Z M4.537,56.506 C5.36900416,56.506 6.0211643,56.3305018 6.4935,55.9795 C6.96583569,55.6284982 7.202,55.1020035 7.202,54.4 C7.202,54.0013313 7.11966749,53.6741679 6.955,53.4185 C6.79033251,53.1628321 6.58016794,52.9613341 6.3245,52.814 C6.06883206,52.6666659 5.78283491,52.5648336 5.4665,52.5085 C5.15016508,52.4521664 4.84033485,52.424 4.537,52.424 L1.391,52.424 L1.391,56.506 L4.537,56.506 Z M15.288,47.718 L15.925,47.718 L12.194,53.113 L12.194,57 L11.622,57 L11.622,53.113 L7.917,47.718 L8.567,47.718 L11.921,52.632 L15.288,47.718 Z M19.084,48.212 L19.084,47.718 L26.195,47.718 L26.195,48.212 L22.919,48.212 L22.919,57 L22.347,57 L22.347,48.212 L19.084,48.212 Z M26.832,47.718 L27.404,47.718 L27.404,51.93 L33.332,51.93 L33.332,47.718 L33.904,47.718 L33.904,57 L33.332,57 L33.332,52.424 L27.404,52.424 L27.404,57 L26.832,57 L26.832,47.718 Z M35.542,47.718 L41.782,47.718 L41.782,48.212 L36.114,48.212 L36.114,51.93 L41.444,51.93 L41.444,52.424 L36.114,52.424 L36.114,56.506 L41.847,56.506 L41.847,57 L35.542,57 L35.542,47.718 Z M45.695,47.718 L47.346,47.718 L49.023,54.816 L49.049,54.816 L50.921,47.718 L52.585,47.718 L54.405,54.816 L54.431,54.816 L56.16,47.718 L57.811,47.718 L55.25,57 L53.599,57 L51.74,49.902 L51.714,49.902 L49.816,57 L48.139,57 L45.695,47.718 Z M58.877,47.718 L65.559,47.718 L65.559,49.122 L60.502,49.122 L60.502,51.553 L65.182,51.553 L65.182,52.879 L60.502,52.879 L60.502,55.596 L65.65,55.596 L65.65,57 L58.877,57 L58.877,47.718 Z M68.692,51.605 L71.344,51.605 C71.7340019,51.605 72.0589987,51.4945011 72.319,51.2735 C72.5790013,51.0524989 72.709,50.7340021 72.709,50.318 C72.709,49.8499977 72.5920012,49.5206676 72.358,49.33 C72.1239988,49.1393324 71.7860022,49.044 71.344,49.044 L68.692,49.044 L68.692,51.605 Z M67.067,47.718 L71.578,47.718 C72.4100042,47.718 73.0773308,47.9086648 73.58,48.29 C74.0826692,48.6713352 74.334,49.2476628 74.334,50.019 C74.334,50.4870023 74.2191678,50.8878317 73.9895,51.2215 C73.7598322,51.5551683 73.4326688,51.8129991 73.008,51.995 L73.008,52.021 C73.5800029,52.1423339 74.0133319,52.4131646 74.308,52.8335 C74.6026681,53.2538354 74.75,53.7803302 74.75,54.413 C74.75,54.7770018 74.6850006,55.1171651 74.555,55.4335 C74.4249993,55.7498349 74.2213347,56.0228322 73.944,56.2525 C73.6666653,56.4821678 73.3113355,56.664166 72.878,56.7985 C72.4446645,56.932834 71.929003,57 71.331,57 L67.067,57 L67.067,47.718 Z M68.692,55.674 L71.565,55.674 C72.0590025,55.674 72.4424986,55.5461679 72.7155,55.2905 C72.9885014,55.0348321 73.125,54.6730023 73.125,54.205 C73.125,53.7456644 72.9885014,53.3925012 72.7155,53.1455 C72.4424986,52.8984988 72.0590025,52.775 71.565,52.775 L68.692,52.775 L68.692,55.674 Z M77.844,51.605 L80.496,51.605 C80.8860019,51.605 81.2109987,51.4945011 81.471,51.2735 C81.7310013,51.0524989 81.861,50.7340021 81.861,50.318 C81.861,49.8499977 81.7440012,49.5206676 81.51,49.33 C81.2759988,49.1393324 80.9380022,49.044 80.496,49.044 L77.844,49.044 L77.844,51.605 Z M76.219,47.718 L80.73,47.718 C81.5620042,47.718 82.2293308,47.9086648 82.732,48.29 C83.2346692,48.6713352 83.486,49.2476628 83.486,50.019 C83.486,50.4870023 83.3711678,50.8878317 83.1415,51.2215 C82.9118322,51.5551683 82.5846688,51.8129991 82.16,51.995 L82.16,52.021 C82.7320029,52.1423339 83.1653319,52.4131646 83.46,52.8335 C83.7546681,53.2538354 83.902,53.7803302 83.902,54.413 C83.902,54.7770018 83.8370007,55.1171651 83.707,55.4335 C83.5769994,55.7498349 83.3733347,56.0228322 83.096,56.2525 C82.8186653,56.4821678 82.4633355,56.664166 82.03,56.7985 C81.5966645,56.932834 81.081003,57 80.483,57 L76.219,57 L76.219,47.718 Z M77.844,55.674 L80.717,55.674 C81.2110025,55.674 81.5944986,55.5461679 81.8675,55.2905 C82.1405014,55.0348321 82.277,54.6730023 82.277,54.205 C82.277,53.7456644 82.1405014,53.3925012 81.8675,53.1455 C81.5944986,52.8984988 81.2110025,52.775 80.717,52.775 L77.844,52.775 L77.844,55.674 Z M87.789,53.36 L84.305,47.718 L86.19,47.718 L88.647,51.878 L91.065,47.718 L92.885,47.718 L89.414,53.36 L89.414,57 L87.789,57 L87.789,53.36 Z M94.861,53.906 C94.861,54.2613351 94.9216661,54.5646654 95.043,54.816 C95.1643339,55.0673346 95.3333322,55.2731659 95.55,55.4335 C95.7666677,55.5938341 96.0158319,55.710833 96.2975,55.7845 C96.5791681,55.858167 96.884665,55.895 97.214,55.895 C97.5693351,55.895 97.8726654,55.8538337 98.124,55.7715 C98.3753346,55.6891663 98.5789992,55.5830007 98.735,55.453 C98.8910008,55.3229994 99.0036663,55.1735008 99.073,55.0045 C99.1423337,54.8354992 99.177,54.6643342 99.177,54.491 C99.177,54.1356649 99.0968341,53.8735008 98.9365,53.7045 C98.7761659,53.5354992 98.6006676,53.4163337 98.41,53.347 C98.080665,53.2256661 97.6971689,53.1108339 97.2595,53.0025 C96.8218311,52.8941661 96.2823365,52.7533342 95.641,52.58 C95.2423313,52.4759995 94.9108347,52.3395008 94.6465,52.1705 C94.3821653,52.0014992 94.1720008,51.813001 94.016,51.605 C93.8599992,51.396999 93.7495003,51.1760012 93.6845,50.942 C93.6194997,50.7079988 93.587,50.4696679 93.587,50.227 C93.587,49.7589977 93.684499,49.353835 93.8795,49.0115 C94.074501,48.669165 94.3323317,48.3853345 94.653,48.16 C94.9736683,47.9346655 95.3376646,47.7678339 95.745,47.6595 C96.1523354,47.5511661 96.5639979,47.497 96.98,47.497 C97.4653358,47.497 97.9224979,47.5598327 98.3515,47.6855 C98.7805021,47.8111673 99.1574984,47.9996654 99.4825,48.251 C99.8075016,48.5023346 100.065332,48.8121648 100.256,49.1805 C100.446668,49.5488352 100.542,49.9756642 100.542,50.461 L98.917,50.461 C98.8736665,49.862997 98.6700018,49.4405012 98.306,49.1935 C97.9419982,48.9464988 97.4783362,48.823 96.915,48.823 C96.7243324,48.823 96.5293343,48.8424998 96.33,48.8815 C96.1306657,48.9205002 95.9486675,48.9854995 95.784,49.0765 C95.6193325,49.1675005 95.4828339,49.2909992 95.3745,49.447 C95.2661661,49.6030008 95.212,49.7979988 95.212,50.032 C95.212,50.361335 95.3138323,50.6191657 95.5175,50.8055 C95.7211677,50.9918343 95.987665,51.1326662 96.317,51.228 C96.3516668,51.2366667 96.4881655,51.2734997 96.7265,51.3385 C96.9648345,51.4035003 97.2313319,51.4749996 97.526,51.553 C97.8206681,51.6310004 98.1088319,51.706833 98.3905,51.7805 C98.6721681,51.854167 98.8736661,51.9083332 98.995,51.943 C99.2983349,52.0383338 99.5626655,52.1683325 99.788,52.333 C100.013334,52.4976675 100.201833,52.6861656 100.3535,52.8985 C100.505167,53.1108344 100.617833,53.3383321 100.6915,53.581 C100.765167,53.8236679 100.802,54.0663321 100.802,54.309 C100.802,54.8290026 100.695834,55.2731648 100.4835,55.6415 C100.271166,56.0098352 99.9916684,56.3109988 99.645,56.545 C99.2983316,56.7790012 98.9040022,56.9501661 98.462,57.0585 C98.0199978,57.1668339 97.5693356,57.221 97.11,57.221 C96.5813307,57.221 96.0830023,57.1560006 95.615,57.026 C95.1469977,56.8959993 94.7396684,56.696668 94.393,56.428 C94.0463316,56.159332 93.769001,55.8148354 93.561,55.3945 C93.352999,54.9741646 93.2446667,54.4780029 93.236,53.906 L94.861,53.906 Z" id="BY-THE-WEBBYS"></path>
                </g>
            </g>
        </g>
    </g>
</svg>