<?xml version="1.0" encoding="utf-8"?>
<!-- Generator: Adobe Illustrator 16.0.0, SVG Export Plug-In . SVG Version: 6.00 Build 0)  -->
<!DOCTYPE svg PUBLIC "-//W3C//DTD SVG 1.1//EN" "http://www.w3.org/Graphics/SVG/1.1/DTD/svg11.dtd">
<svg version="1.1" id="Layer_1" xmlns="http://www.w3.org/2000/svg" xmlns:xlink="http://www.w3.org/1999/xlink" x="0px" y="0px"
	 width="130px" height="130px" viewBox="0 0 130 130" enable-background="new 0 0 130 130" xml:space="preserve">
<g>
	<path fill="#47BC90" d="M110.641,36H49.366v-6.674c0-1.005-0.815-1.819-1.82-1.819H26.919c-1.005,0-1.82,0.814-1.82,1.819V36h-5.46
		c-2.011,0-3.64,1.631-3.64,3.64v53.387c0,2.012,1.629,3.641,3.64,3.641h91.001c2.01,0,3.639-1.629,3.639-3.641V39.64
		C114.279,37.631,112.65,36,110.641,36z M65.14,87.872c-12.062,0-21.84-9.778-21.84-21.841c0-12.063,9.778-21.841,21.84-21.841
		s21.84,9.777,21.84,21.841C86.98,78.094,77.202,87.872,65.14,87.872z"/>
	<circle fill="#47BC90" cx="65.442" cy="66.333" r="14.56"/>
</g>
</svg>
