<?xml version="1.0" encoding="UTF-8"?>
<svg width="249px" height="33px" viewBox="0 0 249 33" version="1.1" xmlns="http://www.w3.org/2000/svg" xmlns:xlink="http://www.w3.org/1999/xlink">
    <!-- Generator: Sketch 41.1 (35376) - http://www.bohemiancoding.com/sketch -->
    <title>readability_logo</title>
    <desc>Created with Sketch.</desc>
    <defs>
        <polygon id="path-1" points="124.26015 32.2783 248.52 32.2783 248.52 0.0003 124.26015 0.0003 0.0003 0.0003 0.0003 32.2783"></polygon>
    </defs>
    <g id="Page-1" stroke="none" stroke-width="1" fill="none" fill-rule="evenodd">
        <g id="show_process_icon" transform="translate(-265.000000, -283.000000)">
            <g id="readability_logo" transform="translate(265.000000, 283.000000)">
                <mask id="mask-2" fill="white">
                    <use xlink:href="#path-1"></use>
                </mask>
                <g id="Clip-2"></g>
                <path d="M240.8833,8.6553 L240.8833,11.1463 L243.4103,11.1463 L238.9553,22.0343 L234.7333,11.1463 L237.8193,11.1463 L237.8193,8.6553 L228.2563,8.6553 L228.2563,11.1463 L230.7813,11.1463 L236.9983,25.8913 C236.3953,27.4053 235.8153,28.4573 235.2643,29.0473 C234.6973,29.6373 234.0103,30.0193 233.1993,30.1933 C233.3773,29.8483 233.4673,29.4243 233.4673,28.9203 C233.4673,28.4143 233.2563,27.9413 232.8383,27.4983 C232.4063,27.0553 231.8543,26.8343 231.1803,26.8343 C230.5083,26.8343 229.9243,27.0803 229.4283,27.5703 C228.9593,28.0523 228.7233,28.6833 228.7233,29.4723 C228.7233,30.2593 229.0613,30.9243 229.7333,31.4663 C230.4183,32.0083 231.4163,32.2783 232.7293,32.2783 C234.0393,32.2783 235.2853,31.7913 236.4693,30.8183 C237.6513,29.8483 238.7953,28.0883 239.9013,25.5423 L246.1863,11.1463 L248.5203,11.1463 L248.5203,8.6553 L240.8833,8.6553 Z M223.4923,23.8073 C222.6843,23.8183 222.1213,23.6233 221.8013,23.2183 C221.4813,22.8163 221.3213,22.1743 221.3213,21.2933 L221.3213,11.1463 L227.2213,11.1463 L227.2213,8.8403 L221.3213,8.8403 L221.3213,4.1533 L217.6003,4.5413 L217.6003,8.8403 L214.0533,8.8403 L214.0533,11.1463 L217.6003,11.1463 L217.6003,21.7033 C217.6003,23.1423 218.0063,24.2683 218.8193,25.0813 C219.6313,25.8913 220.8173,26.2983 222.3773,26.2983 C225.1583,26.2983 227.0373,24.7173 228.0123,21.5513 L226.2383,20.8533 C225.4573,22.8223 224.5413,23.8073 223.4923,23.8073 L223.4923,23.8073 Z M209.8773,8.6553 L202.8993,8.6553 L202.8993,11.1463 L206.1563,11.1463 L206.1563,23.4743 L202.8993,23.4743 L202.8993,25.9673 L213.1373,25.9673 L213.1373,23.4743 L209.8773,23.4743 L209.8773,8.6553 Z M207.9883,5.0193 C208.6903,5.0193 209.2603,4.7873 209.6993,4.3183 C210.1393,3.8493 210.3603,3.2423 210.3603,2.4923 C210.3603,1.7423 210.1213,1.1383 209.6453,0.6833 C209.1663,0.2283 208.5473,0.0003 207.7853,0.0003 C207.0223,0.0003 206.4713,0.2393 206.1293,0.7183 C205.7873,1.1873 205.6173,1.8023 205.6173,2.5663 C205.6173,3.3283 205.8363,3.9313 206.2763,4.3733 C206.7173,4.8163 207.2873,5.0313 207.9883,5.0193 L207.9883,5.0193 Z M197.2033,0.0003 L190.2233,0.0003 L190.2233,2.4923 L193.4813,2.4923 L193.4813,23.4743 L190.2233,23.4743 L190.2233,25.9673 L200.4613,25.9673 L200.4613,23.4743 L197.2033,23.4743 L197.2033,0.0003 Z M185.5283,8.6553 L178.5493,8.6553 L178.5493,11.1463 L181.8073,11.1463 L181.8073,23.4743 L178.5493,23.4743 L178.5493,25.9673 L188.7853,25.9673 L188.7853,23.4743 L185.5283,23.4743 L185.5283,8.6553 Z M183.6393,5.0193 C184.3403,5.0193 184.9103,4.7873 185.3503,4.3183 C185.7893,3.8493 186.0103,3.2423 186.0103,2.4923 C186.0103,1.7423 185.7723,1.1383 185.2933,0.6833 C184.8173,0.2283 184.1973,0.0003 183.4343,0.0003 C182.6723,0.0003 182.1193,0.2393 181.7793,0.7183 C181.4383,1.1873 181.2683,1.8023 181.2683,2.5663 C181.2683,3.3283 181.4873,3.9313 181.9263,4.3733 C182.3673,4.8163 182.9383,5.0313 183.6393,5.0193 L183.6393,5.0193 Z M169.9443,22.2373 C169.1883,23.4073 168.1543,23.9923 166.8463,23.9923 C165.5373,24.0043 164.3893,23.4503 163.4033,22.3303 C162.4143,21.2113 161.9203,19.6553 161.9203,17.6663 C161.9203,15.6743 162.3953,14.0083 163.3443,12.6633 C164.2933,11.3203 165.4613,10.6543 166.8463,10.6683 C168.2193,10.6683 169.2643,11.2453 169.9833,12.4033 C170.7013,13.5603 171.0613,15.1963 171.0613,17.3103 C171.0613,19.4263 170.6883,21.0673 169.9443,22.2373 L169.9443,22.2373 Z M168.0393,8.3593 C166.8203,8.3593 165.6723,8.6933 164.5963,9.3603 C163.5183,10.0263 162.6533,10.9403 161.9983,12.1043 L161.9983,0.0003 L155.4043,0.0003 L155.4043,2.4923 L158.2783,2.4923 L158.2783,26.1863 L160.3693,26.1863 L161.6883,22.8163 C163.1763,25.1363 165.1723,26.2983 167.6743,26.2983 C169.5393,26.2983 171.1493,25.6523 172.5023,24.3643 C174.2523,22.6983 175.1273,20.2773 175.1273,17.1053 C175.1273,13.9323 174.3173,11.5763 172.6953,10.0353 C171.5333,8.9183 169.9813,8.3593 168.0393,8.3593 L168.0393,8.3593 Z M148.7173,20.2083 C148.7173,21.1643 148.3093,21.9783 147.4943,22.6493 C146.6783,23.3223 145.7853,23.6593 144.8153,23.6593 C142.9043,23.6593 141.9493,22.6813 141.9493,20.7233 C141.9493,19.7573 142.2743,19.0703 142.9263,18.6683 C143.5763,18.2633 144.6393,17.9513 146.1153,17.7313 C147.5903,17.5113 148.4573,17.3453 148.7173,17.2343 L148.7173,20.2083 Z M153.6923,23.5863 C153.1903,23.5973 152.8563,23.5073 152.6883,23.3093 C152.5223,23.1133 152.4383,22.7903 152.4383,22.3373 L152.4383,13.6203 C152.4383,10.1363 150.2763,8.3973 145.9513,8.3973 C143.8403,8.3733 142.0763,8.7653 140.6603,9.5783 C139.2443,10.3883 138.5293,11.4673 138.5183,12.8073 C138.5183,13.3863 138.7383,13.8963 139.1803,14.3393 C139.6213,14.7833 140.2053,15.0043 140.9343,15.0043 C141.6603,15.0043 142.2193,14.8013 142.6123,14.3943 C142.9923,13.9883 143.1843,13.4173 143.1843,12.6773 C143.1843,11.9413 142.8203,11.3933 142.0963,11.0363 C142.9883,10.5563 144.0313,10.3163 145.2213,10.3163 C146.4123,10.3163 147.2933,10.5493 147.8623,11.0133 C148.4323,11.4783 148.7173,12.2613 148.7173,13.3623 L148.7173,15.1253 C148.7293,15.4673 148.5863,15.6873 148.2893,15.7853 C147.9923,15.8843 147.0843,16.0373 145.5653,16.2443 C144.0453,16.4533 142.7783,16.7163 141.7623,17.0333 C140.7703,17.3513 139.8753,17.8903 139.0783,18.6483 C138.2793,19.4073 137.8813,20.4223 137.8813,21.6953 C137.8813,23.0173 138.3483,24.0923 139.2813,24.9163 C140.2153,25.7393 141.3833,26.1503 142.7873,26.1503 C144.1903,26.1503 145.4473,25.8553 146.5613,25.2633 C147.6743,24.6733 148.4753,23.9113 148.9673,22.9803 L149.1603,22.9803 C149.1603,23.9883 149.4753,24.7563 150.1043,25.2843 C150.7353,25.8123 151.4983,26.0783 152.3993,26.0783 C154.2113,26.0783 155.5673,25.0563 156.4673,23.0153 L155.0783,22.2283 C154.6543,23.1333 154.1923,23.5863 153.6923,23.5863 L153.6923,23.5863 Z M127.9223,22.1353 C127.0063,23.3733 125.9123,23.9923 124.6373,23.9923 C123.3623,23.9923 122.2853,23.3943 121.4103,22.1993 C120.5353,21.0063 120.1043,19.3633 120.1153,17.2723 C120.1153,15.1833 120.5083,13.5603 121.2953,12.4033 C122.0673,11.2453 123.2013,10.6683 124.6953,10.6683 C126.1903,10.6683 127.3283,11.2923 128.1153,12.5433 C128.9013,13.7913 129.2933,15.3933 129.2933,17.3493 C129.2933,19.3033 128.8363,20.9003 127.9223,22.1353 L127.9223,22.1353 Z M133.0143,0.0003 L126.2853,0.0003 L126.2853,2.4923 L129.2173,2.4923 L129.2173,11.2973 C127.9143,9.3403 126.0673,8.3593 123.6723,8.3593 C121.7253,8.3593 120.0863,8.9983 118.7563,10.2723 C117.9243,11.0563 117.2643,12.1113 116.7783,13.4333 C116.2913,14.7583 116.0473,16.1253 116.0473,17.5333 C116.0473,20.5003 116.8993,22.8033 118.6023,24.4453 C119.8933,25.6803 121.4813,26.2983 123.3623,26.2983 C125.9773,26.2983 127.9533,24.9983 129.2933,22.3973 L129.2933,25.9673 L135.5783,25.9673 L135.5783,23.4743 L133.0143,23.4743 L133.0143,0.0003 Z M107.9143,20.2083 C107.9143,21.1643 107.5063,21.9783 106.6923,22.6493 C105.8753,23.3223 104.9833,23.6593 104.0123,23.6593 C102.1023,23.6593 101.1473,22.6813 101.1473,20.7233 C101.1473,19.7573 101.4733,19.0703 102.1233,18.6683 C102.7743,18.2633 103.8363,17.9513 105.3133,17.7313 C106.7873,17.5113 107.6543,17.3453 107.9143,17.2343 L107.9143,20.2083 Z M112.8893,23.5863 C112.3873,23.5973 112.0533,23.5073 111.8853,23.3093 C111.7193,23.1133 111.6353,22.7903 111.6353,22.3373 L111.6353,13.6203 C111.6353,10.1363 109.4733,8.3973 105.1493,8.3973 C103.0373,8.3733 101.2743,8.7653 99.8583,9.5783 C98.4423,10.3883 97.7273,11.4673 97.7153,12.8073 C97.7153,13.3863 97.9363,13.8963 98.3773,14.3393 C98.8193,14.7833 99.4043,15.0043 100.1313,15.0043 C100.8583,15.0043 101.4163,14.8013 101.8093,14.3943 C102.1903,13.9883 102.3813,13.4173 102.3813,12.6773 C102.3813,11.9413 102.0183,11.3933 101.2933,11.0363 C102.1863,10.5563 103.2293,10.3163 104.4203,10.3163 C105.6103,10.3163 106.4903,10.5493 107.0593,11.0133 C107.6293,11.4783 107.9143,12.2613 107.9143,13.3623 L107.9143,15.1253 C107.9263,15.4673 107.7853,15.6873 107.4873,15.7853 C107.1903,15.8843 106.2813,16.0373 104.7623,16.2443 C103.2423,16.4533 101.9753,16.7163 100.9593,17.0333 C99.9673,17.3513 99.0723,17.8903 98.2763,18.6483 C97.4773,19.4073 97.0783,20.4223 97.0783,21.6953 C97.0783,23.0173 97.5453,24.0923 98.4793,24.9163 C99.4123,25.7393 100.5803,26.1503 101.9853,26.1503 C103.3873,26.1503 104.6453,25.8553 105.7583,25.2633 C106.8713,24.6733 107.6723,23.9113 108.1643,22.9803 L108.3583,22.9803 C108.3583,23.9883 108.6723,24.7563 109.3033,25.2843 C109.9323,25.8123 110.6973,26.0783 111.5963,26.0783 C113.4083,26.0783 114.7643,25.0563 115.6643,23.0153 L114.2763,22.2283 C113.8523,23.1333 113.3893,23.5863 112.8893,23.5863 L112.8893,23.5863 Z M81.7913,15.7593 C82.0743,12.1553 83.5593,10.3533 86.2463,10.3533 C88.7273,10.3533 90.1213,12.1553 90.4303,15.7593 L81.7913,15.7593 Z M92.3383,11.0743 C91.0283,9.2643 89.0923,8.3593 86.5353,8.3593 C83.9773,8.3593 81.8623,9.2343 80.1923,10.9793 C78.5203,12.7283 77.6853,14.9003 77.6853,17.4983 C77.6853,20.0973 78.4493,22.2133 79.9793,23.8473 C81.5083,25.4813 83.6103,26.2983 86.2833,26.2983 C88.3153,26.3103 90.0123,25.8423 91.3733,24.8943 C92.7373,23.9493 93.6623,22.5513 94.1513,20.7073 L92.2423,20.7073 C91.2133,22.8953 89.5553,23.9923 87.2683,23.9923 C83.6943,23.9923 81.8563,21.8393 81.7523,17.5323 L94.2273,17.5323 C94.2793,15.0353 93.6493,12.8813 92.3383,11.0743 L92.3383,11.0743 Z M63.0993,12.7343 L58.9163,12.7343 L58.9163,3.5793 L63.5623,3.5793 C65.3873,3.5793 66.6793,3.9313 67.4373,4.6343 C68.1963,5.3383 68.5763,6.4533 68.5763,7.9823 C68.5763,9.5113 68.1713,10.6803 67.3613,11.4953 C66.5503,12.3093 65.1313,12.7203 63.0993,12.7343 L63.0993,12.7343 Z M73.4723,23.9003 C72.7913,23.9003 72.3993,23.2793 72.2973,22.0423 L72.0653,19.3033 C71.9493,17.8883 71.4933,16.7463 70.6973,15.8713 C69.8863,15.0113 68.5373,14.3783 66.6473,13.9723 L66.6473,13.6153 C68.9613,13.2213 70.6383,12.4823 71.6793,11.3993 C72.7203,10.3143 73.2423,9.0393 73.2423,7.5743 C73.2543,5.7143 72.4903,4.1683 70.9473,2.9363 C69.4043,1.7043 66.8143,1.0903 63.1773,1.0903 L50.4523,1.0903 L50.4523,3.5793 L54.8473,3.5793 L54.8473,23.4743 L50.4523,23.4743 L50.4523,25.9673 L63.1773,25.9673 L63.1773,23.4743 L58.9163,23.4743 L58.9163,15.0403 L63.4083,15.0403 C65.1703,15.0403 66.3323,15.3363 66.8983,15.9223 C67.4643,16.5103 67.7783,17.5093 67.8423,18.9183 L67.9203,21.9303 C67.9323,23.5153 68.3773,24.6523 69.2503,25.3403 C70.1253,26.0293 71.2163,26.3793 72.5283,26.3893 C74.5583,26.3793 76.0373,25.2293 76.9633,22.9433 L75.2273,22.1503 C74.6103,23.3163 74.0253,23.9003 73.4723,23.9003 L73.4723,23.9003 Z M10.8633,19.5883 C12.2503,18.4823 15.0233,17.1543 18.7213,16.7123 C18.9533,16.7123 18.9533,16.7123 19.1833,16.4923 L20.8013,16.4923 L21.0333,16.4923 L22.6503,16.4923 C22.6503,16.7123 22.8823,16.7123 22.8823,16.7123 C26.8103,17.1543 29.3533,18.4823 30.9703,19.5883 L31.4333,14.9443 L33.2833,11.6273 L33.2833,10.3013 C33.0503,9.8593 33.0503,9.6363 33.0503,9.4173 L32.8203,9.1953 C32.8203,8.9743 32.8203,8.5333 32.5893,8.3103 C32.3573,7.8693 32.3573,7.6473 32.1273,7.2053 C30.2773,3.6683 26.3483,1.0153 21.9573,0.5743 L19.8773,0.5743 C15.2553,1.0153 11.5563,3.6683 9.7083,7.2053 C9.4763,7.6473 9.4763,7.8693 9.2463,8.3103 C9.0143,8.5333 9.0143,8.9743 8.7833,9.1953 L8.7833,9.4173 C8.7833,9.6363 8.7833,9.8593 8.5523,10.3013 L8.5523,11.6273 C9.4763,12.5123 10.1703,13.8383 10.4013,14.9443 L10.8633,19.5883 Z M10.8633,20.2503 L11.0943,20.2503 L11.0943,21.1333 L11.5563,25.3353 L30.2773,25.3353 L30.7403,20.4713 C29.3533,19.3653 25.8863,17.1543 20.8013,17.1543 C16.1793,17.1543 12.7133,19.1433 10.8633,20.2503 L10.8633,20.2503 Z M36.9803,10.9653 C34.4373,10.9653 32.3573,13.3963 32.1273,15.6083 L30.9703,26.6603 C30.9703,28.6503 30.2773,28.8733 32.3573,28.8733 C34.2073,28.8733 34.2073,28.8733 34.2073,26.8833 L37.2113,20.2503 C39.7543,20.2503 41.8343,18.0393 41.8343,15.6083 C41.8343,13.1743 39.7543,10.9653 36.9803,10.9653 L36.9803,10.9653 Z M9.7083,15.6083 C9.2463,12.9553 7.3963,10.9653 4.8533,10.9653 C2.0803,10.9653 0.0003,13.1743 0.0003,15.6083 C0.0003,18.0393 2.0803,20.2503 4.6233,20.2503 L7.6283,27.1023 C7.6283,28.8733 7.6283,28.8733 9.4763,28.8733 C11.5563,28.8733 10.8633,28.6503 10.8633,26.6603 L9.7083,15.6083 Z" id="Fill-1" fill="#A81A1A" mask="url(#mask-2)"></path>
            </g>
        </g>
    </g>
</svg>