<?xml version="1.0" encoding="utf-8"?>
<!-- Generator: Adobe Illustrator 16.0.0, SVG Export Plug-In . SVG Version: 6.00 Build 0)  -->
<!DOCTYPE svg PUBLIC "-//W3C//DTD SVG 1.1//EN" "http://www.w3.org/Graphics/SVG/1.1/DTD/svg11.dtd">
<svg version="1.1" id="Layer_1" xmlns="http://www.w3.org/2000/svg" xmlns:xlink="http://www.w3.org/1999/xlink" x="0px" y="0px"
	 width="18.02px" height="18px" viewBox="0 0 18.02 18" enable-background="new 0 0 18.02 18" xml:space="preserve">
<path fill="#3394D2" d="M116.563,20.088L103.921,7.475L86.666,2.874L69.42,7.517L56.808,20.16l-4.602,17.256l4.643,17.245
	l12.644,12.613l17.256,4.602l17.245-4.644l12.611-12.643l4.602-17.256L116.563,20.088z M89.376,31.857h-2.109V42.65h2.109v2.754
	h-8.203V42.65h1.969V31.857h-0.387l-5.051,13.547h-1.758l-5.109-13.547H70.45V42.65h2.133v2.754h-6.891V42.65h2.109V31.857h-2.109
	v-2.754h8.177l3.576,9.549l3.598-9.549h8.333V31.857z M100.087,45.603c-2.93,0-5.139-0.789-6.627-2.367s-2.232-3.574-2.232-5.988
	c0-1.719,0.387-3.223,1.16-4.512s1.814-2.26,3.123-2.912s2.744-0.979,4.307-0.979c1.945,0,3.574,0.508,4.887,1.523v-1.266h2.754
	v5.742h-2.754c-0.781-2.062-2.137-3.094-4.066-3.094c-1.594,0-2.799,0.543-3.615,1.629s-1.225,2.387-1.225,3.902
	c0,1.586,0.432,2.869,1.295,3.85s1.963,1.471,3.299,1.471c1.094,0,2.051-0.371,2.871-1.113s1.375-1.773,1.664-3.094l3.211,1.529
	C106.919,43.71,104.235,45.603,100.087,45.603z"/>
<path fill="#FFFFFF" d="M16.078,14.557l-1.596-1.209c-1.242,1.566-3.143,2.592-5.297,2.649c-3.865,0.103-7.081-2.946-7.184-6.812
	C1.899,5.321,4.948,2.105,8.813,2.002c2.145-0.057,4.086,0.858,5.41,2.343l-2.202,2.323l5.998-0.16L17.86,0.512l-2.262,2.384
	C13.9,1.062,11.457-0.068,8.76,0.003C3.791,0.135-0.13,4.271,0.003,9.239c0.132,4.969,4.267,8.89,9.236,8.758
	C12.025,17.923,14.481,16.589,16.078,14.557z"/>
</svg>
