<?xml version="1.0" encoding="utf-8"?>
<!-- Generator: Adobe Illustrator 16.0.0, SVG Export Plug-In . SVG Version: 6.00 Build 0)  -->
<!DOCTYPE svg PUBLIC "-//W3C//DTD SVG 1.1//EN" "http://www.w3.org/Graphics/SVG/1.1/DTD/svg11.dtd">
<svg version="1.1" id="Layer_1" xmlns="http://www.w3.org/2000/svg" xmlns:xlink="http://www.w3.org/1999/xlink" x="0px" y="0px"
	 width="50px" height="50px" viewBox="0 0 50 50" enable-background="new 0 0 50 50" xml:space="preserve">
<g>
	<path fill="#BFBFBF" d="M215.859,157.792H200.6c-1.705,0-3.095-1.377-3.114-3.077l-1.459-20.171
		c-0.508-3.086-2.947-5.854-5.769-9.059c-4.272-4.851-9.589-10.887-9.589-20.479c0-15.197,12.364-27.562,27.562-27.562
		s27.561,12.364,27.561,27.562c0,9.592-5.317,15.628-9.588,20.479c-2.822,3.205-5.263,5.973-5.769,9.059l-1.46,20.171
		C218.954,156.416,217.564,157.792,215.859,157.792z M208.229,79.314c-14.168,0-25.693,11.525-25.693,25.692
		c0,8.886,4.848,14.389,9.122,19.244c2.9,3.292,5.641,6.403,6.218,10.04l0.01,0.079l1.468,20.311c0,0.687,0.557,1.246,1.246,1.246
		h15.26c0.685,0,1.246-0.559,1.246-1.246l0.002-0.068l1.473-20.321c0.58-3.637,3.318-6.747,6.219-10.04
		c4.276-4.855,9.123-10.357,9.123-19.244C233.922,90.839,222.396,79.314,208.229,79.314z"/>
	<path fill="#E18F40" d="M208.696,64.832c0,0.774-0.626,1.401-1.401,1.401l0,0c-0.774,0-1.401-0.627-1.401-1.401V50.818
		c0-0.773,0.627-1.401,1.401-1.401l0,0c0.775,0,1.401,0.628,1.401,1.401V64.832z"/>
	<path fill="#E18F40" d="M239.116,85.443c-0.547,0.547-1.435,0.547-1.981,0l0,0c-0.547-0.548-0.547-1.435,0-1.982l9.909-9.909
		c0.549-0.548,1.435-0.548,1.981,0l0,0c0.549,0.547,0.549,1.434,0,1.981L239.116,85.443z"/>
	<path fill="#E18F40" d="M178.955,83.46c0.548,0.548,0.548,1.436,0,1.982l0,0c-0.547,0.547-1.435,0.547-1.981,0l-9.91-9.909
		c-0.547-0.548-0.547-1.435,0-1.982l0,0c0.548-0.548,1.435-0.548,1.982,0L178.955,83.46z"/>
	<path fill="#E18F40" d="M239.835,124.842c-0.635-0.443-0.791-1.316-0.349-1.951l0,0c0.441-0.635,1.313-0.792,1.95-0.349
		l11.505,8.004c0.635,0.442,0.79,1.314,0.349,1.95l0,0c-0.442,0.635-1.315,0.792-1.952,0.349L239.835,124.842z"/>
	<path fill="#E18F40" d="M175.316,122.597c0.604-0.484,1.486-0.386,1.97,0.218l0,0c0.483,0.604,0.386,1.486-0.218,1.97l-10.94,8.758
		c-0.604,0.484-1.486,0.387-1.969-0.218l0,0c-0.485-0.604-0.386-1.486,0.218-1.97L175.316,122.597z"/>
</g>
<g>
	<g>
		<polygon fill="#BFBFBF" points="307.677,92.001 283.539,116.139 307.677,140.277 309.225,138.729 286.635,116.139 309.225,93.549 
					"/>
		<polygon fill="#BFBFBF" points="346.862,92 345.314,93.548 367.904,116.138 345.314,138.728 346.862,140.276 371,116.138 		"/>
	</g>
	<polygon fill="#E18F40" points="319.7,155 317,155 335,83 337.7,83 	"/>
</g>
<g>
	<g>
		<path fill="#BFBFBF" d="M2,64.5v15.833h57V64.5H2z M57.417,78.75H3.583V66.083h53.833V78.75z"/>
		<path fill="#BFBFBF" d="M46.333,69.25H6.75v6.333h39.583V69.25z M44.75,74H8.333v-3.167H44.75V74z"/>
		<path fill="#BFBFBF" d="M2,101.061h57V85.227H2V101.061z M3.583,86.811h53.833v12.667H3.583V86.811z"/>
		<path fill="#BFBFBF" d="M6.75,96.311h39.583v-6.333H6.75V96.311z M8.333,91.56H44.75v3.167H8.333V91.56z"/>
		<path fill="#BFBFBF" d="M2,121.788h57v-15.833H2V121.788z M3.583,107.538h53.833v12.667H3.583V107.538z"/>
		<path fill="#BFBFBF" d="M6.75,117.038h39.583v-6.333H6.75V117.038z M8.333,112.288H44.75v3.167H8.333V112.288z"/>
	</g>
	<g>
		<rect x="51.875" y="69.25" fill="#E18F40" width="3.167" height="6.333"/>
		<rect x="51.875" y="89.977" fill="#E18F40" width="3.167" height="6.333"/>
		<rect x="51.875" y="110.704" fill="#E18F40" width="3.167" height="6.333"/>
	</g>
</g>
<g>
	<polygon fill="#BFBFBF" points="0,0 0,36 12,36 12,34 2,34 2,2 34,2 34,12 36,12 36,0 	"/>
	<path fill="#E18F40" d="M12,12v36h36V12H12z M46,46H14V14h32V46z"/>
</g>
<g>
	<path fill="#BFBFBF" d="M-22,50h-38c-3.313,0-6,2.687-6,6v38c0,3.313,2.687,6,6,6h38c3.313,0,6-2.687,6-6V56
		C-16,52.687-18.687,50-22,50z M-18,94c0,2.209-1.791,4-4,4h-38c-2.209,0-4-1.791-4-4V56c0-2.209,1.791-4,4-4h38
		c2.209,0,4,1.791,4,4V94z"/>
	<path fill="#E18F40" d="M-39.705,90l-2.799-6.999l-5.682,2.435V60L-32,78.499l-5.144,2.205l2.852,7.131L-39.705,90z M-41.44,80.43
		l2.818,7.044l1.804-0.723l-2.836-7.087l4.431-1.898l-11.021-12.594v17.317L-41.44,80.43z"/>
</g>
<g>
	<path fill="#BFBFBF" d="M-66-18V6h44v-24H-66z M-24,4h-40v-20h40V4z"/>
	<rect x="-66" y="10" fill="#BFBFBF" width="26" height="2"/>
	<rect x="-66" y="16" fill="#BFBFBF" width="20" height="2"/>
	<rect x="-66" y="22" fill="#BFBFBF" width="22" height="2"/>
	<path fill="#E18F40" d="M-34,10v20h12V10H-34z M-24,28h-8V12h8V28z"/>
	<rect x="-66" y="28" fill="#BFBFBF" width="26" height="2"/>
</g>
<g>
	<g>
		<path fill="#BFBFBF" d="M90-38H64c-3.313,0-6,2.687-6,6V6c0,3.313,2.687,6,6,6h26c3.313,0,6-2.687,6-6v-38
			C96-35.313,93.313-38,90-38z M94,6c0,2.209-1.791,4-4,4H64c-2.209,0-4-1.791-4-4v-38c0-2.209,1.791-4,4-4h26c2.209,0,4,1.791,4,4
			V6z"/>
	</g>
	<polygon fill="#BFBFBF" points="70.566,-10.2 68.05,-12.638 66.95,-11.538 69.466,-9.1 70.566,-8 71.666,-9.1 80,-16.588 
		78.9,-17.688 	"/>
	<polygon fill="#BFBFBF" points="70.183,2.9 67.667,0.462 66.566,1.562 69.083,4 70.183,5.1 71.282,4 79.616,-3.488 78.516,-4.588 	
		"/>
	<polygon fill="#E18F40" points="70.183,-22.512 67.667,-24.95 66.566,-23.85 69.083,-21.412 70.183,-20.312 71.282,-21.412 
		79.616,-28.9 78.516,-30 	"/>
</g>
</svg>
