<?xml version="1.0" encoding="utf-8"?>
<!-- Generator: Adobe Illustrator 16.0.0, SVG Export Plug-In . SVG Version: 6.00 Build 0)  -->
<!DOCTYPE svg PUBLIC "-//W3C//DTD SVG 1.1//EN" "http://www.w3.org/Graphics/SVG/1.1/DTD/svg11.dtd">
<svg version="1.1" id="Layer_1" xmlns="http://www.w3.org/2000/svg" xmlns:xlink="http://www.w3.org/1999/xlink" x="0px" y="0px"
	 width="68.628px" height="26.411px" viewBox="0 0 68.628 26.411" enable-background="new 0 0 68.628 26.411" xml:space="preserve">
<g id="Logo_1_" display="none">
	<g display="inline">
		<path fill="#7F7F7F" d="M8.801,4.439C3.948,4.439,0,8.371,0,13.208c0,4.832,3.948,8.764,8.801,8.764
			c1.986,0,3.821-0.658,5.296-1.771h3.505v-6.994C17.602,8.371,13.652,4.439,8.801,4.439z M8.801,18.429
			c-2.893,0-5.246-2.341-5.246-5.221c0-2.882,2.354-5.229,5.246-5.229c2.894,0,5.245,2.346,5.245,5.229
			C14.045,16.088,11.695,18.429,8.801,18.429z M31.73,18.429c-2.893,0-5.246-2.341-5.246-5.221c0-2.882,2.354-5.229,5.246-5.229
			c1.788,0,3.368,0.897,4.314,2.261c0.383-1.232,0.99-2.366,1.779-3.351c-1.582-1.516-3.732-2.45-6.094-2.45
			c-4.853,0-8.802,3.931-8.802,8.769c0,4.832,3.95,8.764,8.802,8.764c2.362,0,4.512-0.937,6.094-2.451
			c-0.789-0.981-1.396-2.116-1.779-3.349C35.099,17.536,33.518,18.429,31.73,18.429z M31.73,3.542V0
			c-4.9,0-9.187,2.661-11.483,6.608c-0.079-0.134-0.157-0.267-0.239-0.398h-4.555c1.857,1.761,3.017,4.246,3.017,6.998h0.016v6.994
			h3.555v-7.515C22.312,7.598,26.555,3.542,31.73,3.542z"/>
	</g>
</g>
<path display="none" fill="#5D97C1" d="M59.824,4.439c-2.865,0-5.414,1.375-7.022,3.492c-1.61-2.118-4.158-3.492-7.023-3.492
	c-4.854,0-8.803,3.932-8.803,8.77c0,4.831,3.948,8.764,8.803,8.764c0.407,0,0.812-0.029,1.206-0.085l-2.398,4.523h4.016l4.201-7.928
	c0-0.002,0-0.002,0-0.002c1.607,2.121,4.156,3.491,7.021,3.491c4.856,0,8.805-3.933,8.805-8.764
	C68.626,8.371,64.679,4.439,59.824,4.439z M45.777,18.429c-2.895,0-5.248-2.341-5.248-5.221c0-2.883,2.354-5.229,5.248-5.229
	c2.891,0,5.246,2.347,5.246,5.229C51.023,16.088,48.667,18.429,45.777,18.429z M59.824,18.429c-2.892,0-5.246-2.341-5.246-5.221
	c0-2.883,2.354-5.229,5.246-5.229c2.894,0,5.248,2.347,5.248,5.229C65.07,16.088,62.717,18.429,59.824,18.429z"/>
<g>
	<rect x="-8.98" y="-6.627" fill="none" width="86.627" height="38.667"/>
	<g>
		<path fill="#FFFFFF" d="M31.331,15.926h-1.108c-0.099,0-0.136-0.092-0.18-0.182l-1.307-2.199h-0.202
			c-0.237,0-0.969-0.025-1.178-0.037v2.236c0,0.101-0.074,0.182-0.173,0.182h-0.908c-0.1,0-0.182-0.081-0.182-0.182V9.799
			c0-0.182,0.108-0.246,0.291-0.272c0.473-0.072,1.487-0.117,2.149-0.117c1.397,0,2.688,0.5,2.688,2.051v0.082
			c0,0.96-0.48,1.486-1.224,1.775l1.423,2.428c0.019,0.027,0.019,0.054,0.019,0.074C31.439,15.88,31.403,15.926,31.331,15.926z
			 M29.969,11.46c0-0.68-0.527-0.971-1.435-0.971c-0.19,0-1.016,0.018-1.178,0.036v1.967c0.143,0.009,1.022,0.028,1.178,0.028
			c0.934,0,1.435-0.182,1.435-0.979V11.46z M33.859,14.139c0,0.76,0.029,0.78,0.716,0.78h2.295c0.101,0,0.184,0.082,0.184,0.182
			v0.579c0,0.129-0.047,0.175-0.184,0.191c-0.291,0.045-0.88,0.126-1.961,0.126c-1.505,0-2.304,0.012-2.304-1.858v-2.872
			c0-1.869,0.799-1.858,2.304-1.858c1.081,0,1.67,0.083,1.961,0.127c0.137,0.017,0.184,0.064,0.184,0.191v0.58
			c0,0.1-0.083,0.183-0.184,0.183h-2.295c-0.688,0-0.716,0.021-0.716,0.778v0.833h2.903c0.1,0,0.182,0.082,0.182,0.18v0.655
			c0,0.099-0.082,0.182-0.182,0.182h-2.903V14.139z M41.126,15.998c-1.46,0-2.716-0.634-2.716-2.568V9.655
			c0-0.102,0.082-0.173,0.182-0.173h0.896c0.101,0,0.181,0.071,0.181,0.173v3.774c0,1.035,0.479,1.526,1.457,1.526
			c0.98,0,1.459-0.491,1.459-1.526V9.655c0-0.102,0.08-0.173,0.18-0.173h0.897c0.102,0,0.183,0.071,0.183,0.173v3.774
			C43.845,15.364,42.588,15.998,41.126,15.998z M49.81,10.533h-1.809v5.211c0,0.101-0.084,0.182-0.184,0.182h-0.898
			c-0.098,0-0.181-0.081-0.181-0.182v-5.211h-1.812c-0.099,0-0.18-0.062-0.18-0.163V9.655c0-0.102,0.081-0.173,0.18-0.173h4.883
			c0.099,0,0.182,0.071,0.182,0.173v0.716C49.992,10.471,49.909,10.533,49.81,10.533z M62.132,15.926h-1.108
			c-0.1,0-0.136-0.092-0.181-0.182l-1.307-2.199h-0.203c-0.234,0-0.968-0.025-1.179-0.037v2.236c0,0.101-0.07,0.182-0.172,0.182
			h-0.905c-0.1,0-0.181-0.081-0.181-0.182V9.799c0-0.182,0.106-0.246,0.289-0.272c0.471-0.072,1.486-0.117,2.147-0.117
			c1.397,0,2.688,0.5,2.688,2.051v0.082c0,0.96-0.482,1.486-1.226,1.775l1.426,2.428c0.019,0.027,0.019,0.054,0.019,0.074
			C62.241,15.88,62.204,15.926,62.132,15.926z M60.772,11.46c0-0.68-0.529-0.971-1.438-0.971c-0.189,0-1.015,0.018-1.179,0.036
			v1.967c0.147,0.009,1.026,0.028,1.179,0.028c0.937,0,1.438-0.182,1.438-0.979V11.46z M65.594,16.002
			c-0.802,0-1.613-0.138-2.05-0.238c-0.092-0.018-0.172-0.081-0.172-0.182V14.93c0-0.1,0.08-0.172,0.172-0.172
			c0.01,0,0.01,0,0.018,0c0.364,0.044,1.213,0.163,2.051,0.163c0.807,0,1.055-0.289,1.055-0.814c0-0.681-1.624-1.058-2.418-1.384
			c-0.789-0.327-1.068-0.952-1.068-1.586c0-0.999,0.803-1.724,2.491-1.724c0.863,0,1.655,0.164,1.965,0.238
			C67.728,9.669,67.8,9.732,67.8,9.823v0.671c0,0.089-0.062,0.163-0.155,0.163c-0.008,0-0.008,0-0.018,0
			c-0.6-0.054-1.22-0.165-2.01-0.165c-0.671,0-1.175,0.236-1.175,0.644c0,0.298,0.342,0.573,0.743,0.733
			c0.403,0.158,0.932,0.364,1.535,0.607c0.765,0.309,1.26,0.759,1.26,1.63C67.981,15.022,67.41,16.002,65.594,16.002z
			 M52.177,14.139c0,0.76,0.027,0.78,0.716,0.78h2.299c0.098,0,0.179,0.082,0.179,0.182v0.579c0,0.129-0.045,0.175-0.179,0.191
			c-0.294,0.045-0.884,0.126-1.962,0.126c-1.509,0-2.306,0.012-2.306-1.858v-2.872c0-1.869,0.797-1.858,2.306-1.858
			c1.078,0,1.668,0.083,1.962,0.127c0.134,0.017,0.179,0.064,0.179,0.191v0.58c0,0.1-0.081,0.183-0.179,0.183h-2.299
			c-0.688,0-0.716,0.021-0.716,0.778v0.833h2.903c0.1,0,0.181,0.082,0.181,0.18v0.655c0,0.099-0.081,0.182-0.181,0.182h-2.903
			V14.139z"/>
		<g>
			<path fill="#FFFFFF" d="M9.907,9.875c0.104,0.195,0.034,0.44-0.163,0.546c-0.199,0.106-0.442,0.031-0.548-0.165
				c-0.108-0.195-0.033-0.441,0.162-0.546C9.556,9.604,9.803,9.678,9.907,9.875z M7.913,13.034
				c-0.114,0.064-0.157,0.208-0.095,0.323c0.063,0.117,0.207,0.158,0.32,0.093c0.116-0.059,0.163-0.207,0.097-0.32
				C8.171,13.016,8.03,12.972,7.913,13.034z M7.873,12.063c-0.133,0.072-0.183,0.24-0.111,0.373
				c0.075,0.136,0.242,0.186,0.376,0.114c0.133-0.073,0.184-0.244,0.112-0.376C8.177,12.039,8.009,11.988,7.873,12.063z
				 M8.124,11.129c-0.154,0.083-0.21,0.275-0.13,0.428c0.084,0.154,0.276,0.212,0.429,0.128c0.155-0.082,0.213-0.275,0.13-0.429
				C8.467,11.104,8.278,11.047,8.124,11.129z M8.638,10.321c-0.176,0.095-0.24,0.308-0.146,0.484
				c0.094,0.172,0.307,0.237,0.48,0.143c0.177-0.093,0.24-0.311,0.148-0.481C9.027,10.293,8.81,10.226,8.638,10.321z M8.245,13.953
				c-0.098,0.052-0.132,0.172-0.08,0.271c0.052,0.096,0.17,0.132,0.27,0.081c0.095-0.055,0.131-0.175,0.078-0.271
				C8.46,13.939,8.339,13.902,8.245,13.953z M12.835,10.647c0.062,0.115,0.206,0.157,0.324,0.098
				c0.115-0.065,0.159-0.209,0.097-0.324c-0.064-0.116-0.208-0.16-0.321-0.096C12.816,10.389,12.773,10.533,12.835,10.647z
				 M12.029,10.134c0.072,0.135,0.244,0.184,0.374,0.11c0.137-0.073,0.187-0.24,0.113-0.375c-0.071-0.135-0.241-0.185-0.374-0.114
				C12.008,9.831,11.956,10.001,12.029,10.134z M11.096,9.884c0.082,0.153,0.273,0.211,0.426,0.127
				c0.157-0.084,0.212-0.275,0.131-0.429c-0.082-0.153-0.274-0.211-0.429-0.126C11.07,9.538,11.015,9.729,11.096,9.884z
				 M10.124,9.922c0.093,0.176,0.311,0.238,0.484,0.146c0.173-0.094,0.235-0.31,0.143-0.484c-0.091-0.172-0.31-0.238-0.483-0.143
				C10.094,9.534,10.033,9.751,10.124,9.922z M13.44,11.374c0.051,0.097,0.172,0.131,0.266,0.079
				c0.097-0.051,0.133-0.169,0.081-0.266c-0.053-0.098-0.17-0.133-0.27-0.084C13.426,11.156,13.387,11.279,13.44,11.374z
				 M12.756,15.152c-0.106-0.197-0.352-0.274-0.549-0.166c-0.196,0.104-0.271,0.35-0.163,0.548c0.106,0.195,0.352,0.267,0.549,0.164
				C12.788,15.588,12.861,15.342,12.756,15.152z M9.115,14.759c-0.06-0.113-0.205-0.155-0.32-0.095s-0.158,0.207-0.096,0.319
				c0.061,0.117,0.206,0.16,0.321,0.096C9.133,15.02,9.177,14.875,9.115,14.759z M9.923,15.274
				c-0.074-0.134-0.242-0.186-0.375-0.112c-0.138,0.075-0.186,0.241-0.111,0.376c0.069,0.134,0.239,0.187,0.373,0.113
				C9.945,15.576,9.996,15.407,9.923,15.274z M10.857,15.524c-0.081-0.154-0.275-0.208-0.431-0.129
				c-0.154,0.083-0.208,0.276-0.127,0.429c0.084,0.156,0.276,0.212,0.429,0.129C10.884,15.874,10.941,15.678,10.857,15.524z
				 M11.829,15.484c-0.094-0.173-0.308-0.237-0.484-0.145c-0.174,0.093-0.234,0.309-0.14,0.482c0.09,0.172,0.305,0.24,0.479,0.145
				C11.859,15.875,11.921,15.656,11.829,15.484z M14.036,12.376c0.117-0.067,0.162-0.212,0.101-0.325
				c-0.064-0.117-0.208-0.159-0.321-0.096c-0.118,0.061-0.162,0.208-0.098,0.323C13.777,12.393,13.924,12.436,14.036,12.376z
				 M14.081,13.345c0.134-0.073,0.183-0.242,0.109-0.375c-0.071-0.136-0.238-0.184-0.373-0.112c-0.136,0.074-0.183,0.24-0.115,0.377
				C13.774,13.368,13.948,13.416,14.081,13.345z M13.827,14.279c0.157-0.085,0.212-0.274,0.132-0.43
				c-0.084-0.152-0.274-0.212-0.43-0.128c-0.154,0.081-0.211,0.277-0.13,0.431C13.484,14.304,13.676,14.362,13.827,14.279z
				 M13.316,15.084c0.172-0.091,0.237-0.31,0.143-0.481c-0.096-0.172-0.311-0.239-0.482-0.145c-0.174,0.093-0.237,0.311-0.143,0.482
				C12.925,15.115,13.142,15.18,13.316,15.084z"/>
			<path fill="#FFFFFF" d="M12.633,8.911c-0.08,0.274-0.37,0.431-0.645,0.35c-0.28-0.082-0.432-0.369-0.352-0.645
				c0.079-0.275,0.367-0.434,0.645-0.354C12.558,8.343,12.716,8.632,12.633,8.911z M7.654,10.138
				c-0.137-0.037-0.279,0.038-0.32,0.175c-0.041,0.134,0.039,0.277,0.174,0.316c0.136,0.04,0.277-0.037,0.318-0.173
				C7.868,10.322,7.788,10.18,7.654,10.138z M8.554,9.147c-0.169-0.05-0.343,0.047-0.392,0.215c-0.05,0.169,0.044,0.344,0.214,0.394
				C8.543,9.804,8.72,9.707,8.769,9.54C8.818,9.373,8.722,9.197,8.554,9.147z M9.708,8.448c-0.214-0.062-0.437,0.06-0.5,0.271
				c-0.062,0.213,0.061,0.437,0.273,0.5C9.694,9.282,9.919,9.162,9.98,8.947C10.042,8.735,9.919,8.511,9.708,8.448z M10.987,8.162
				c-0.244-0.072-0.491,0.067-0.562,0.306c-0.072,0.24,0.064,0.49,0.305,0.562c0.24,0.071,0.49-0.068,0.562-0.306
				C11.363,8.485,11.226,8.231,10.987,8.162z M7.084,11.364c-0.102-0.029-0.208,0.029-0.236,0.129
				c-0.03,0.102,0.026,0.209,0.128,0.24c0.103,0.029,0.209-0.03,0.238-0.132C7.244,11.5,7.187,11.395,7.084,11.364z M14.84,12.518
				c-0.04,0.134,0.036,0.278,0.175,0.318c0.136,0.04,0.277-0.038,0.317-0.174c0.039-0.134-0.036-0.277-0.173-0.318
				C15.023,12.305,14.878,12.382,14.84,12.518z M14.544,11.235c-0.052,0.17,0.048,0.347,0.215,0.395
				c0.169,0.05,0.343-0.047,0.393-0.215c0.049-0.168-0.046-0.344-0.214-0.392C14.771,10.973,14.592,11.069,14.544,11.235z
				 M13.846,10.082c-0.063,0.216,0.06,0.438,0.272,0.5c0.214,0.062,0.436-0.061,0.5-0.274c0.064-0.211-0.058-0.435-0.273-0.498
				C14.133,9.748,13.911,9.871,13.846,10.082z M12.863,9.186c-0.072,0.238,0.067,0.49,0.307,0.562c0.24,0.07,0.491-0.07,0.562-0.309
				c0.071-0.239-0.065-0.491-0.305-0.561C13.184,8.807,12.935,8.946,12.863,9.186z M14.736,13.811
				c-0.028,0.102,0.029,0.209,0.129,0.238c0.103,0.03,0.208-0.027,0.238-0.131c0.03-0.101-0.027-0.207-0.129-0.236
				C14.875,13.652,14.766,13.71,14.736,13.811z M10.316,16.798c0.081-0.276-0.075-0.565-0.353-0.646
				c-0.276-0.081-0.565,0.077-0.645,0.352c-0.08,0.278,0.075,0.564,0.353,0.647C9.947,17.23,10.237,17.072,10.316,16.798z
				 M7.11,12.895c0.041-0.135-0.036-0.277-0.173-0.319c-0.135-0.041-0.277,0.04-0.319,0.174c-0.041,0.135,0.04,0.276,0.174,0.317
				C6.928,13.108,7.07,13.032,7.11,12.895z M7.408,14.176c0.049-0.168-0.048-0.344-0.214-0.391c-0.17-0.051-0.346,0.045-0.393,0.213
				c-0.047,0.168,0.043,0.344,0.214,0.393C7.181,14.443,7.357,14.346,7.408,14.176z M8.107,15.331
				c0.062-0.212-0.062-0.438-0.275-0.5c-0.214-0.062-0.434,0.06-0.499,0.274c-0.063,0.211,0.058,0.435,0.272,0.497
				C7.821,15.667,8.042,15.545,8.107,15.331z M9.089,16.229c0.069-0.238-0.067-0.492-0.308-0.562s-0.49,0.066-0.56,0.31
				c-0.07,0.235,0.064,0.487,0.306,0.559C8.767,16.604,9.017,16.467,9.089,16.229z M14.296,15.274
				c0.139,0.038,0.282-0.038,0.321-0.173c0.039-0.136-0.039-0.28-0.174-0.32c-0.135-0.04-0.278,0.037-0.318,0.174
				C14.084,15.092,14.163,15.235,14.296,15.274z M13.397,16.266c0.167,0.05,0.343-0.047,0.391-0.213
				c0.051-0.17-0.044-0.346-0.212-0.396c-0.169-0.05-0.345,0.049-0.396,0.216C13.133,16.04,13.231,16.217,13.397,16.266z
				 M12.243,16.965c0.215,0.062,0.437-0.06,0.5-0.274c0.063-0.21-0.058-0.435-0.272-0.498c-0.213-0.063-0.439,0.06-0.5,0.272
				C11.908,16.679,12.031,16.902,12.243,16.965z M10.966,17.25c0.241,0.072,0.492-0.066,0.561-0.304
				c0.07-0.241-0.065-0.492-0.305-0.563c-0.242-0.069-0.493,0.067-0.564,0.308C10.588,16.928,10.726,17.178,10.966,17.25z"/>
			<path fill="#FFFFFF" d="M15.217,9.175c-0.251,0.266-0.675,0.28-0.942,0.026c-0.27-0.254-0.28-0.675-0.026-0.942
				C14.5,7.99,14.921,7.977,15.19,8.23C15.458,8.483,15.471,8.904,15.217,9.175z M8.567,7.659C8.434,7.535,8.226,7.541,8.102,7.672
				C7.978,7.805,7.983,8.011,8.114,8.137c0.134,0.124,0.342,0.118,0.466-0.015C8.706,7.991,8.698,7.783,8.567,7.659z M10.234,7.024
				C10.07,6.871,9.814,6.88,9.661,7.042c-0.154,0.164-0.147,0.42,0.018,0.575c0.161,0.153,0.419,0.144,0.574-0.019
				C10.405,7.437,10.398,7.178,10.234,7.024z M12.023,6.894c-0.207-0.196-0.533-0.184-0.729,0.021
				c-0.194,0.207-0.185,0.534,0.023,0.729c0.207,0.196,0.535,0.186,0.728-0.021C12.241,7.415,12.229,7.089,12.023,6.894z
				 M13.715,7.327c-0.237-0.223-0.602-0.209-0.821,0.023c-0.22,0.233-0.21,0.599,0.023,0.82c0.233,0.22,0.603,0.208,0.821-0.023
				C13.957,7.914,13.948,7.546,13.715,7.327z M7.154,8.769C7.053,8.677,6.899,8.682,6.807,8.78c-0.094,0.099-0.089,0.253,0.01,0.346
				c0.1,0.095,0.254,0.089,0.346-0.009C7.257,9.018,7.251,8.863,7.154,8.769z M15.692,14.821c-0.125,0.132-0.119,0.341,0.014,0.466
				c0.134,0.125,0.342,0.118,0.466-0.015c0.124-0.132,0.119-0.34-0.014-0.466C16.024,14.682,15.817,14.689,15.692,14.821z
				 M16.114,13.122c-0.153,0.163-0.144,0.419,0.018,0.573c0.166,0.156,0.42,0.147,0.575-0.018c0.153-0.163,0.147-0.419-0.019-0.574
				C16.527,12.952,16.268,12.959,16.114,13.122z M15.984,11.333c-0.196,0.207-0.186,0.534,0.022,0.729
				c0.208,0.197,0.535,0.184,0.729-0.022c0.196-0.207,0.186-0.534-0.021-0.729C16.506,11.116,16.179,11.125,15.984,11.333z
				 M15.359,9.675c-0.219,0.232-0.208,0.6,0.025,0.82c0.234,0.221,0.601,0.207,0.82-0.025c0.22-0.234,0.21-0.598-0.025-0.821
				C15.948,9.429,15.581,9.442,15.359,9.675z M14.787,16.295c-0.093,0.099-0.088,0.253,0.01,0.347
				c0.1,0.092,0.254,0.088,0.347-0.013c0.093-0.097,0.089-0.253-0.011-0.344C15.036,16.191,14.878,16.196,14.787,16.295z
				 M7.704,17.153c0.253-0.269,0.24-0.689-0.028-0.945c-0.27-0.253-0.691-0.238-0.943,0.029c-0.252,0.271-0.241,0.689,0.029,0.944
				C7.029,17.434,7.452,17.421,7.704,17.153z M6.258,10.59c0.122-0.132,0.118-0.34-0.015-0.464C6.112,10,5.904,10.008,5.78,10.138
				c-0.125,0.132-0.119,0.339,0.015,0.465C5.926,10.726,6.133,10.721,6.258,10.59z M5.835,12.29
				c0.154-0.162,0.145-0.421-0.017-0.575c-0.165-0.155-0.422-0.146-0.575,0.018c-0.151,0.164-0.147,0.418,0.017,0.573
				C5.423,12.459,5.682,12.452,5.835,12.29z M5.966,14.08c0.196-0.207,0.187-0.535-0.022-0.732c-0.207-0.197-0.533-0.185-0.73,0.022
				c-0.194,0.207-0.185,0.534,0.022,0.729C5.445,14.296,5.771,14.286,5.966,14.08z M6.589,15.737c0.22-0.232,0.209-0.601-0.024-0.82
				c-0.234-0.223-0.6-0.206-0.818,0.025c-0.22,0.231-0.213,0.6,0.021,0.82C6.004,15.98,6.372,15.969,6.589,15.737z M13.383,17.751
				c0.134,0.127,0.342,0.12,0.466-0.014c0.125-0.13,0.118-0.339-0.015-0.464c-0.132-0.125-0.34-0.119-0.464,0.014
				C13.245,17.419,13.251,17.628,13.383,17.751z M11.716,18.385c0.164,0.154,0.42,0.145,0.575-0.018
				c0.153-0.161,0.147-0.42-0.017-0.572c-0.164-0.154-0.421-0.146-0.576,0.018C11.546,17.974,11.553,18.232,11.716,18.385z
				 M9.926,18.515c0.209,0.197,0.534,0.187,0.729-0.02c0.196-0.207,0.188-0.535-0.02-0.729c-0.208-0.196-0.536-0.185-0.731,0.021
				C9.708,17.993,9.718,18.323,9.926,18.515z M8.237,18.083c0.234,0.222,0.602,0.209,0.819-0.023
				c0.219-0.234,0.211-0.601-0.024-0.821c-0.234-0.218-0.602-0.206-0.82,0.027C7.993,17.495,8.003,17.863,8.237,18.083z"/>
			<path fill="#FFFFFF" d="M17.928,10.588c-0.41,0.177-0.886-0.013-1.063-0.424c-0.178-0.412,0.013-0.884,0.423-1.062
				c0.408-0.176,0.884,0.01,1.062,0.423C18.527,9.935,18.337,10.412,17.928,10.588z M12.251,5.443
				c-0.049-0.244-0.283-0.398-0.524-0.35c-0.242,0.048-0.399,0.281-0.35,0.525c0.047,0.241,0.282,0.398,0.525,0.349
				C12.143,5.918,12.299,5.683,12.251,5.443z M14.166,5.859c-0.075-0.291-0.369-0.464-0.657-0.389
				c-0.29,0.073-0.465,0.365-0.391,0.656c0.073,0.29,0.369,0.465,0.658,0.39C14.065,6.443,14.239,6.148,14.166,5.859z M15.931,6.712
				c-0.112-0.358-0.489-0.554-0.843-0.442c-0.355,0.109-0.554,0.487-0.442,0.843c0.111,0.354,0.489,0.553,0.843,0.442
				C15.844,7.444,16.042,7.066,15.931,6.712z M17.339,7.966c-0.143-0.387-0.57-0.581-0.954-0.438C16,7.67,15.802,8.096,15.946,8.482
				c0.143,0.385,0.571,0.582,0.954,0.439C17.285,8.78,17.481,8.352,17.339,7.966z M8.413,5.945C8.342,5.779,8.15,5.705,7.985,5.776
				C7.821,5.847,7.745,6.037,7.816,6.203c0.071,0.164,0.263,0.239,0.427,0.169C8.407,6.3,8.484,6.109,8.413,5.945z M16.512,16.658
				c-0.202,0.142-0.249,0.42-0.106,0.621c0.143,0.201,0.421,0.249,0.623,0.106c0.201-0.142,0.248-0.42,0.104-0.623
				C16.991,16.562,16.713,16.514,16.512,16.658z M17.4,14.917c-0.253,0.16-0.329,0.494-0.168,0.746
				c0.16,0.254,0.494,0.327,0.745,0.167c0.252-0.16,0.328-0.492,0.168-0.745C17.984,14.833,17.651,14.758,17.4,14.917z
				 M17.819,12.958c-0.324,0.181-0.44,0.592-0.258,0.918c0.184,0.324,0.594,0.438,0.918,0.256c0.325-0.183,0.44-0.592,0.257-0.917
				C18.554,12.891,18.145,12.775,17.819,12.958z M17.793,10.994c-0.367,0.182-0.518,0.627-0.336,0.994
				c0.183,0.372,0.628,0.519,0.997,0.336c0.366-0.181,0.519-0.625,0.335-0.995C18.607,10.963,18.161,10.812,17.793,10.994z
				 M13.707,19.041c-0.164,0.071-0.24,0.262-0.17,0.427c0.072,0.166,0.262,0.24,0.427,0.17c0.164-0.071,0.241-0.262,0.17-0.427
				C14.063,19.045,13.871,18.969,13.707,19.041z M4.663,16.31c0.408-0.177,0.598-0.654,0.42-1.065
				c-0.177-0.409-0.652-0.597-1.061-0.421C3.613,15,3.421,15.474,3.599,15.886C3.775,16.296,4.253,16.486,4.663,16.31z M5.438,8.755
				c0.2-0.143,0.249-0.421,0.106-0.622C5.4,7.931,5.123,7.885,4.922,8.027C4.721,8.17,4.671,8.446,4.815,8.649
				C4.959,8.85,5.236,8.897,5.438,8.755z M4.55,10.496c0.254-0.16,0.329-0.494,0.168-0.748C4.558,9.495,4.225,9.421,3.973,9.581
				c-0.251,0.161-0.328,0.492-0.167,0.746C3.965,10.58,4.298,10.654,4.55,10.496z M4.129,12.454c0.325-0.181,0.44-0.593,0.258-0.917
				c-0.182-0.325-0.593-0.44-0.917-0.257c-0.325,0.182-0.44,0.591-0.258,0.917C3.394,12.521,3.805,12.637,4.129,12.454z
				 M4.156,14.419c0.368-0.183,0.518-0.628,0.335-0.996c-0.182-0.371-0.627-0.519-0.996-0.335c-0.366,0.181-0.52,0.625-0.337,0.995
				C3.341,14.451,3.788,14.601,4.156,14.419z M9.698,19.97c0.049,0.243,0.284,0.397,0.525,0.351
				c0.241-0.049,0.398-0.283,0.349-0.526c-0.047-0.241-0.284-0.397-0.525-0.349C9.806,19.493,9.65,19.729,9.698,19.97z
				 M7.784,19.552c0.074,0.291,0.368,0.464,0.657,0.39c0.291-0.072,0.465-0.366,0.39-0.656c-0.073-0.288-0.368-0.463-0.658-0.391
				C7.885,18.969,7.711,19.263,7.784,19.552z M6.018,18.7c0.111,0.357,0.488,0.555,0.842,0.442c0.356-0.11,0.555-0.485,0.444-0.842
				c-0.111-0.356-0.49-0.554-0.845-0.444C6.104,17.967,5.907,18.344,6.018,18.7z M4.61,17.446c0.143,0.387,0.571,0.58,0.954,0.438
				c0.385-0.144,0.583-0.567,0.439-0.955c-0.143-0.384-0.569-0.581-0.954-0.438S4.466,17.061,4.61,17.446z M15.238,18.099
				c-0.15,0.121-0.177,0.339-0.058,0.489c0.12,0.152,0.339,0.176,0.49,0.057c0.151-0.119,0.177-0.337,0.058-0.489
				C15.609,18.004,15.39,17.979,15.238,18.099z M11.97,19.507c-0.189,0.029-0.322,0.206-0.294,0.396
				c0.028,0.191,0.205,0.322,0.396,0.294c0.191-0.028,0.323-0.204,0.295-0.396C12.339,19.612,12.162,19.48,11.97,19.507z
				 M10.274,5.508c-0.028-0.191-0.206-0.321-0.396-0.293S9.556,5.418,9.583,5.609c0.028,0.191,0.206,0.322,0.396,0.294
				C10.169,5.875,10.302,5.699,10.274,5.508z M6.769,6.823c-0.12-0.151-0.338-0.175-0.49-0.057c-0.15,0.12-0.177,0.338-0.057,0.489
				C6.34,7.408,6.56,7.432,6.711,7.313C6.861,7.193,6.889,6.975,6.769,6.823z"/>
			<path fill="#FFFFFF" d="M20.225,13.742c-0.571,0-1.034-0.464-1.034-1.037c0-0.575,0.463-1.034,1.036-1.034
				c0.57,0,1.034,0.459,1.034,1.036C21.261,13.277,20.797,13.742,20.225,13.742z M16.16,4.811c0.066-0.311-0.131-0.612-0.439-0.677
				c-0.309-0.066-0.611,0.129-0.678,0.438c-0.065,0.309,0.131,0.613,0.44,0.678C15.791,5.316,16.094,5.119,16.16,4.811z
				 M18.201,6.272c0.06-0.38-0.2-0.732-0.575-0.792c-0.378-0.06-0.732,0.195-0.793,0.575c-0.059,0.377,0.198,0.733,0.576,0.792
				C17.784,6.908,18.141,6.649,18.201,6.272z M19.844,8.17c0.05-0.476-0.294-0.898-0.768-0.949
				c-0.473-0.049-0.899,0.292-0.949,0.769c-0.05,0.474,0.296,0.899,0.769,0.949C19.37,8.988,19.795,8.643,19.844,8.17z
				 M20.863,10.36c0.028-0.527-0.377-0.972-0.9-1c-0.525-0.027-0.973,0.372-1,0.9c-0.027,0.525,0.375,0.972,0.898,1.001
				C20.387,11.289,20.836,10.885,20.863,10.36z M11.392,3.454c0-0.231-0.187-0.416-0.417-0.416c-0.229,0-0.416,0.185-0.416,0.416
				s0.187,0.416,0.416,0.416C11.205,3.87,11.392,3.685,11.392,3.454z M15.482,20.161c-0.31,0.066-0.506,0.369-0.44,0.678
				c0.067,0.311,0.37,0.507,0.678,0.44c0.309-0.065,0.506-0.367,0.439-0.68C16.094,20.293,15.791,20.095,15.482,20.161z
				 M17.409,18.565c-0.379,0.059-0.637,0.413-0.577,0.791c0.061,0.379,0.416,0.634,0.793,0.575c0.375-0.06,0.634-0.412,0.574-0.792
				C18.141,18.761,17.785,18.505,17.409,18.565z M18.896,16.473c-0.473,0.05-0.819,0.475-0.769,0.948
				c0.05,0.477,0.476,0.818,0.949,0.768c0.474-0.05,0.818-0.472,0.768-0.948C19.794,16.767,19.369,16.424,18.896,16.473z
				 M19.862,14.151c-0.523,0.027-0.926,0.476-0.898,0.999c0.027,0.528,0.475,0.927,1,0.901c0.523-0.029,0.927-0.473,0.9-1.001
				C20.836,14.527,20.387,14.123,19.862,14.151z M10.974,21.542c-0.229,0-0.416,0.186-0.416,0.416s0.187,0.416,0.416,0.416
				c0.23,0,0.417-0.186,0.417-0.416S11.205,21.542,10.974,21.542z M1.724,13.742c0.569,0,1.033-0.464,1.033-1.037
				c0-0.575-0.464-1.034-1.033-1.034c-0.57,0-1.037,0.459-1.037,1.036C0.687,13.277,1.154,13.742,1.724,13.742z M6.466,5.25
				c0.309-0.065,0.506-0.369,0.44-0.678c-0.066-0.31-0.369-0.504-0.678-0.439C5.921,4.199,5.723,4.5,5.789,4.811
				C5.854,5.119,6.158,5.316,6.466,5.25z M4.541,6.847c0.379-0.06,0.636-0.415,0.577-0.792C5.057,5.675,4.703,5.42,4.324,5.48
				C3.947,5.54,3.689,5.892,3.749,6.272C3.809,6.649,4.164,6.908,4.541,6.847z M3.053,8.938C3.526,8.888,3.871,8.463,3.82,7.99
				C3.771,7.513,3.345,7.171,2.872,7.221C2.397,7.271,2.055,7.694,2.105,8.17C2.154,8.643,2.578,8.988,3.053,8.938z M2.087,11.262
				c0.523-0.029,0.927-0.476,0.899-1.001c-0.028-0.528-0.475-0.928-1.001-0.9c-0.522,0.027-0.927,0.472-0.9,1
				C1.113,10.885,1.562,11.289,2.087,11.262z M5.789,20.6c-0.066,0.312,0.132,0.613,0.439,0.679c0.309,0.066,0.612-0.13,0.678-0.44
				c0.066-0.309-0.132-0.611-0.44-0.678C6.158,20.095,5.854,20.293,5.789,20.6z M3.75,19.139c-0.061,0.38,0.197,0.732,0.574,0.792
				c0.378,0.059,0.733-0.196,0.793-0.575c0.06-0.378-0.198-0.732-0.577-0.791C4.164,18.505,3.81,18.763,3.75,19.139z M2.105,17.242
				c-0.05,0.477,0.292,0.897,0.767,0.947c0.475,0.051,0.899-0.291,0.949-0.768c0.05-0.474-0.294-0.898-0.768-0.948
				C2.578,16.424,2.155,16.768,2.105,17.242z M1.085,15.05c-0.028,0.528,0.377,0.972,0.9,1.001c0.526,0.026,0.973-0.373,1.001-0.901
				c0.027-0.523-0.376-0.972-0.9-0.999C1.562,14.123,1.113,14.527,1.085,15.05z M13.253,21.21c-0.238,0.064-0.379,0.311-0.316,0.547
				c0.065,0.239,0.31,0.38,0.548,0.315c0.239-0.064,0.38-0.307,0.316-0.547C13.737,21.29,13.491,21.147,13.253,21.21z M8.695,21.21
				c-0.237-0.063-0.482,0.079-0.547,0.316c-0.063,0.239,0.079,0.481,0.315,0.546c0.239,0.064,0.484-0.076,0.548-0.316
				C9.076,21.521,8.934,21.275,8.695,21.21z M13.8,3.885c0.065-0.239-0.078-0.482-0.316-0.546c-0.238-0.063-0.482,0.076-0.547,0.315
				c-0.064,0.24,0.079,0.483,0.316,0.547C13.491,4.265,13.737,4.124,13.8,3.885z M9.012,3.654C8.948,3.415,8.703,3.275,8.464,3.339
				C8.227,3.402,8.084,3.646,8.148,3.884c0.064,0.24,0.31,0.38,0.547,0.317C8.934,4.137,9.076,3.893,9.012,3.654z"/>
		</g>
	</g>
</g>
</svg>
