<?xml version="1.0" encoding="utf-8"?>
<!-- Generator: Adobe Illustrator 16.0.0, SVG Export Plug-In . SVG Version: 6.00 Build 0)  -->
<!DOCTYPE svg PUBLIC "-//W3C//DTD SVG 1.1//EN" "http://www.w3.org/Graphics/SVG/1.1/DTD/svg11.dtd">
<svg version="1.1" id="Layer_1" xmlns="http://www.w3.org/2000/svg" xmlns:xlink="http://www.w3.org/1999/xlink" x="0px" y="0px"
	 width="130px" height="130px" viewBox="0 0 130 130" enable-background="new 0 0 130 130" xml:space="preserve">
<path fill="#5FA6CE" d="M99.791,90.915l1.468-2.259l-0.684-0.446l-1.187,1.824L73.275,73.07l0.119-10.838l19.504-13.253l0.459,0.674
	l7.595-5.16l-2.179-3.206l-7.594,5.16l0.801,1.181L73.417,60.243l0.427-39.019c0,0-1.316-4.212-4.212-3.949
	c-2.896,0.264-3.948,3.949-3.948,3.949l0.599,43.868l-2.583,1.756l-2.613-1.699l0.516-47.189c0,0-1.316-4.212-4.212-3.949
	c-2.896,0.264-3.95,3.949-3.95,3.949l0.582,42.601L36.31,49.055l0.778-1.197l-7.699-5.002l-2.112,3.25l7.7,5.003l0.444-0.685
	l18.628,12.102l0.147,10.779l-24.43,16.602l-1.224-1.801l-0.675,0.459l1.515,2.229l-2.025,1.376l0.43,0.632l2.025-1.375l1.572,2.312
	l0.675-0.458l-1.376-2.024l23.539-15.996l0.534,39.06h5.792l0.478-43.682l2.693-1.83l2.636,1.713l0.644,47.062h5.792l0.465-42.58
	l25.245,16.4l-1.334,2.054l0.685,0.444l1.523-2.346l2.053,1.334l0.418-0.642L99.791,90.915z M61.047,68.648l0.017-1.565l1.169,0.76
	L61.047,68.648z M65.184,67.812l1.125-0.765l0.021,1.507L65.184,67.812z"/>
</svg>
