<?xml version="1.0" encoding="utf-8"?>
<!-- Generator: Adobe Illustrator 16.0.0, SVG Export Plug-In . SVG Version: 6.00 Build 0)  -->
<!DOCTYPE svg PUBLIC "-//W3C//DTD SVG 1.1//EN" "http://www.w3.org/Graphics/SVG/1.1/DTD/svg11.dtd">
<svg version="1.1" id="Layer_1" xmlns="http://www.w3.org/2000/svg" xmlns:xlink="http://www.w3.org/1999/xlink" x="0px" y="0px"
	 width="50px" height="50px" viewBox="0 0 50 50" enable-background="new 0 0 50 50" xml:space="preserve">
<path fill="#BFBFBF" d="M25,0C11.193,0,0,11.193,0,25c0,13.807,11.193,25,25,25c13.807,0,25-11.193,25-25C50,11.193,38.807,0,25,0z
	 M25,48C12.297,48,2,37.703,2,25S12.297,2,25,2s23,10.297,23,23S37.703,48,25,48z"/>
<path fill="#E18F40" d="M42.811,36.089C44.82,32.868,46,29.076,46,25c0-11.598-9.402-21-21-21c-0.337,0-0.667,0.035-1,0.05v20.657
	L42.811,36.089z"/>
<path fill="#333333" d="M35.196,6.572l-10.375,15.49C24.637,22.022,24.447,22,24.251,22c-1.52,0-2.75,1.231-2.75,2.75
	c0,1.519,1.23,2.75,2.75,2.75c1.518,0,2.75-1.23,2.75-2.75c0-0.679-0.256-1.293-0.665-1.773l8.839-16.37L35.196,6.572z"/>
</svg>
