<?xml version="1.0" encoding="UTF-8"?>
<svg width="66px" height="16px" viewBox="0 0 66 16" version="1.1" xmlns="http://www.w3.org/2000/svg" xmlns:xlink="http://www.w3.org/1999/xlink">
    <!-- Generator: Sketch 41.1 (35376) - http://www.bohemiancoding.com/sketch -->
    <title>Shape</title>
    <desc>Created with Sketch.</desc>
    <defs></defs>
    <g id="Page-1" stroke="none" stroke-width="1" fill="none" fill-rule="evenodd">
        <path d="M34,16 L28,16 L28,10.8 C28,10.1 27.7,9.5 27.3,9 L25,6.7 C24.5,6.3 23.9,6 23.2,6 L22,6 L22,16 L16,16 L16,0 L24.7,0 C26,0 27.3,0.5 28.2,1.5 L32.5,5.8 C33.5,6.7 34,8 34,9.3 L34,16 Z M60,0 L60,5.2 C60,5.9 59.7,6.5 59.3,7 L57,9.3 C56.5,9.8 55.9,10 55.2,10 L52.7,10 C53.5,9.1 54,7.9 54,6.7 L54,0 L48,0 L48,5.2 C48,5.9 47.7,6.5 47.3,7 L45,9.3 C44.5,9.8 43.9,10 43.2,10 L42,10 L42,0 L36,0 L36,16 L44.7,16 C46,16 47.3,15.5 48.2,14.5 L51,11.7 L51,16 L56.7,16 C58,16 59.3,15.5 60.2,14.5 L64.5,10.2 C65.5,9.3 66,8 66,6.7 L66,0 L60,0 Z M14,0 L0,0 L0,6 L4,6 L4,16 L10,16 L10,6 L14,6 L14,0 Z" id="Shape" fill="#333333"></path>
    </g>
</svg>