<?xml version="1.0" encoding="utf-8"?>
<!-- Generator: Adobe Illustrator 16.0.0, SVG Export Plug-In . SVG Version: 6.00 Build 0)  -->
<!DOCTYPE svg PUBLIC "-//W3C//DTD SVG 1.1//EN" "http://www.w3.org/Graphics/SVG/1.1/DTD/svg11.dtd">
<svg version="1.1" id="Layer_1" xmlns="http://www.w3.org/2000/svg" xmlns:xlink="http://www.w3.org/1999/xlink" x="0px" y="0px"
	 width="360px" height="360px" viewBox="0 0 360 360" enable-background="new 0 0 360 360" xml:space="preserve">
<path fill="#B5B5B5" d="M319.243,91.489c-10.06,4.461-20.868,7.477-32.216,8.832c11.582-6.941,20.476-17.934,24.663-31.031
	c-10.837,6.428-22.841,11.096-35.617,13.611C265.841,72,251.264,65.188,235.132,65.188c-30.978,0-56.091,25.113-56.091,56.088
	c0,4.396,0.496,8.677,1.452,12.783c-46.615-2.34-87.944-24.669-115.608-58.604c-4.828,8.284-7.594,17.919-7.594,28.198
	c0,19.459,9.902,36.626,24.952,46.686c-9.194-0.291-17.843-2.814-25.405-7.016c-0.004,0.234-0.005,0.469-0.005,0.705
	c0,27.176,19.334,49.846,44.993,54.998c-4.707,1.281-9.662,1.968-14.777,1.968c-3.614,0-7.128-0.353-10.553-1.007
	c7.138,22.283,27.852,38.5,52.396,38.953c-19.196,15.043-43.381,24.011-69.659,24.011c-4.527,0-8.992-0.267-13.38-0.783
	c24.822,15.914,54.305,25.199,85.979,25.199c103.169,0,159.585-85.468,159.585-159.587c0-2.432-0.056-4.85-0.162-7.255
	C302.213,112.616,311.723,102.737,319.243,91.489z"/>
</svg>
